/* XPM */
static char *_640178644529[] = {
/* columns rows colors chars-per-pixel */
"80 80 129 2 ",
"   c #355056",
".  c #3B5256",
"X  c #375259",
"o  c #3A545A",
"O  c #464D4D",
"+  c #474F50",
"@  c #485253",
"#  c #435857",
"$  c #455759",
"%  c #43595E",
"&  c #4B595A",
"*  c #545D5D",
"=  c #585F5E",
"-  c #5D615F",
";  c #465C62",
":  c #4A5F63",
">  c #4C6065",
",  c #4E646A",
"<  c #546266",
"1  c #5D6260",
"2  c #51666B",
"3  c #5A676B",
"4  c #54696F",
"5  c #5C6A6E",
"6  c #576B70",
"7  c #5B6E72",
"8  c #5D7075",
"9  c #656562",
"0  c #6A6763",
"q  c #6D6964",
"w  c #736C65",
"e  c #796F68",
"r  c #7E7269",
"t  c #607277",
"y  c #63757A",
"u  c #66797D",
"i  c #6A7A7E",
"p  c #83756B",
"a  c #8D7A6E",
"s  c #927C6F",
"d  c #967E71",
"f  c #6DD74E",
"g  c #6AD949",
"h  c #72DE4B",
"j  c #79DF4B",
"k  c #6ED650",
"l  c #6FDB50",
"z  c #71D554",
"x  c #72DB53",
"c  c #7ADD52",
"v  c #77D758",
"b  c #75DB59",
"n  c #75E14C",
"m  c #7BE44D",
"M  c #7EE94E",
"N  c #7BE351",
"B  c #7FE950",
"V  c #7DDF60",
"C  c #A4A457",
"Z  c #AAA957",
"A  c #B8B458",
"S  c #BEB958",
"D  c #9C8273",
"F  c #A28675",
"G  c #AE8C79",
"H  c #B18E7A",
"J  c #B6907C",
"K  c #BD957E",
"L  c #C0967F",
"P  c #82DC54",
"I  c #83E44C",
"U  c #89E64D",
"Y  c #82EB4F",
"T  c #8DEA4E",
"R  c #93EC4E",
"E  c #9AEE4F",
"W  c #87F14F",
"Q  c #93F04F",
"!  c #9DF24F",
"~  c #82E454",
"^  c #8BE454",
"/  c #82EB50",
"(  c #8DEC50",
")  c #80E358",
"_  c #86E859",
"`  c #92E556",
"'  c #95ED50",
"]  c #9AEE51",
"[  c #9FEA58",
"{  c #85F050",
"}  c #95F251",
"|  c #9DF151",
" . c #A4F452",
".. c #A8F652",
"X. c #ADF953",
"o. c #AEF558",
"O. c #B3FC55",
"+. c #84D973",
"@. c #89DE77",
"#. c #89E56B",
"$. c #93EC72",
"%. c #99EC7B",
"&. c #6D7D81",
"*. c #707F83",
"=. c #728286",
"-. c #768588",
";. c #79878B",
":. c #7D8A8E",
">. c #7E8C90",
",. c #818E91",
"<. c #849194",
"1. c #899497",
"2. c #8A979A",
"3. c #8E9A9D",
"4. c #929B9E",
"5. c #959EA1",
"6. c #96A0A3",
"7. c #9BA4A7",
"8. c #9CA6A9",
"9. c #9EB0A7",
"0. c #ABB3B5",
"q. c #AFB7B9",
"w. c #C29780",
"e. c #C59981",
"r. c #91DF82",
"t. c #97DF89",
"y. c #9BEA80",
"u. c #BAC0C2",
"i. c #CAD0D1",
/* pixels */
"g g g g g g g g g B M n B n n g g g g M m g I I Q n T n T g g g g g g g j g g g g g g g M h h M m n W n g g g g g g g g g g g g g g g g Y U ..I E R j g g g g g ",
"g g g g g g h g g M m m B n M g g g g g Q g I m Q m T T j g g m h g g j E h g g g g g g n / h M B f B g g g g g g h g g g h m g g g g g g g R h U g g g g n g g ",
"g n g g g m g g g n m n B g g g g g g g Q g M I E n T W j g g I R h g E I g g g h m g g g Y h M m h M g g g E U g h m g g M g g g g g g g g g g g g g g n W h g ",
"g n h g h B g g g g g g n g g g M n g g n g m I T n U h g g g g ! j I X.I g g g m M g g g g h m M h h g g h X.E g g I g n { g g g g g m g g g g g g g g g h g g ",
"g n M g Y M g g g g g h n g g g B M g g g g g g h g g g g g g h E  .U E g h h g g g g g g g g g g g g g g g g h g g Y B M n g g g g g n M g g n m g g g g g g g ",
"n n M h M g h n g g g  .X.g g g g g g g g g g g g g g g g g I R I ..U R I X.R g g g g g g g g g g Y I g g g g g n m g M m n n / h g g g m g g Y n g g g g g U g ",
"n n M n M h M M g g g U T g M } g g g g g M n g g g g g n g g E I ..U R  .R g g g g g g g g g g g ....g g g g g g Y g M m n / n g g g g n n B N g g g g g U ..g ",
"f M M h B n M g g g g g g g ' O.h g g g g n B n g g g g g g g Q I ..U R  .h g g g g g g g g E g g j m g g g g g g / n M m n / g g g g g m n / h g g g g g R T g ",
"g M m n I h j g g g g g g g g h g g g g g g n n g g g g g g g R I ..U E Q g g g g  .h g g | j g g g g g M Y g g g M g B m n B g g g g g h h m g g g g h g E j I ",
"h n M h Y h h g g n g g g g g g g g g g h g g M n g n n g g g g g E P U g g g g g !  .g I ] g g g g g g n Y g g g g g n n h g g g g g g g g g g g g f E I E I ..",
"g g h g h g g g g g g g R U g g g g g n B n g M g h m g g g h g g g g g g g g g g h O.I  .j g g g g g g g g g g g g g g g g g g g g h U g g g g g g g j E E I X.",
"h T g g g g g g g g g R X.j g g g g g g n { n B n M M g g g g g g g g g g g g g g g R E | h g g g g g g g g g g g g g g g g g g g g E  .g g g g h g g I ] E I ..",
"g h g g g g g h g g h ! m g g g g g g g g n m B n M g g g g g g j I g g g g g g g g I R E j g g g g T T g g h g g g g g g g g g g g  .j g g g g g h g g h g g h ",
"g g g g I g g R I g E I g h I h g g g n g g M B n M g M g g g g g m M h W M g g g g g g g g g g g g n Q I n Q Y g g g g g g g g j g ..h R I g g g R h g g g g g ",
"g g g g U g g g  .g E I h E ..j g g g M h h M n n B n n g g g h g g M m m g g g n g g g g g g g g m g m I Q M g g g g h g g g h E j  .U E g g j g g g g g g g g ",
"g Y h g g g g g X.R E U E X.j g g g g B h h M M n / n m g g g M I n M m n g g g g g g g g g n g g Q T I Y R g g g g g Y m g g g R U ..U E g g h h g g h n g m m ",
"Y Y g g g g h g I ! ] U  .h g g g g g g g h j j h B g g g g g g B n M M n g g g g g g g g g g g g h Q I I R g g g g h M g g g g T U ! I E g g g m g h I m g g Y ",
"Y g g g g g U T j  .E U ..g j E h g g g g g g g g g g g g g g g m g M n h g g g g g g n n g g g g g T M Y R h g g g g M g M g g g g g g g g g g n n n Y g g g h ",
"Y f Y n g g g  .I | R U ..g E U g g g g g g g g g n g g g g U g g g n n g g g m g g g h W g g g g g g n m M g g n m g M m n g g g g g h g g g g n n M m g g g g ",
"Y m M g g g g  .m  .E U ..g R I g g g g g g g g m / g g g g m g g g g g g g n { n g n g M h g g g g g g g g g g g M n M m n g h n g g h g g g g m n M g g T n h ",
"Y n n g g g g h h | R U  .g h g g g g g @.@.t.r.$.V x l g g g g } g g g g g g h g g n m M h n n g g g g g g q.2 4 B f n n n g g g g g g g g h R g g g g g h g g ",
"M g g g g g g g g g g g g g g g g n { n f z x x / f n n g g g g g g g n g g g g g g n m M g M g g g g g g 4 4 8 u g g g g g g g n h g g g g g g g g g g j g g g ",
"g g g g n h g g g g g g g g g g g g M g g g m g M h n g g g g I R g g g g g g g g g h m M n m g g g U y > >.g g g g g g g g g n Q T g h m h g g g g g h U g g g ",
"g I m g W m g g g g g g g g g g g g g g g g n m Y h m g g g g I X.! g Y | h g g g g g g n g g g g g 1.. 7.g ! T g g g g g g g g n Q j T Q h g g n n g g g g g g ",
"g g h g h g g g g g h I h g g g g g g g g g j n M h m g g g g g j ..I ..T f g g h g g g g g g g g h i 7.R ! ..h g g g g g g g T g W m Q g g g g g M g g g n h g ",
"g g g g g h h g g g g m / g M B g g g R h g g g g g g g g g U R h ..U E g g g g R h g g g g g g g 5.. U R  .h g g g m h g g g Q I Q n Q g g g g g M n g n n g g ",
"h I g g h R I g g g g g B n { f g g g g g g h g g g g g g g m X.I ..U E g g h g g g g g g g g g g 6.: R R ! h g g g X. .g g g m I Q n ( g g g g g n W f M n g g ",
"j ..I g j E g g g n Y h / n n g g g g g g g h g g g g g g g g R U  .U R g g h g g g g g g n g g g 8.7.T R  .h g g g T I g g g h n Q m ( g g g m n g M n M n n g ",
"g E R f ! j g g g g M n Y h m g g g U  .m g g g g g g n I g g h h  .U T g g g g m g g g m n g g g 4.: R U  .g g g g g g g g g g g h g h g g g n Y n M n M n n g ",
"g U X.I ..g g g g g n h Y n m g g g g E X.g g g g g g m Y g g g g g g g g g g g g / g g M g g g g 6.o g g g g g g g g g g g g g g g g g g g g g n m M h M m g g ",
"g g E I ..g g g g g g g m g n g g g g g E I g g m g g g g g g g g g g g g g g g g / n m M g g g g 8.X 8.g g g g g g g n h g n Y n g g g h h g g n n B n M M g g ",
"g g I h U g g g g g g g g g g g g E U g g ..g U R g g g g g g n f g g g g g g h g n M m n g m n g g i > g g g g g g g M M h Y n g g g g g g g g h h M h M n g g ",
"g g g g g g g g g g g g g g g g g R X.U h  .g ! m g g m g g g M I g g g g ! g g M g / n n M / h g g 2.o <.g g g g g g g M n B g n n g g g g g g g g h g h g g g ",
"g B n g g g g g / n g g g g g g g g R X.I ..U X.j g g g g g g g Y h g g g g g g Y g Y m n / g g g g n =.8 g f M g g g g n n B h B h g g g } X.g g g g g g n T g ",
"h M n g g g g M M g g g g g g g I g g ! I  .T ` g I g g g g m f I g g g g g g g M n B m n B g g g g g M , -./ m g g g g m n B n m g g g g ( | g g g g g g n m g ",
"g g g n g g n n g g g g g g g g ` U g E I  .R T R T g g g g n n M h M h g g g g n g Y m n n g g g g g n 3.o >.g g g g g m n B h h g g n g g g g g g R T g g g g ",
"g g g n M g M n g n M f g g g g h  .g E I  .` T  .h g g g g n n B h B g g g g g g g f g g g g g g g g h n 6.  >.g g g g g g n g g g g h g g g g g g ....g g g g ",
"g g g g B g m h n / m g g g g g h E g  .I  .T U | h g g g g n n B h m g g g h g g f g g g g m O.U g g h n M 5.  g g g g g g g g g f h g g g g g g g h h g g g g ",
"g g g g M M m n B m g g g g h h g g g R j ' U I g g g g g g g g g g g g g h T g g f g g g g h  .M g g g g g g ,.&.g g g g g g g g n / h g g n g g g g g g j h g ",
"g g n g g M M n B g g n g g I m g g g g g g g g g g m g g g g g g g g h g g g g h g g g g g g g g g g g g g g 0.o 8 ( Y g g n g g g n B h M m g j j g g j R h g ",
"g g g m h M n n Y g h n g g g g g g g g g M n g g g W n 2 > > > g g g g g g g g h m g g g m g g g g g g g g g g 6., i.I g g g g h h x ) m N f f c ] j f U ` k f ",
"g g g M n M M h Y g m n g g n f g g g g g T M g g g g 5 # w w & ; q.g b b N g g g / g g M g g g g g g g g g g g g =.8 g g g g g m _ v ~ c c z z k [ P P o.` z z ",
"g g g n h M n n Y g n h g g g g g j Y h g g g g g g g > d w.w.D & 7 g q.0.*.                2 g g B U g g E I g ' =.7 h I h g g g P x ~ c h z v c ` o.P [ z P P ",
"g g g g g n n g m g g g g g g g g U h g g g m T h g i * K e.e.e.D > <.X   q d d d a d d s s p     :.9.g g g  .g ] u.4 0. .j g g g j x Y N N l c [ j  .^ [ I o.` ",
"n g g g g g g g g g g g g m g g m h g g g g U O.m g i & K e.e.e.K * = D F J e.e.w.e.e.e.w.e.w.F s *   >.g h ..T E I 5 &.m g g g g g g g g g g g U T  .U | E R g ",
"g g g g g g n h g g g g g n n g Y g g m M g h m g g &.* L e.e.e.w.G H e.e.e.e.e.e.e.e.e.e.e.e.e.w.H q   -.x U  .E 1.6 j g h g g g g g g g g g g R U ..I ! ! m g ",
"g g h n g g g g g M U g g n M g Y g M Y g g g g g g &.& L e.e.e.e.e.e.e.e.e.e.e.e.e.e.e.e.e.e.e.e.e.w.0 X <.j  .E y -.g h E h g h h g g g g g g U U  .I ! R n g ",
"g g M Q M g n M g g g g g g M n Y n Y h g g g g +.g 8 * K e.e.e.e.e.e.e.e.e.e.e.e.e.e.e.e.e.e.e.e.e.e.J $ i ^ ,.o >. .g E I g g g g g g g g g g g g T j I g g g ",
"g g g m Q n Q T g g g g n g n n M n m g l N l g ;.X w a L e.e.e.e.e.e.e.e.e.e.e.e.e.e.e.e.e.e.e.e.e.e.w.p       1.I ..g E I g g g g g g B h g g g g g g g g g g ",
"g m I g E m T g g g g g h m n n M n M g y.b g ;.X e H p a L e.e.e.e.e.e.e.e.e.e.e.e.e.e.e.e.e.e.e.e.e.e.H X -. .R I ..g h h g g g g g g m B g g g g g g g g g g ",
"g m ! m Q m I g g g g g h M m n M n m g %.l ;.  r G r # $ D L e.e.e.e.e.e.e.e.e.e.e.e.e.e.e.e.e.e.e.e.e.J 1 8.g g g g g g g g g g g g g g m h g g g g g g M { g ",
"g g T n Q M I g g g g g g n m n / n m g #.g % q J p $ A C # D e.e.e.e.e.e.e.e.e.e.e.e.e.e.e.e.e.e.e.e.e.K D < g g g g g g h h g g g n n g g B g n m g g g n M g ",
"g g h h Q m I g g g I m g g h g n g h g x y 9 L w.w # S Z   a L e.e.e.e.e.e.e.e.e.e.e.e.e.e.e.e.e.e.e.e.e.F   n g g g g g Y Y g g g n { n g / g n n g g g g g g ",
"g g g g h g g g g g n g g g g g g g g g g > p L w.a # . . & D e.e.e.e.e.e.e.e.e.e.e.e.e.e.e.e.e.e.e.e.e.e.F   g g g n g g g h g g g g n / n / g B n g g g g g g ",
"g g g g h g g g g g g g g g h g g g g g 4 $ F L w.w.a r r D L e.e.e.e.e.e.e.e.e.e.e.e.e.e.e.e.e.e.e.e.e.w.r i g g g g g g g g g g g g g m n B h M g g g g n g g ",
"g g g g m g g g g h h g g m I g g g h g g : q L e.e.e.e.L e.e.e.e.e.e.e.e.e.e.e.e.e.e.e.e.e.e.e.e.e.e.e.G X 7.g g g g g g g h g g n n g m n / h M n m g g g g g ",
"g g g g g g g g m Y h g g g g g g h U j g j : 0 r H w.w.w.e.e.e.e.e.e.e.e.L e.e.L e.e.e.e.e.e.e.e.w.K r - =.g g g n g g g n n g g g M g m n / n m m g g g g g E ",
"n W g g g g g g Y h g g g g g g g g I m g Q T : % - - - r K K K w.e.K L L K L L K K L L L L K K D - - & t M g g g B M g g M g g g g M g m n Y n m m h g g g g X.",
"..g g g M g g M g g g h g g g g g h I Q n Q g h n 7 7 8 2 & & & & $ & & @ + + + O @ @ + @ @ & & > 8 8 g g g g g g g M g n n g g g g g g n n m g m g g g h g g ..",
"X.g g g g M h M h g M Y g g n g g W n Q j Q h R ( g g g B u 8 u u y y y 1 3 7 5 5 5 5 3 5 t t u g g g g g g g g g g M M m n g g g g g g g g g g g g g g I R h ..",
"X.g g g h B h M g M M h g g g g g n T T n Q I T h g g g n g n f g g g g g h T Y m Q m U g g g h n g g g g g R T g g g M m n g g g g g h U g g g g g g g g ! I ..",
"I g g g g m n M h W g g g g g g g n T T m Q I m g g g g g g g g g g g g g g h U m ' h h g g g n / n g g g g X.! g g g g f g g g n g g h n g g g g g g g g Q m ..",
"g g g m g m m M h M g g n g g g g n T T n Q m m g g g g g g g g g g g g g g g h g h g g g g g g g g g g g g n h g g g g g g g g g g g g g g T g g g g g g h g n ",
"g g g g B n m M h M g M g g g g g g g I h U g g g g g g g g g g g h g g j I g g h g g g g g g g g g g m g g g g g g g g g g g g g g g g g g T Q g g g g g g g g ",
"g g g g m n m M h m g M g g g g g g g g g g g g g g g h n g g g I Y g g ! X.g g m m g g g n g g g g h E m g g j m g g g g g g g m h g g m h h R g g g g g g g g ",
"g g g g h n m M g m g h g g U m g g g g g g g h N g n / n g g g h h g g I I g g g I g g n n g g g g g T R g h E j g g h I g g Y M g g g h Y h Q g M g g g g g g ",
"g g g g g g g g g g g g g g h | h g g R h g g g Y Y n m g g g g g g g g g g g g g Y M g M h g g g g g I X.j I ! g g g g m W g Y g g g g g T m R M I g g g M h g ",
"g h g g g g g g g g g g g g g  .U g R U g g g g g / n m n B g g g m j g g g h h g g M n M h h g g m m g ! U ..R h h g g g M n M h B g g g T m Q I M g g g n M g ",
"n M h g g g g g g g g g g g g U X.j  .U g g g g g B n n B m g g g X. .g g g h M M h W n n n n g g R ..U E U  .j R h g g g M n M n M g g g m h I n n g g g g M n ",
"M m g g g g g g g g g g h | U g  .U  .j R g g g h / n n M g g g g I I g g g g g M h M n n M g g g g R E E U ..U R g g g g M h M m n g g g g g g g g g g g g n W ",
"W g g m g g g !  .g g g g U X.U ..I E E I g g g g B n n g g g g g g g g g g g g M h M m n Y g g g g I E E I ..U T g g g g m n M g g g g g g g g g g g g g g g M ",
"W g M h g g g Q  .g g g g g R U ..U E E j g g g g g g g g g g g g g g h g g g g M h M n n m g g g g j E E I ..I Y g g g g g g g g g g g n g g g g n h g n M h M ",
"M m M h g g g g g g g g g g } U  .U E E j g g g g g g g g g I g g g g I T g g g g g n f g g g g g g g g I j R g g g g g h g g g g n g g g g g g g g g g g M h M ",
"M n n g g g g g g g n g g g m h ..I E I h g h h g g g g g h I g g g g h Q h g g g g g g g g g g g g g g g g g g g g g g m Y g g g h g g g g g g g U h g g m h M ",
"B g g g g I Y g g g g g g g g g j h h g g g g g g n } m g g g g g h I h Q g g h g g g g g g g g g g g g g g g g g g g g g Y g g g g g g U U g g U U h g g g g I ",
"g g g g g g g g g g g g g n g g g g g g g g g g g } Y g g g g g g g M I Q h m m g g g g g g g g g g g g g m h g g g g n g M n g g g g g f E j g E U g g g g g g ",
"g g g n n g g g m n g g B g g g g g g g g m g g m I g g g g g g g g n U R n T g g g Y g g g g g g h Y g g ..X.g g g g n m M g m h g g g g | R I X.I g g g g g g ",
"g g g W M g g g g m g m B g g g g g h g g I m g Q g g m U g j I g g m U R n Q g g g U g g m n g g I n g g U U g g g g n n M h Y g g g n I Y ..I E g R R g g g g ",
"g g g g g g g g h W h M n g g g g g g g g m T g Q g m ! m g h h g g h g n g n g g g g g g h B g h Y g g g g g n M g g n m M g Y g g g g R U ..I E E X.I g g g g ",
"g m g g g g g M h n n M g m { h g g g g g n Q I R m ! I g g g g g g g g g g g n g g g g g g / m M h g g g g g g Y h g g g g g g g g g g T T ..I E E I g g g j g "
};
