/* XPM */
static char *cm9vZjI_[] = {
/* columns rows colors chars-per-pixel */
"80 80 203 2 ",
"   c #150A04",
".  c #1C1306",
"X  c #241301",
"o  c #2A1907",
"O  c #2A140A",
"+  c #341C04",
"@  c #271C18",
"#  c #2C210A",
"$  c #34230C",
"%  c #2B2316",
"&  c #2C241C",
"*  c #352515",
"=  c #3C2B15",
"-  c #352A1B",
";  c #3B2D1C",
":  c #3C321D",
">  c #2C2523",
",  c #362C27",
"<  c #3B2D23",
"1  c #322D2B",
"2  c #3D3223",
"3  c #35342A",
"4  c #3D342B",
"5  c #3C3533",
"6  c #3A3F3B",
"7  c #462D15",
"8  c #412E1B",
"9  c #43321C",
"0  c #493518",
"q  c #503414",
"w  c #422F24",
"e  c #433423",
"r  c #4A3623",
"t  c #453925",
"y  c #4B3B24",
"u  c #43352C",
"i  c #49362C",
"p  c #443A2C",
"a  c #4C3D2C",
"s  c #533C24",
"d  c #533E2B",
"f  c #443635",
"g  c #443A33",
"h  c #4C3C33",
"j  c #463A3A",
"k  c #4A3D3B",
"l  c #523E34",
"z  c #4B4227",
"x  c #4D412D",
"c  c #594525",
"v  c #54422C",
"b  c #5B452D",
"n  c #5C4A2D",
"m  c #4D4132",
"M  c #46433A",
"N  c #4D423D",
"B  c #544333",
"V  c #5B4633",
"C  c #554A34",
"Z  c #5C4A34",
"A  c #54443C",
"S  c #5A4639",
"D  c #53493E",
"F  c #5C4A3A",
"G  c #5A5238",
"H  c #61462D",
"J  c #664B28",
"K  c #624A2E",
"L  c #68542B",
"P  c #604732",
"I  c #644B33",
"U  c #694E35",
"Y  c #634D3A",
"T  c #684D3A",
"R  c #6B5236",
"E  c #65523B",
"W  c #6C543B",
"Q  c #775A36",
"!  c #71563D",
"~  c #72593E",
"^  c #473E41",
"/  c #355056",
"(  c #3B5256",
")  c #375259",
"_  c #3A545A",
"`  c #4B4545",
"'  c #464D4D",
"]  c #534543",
"[  c #584746",
"{  c #544A44",
"}  c #5B4B44",
"|  c #554B4A",
" . c #5B4C4B",
".. c #5B5349",
"X. c #474F50",
"o. c #4A5253",
"O. c #445659",
"+. c #4B595A",
"@. c #5B5654",
"#. c #555D5D",
"$. c #624E45",
"%. c #6C5541",
"&. c #6D5A42",
"*. c #655649",
"=. c #715641",
"-. c #755B43",
";. c #755E4B",
":. c #655554",
">. c #695656",
",. c #665955",
"<. c #695A56",
"1. c #685758",
"2. c #665A59",
"3. c #6B5A5A",
"4. c #5D615D",
"5. c #786449",
"6. c #6C615C",
"7. c #766A52",
"8. c #7A6855",
"9. c #71635E",
"0. c #485E63",
"q. c #6F5E60",
"w. c #4C6165",
"e. c #4E646A",
"r. c #57676A",
"t. c #576B70",
"y. c #5B6E72",
"u. c #5D7075",
"i. c #6C6462",
"p. c #6B6864",
"a. c #736363",
"s. c #756965",
"d. c #796A68",
"f. c #7C7369",
"g. c #63757A",
"h. c #67787D",
"j. c #797876",
"k. c #866D56",
"l. c #83756B",
"z. c #8A7669",
"x. c #927C6F",
"c. c #8C7E71",
"v. c #967E71",
"b. c #7B8177",
"n. c #6DD74E",
"m. c #6AD949",
"M. c #72DE4A",
"N. c #79DF4B",
"B. c #6FD552",
"V. c #75E14C",
"C. c #7BE44D",
"Z. c #7EE84E",
"A. c #7FE950",
"S. c #B1AF58",
"D. c #8A867B",
"F. c #9C8273",
"G. c #94867A",
"H. c #A68876",
"J. c #B18E7A",
"K. c #B6907C",
"L. c #BD957E",
"P. c #C0967F",
"I. c #81DC55",
"U. c #82E44C",
"Y. c #89E64D",
"T. c #82EB4F",
"R. c #8CEB4E",
"E. c #93ED4F",
"W. c #9AEE4F",
"Q. c #87F14F",
"!. c #93F14F",
"~. c #9EF14F",
"^. c #8BE652",
"/. c #82EC50",
"(. c #92E456",
"). c #94EC50",
"_. c #9BEE51",
"`. c #95F251",
"'. c #9CF150",
"]. c #A4F452",
"[. c #A8F653",
"{. c #ACF953",
"}. c #AFF659",
"|. c #B3FD56",
" X c #83DA6C",
".X c #6D7D81",
"XX c #78868A",
"oX c #7E8C90",
"OX c #848788",
"+X c #918F8D",
"@X c #818E91",
"#X c #889498",
"$X c #AB9987",
"%X c #AEA593",
"&X c #959EA1",
"*X c #99A3A5",
"=X c #9CA6A9",
"-X c #ACB4B6",
";X c #B2B9BB",
":X c #C29780",
">X c #C59981",
",X c #BAC0C2",
"<X c #CAD0D1",
/* pixels */
"m.m.m.m.m.m.m.m.M.A.C.V./.V.V.m.m.m.m.Z.V.m.U.U.!.V.R.M.R.m.m.m.m.m.m.m.N.m.m.m.m.m.m.m.C.M.m.Z.Z.V./.C.m.m.m.m.m.m.m.m.m.m.m.m.m.m.m.m.Y.Y.].U.W.W.N.m.m.m.m.m.",
" Xm.m.m.m. Xm.m.m.Z.Z.V.A.V.C.m.m.m.m.m.!.m.U.U.!.V.R.R.M.m.m.U.M.m.m.U.E.m.m.m.m.m.m.m.V.T.V.C.Z.m.T.m.m.m.m.m.m.M.m.m.m.M.C.m.m.m.m.m.m.m.E.V.Y.m.m.m.m.V.m.m.",
"> 1 1 1 , > > @ ` V.C.V.A.m.M.m.m.m.m.m.!.m.Z.U.W.V.R.R.N.m.m.U.E.M.m.W.U.m.m.m.V.C.m.m.m.T.V.Z.Z.V.T.m.m.m.W.Y.m.M.N.m.m.T.m.m.m.m.m.m.m.m.m.m.m.m.m.m.V.Q.M.m.",
"o.| | ' ^ ` ` ` i.m.m.m.M.m.m.m.Z.C.m.m.V.m.U.C.R.V.R.M.m.m.m.m.].N.C.{.U.m.m.m.C.T.m.m.m.m.M.C.V.M.m.m.m.M.{.W.m.m.T.m.C.T.m.m.m.m.m.V.m.m.m.m.m.m.m.m.m.M.m.m.",
"2.q.>.:.2.6.a.i.@.@ o.M.V.m.m.m.Z.Z.m.m.m.m.m.m.m.m.m.m.m.m.m.M.~.[.Y.W.m.N.N.m.m.m.m.m.m.m.m.n.m.m.m.m.m.m.m.M.m.m./.C.C.V.m.m.m.m.m.V.C.m.m.V.V.m.m.m.m.m.m.m.",
">.3.>.3.3.i.2.@.o.6 | OX+Xm.m.m.m.m.m.m.m.m.m.m.m.m.m.m.m.m.U.E.N.].Y.E.U.{.E.m.m.m.m.m.m.m.m.m.m.U.U.m.m.m.m.m.V.C.m.Z.C.V.V./.V.m.m.m.C.m.m./.V.m.m.m.m.m.U.m.",
"9.a.9.9.a.6.:.] `  .^ > | m.U.`.m.m.m.m.m.C.V.m.m.m.m.m.V.m.m.W.Y.].Y.E.].Y.m.m.m.m.m.m.m.m.m.m.m.{.[.m.m.m.m.m.m.T.M.Z.C.V./.V.m.m.m.m.C.V.C.T.m.m.m.m.m.U.[.M.",
"3.q.3.9.a.i.1.[ @.f :.5 5 m.).|.V.m.m.m.m.V./.V.m.m.m.m.m.m.m.W.Y.].Y.W.].M.m.m.m.m.m.m.m.m.E.m.m.C.C.m.m.m.m.m.m.A.M.Z.C.V./.m.m.m.m.m.V.V.T.m.m.m.m.m.m.E.R.m.",
"8.9.k.a.a.a.3. .| ] ` f  .m.m.M.m.m.m.m.m.m.V.V.m.m.m.m.m.m.m.E.Y.].Y.W.E.M.m.m.m.].N.m.m.].M.m.m.m.m.m.C.Q.m.m.m.Z.m.A.C.V.Z.m.m.m.m.m.N.M.C.m.m.m.n.M.m.W.U.U.",
"3.>.>.:.>.3.1.>.3.s.$.` ^ , f m.m.m.m.m.V.m.m.Z.V.m.V.V.m.m.M.m.m.W.I.Y.m.m.m.m.m.W.].m.U._.n.m.m.m.m.m.V.Z.m.m.m.m.m.V.V.V.m.m.m.m.m.m.m.m.m.m.m.m.m.W.N.W.U.[.",
">.:.:.:.>.>.>.q.s.d.3.k f & g m.m.m.m.V./.V.m.Z.m.V.C.m.m.m.m.m.m.m.m.m.m.m.m.m.m.M.{.U.~.N.m.m.m.m.m.m.m.m.m.m.m.m.m.m.m.m.m.m.m.m.n.Y.m.m.m.m.m.m.m.N.~._.U.[.",
",.>.>.3.>.>.3.a.q.q.a.f f $.N O % . # m.V.T.V.Z.V.Z.C.m.m.m.m.m.m.m.m.m.m.m.m.m.m.m.E.W.~.M.m.m.m.m.m.m.m.m.m.m.m.m.m.m.m.m.m.m.m.m.~.].m.m.m.m.N.m.m.U._._.U.].",
":.:.2.2.1.1.3.i.d.a.1., i } } m t C 3 m.m.V.Z.Z.M.Z.m.m.m.m.m.m.N.U.m.m.m.m.m.m.m.m.U.E.W.N.m.m.m.m.R.R.m.m.M.m.m.m.m.m.m.m.m.m.m.m.].N.M.m.m.m.m.M.m.m.M.M.m.M.",
"2.@.,.@.:.3.3.3.q.a.9.k h p h B t 7.z . # . . Z.V.Z.m.Z.m.m.m.m.m.C.Z.M.T.Z.m.m.m.m.m.m.m.m.m.m.m.m.M.!.U.V.!.Y.m.m.m.m.m.m.m.m.N.m.].N.E.C.m.m.m.Y.N.m.m.m.m.m.",
"i.i.3.2.2.i.i.@.1.:.$.w u F *.F x 9 G C G C t D.+X+XD.V.m.m.m.V.m.m.T.V.Z.m.m.m.V.m.m.m.m.m.m.m.m.Z.m.C.T.!.T.m.m.m.m.m.m.m.m.M.W.N.].Y.W.m.m.V.m.m.m.m.m.m.m.m.",
"3.d.p.3.i.d.1.k A [ k i V S B V G v n &.&.7.G : o #   C.m.m.m.Z.T.M.T.C.V.m.m.m.m.m.m.m.m.m.N.m.m.!.R.U.U.E.m.m.m.m.m.T.C.m.m.m.).Y.].U.W.m.m.N.C.m.m.m.V.m.V.C.",
"i.s.i.3.d.s.:.` D D } u u F W v Z n G W E W ~ E W E V 8.5.>.V m.Z.M.Z.Z.V.m.m.m.m.m.m.m.m.m.m.m.m.M.!.C.T.E.m.m.m.m.m./.m.m.m.m.E.U.~.U.E.m.m.M.V.m.m.Y.C.m.m.T.",
"q.a.3.3.a.a.:. .{ M A i S S S V z z c W W W ~ W I W k.y o $   $XC.M.Z.V.M.m.m.m.m.m.m.V.C.m.m.m.m.m.R.U.U.!.M.m.m.m.m.Z.M.C.m.m.m.m.M.m.m.m.m.m.V.V.V.T.m.m.m.V.",
"1.1.1.1.p.3.2.i.s.<.,.h u * * l ~ G n ~ ~ L ~ W 5.I U E Y *.*.C z M # b.m.m.m.C.m.m.m.V./.m.m.m.m.m.m.V.V.U.m.m.V.C.m.A.C.V.m.m.m.m.m.V.m.m.m.m.C.V.Z.C.m.m.m.m.",
":.1.:.1.1.@.2.d.9.s.<.p e * * l c z z E ~ E W R W W -.8.%.Y z.Z % 3 o f.m.m.V.T.V.m.V.m.Z.V.m.m.m.m.m.m.m.m.n.n.m.A.V.Z.C.V.m.m.M.m.m.M.m.m.m.m.V.V.Z.m.m.Y.N.M.",
"1.1.:.1.2. .,.d.,.p.>.e S F i = X X $ I G.D.G.G.z.8.8.B 5.&.F $.6...p.G , & . | m.m.V.V.A.n.m.V.m.m.m.m.m.m.-Xe.t.A.m.V.C.V.m.m.m.m.m.m.m.m.m.E.m.m.m.m.m.M.m.m.",
":.:.:.:.1.:.2.d.1.f.s.u B $.B * = $ = n ~ E 5.7.T ~ -.W 8.$.E >.6.M *.5 , M 5 ..m.m.M.Z.A.M./.m.m.m.m.m.m.t.t.y.h.m.m.m.m.m.m.m.V.M.m.m.m.m.m.m.m.m.m.m.N.m.m.m.",
":.:.:.1.3.1.i.s.,.6.a.p i S } F *.I c n n n R K 5.~ W -.W V 8.Z F { D } D ` } ` f g 5 5 5 5 5 5 u f f h.0.oXj j 5 5 m.m.m.m.m.V.!.R.m.m.U.M.m.m.m.m.m.M.Y.m.m.m.",
"3.q.3.2.6.2.@.2.6. .*.h h S F V c n n E I I R I U n &.Y W 8.Z *.C N ..} ....] | :. .:.@.>.:.:. .| ,.#X_ =X .:. .@.5 m.m.m.m.m.m.V.!.C.E.R.M.m.m.V.V.m.m.m.m.m.m.",
"a.3.a.a.a.s.3.` N ] ] u w F $.V Z Z b E ~ W U R c b H U W &.%.$.Z } :.:.>.6.:.3.1.1.:.2.:.2.2.q.1.1.h.=X>.>.>.>. .f m.m.m.m.m.R.m.Q.V.!.M.m.m.m.m.Z.m.m.m.C.m.m.",
"d.a.s.a.i.a.3.` [ { A a a $.S d I n Z W ~ ! R R U R U Y Y Y Y F F Y >.:.<.6. .,.1.1.:.:.:.2.2.@. .&X_ >.>.>.>.3.:.^ N.N.m.m.m.`.R.R.V.E.m.m.m.m.m.Z.V.n.V.V.m.m.",
"a.q.q.a.i.q.2.| { { ] p h S S d F n V R =.! R ! =.=.=.U Z Z Z V A  .:.%.,.:.} :.2.1.1.1.1.2.2.2.1.*X0. .:.>.>.>.| 5 |.].m.m.m.C.Y.!.C.R.m.m.m.m.m.V.T.M.Z.V.m.m.",
"1.1.1.3.2.3.2.2.,.<.<.h h S F Y Y V Z E =.%.R R W ~ W Y U Y Y Y S $.>.:.:.*.A :.3.q.q.1.q.i.q.q.q.=X=X . .1.:.3.:., ^.U.m.m.m.M.V.R.V.E.m.m.m.C.V.m.T.V.T.m.V.m.",
":.:.:.:.:.:.p.i.6.d.9.p a V Y S Y V Y %.-.~ W =.U R U W %.=.&.$.]  .3.1.:.:.{ :.i.q.i.a.a.a.i.i.a.&X0.] :.3.>.>.] j m. Xm.m.m.m.m.M.m.M.m.m.m.V.T.V.T.V.Z.V.V.m.",
"1.1.:.:.:.:.2.d.,.6.>.2 A F S l b s V T =.~ ! ~ ~ ~ ! ! =.-.W Y l $.3.1.:.:.]  .d.d.d.d.d.a.d.d.d.*X_ | >.3.>.>.:.j 5 O m.m.m.m.m.m.m.m.m.m.m.m.V.V.Z.V.Z.C.M.m.",
"1.1.:.:.2.:.2.d.6.6.6.p F h l Y B d I T =.R R ~ ! ! ! ! &.~ E Y A  .>.:.<.:.] [ 1.1.:.:.2.1.2.2.1.*X_ *X>.>.>.>.[  ., > m.m.V.T.V.m.m.m.V.m.m.m.V.C.Z.V.Z.C.V.m.",
":.:. .:.3.:.@.s.s.6.9.2 u X $ l Y T W =.=.! W =.U ~ ~ ! E W %.%.F [ <.>.<.:.k ` f f f 5 5 5 5 k f j .X0. .>.>.3.k  .[ ` > . @   +Xm.m.m.m.m.m.m.V.m./.m.Z.V.m.m.",
"1.1.q.1.1.3.2.@.,.}  .a i i e 8 r r + =.-.T =.! ! Q ! R W W W G ]  .:.,.1.:.] ] , , , , , > 1 1 1 > #X_ oX3.$.>.$.[ l i m m 4 4 s.%X%XOXm.m.m.m.m.m.m.m.m.m.m.m.",
"a.a.a.q.s.s.2.{ ] { } u h S h ;   + O Y =.W =.W U ! U R ! -.W *.A :.1.1.1.:.] ` @ @ @ @ > @ @ @ @ @ { XXu.3.1.3.[ [ l i m m z t 2 % o   s.~.{.m.m.m.m.m.m.C.T.m.",
"a.a.a.a.d.d.:.` N N } < l $.F e i B r ! T P U U ~ ~ ! W ! ! W E l :.>.>.2. .[ [ @ @ > > > @ > > @ @ ` { t.XX:.<.[ } B h m m x x t a p : } b.f.f.+Xm.m.m.m.V.C.m.",
"a.a.a.i.a.a.2.|  .D A u l S Z A Y ! d U d H U U ! ! R R &.&.E Y A :.>.>.1.:.j k @ @ > @ @ > @ > @ & D { #X_ oX>.[ [ l h h m m B m m x D t o .   M m.E.R.m.m.m.m.",
"1.3.3.1.,.1.3.>.6.@.*.p h B F Y b Y l %.U =.W U H H R U &.&.&.} S  . .>.>.:.[ f @ @ > @ > @ @ @ @ & j ` :.*X/ oX} } l i h a x m z : C t 2 G g M p D @.[.m.m.m.m.",
":.1.:.:.@.:.6.p.6.s.a.p i F $.d Y Y I =.-.-.U P H H U U W W W E [  .:.>.>.>.[ j 1 1 @ > @ > @ > , , N { >.:.&X_ } [ k e a a a m y t x C z x m m M 3 6 M.m.m.m.m.",
":.1.1.:.:.:.3.p.6.s.9.a i F $.a S b s T T -.R ! U W E I I I F F l  .>.3.>.:.[ [ [  .[  .|  .o.] N N [ } ,.:.3.@X.X} h w i a a a n v # z Z e C p , < { m.m.N.m.m.",
":.2.1.1.2.2.6.6.s.>.:.i h S F V Y b b =.~ -.R =.! ~ R I b b I Y l :.>.3.>.3.[ [ [ [ ] [  . . .[ [ ] [ ] :.@.3.-X_ g.i w u a a y 7 z n 0 t x a x S % D m.C.E.N.m.",
":.:. .:.:.1.2.p.d.s.6.u h V S B S c S W -.-.! R W -.~ U r.0.w.w.[ $.3.>.:.:.1.1.1.1.1.1.:.:.1.:.,.3.3.3.3.3.,.,.*Xw.<Xa d - * ; t z c z y y y x p 2 } n.Y.(.B.B.",
"3.3.3.1.3.3.2.:.{ <.6.e h F $.V Y Z Z U ! R R ! W =.~ r.O.s.s.+.0.;X:.a.a.:.1.1.1.1.:.1.:.:. .:.} ,.<.<.,.,.:.,.{ XXu.p i t r u 9 9 9 9 y z v v t * } I.}.(.B.B.",
"s.a.q.a.a.a.:.| ] {  .e B F S B V c b W ! ! ! ! W ! ! w.v.:X>XF.+.y.3.;X-X.X) ) / ) ) ) ) ) e.:.,.>.>.>.:.2.,.,.} .Xy.p i h v a e : : 9 t y y a t * { I._.B.I.I.",
"s.q.q.a.d.a.@.| } N A u h ; e V Z b Z -.-.! U ! W ! h.#.:X:X>X:Xv.0.@X) / s.x.x.x.x.x.x.x.x.l./ / oX=X1.2.3.2.3.g ,Xt.-Xh B B a a t e 9 : r r e t & S I.].I.}.).",
"a.q.3.p.a.a.1.@.] N ..a u + * V Y c v K ~ R U R R T .X+.P.>X>X>X:X#.#.H.F.K.>X>X:X>X>X>X>X>XL.H.x.4./ oXs.s.s.d.> O t..Xl d i d a m m t t e 2 9 e & { U.~.W.E.m.",
"3.1.:.1.3.p.2.:.<.>.<.p h h e * $ + 7 K -.~ Q ! ~ R .X+.P.>X>X>X>XJ.J.>X>X>X>X>X>X>X>X>X>X>X>X>XL.K.p./ XXp.i.s.2 #Xt.N h h r B p p m m a t t t t % C U.W.W.U.n.",
":.:.:.:.:.:.2.i.s.s.,.i l *.B * o o 7 c -.! W ! W I h.+.P.>X>X>X>X>X>X>X>X>X>X>X>X>X>X>X>X>X>X>X>X>XL.p.) #X6.i.4 g.XXA h B r h g m m m m a a a a & { U.~.E.V.m.",
":.:.1.:.:.:.3.i.>.9.3.f h l S B E v s n H c J U G.W u.4.P.>X>X>X>X>X>X>X>X>X>X>X>X>X>X>X>X>X>X>X>X>X>XK.O..X@ #XO.oXu h i S d a m m g p a m a p z * { N.T.m.m.m.",
"3.,.:.:.:.:.q.q.a.a.3.u h $.} B G E c Z W K W U XX_ s.z.P.P.P.>X>X>X>X>X>X>X>X>X>X>X>X>X>X>X>X>X>X>X>X:Xf./ ( ) #X@ u a i d i d a h h x i p a p t & D m.m.m.m.m.",
"1.1.:.:.:.1.1.q.s.s.3.u h { F C v V b E G.5.U XX) f.J.l.z.L.>X>X>X>X>X>X>X>X>X>X>X>X>X>X>X>X>X>X>X>X>X>XK.( XX. 3 & i h a l y h m m a a a a x m p & D m.m.m.m.m.",
":.3.q.1.3.i.1.:.1.:.:.4 h } A S v n n W G.;.XX/ f.J.f.O.O.G.P.>X>X>X>X>X>X>X>X>X>X>X>X>X>X>X>X>X>X>X>X>XJ.4.=X@ < % : e i B B d m a a i x B m m g * D m.m.C.Q.m.",
"3.a.q.q.q.a.1. .[ ] [ u N { F F C n n R l.R O.s.K.l.+.S.S.+.F.>X>X>X>X>X>X>X>X>X>X>X>X>X>X>X>X>X>X>X>X>XL.F.e.4 @ . * < t a a a a a h a a a a m z & ` m.m.V.Z.m.",
"a.d.a.q.a.d.1.] ] ] } 4 k A A C C Z b E 5.g.i.L.P.s.O.S.S.( z.P.>X>X>X>X>X>X>X>X>X>X>X>X>X>X>X>X>X>X>X>X>XH./ 3 & % 2 t t t w 9 i a B m a a p m g - ` m.m.m.m.m.",
"a.q.q.q.q.q.1. .] [  .4 l A D A S n b W %.w.l.P.>Xz.O.( ( +.H.>X>X>X>X>X>X>X>X>X>X>X>X>X>X>X>X>X>X>X>X>X>XF./ < 2 - h x e 9 ; 9 t a l m a a a a p & { m.m.m.m.m.",
"1.1.1.1.3.3.1.1.:.>.:.u h { F S v Z b E e.+.H.P.>X>Xc.f.f.F.P.>X>X>X>X>X>X>X>X>X>X>X>X>X>X>X>X>X>X>X>X>X:Xl.h.4 2 ; a m r t r r t e e t i x p x z & ] m.m.V.M.m.",
":.:.1.1.:.:.3.a.a.d.a.i h ] } V Z Z Z E %.0.p.>X>X>XP.>XP.P.P.P.>X>X>X>X>X>X>X>X>X>X>X>X>X>X>X>X>X>X>X>XH._ *X< 3 - a x i v y v u < * ; e a a u g & D m.m.m.m.m.",
":.>.:.:.1.:.:.d.a.9.>.i f - * S Z Z I W %.&.w.i.l.K.P.P.:X>X>X>X>X>X:X>X>X>X>X>XP.P.>XP.>X>X>X>X>XL.P.f.#.XX3 u 2 2 x x x B d v a a a a t w ; ; 2 & D m.m.m.m.~.",
">.:.:.:.3.:.>.j.1.a.a.h e & - a G v B W -.W E 0.O.#.6.r.d.L.L.L.:X>XL.:XL.L.L.L.P.P.P.P.P.P.L.L.v.i.4.0.g.O < 2 - * t a t y a d a a h a i t e 2 p & ] m.m.m.m.[.",
"1.,.:.1.2.:.1.d.a.s.a.k h l h < o X + n -.=.! ~ R t.y.y.e.+.+.+.+.+.+.+.o.X.X.o.' o.o.o.o.O.+.+.w.y.u.h u * < 2 - - t m u v d h h x h a a a a p p & ] m.m.M.m.].",
"3.3.2.3.3.q.1.:.>.,.:.i k  .A - ; * 8 V %.W U R W R W W W h.g.g.g.g.g.g.r.r.y.t.r.t.y.t.p.u.g.h.l y u i i e < ; 2 : a x i B a d a a B a h a m m p * D m.U.E.N.[.",
"3.a.a.i.q.d.1.[  .] :.u h A { C *.E Z b b b I I Q ~ ! =.=.W ! W ! ! W W ! -.! U q b v t x m x C ; = - 8 : e : 2 : - a m a h a a a m B h a a a h p - { m.m.'.U.[.",
"a.a.d.a.q.a.q.k [ ] } p h D [ F v V S V I U U I I H I R ! W %.=.! W W ! ! ! ~ R b K v v v x a p t i y y * # # - 2 ; a m p B i h h a a a a a a x p , { m.m.`.U.].",
"a.3.a.a.q.q.q.[  .[ ` * h } D m B V Y %.-.=.R U c J H U W E W %.=.! %.T W ! ! ! d b v s v B m C v c v d $ X   o ; - p h a l h B v m a a a p z m g - { m.m.m.m.M.",
"q.:.1.q.q.1.q.1.,.1.>.u A } A F F B B Y -.=.W ! R I U R U U I U %.=.W ! ! ~ R U H I b z v x a x v v t v : = $ - % o e p u a h h a a h a a a x m p - ] m.m.m.m.m.",
"3.>.$.:.3.>.>.d.i.a.3.p l A A S S v v W -.W ! W ! Q R U H b Z I ! ~ -.~ ! ! ! Y b H b b v d v B B y v B e e e 8 o o * < i a B a m a a a a h m a p - { m.m.m.m.m.",
">.3.>.:.>.>.1.d.i.a.9.h k A F $.E Z v W &.E ! ~ ! ! R R R R R R H b s K ~ =.=.W V Z Y Z V C v y v d B d e ; : 9 e t r i e e < ; e x B B a i p a p & { m.m.m.m.m.",
">.>.>.>.>.:.1.d.,.9.1.u i S F l V V n E W W ~ ! Q ! R Q W ~ ~ W R H J R ~ ~ ! W s s b V Z n V v v y v a 8 ; 9 r h B B a u e 2 2 2 p y a i p a a 3 - { m.m.V.V.m.",
"$.>.>.>.>.>.1.q.9.s.6.u l *.$.l v v V W ! W Q R W ! E W =.=.&.! R U ~ U H v b I U E E Y V C v B v d l d 9 ; r i y a a a a a a m p 2 ; < i x m a x - } m.m.V.Q.m.",
">.>.>.3.1.1.3.:.>.<.:.p a h h A C Z Z W ~ W ! R R ! ! R W W &.~ U ~ Q ! H U Y H r 0 0 r v C F Z V v B d i t a v h y t y a B m x a e ; ; t i a t p & { m.m.m.A.V.",
"z.q.q.a.q.a.3.}  .h A h u O * V E Z n E 5.R ! ! Q ~ ~ ! R W W -.-.-.~ U R -.-.I O X X = v W Y V Z v B S v a v B B a i i a h m t t a h i t w 2 : 2 % D m.m.m.V.A.",
"l.3.s.a.q.a.1.` { A ] h A 4 ; i r 9 7 I 5.R ! ! ~ ~ ~ ~ ~ W &.W ! ! U U R =.W b s q 0 r y y r 9 F V F Z v i d y a y a h B v h a p m C l i e 2 e 4 % D m.m.m.m.A.",
"9.3.a.a.3.a.3.^ ] ] } < A $.l * X   + Z 5.W R ! ! R R W -.=.W R ! R ~ ! ~ ~ =.! H T Y y + X X o C V Y F m r i y p a B B h a a m m x a a a h x m t 1 { m.V.Q.V./.",
"3.3.>.>.>.>.3.3.,.6.>.p u } F l v v v n I K I R Q ~ ! ! W W ! ! R ! W Q ! W ! W d V V b v y x s r * = * y a B e y h x i y h x a m m m a v a h m p - ` m.m.C.V.Z.",
">.$.>.>.:.:.3.q.a.s.1.h i } F B V V n n I I H U W R R R W ! W W ! ! ! ! ! R W W b Z I V V V Z F o X + * t r B a i a v a a a m m a a h a h a x a p & { m.m.C.m./.",
">.>.>.>.:.>.1.a.s.9.3.h i } F l E V V I W W H U J H H R W ~ =.W U ! W ! ! W W %.b P V Z V V Z Z v v V r r ; 8 8 a B B a a a a p a a a d a m a x p & D m.m.m.m.Z.",
">.>.>.>.:.:.3.q.s.9.1.h i $.} S F V n E -.~ R R c H H R W W ! W W ! W W =.! %.W V b V b V v V C V Z E B i ; 8 9 t i t i a h a p a m a a a x g m p - ` m.m.m.m.m.",
">.>.>.*.>.1.3.a.s.9.6.B i } F S Z C Z E -.~ ~ R U ! ! U H H I I ~ Q ! ! ! W E U b b V V Z Z Z G d v B B h y i v e ; ; e a v m x m m v h a a m a a & ` m.m.m.m.m.",
";.>.>.>.>.3.:.2.,.>.:.h i $.F l C n C E ~ ~ ! R ~ ~ Q R I H I R U U U U ! &.! R Z V b n Z Z V C Z Y F Y v B y d t e ; e i u u t m a h y l a p x p - { E.m.m.m.m.",
"d.a.9.a.a.a.:. .] { D u i } $.l E Z I W %.! W R Q ! W W R W W E H H H U W W %.W I b V V V C v v v A B V y B a B l a y a t w ; 2 p t a i a y x p g - { C.m.m.m.m.",
"a.9.9.a.a.a.:.[ ] [ } p f $.S l V Z I E W ~ ! ~ ! ! I W -.-.~ I U K J I U R U I b b v b Z I F Z C Y B F t B y v a a d h t w 2 p e e p p i a h x t & D m.m.m.C.m."
};
