/* XPM */
static char *cm9vZjE_[] = {
/* columns rows colors chars-per-pixel */
"80 80 206 2 ",
"   c #110A07",
".  c #190901",
"X  c #1C1306",
"o  c #281705",
"O  c #341C04",
"+  c #271C18",
"@  c #2C210A",
"#  c #2C241C",
"$  c #352616",
"%  c #352A1B",
"&  c #3B2D1C",
"*  c #3A3219",
"=  c #2C2523",
"-  c #362C27",
";  c #3B2D23",
":  c #34342A",
">  c #3D3328",
",  c #3C3634",
"<  c #4B361A",
"1  c #422F24",
"2  c #483824",
"3  c #43352C",
"4  c #49362C",
"5  c #443A2C",
"6  c #4C3D2C",
"7  c #533C24",
"8  c #553D2A",
"9  c #443634",
"0  c #443A33",
"q  c #4C3C33",
"w  c #453B3A",
"e  c #4A3D3B",
"r  c #523E34",
"t  c #4C422A",
"y  c #594525",
"u  c #54422C",
"i  c #5B452D",
"p  c #5C4A2D",
"a  c #4C4238",
"s  c #544333",
"d  c #5B4633",
"f  c #554A34",
"g  c #5C4A34",
"h  c #54443C",
"j  c #5A4639",
"k  c #53493E",
"l  c #5C4A3A",
"z  c #5A5238",
"x  c #664A27",
"c  c #61462D",
"v  c #624A2E",
"b  c #6C562B",
"n  c #604732",
"m  c #644B33",
"M  c #694E35",
"N  c #634D3A",
"B  c #684D3A",
"V  c #6B5236",
"C  c #65523B",
"Z  c #6C543B",
"A  c #775A36",
"S  c #71563D",
"D  c #72593E",
"F  c #7A653A",
"G  c #473E41",
"H  c #355056",
"J  c #3B5256",
"K  c #375259",
"L  c #3A545A",
"P  c #4A4646",
"I  c #534543",
"U  c #584746",
"Y  c #544A44",
"T  c #5B4B44",
"R  c #554B4A",
"E  c #5B4C4B",
"W  c #56524B",
"Q  c #495253",
"!  c #445659",
"~  c #4B595A",
"^  c #575A59",
"/  c #624E45",
"(  c #6C5642",
")  c #6D5A42",
"_  c #655649",
"`  c #715641",
"'  c #755C44",
"]  c #765E4A",
"[  c #655554",
"{  c #695656",
"}  c #665955",
"|  c #695A56",
" . c #685758",
".. c #665A59",
"X. c #6C5A5A",
"o. c #5D615F",
"O. c #7C6244",
"+. c #76614E",
"@. c #786549",
"#. c #6C615C",
"$. c #796754",
"%. c #766D53",
"&. c #71635E",
"*. c #485E63",
"=. c #6F5E60",
"-. c #4C6165",
";. c #4E646A",
":. c #57676A",
">. c #576B70",
",. c #5B6E72",
"<. c #5D7075",
"1. c #6C6562",
"2. c #6A6863",
"3. c #736363",
"4. c #746A65",
"5. c #796A68",
"6. c #7C7369",
"7. c #63757A",
"8. c #67787D",
"9. c #797876",
"0. c #845C33",
"q. c #876447",
"w. c #866944",
"e. c #82664B",
"r. c #846B4C",
"t. c #8A6C4D",
"y. c #946E4A",
"u. c #897349",
"i. c #856C53",
"p. c #8A6E52",
"a. c #866D59",
"s. c #8C7254",
"d. c #8B7559",
"f. c #927455",
"g. c #997955",
"h. c #92755A",
"j. c #937A5C",
"k. c #A47B50",
"l. c #867165",
"z. c #8A7665",
"x. c #83756B",
"c. c #8D7A6E",
"v. c #947A63",
"b. c #927C6F",
"n. c #857C76",
"m. c #967E71",
"M. c #6AD949",
"N. c #72DE4A",
"B. c #79DF4B",
"V. c #6EDB50",
"C. c #72DB55",
"Z. c #75E14C",
"A. c #7BE54D",
"S. c #7EE84E",
"D. c #7EDB64",
"F. c #9B8458",
"G. c #B1AF58",
"H. c #968669",
"J. c #88837A",
"K. c #968677",
"L. c #9C8273",
"P. c #A68876",
"I. c #B18E7A",
"U. c #B6907C",
"Y. c #BD957E",
"T. c #C0967F",
"R. c #83E44C",
"E. c #89E64D",
"W. c #82EB4F",
"Q. c #8CEA4D",
"!. c #94EC4F",
"~. c #9BEE4F",
"^. c #96F14F",
"/. c #81EA50",
"(. c #82EC50",
"). c #8DEC51",
"_. c #96ED50",
"`. c #99EE50",
"'. c #86F050",
"]. c #95F250",
"[. c #9DF150",
"{. c #A4F452",
"}. c #A9F652",
"|. c #ACF952",
" X c #B3FD55",
".X c #83DA6B",
"XX c #8CDF7B",
"oX c #8FE76F",
"OX c #6D7D81",
"+X c #707F83",
"@X c #78868A",
"#X c #7E8C90",
"$X c #818E91",
"%X c #8C9293",
"&X c #889498",
"*X c #AB9987",
"=X c #AEA593",
"-X c #959EA1",
";X c #99A3A5",
":X c #9CA6A9",
">X c #ACB4B6",
",X c #B2B9BB",
"<X c #C29780",
"1X c #C59981",
"2X c #94DF85",
"3X c #CAD0D1",
/* pixels */
"M.M.M.M.M.M.M.M.M.S.A.Z.S.Z.A.M.M.M.M.S.A.M.R.S.^.Z.!.N.Q.M.M.M.M.M.M.M.B.M.M.M.M.M.M.M.S.N.M.S.S.M.'.A.M.M.M.M.M.M.M.M.M.M.M.M.M.M.M.M.E.R.}.R.`._.B.M.M.M.M.M.",
"M.M.M.M.M.M.N.M.M.S.S.Z.(.Z.A.M.M.M.M.M.].M.R.S.!.Z.Q.Q.B.M.M.A.N.M.M.R.!.N.M.M.M.M.M.M.Z.(.Z.S.A.Z./.M.M.M.M.M.M.N.M.M.M.N.A.M.M.M.M.M.M.M._.B.Q..X.XM..X.X.X.X",
"M.Z.M.M.M.A.M.M.M.Z.S.Z.S.M.M.M.M.M.M.M.].M.S.R.^.Z.Q.Q.N.M.M.R.!.N.M.!.R.M.M.M.N.A.M.M.M.(.Z.A.A.Z./.M.M.M._.!.M.N.B.M.M.W.M.M.M.M.M.M.: . , + = = : = - = - - ",
"M.Z.N.M.N.S.M.M.M.M.M.M.V.M.M.M.S.Z.M.M.Z.M.S.A.Q.Z.Q.N.M.M.M.M.{.B.R.}.R.M.M.M.A.S.M.M.M.M.N.A.A.N.M.M.M.N.}.~.M.M.W.M.Z.(.M.M.M.M.M.Z.^ I R Q P U I R R R R R ",
"M.Z.A.M.(.A.M.M.M.M.M.N.A.M.M.M.S.S.M.M.M.M.M.M.N.M.M.M.M.M.N.N.~.{.R.~.M.B.N.M.M.M.M.M.M.M.M.M.M.M.M.M.M.M.M.V.M.M.S.S.A.Z.M.M.M.M.P + 9.9.R 1......... .=. ...",
"Z.Z.(.N.S.M.Z.Z.M.M.M.{.|.M.M.M.M.M.M.M.M.M.M.M.M.M.M.M.M.M.A.!.R.{.E.~.R.|.!.M.M.M.M.M.M.M.M.M.M.R.R.M.M.M.M.M.Z.A.M.S.A.Z.A.(.N.M.E , R P X.1.......=.=...=. .",
"Z.Z.S.Z.S.M.(.S.M.M.M.R.Q.M.W.`.M.M.M.M.M.S.Z.M.M.M.M.M.Z.M.M.~.E.{.E.!.}.E.M.M.M.M.M.M.M.M.M.M.M.}.|.M.M.M.M.M.M.(.N.S.A.Z.(.Z.# , R R I G  .5.1.1.5.=.=.=.1.=.",
"M.S.S.Z.(.Z.S.M.M.M.M.M.M.M._. XZ.M.M.M.M.Z.S.Z.M.M.M.M.M.M.M.^.E.{.E.~.{.N.M.M.M.M.M.M.M.M._.M.M.A.A.M.M.M.M.M.M.(.N.A.A.Z.(.M.e , I I P E  .X.=.=.=.=.=.=.=.=.",
"Z.A.A.Z.R.N.N.M.M.M.M.M.M.M.M.N.M.M.M.M.M.M.Z.A.M.M.M.M.M.M.M.!.R.}.E.!._.N.M.M.M.{.N.M.M.{.N.M.M.M.M.M.Z.'.M.M.M.S.N.S.A.Z.(.M.I 9 U I U E =.3.=.=.3.3.3.3.3.3.",
"M.A.A.N.W.N.N.M.M.Z.M.M.M.M.M.M.M.M.M.M.N.M.M.S.N.M.Z.Z.M.M.N.M.M.~.R.E.M.M.M.M.M.`.{.M.B.`.N.M.M.M.M.M.Z.S.M.M.M.M.M.Z.Z.M.U 9 e 9 X.=.X.{ { { { X.{ { { X.X.{ ",
"M.M.N.M.Z.M.M.M.M.M.M.M.!.E.M.M.M.M.M.Z.S.Z.M.S.N.N.S.M.M.M.M.M.M.M.M.M.M.M.M.M.M.N.|.E.{.B.M.M.M.M.M.M.M.M.M.M.M.M.M.M.M.D.= 9 9 e 3.l.3.X.=.{ X.[ [ [ [ { { { ",
"N.Q.M.M.M.M.M.M.M.M.M.!.}.R.M.M.M.M.M.M.Z.S.Z.S.N.S.A.M.M.M.M.M.M.M.M.M.M.M.M.M.M.M.!.~.[.B.M.M.M.M.M.M.M.M.M.M.M.M.  o = ; c.J.e 9 =.5.3.X.=.=. .{ { { X.{ { X.",
"M.N.M.M.M.M.M.N.M.M.N.[.A.M.M.M.M.M.M.M.M.Z.S.S.Z.S.M.M.M.M.M.M.B.R.M.M.M.M.M.M.M.M.R._.`.B.M.M.M.M.).Q.M.M.N.M.M.M.k k l a z.l.4 w X.l.l.3.X./ [ _ | [ [ { { { ",
"M.M.M.M.R.M.M.!.R.M.!.R.M.N.R.N.M.M.N.Z.M.N.Z.S.N.S.M.S.M.M.M.M.M.A.S.N.(.W.M.M.M.M.M.M.M.M.M.M.M.M.Z.].A.Z.X X . O K.x.n.K.l.n.9 9 X.3.3.X.X.[ [ [ { [ {  .{ [ ",
"M.M.M.M.E.M.M.M.}.M.~.R.N.[.}.B.M.M.M.S.V.N.S.S.Z.S.A.A.M.M.M.Z.N.M.W.A.A.M.M.M.Z.M.M.M.M.M.M.M.M.W.6.9.J.J.C %.z @.4.l.K.l.K.3.I 9 | / / [ #.&.X.X.X.X.#.X.X.#.",
"M.W.N.M.M.M.M.M.|.!.~.E.[.}.B.M.M.M.M.S.V.N.S.S.Z.S.Z.Z.M.M.M.S.W.M.W.Z.Z.M.M.M.M.M.M.M.M.M.N.M.M.=X. % . * K.%.H.z.H.%.d.d.l.z.9 1 / U h U X.3.3.&.3.&.&.#.3.3.",
"(.W.M.M.M.M.M.M.R.{._.E.}.B.M.N.M.M.M.M.M.M.B.B.N.S.M.M.M.M.M.M.S.Z.S.A.N.M.M.M.M.M.M.M.M.=XW #._ @.i.O.' a.z.f.u.i.d.j.z.d.z.z.4 e r U I h X.3.3.3.3.3.4.3.3.3.",
"(.M.N.M.M.M.Q.Q.B.[._.E.}.M.B.!.N.M.M.M.M.M.M.M.M.M.M.M.M.M.M.M.A.M.S.A.Z.M.M.M.M.M.M.Z.S.6.X * o x h.v.a.q.a.q.j.s.r.i.z.v.z.z.9 e U U I E X.3.=.=.=.=.=.3.=.=.",
"W.N.(.N.M.M.M.{.B.{.!.E.}.M.!.E.M.M.M.M.M.M.M.M.M.Z.M.M.M.M.E.M.M.M.Z.N.M.M.M.Z.M.#.+ 6 t _ 4.a.r.s.a.d.v.v.v.h.s.s.s.j.j.d.l.l.4 9 X.{ X.1.{ { { {  . .X. . . .",
"W.Z.A.M.M.M.M.{.R.{._.E.}.M.!.E.M.M.M.M.M.M.M.M.A.S.M.M.M.M.A.M.M.M.M.M.M.M.Z.'.Z.&.; 2 $ @.L.z.j.j.p.e.a.d.f.s.s.s.s.a.d.a.l.l.4 9 3.l.5.l.E [ { [ [ ^  . . . .",
"(.Z.Z.M.M.M.M.N.N.[._.W.{.M.Z.M.M.M.M.M.XXXX2X2XoX.XC.V.M.M.M.M.^.N.M.M.M.Y + # $ %.z.z.z.z.' a.@.s.j.j.d.d.>X;.>.r.D Z i.z.v.z.r 3 &.| X.l.^  . . . . . . . . .",
"S.M.M.M.M.M.M.M.M.M.M.M.M.M.M.M.M.Z.'.Z.M.C.C.C.(.M.A.Z.M.M.M.M.M.M.M.Z.N.s > T 2 %.a.a.v.v.q.v.d.u.@.t.h.>.:.7.7.F A O.i.H.x.z.r q &.&.&.5.[ X. . .[ [  . . .[ ",
"M.M.M.M.Z.N.M.M.M.M.M.M.M.M.M.M.M.M.A.N.M.M.Z.N.(.N.Z.M.M.M.M.R.Q.o @ @ o %.P.z.K.z.v.d.i.q.h.f.s.d.j.7.-.$XA m V F s.j.z.d.z.z.w 9 &.&.&.5.[ }  . . . . . . .[ ",
"M.R.R.M.(.A.M.M.M.M.M.M.M.M.M.M.M.M.M.M.M.M.Z.B.(.N.Z.M.M.M.M.A.}.t j 6 t l.a.d.d.i.f.i.v.f.g.p.u.w.&XL :X' e.r.D O.s.d.d.d.z.x.q q _ [ [ { { | X.X.......=.=.=.",
"M.M.N.M.M.N.M.M.M.M.N.R.V.M.M.N.M.M.M.M.M.M.Z.Z.W.N.A.M.M.. + o O l $.@.C z.v.i.y.a.y.h.h.p.f.a.j.@.8.:XZ ' a.g.f.d.s.d.d.d.z.z.q 9 Y h T U X.4.3.3.3.3.3.=.3.3.",
"M.M.M.M.M.N.N.M.M.M.M.A.S.V.A.S.M.M.M.!.N.M.M.M.M.[ #.#.l.T z l j ` S Z g i.d.s.h.h.h.h.q.q.0.0.A -XL i.i.p.a.f.s.s.s.f.d.z.z.z.e 3 U r h U X.4.3.3.3.3.3.3.5.=.",
"N.R.M.M.N.!.R.M.M.M.M.M.S.Z.(.M.M.M.M.M.M.M.Z.M.M.o ; @ % &.T _ $.' ( ` D s.d.j.a.y.f.k.h.q.0.B b ;X-.j.a.f.h.f.s.s.u.f.v.v.z.l.e 4 E I T E | &.3.3.3.=.=.=.3.=.",
"B.}.R.M.B.~.M.M.M.Z.(.N.S.Z.S.M.M.M.M.M.M.5 k : | f _ l g ' l @.B n i ` Z r.p.p.h.q.M d 0.q.t.t.r.:X:Xi.a.d.d.f.u.s.s.d.d.z.z.z.q q X.| &.| } |  .X. . .X.X... .",
"M.`.!.M.[.B.M.M.M.M.S.Z.(.N.A.M.M.M.E.}.Z.X > > > D ) ) %.Z Z ) ` ' ' ' S p.s.h.a.q.M x A e.f.j.h.-X*.s.v.h.f.f.s.u.s.d.d.v.z.z.q 9 3.&.5.&.[ [ [ [ [  .[  .[ ..",
"M.E.|.R.}.M.M.M.M.M.Z.N.S.Z.A.M.M.. $ % f l ) ) z ) ) C C C ) C B ` ` ` c D D V B q.h.h.f.s.d.p.s.;XL v.h.a.a.h.f.s.s.d.d.z.x.z.q 9 4.X.&.5.[ [ [ [ [ [ [  .[ ..",
"M.M.`.R.}.M.M.M.M.M.M.M.A.M.A.M.M.* 2 * s @.z C @.C D C p D D ) B ` V ' M ' ' A ` r.f.f.i.p.d.h.t.:XK :Xf.a.a.f.d.f.s.d.v.z.c.z.q 3 3.| &.3.[ [  . . . . . . .[ ",
"M.M.R.B.E.M.M.M.M.M.M.M.9.  = + t @.) @.C ` ' ) C C C D Z @.m F B m 7 8 c e.h.j.f.f.d.p.d.j.h.s.d.j.8.-.h.v.h.q.s.u.s.j.d.z.l.a.q 3 5.&.5.l.[ [ [ [ [ [ [ [ [ [ ",
"M.M.M.M.M.M.M.M.M.%X=X*X[ q 4 s i C Z C D @.Z Z Z D ) ' D v m V m B M S M t.a.p.i.p.f.s.s.h.f.s.u.s.&XL $Xd.j.a.f.t.e.e.i.d.l.l.q q T [ [ E &.| X.X.=.=.=.=.=.=.",
"N.(.Z.M.M.M.M.M.h   X $ 3 _ N j V ' O.Z C Z Z C ` D Z Z Z i y c M S M ` Z p.f.f.h.h.h.p.p.d.p.r.d.d.s.@X<.d.h.g.v.t.V S i.z.z.l.9 3 T Y T I &.&.1.=.=.=.1.=.=.=.",
"M.S.N.M.J.9.6.6.T 6 j f 8 i 8 d V ( D C D Z D D Z m g b V C m m D S S ' Z p.h.f.p.p.p.p.s.s.s.s.u.r.s.j.:.@X' D ' F e.r.s.z.j.n.4 > I h e h X.3.=.3.5.3.=.3.3.5.",
"M.M.M.Z.:   # X 6 t l f N C u i v Z D Z Z Z Z ` Z m i i C Z S D S S M D Z i.f.d.f.d.f.p.t.i.t.s.h.s.s.h.&XL $XS x ' d.F.z.a.z.v.9 3 E U U T #.&.=.=.=.=.3.=.3.=.",
"M.M., t R W t z C z d u n C i y M ) ` Z C V v v V Z V g V Z Z D V S B ` M p.f.a.s.s.s.h.s.f.d.h.h.e.A D ' ;XH $Xt.p.s.s.d.z.z.z.r 9 { { X.| X.| =. . . . .X.=. .",
"M.M.% > a f f t u g m y y y c M V Z Z V V m i g m Z D D D Z Z Z B S B 0.V p.h.h.s.a.s.s.h.s.u.s.r.' Z Z ` @.-XL j.s.p.i.d.H.z.l.r 9 &.&.4.3.| [  .[  . .[ [  .[ ",
"M.M.* : f t z l d p i m m m x 8 c m c m V Z V Z m Z D D ) D D Z S S B S S t.h.h.j.h.f.s.t.O.V V A t.a.a.a.h.h.$X8.u.s.s.z.v.z.z.e 3 &.3.3.3.{ [ [ [ [ [ [  .[ [ ",
"M.M.5 * Y f l s u i i m 8 7 c y v g y y V Z Z ` D D D Z C D Z Z S S V ` B t.a.f.r.r.p.s.i.O.D A V i.g.h.a.h.h.>XL 7.s.s.d.z.z.z.s 4 3.&.#.#.| X.[ [  . . . . . .",
"M.M.9 = h j j r B B B n 8 8 8 2 B Z Z Z D D Z D Z S D D ;.-.-.-.V M S S C p.h.v.j.e.C y m ' f.j.u.i.s.s.p.h.d.f.;X;.3Xd.d.z.l.l.q e &.&.4.&.| [ [ [ E [ [ [ [ [ ",
"M.M.9 - I N N j 8 8 8 r n r r 8 m Z Z Z D S Z Z S Z V >.! 4.4.~ *.,X` $.] e.O.O.O.' ` q.w.t.d.s.d.d.d.s.d.a.p.f.s.@X,.d.v.v.z.l.q 9 [ [ { { | | X.X.X.=.=.X.=.=.",
"M.M., - h l N j 8 8 8 7 r n j n M Z Z Z D D Z ) ) D S ;.m.1XT.L.~ ,.S ,X>XOXK K H H H H H H ;.i.s.u.p.f.d.a.f.d.s.@X>.d.d.z.z.z.q 3 E I T E X.3.3.3.=.3.=.3.3.3.",
"M.M., - h r r 7 r 8 r r j j / j C D D Z Z Z Z Z D D 8.~ Y.1X1X1Xm.-.$XJ H 4.b.b.b.b.b.b.b.b.x.H H $X:Xp.h.d.h.f.s.,X:.>Xd.d.l.z.q 9 T r k T X.4.3.3.3.3.3.3.3.5.",
"A.M.9 = e r 8 4 n n d d j j r r V D Z Z S S Z S Z Z OX~ <X1X1X1XT.^ ^ L.P.U.1X1X1X1X1X1X1X1XY.P.b.^ K #Xa.a.d.f.u.s.>.OXd.a.l.l.4 9 E U U E | #.=.=.=.3.=.3.3.3.",
"M.M.9 % s s s 8 d i n N n j n j z Z D Z S Z Z D Z S OX~ <X1X1X1X<XI.I.1X1X1X1X1X1X1X1X1X1X1X1X1XY.I.4.K @Xd.h.f.d.&X>.O.a.z.z.a.q q | | { X.X.X. . ...X.X.X. . .",
"M.M.4 ; f j d i n i i j g g U d C S D Z D Z C Z S Z OX~ <X<X1X1X1X1X1X1X1X1X1X1X1X1X1X1X1X1X1X1X1X1XY.2.L &Xd.t.d.7.@XD a.z.z.z.q q &.&.4.&.#.| [ [ ^ [  . .[  .",
"M.M.0 % d N d d n n d d g g j j p Z Z Z ) D Z D x.n ,.~ <X1X1X1X1X1X1X1X1X1X1X1X1X1X1X1X1X1X1X1X1X1X1XU.~ 8.D $X! $Xw.s.v.z.v.z.3 9 | &.3.X.{ [  . . . ... . .X.",
"M.M.> % f l g y d d d d j f m i m Z D S ] Z Z Z #XK 4.c.<X1X1X1X1X1X1X1X1X1X1X1X1X1X1X1X1X1X1X1X1X1X1X<Xx.H K K %XF @.d.v.v.z.z.r 3 3.3.3.3.} [ [ [ [ [  ... . .",
"M.A.> $ d m n i B d s d j g d i M ' D M n.' i @XH 5.I.x.c.<X1X1X1X1X1X1X1X1X1X1X1X1X1X1X1X1X1X1X1X1X1X1XI.J @Xh.s.u.d.p.d.d.z.z.q 9 &.3.3.#.X.| { [ [ | [  . .[ ",
"M.A.5 % d m n i d d d s d l d i m V M M c.' @XK 6.I.6.! L m.1X1X1X1X1X1X1X1X1X1X1X1X1X1X1X1X1X1X1X1X1X1XU.o.;Xp.h.d.s.d.d.d.z.z.4 9 [ | } [ &.X.X. .X. .X...X. .",
"M.M.5 % d m d i d d f f d f d i u c n c l.Z L 4.I.x.~ G.G.! H.1X1X1X1X1X1X1X1X1X1X1X1X1X1X1X1X1X1X1X1X1X<Xm.;.d.s.u.s.d.z.v.z.z.q 4 h T U h &.&.3.3.3.3.3.3.3.3.",
"M.M.5 % j f n i u d l l s u 8 u m V M M +.7.2.Y.T.4.! G.G.J z.1X1X1X1X1X1X1X1X1X1X1X1X1X1X1X1X1X1X1X1X1X1XP.H h.s.u.s.h.v.z.z.l.r 9 h I h r 3.4.3.3.3.3.3.5.3.5.",
"M.M.5 % f d n i i d j j s 7 7 7 V ` V C Z -.x.1XT.c.J L J ~ K.1X1X1X1X1X1X1X1X1X1X1X1X1X1X1X1X1X1X1X1X1X1XL.J p.f.p.p.p.h.z.v.z.r 9 U U U R X.3.=.=.=.=.=.3.3.=.",
"M.M., % d d d i 8 s r s s i i u B S S V :.! L.1X1XT.H.6.l.L.1X1X1X1X1X1X1X1X1X1X1X1X1X1X1X1X1X1X1X1X1X1X<X6.8.h.p.s.t.p.z.v.v.z.q 3 [ { X.[ | |  . . . ... .=.X.",
"M.M.5 % f d c d i u 2 6 j l N m m ` ` C Z *.4.T.1X1X1X1XY.1X1X1X1X1X1X1X1X1X1X1X1X1X1X1X1X1X1X1X1X1X1X1XP.L :Xs.f.p.f.f.z.v.l.l.q 3 3.5.5.4.[ [ [  . . . .[  . .",
"M.M.0 $ 8 7 7 < s j d j g d i i M V ` S Z S -.1.6.U.T.T.T.<X1XT.1X1XT.<X1XT.1X1X1X1X1X1X1X1XT.1X1XT.Y.l.1.+Xa.p.d.h.d.f.d.a.l.l.r 9 $.| 3.4.[ [ .. . .[  . . .[ ",
"B.!.0 $ 6 i 7 7 d d d j j d d y M S S S S S ` *.~ ^ #.:.5.Y.T.Y.T.1XY.Y.T.T.T.T.T.T.Y.Y.Y.T.Y.Y.m...:.*.<.d.a.p.s.r.@.r.d.z.l.a.9 4 3.#.&.3._ [  .[ [ [  . .[ [ ",
"}.M.5 % f d i i i f j j f j d i M Z ` V M Z V M Z ,.>.<.:.~ ~ ~ ~ ~ ~ ~ Q Q Q Q P Q Q Q Q Q ~ ~ -.<.<.p.i.a.j.j.j.q.F ' a.a.z.z.q q &.3.4.3.X.|  .[ [ [  ... .[ ",
"|.M.0 % d n d i d f j j d g d i B Z S S V S S S Z Z V V M 8.7.8.8.7.8.7.-.>.2.:.:.,.,.:.,.<.7.8.s.s.f.d.d.p.a.r.r.@.F O.a.z.v.z.3 9 | [ } [ | X.X.X.X...=.X.X...",
"|.M.5 % d g c i d g j l d f m i m Z ` S S ' S D V g 8 8 c V D ` M D ` Z M h.h.p.h.h.p.p.p.p.p.t.r.u.j.v.v.p.S v b ` i.j.H.z.z.z.4 3 U U I T X.1.3.3.3.=.=.3.=.3.",
"R.M.5 % d g c i g d l j j f d g V ` ` V V M m m m m m M M D D S D M S V B h.d.p.f.s.s.s.f.f.f.f.f.r.O.D ' O.O.' D r.d.j.h.d.z.z.q 9 U h Y I X.3.3.3.3.3.3.4.3.3.",
"M.M.5 % d g i u d g j l j g d i M S S M m c i i V S ` ' ' D V M ` M Z S S s.s.s.s.p.f.d.f.f.f.f.f.e.V v V ' h.H.j.j.p.u.i.p.z.z.4 4 U Y T I X.X.=.=.=.=.=.=.=.=.",
"M.M.9 % d g m u d g g l m d d c d m M M M M V M M Z S S V M D ' ' V S ' S s.p.h.s.d.f.s.p.e.' A D O.e.t.a.a.p.p.s.u.p.p.h.z.z.z.q q E { X.[ 3.X.X.X. .X.X.=. .=.",
"M.M.0 % d g d i d d d l j d d i i m c i M Z S ' S D ` S S Z S M D D M Z S h.h.p.f.p.s.j.h.A V Z A ' s.j.z.d.%.s.f.h.a.p.h.a.v.l.9 4 &.&.&.5.[ [ [ [ { {  .{  .{ ",
"M.M.5 % d m i i d f j d i u u 7 m M M M Z S S ` Z Z Z Z S S ` S M ` S S Z p.v.h.j.e.V M D e.q.s.w.t.d.d.d.d.d.d.p.h.y.h.z.l.z.z.q w &.&.&.5.| | { { |  . . . .{ ",
"M.M.6 % d g n i d d s r s u 7 7 m S D S D S V ` Z S V S Z Z S S S S S ' M e.r.r.t.O.A M D t.s.j.f.f.h.a.%.d.d.d.q.h.y.h.f.a.z.z.3 0 #.#.X.&.[ [ [ { { { { {  .{ ",
"M.M., % d g n i 8 8 6 s s d d u m S ` S D Z M S S S S Z S S Z Z D M M D M A S S S e.d.f.s.s.s.t.f.p.s.d.f.d.d.s.p.f.a.y.a.a.z.l.4 q &.4.&.&.} | [ [ { { { [ { { ",
"N.W.5 % s i i 8 u u 6 s g l N p m S ` S S V S S S S S S Z S Z S ' B c D M A ' ' S t.j.d.s.s.s.s.r.s.s.s.z.d.d.i.p.h.y.h.a.a.l.l.9 e [ #.| | | X.=.{ =.=.X.{ X.=.",
"S.A.> $ 8 u 7 < g i j d l g i i M S ` V S D S ' B S M S S S S Z V M 8 c c e.j.h.t.s.p.t.p.h.s.p.f.s.s.s.d.p.d.d.f.f.p.h.h.a.z.l.3 9 h Y I T } &.=.3.=.=.3.3.3.3.",
"(.M., $ u i 7 7 N f l l j d d y M ` S V ` ' Z D C Z S S D M M M c M c M m p.h.h.h.s.s.s.s.s.s.t.f.f.s.d.d.d.d.d.f.t.q.q.q.a.l.l.q e h Y a U X.5.3.l.l.=.=.l.3.5.",
"'.M.5 % j m N i i s l j g d d d B Z S V ` ' V V S S S D C M c i n ( ( 0.V p.d.i.p.s.s.s.s.s.s.j.t.s.s.d.d.d.d.j.f.q.M n ` ' p.l.0 q I Y I I X.4.=.=.3.3.=.=.3.3.",
"(.A., % d g c i N d l l d d i i M V V B S S M V Z m i c M M Z M S B B ` M f.p.f.s.s.h.h.h.h.s.f.f.d.i.d.d.%.O.D Z q.e.s.t.a.z.z.h 0 _ |  .{ X.{  . . .X.X.{ X.{ ",
"W.Z.5 % d g d i i d l l d f d m M ` ' S ` D Z ` M m c n M S D Z M B S ( B f.h.h.h.s.t.r.a.t.p.f.t.f.j.d.i.@.Z V v q.t.h.h.z.z.l.q 0 #.4.5.=.X.{  . .[ [ {  .{ X.",
"W.M.5 % d g c i j g l l d s j i n Z ` M M c i c M M M M Z S ' ` S M S 0.B h.a.h.s.s.s.j.j.h.s.s.s.r.A V @.@.@.d.e.t.f.f.h.z.z.l.q 0 | &.3.&.=.[  . .{ { X.{  . .",
"M.M.5 % s m d i n f l l l d d p M S D M m v c c V V Z Z S Z S S S S S D B p.p.p.h.s.p.s.s.r.r.e.f.w.Z V Z @.d.j.g.h.p.t.a.a.z.l.q 0 #.#.&.X.=. . . . . .{ { X. .",
"M.M.0 & d g i i i d j l l g B m c M c n M V Z S Z S S ` S Z S M S V S ' V p.f.f.d.s.s.f.p.e.A M V O.s.j.d.%.s.s.p.y.f.a.v.v.z.l.q 9 #.4.3.=.X.{ [ [  . .{ { { [ ",
"M.M.> % d g m i d g l l d s i y i n c i M S Z Z M S Z S M S Z S B V S S D f.h.d.s.t.r.p.t.e.' A b O.s.j.z.d.v.j.t.p.f.f.h.z.z.l.q 9 } |  .[ X. . . . . .{ X. . .",
"M.M.> % d g d i g f j d s 8 8 7 V ` S V ` ' S ' V S Z Z S S S V S B ` S M p.a.p.f.O.V x V D p.j.g.f.s.%.d.z.d.r.h.h.f.p.a.h.l.z.a 3 T k I U =.=.=.=.=.l.=.=.l.=.",
"M.A.3 % d g g i 8 s s s s u 8 u n V V M S S Z V ` Z S S Z S S S S S S B M e.i.q.r.e.D ' e.t.p.f.t.f.d.d.d.d.d.u.q.f.f.a.h.z.v.z.q 3 T Y U U =.=.=.=.=.=.l.l.=.=."
};
