/* XPM */
static char *Zmxvb3JfaG91c2Uy[] = {
/* columns rows colors chars-per-pixel */
"80 80 190 2 ",
"   c #170903",
".  c #1C1306",
"X  c #281605",
"o  c #341C04",
"O  c #271C18",
"+  c #2C210A",
"@  c #33230C",
"#  c #392509",
"$  c #3A320C",
"%  c #2B2318",
"&  c #352615",
"*  c #3C2B15",
"=  c #352A1B",
"-  c #3B2D1C",
";  c #3B321B",
":  c #2C2523",
">  c #382C25",
",  c #3D3225",
"<  c #33342C",
"1  c #3C3533",
"2  c #3A3F3B",
"3  c #452909",
"4  c #48330B",
"5  c #52310E",
"6  c #462D15",
"7  c #412E1B",
"8  c #502D12",
"9  c #43321C",
"0  c #493518",
"q  c #553A19",
"w  c #422F24",
"e  c #433423",
"r  c #453925",
"t  c #493826",
"y  c #49362C",
"u  c #443A2C",
"i  c #4C3D2C",
"p  c #533C24",
"a  c #543E2B",
"s  c #443635",
"d  c #483C37",
"f  c #523E34",
"g  c #54431C",
"h  c #65471D",
"j  c #4B4227",
"k  c #4D412D",
"l  c #58452A",
"z  c #4A4237",
"x  c #544333",
"c  c #5B4633",
"v  c #594937",
"b  c #5A5238",
"n  c #61462D",
"m  c #654A29",
"M  c #68542B",
"N  c #785A2A",
"B  c #604732",
"V  c #644B33",
"C  c #694E35",
"Z  c #634D3A",
"A  c #684D3A",
"S  c #6B5236",
"D  c #65523B",
"F  c #6C543B",
"G  c #71563D",
"H  c #74593A",
"J  c #796438",
"K  c #473E41",
"L  c #385257",
"P  c #4B4545",
"I  c #584746",
"U  c #564A47",
"Y  c #5B5349",
"T  c #474F50",
"R  c #4A5557",
"E  c #595957",
"W  c #624E45",
"Q  c #6B5743",
"!  c #715641",
"~  c #755C44",
"^  c #685856",
"/  c #685758",
"(  c #5C6056",
")  c #5D615F",
"_  c #796448",
"`  c #686359",
"'  c #766A55",
"]  c #4C5963",
"[  c #6F5E60",
"{  c #51656A",
"}  c #57676A",
"|  c #586E72",
" . c #756865",
".. c #736C66",
"X. c #667579",
"o. c #845C33",
"O. c #876739",
"+. c #906C39",
"@. c #A2743E",
"#. c #866944",
"$. c #88694B",
"%. c #946E4A",
"&. c #897349",
"*. c #97764A",
"=. c #897054",
"-. c #957757",
";. c #A47B50",
":. c #877569",
">. c #937B69",
",. c #917D71",
"<. c #758171",
"1. c #6CD74D",
"2. c #6AD949",
"3. c #72DD4B",
"4. c #79DF4B",
"5. c #70CF57",
"6. c #75E24C",
"7. c #7BE44D",
"8. c #7EE84E",
"9. c #7CE650",
"0. c #988550",
"q. c #9B8458",
"w. c #A78759",
"e. c #B48A5A",
"r. c #AF9058",
"t. c #B1AF58",
"y. c #958669",
"u. c #998375",
"i. c #A98C66",
"p. c #B68D66",
"a. c #AB9368",
"s. c #B89568",
"d. c #A78C75",
"f. c #B18E7A",
"g. c #A99576",
"h. c #B89A75",
"j. c #B6907C",
"k. c #BD957E",
"l. c #BAA36D",
"z. c #B9A478",
"x. c #C0905F",
"c. c #C49769",
"v. c #C49A74",
"b. c #C0967F",
"n. c #C7A777",
"m. c #CDAC75",
"M. c #82DC56",
"N. c #82E34C",
"B. c #86EA4E",
"V. c #95ED4F",
"C. c #85EA51",
"Z. c #99EC53",
"A. c #9BF151",
"S. c #AAF754",
"D. c #567990",
"F. c #6D7D81",
"G. c #697A88",
"H. c #797D84",
"J. c #548998",
"K. c #798689",
"L. c #6E8B93",
"P. c #578FAB",
"I. c #6C95AA",
"U. c #5EA4A4",
"Y. c #74AFB6",
"T. c #76B0C6",
"R. c #899293",
"E. c #B8A586",
"W. c #AEA593",
"Q. c #ADA79E",
"!. c #8B9BA6",
"~. c #94A7AE",
"^. c #C59981",
"/. c #C19985",
"(. c #C8B08A",
"). c #D7B888",
"_. c #D0B594",
"`. c #E5BD8B",
"'. c #C9BBA9",
"]. c #D8C38A",
"[. c #D8C598",
"{. c #EACB95",
"}. c #DBC7A5",
"|. c #CFC7B6",
" X c #EFD6AB",
".X c #FAE6B5",
"XX c #8EB7C8",
"oX c #BAC0C2",
"OX c #FCF0CA",
"+X c #E7E6E0",
/* pixels */
" .:.:./ :./ [ I z I I , I W f Z l a B S ! ~ S S A Q A ! G A ! A ! G G C l B B B x Z ! D c a c W l x Z v i y t x d i i i i i z k e ; - 9 r i i k u > z 2.2.2.2.2.",
"/ / / / / ^ / / ^ / Y u y & 7 W m l n D F C F ~ ! ! o.! ! G ! A G G G S G ,.:.R.,./ P x v Z c t c c c v k l a i i a i i i i d k r r u r e e ; oX{ { U 2.3.7.2.2.",
"/ I ^ W E ^ [ [  .[ / y u & & f C C n H ~ S ! G F A o.! G G G o.F F C ! ! ~ ~ Q y - X & x Z Z x c v c x x l i i i l a k i d i l y i l j r ; | | X.X.z 2.6.C.3.2.",
"/ / / / / ^ / [ [  .' s d f e & o # o S _ F ~ S G A C C A G G G G ! S S ! ~ ! A t a f t = & o & v Z Z v l y t k d i i y i i k i r i k x X.] K.i j % P 2.2.6.2.2.",
"/ ^ / / / E / [ [ [ [ 1 f W f & X o o V ! C H S G G A G G G A G G G G C G ! ! G x C S l 7 X X & l x f a i t a i i i i a d i u k d a r R.L ~.k j d > U 2.2.2.2.2.",
"/ W / / / / [  .:. ./ y f I W f a V l C n a C C $.A A G G A G C C G G G G G ! A c x c v c c x c & X o & r l x k i a k i i x k i k k t X.~.i i u , = P 2.2.2.N.2.",
"/ / / / / [ / / [ / / s s c A A l V n n l n C C G C C G ! G G G S G G G ! ! G A V c l x c D B f & @ o * 9 t t t i i x f i d i i k k ~.L a a r u j % U 2.2.N.S.3.",
" .[  .[  . ./ P d I I s f c I y B l V C G $.A B n n n C Q o.G G ! G G A A ! ! ! c B v D c c v v v Z Z f e - - ; i i i i x i i i t l ~.] i j k x 1 = Y 2.2.A.V.2.",
" .[ / [  . ./ U I I I s f I f c V l g C G F S F C C S C n n C C S G ! G F F ! Q A c Z Z x c v c c c c c y r t t e r e t y i f i k r ~.Q.k k i r u < U 3.1.Z.N.9.",
"[ [  . . . ./ P K K I s y I v A V V n S F G F G A G G C C n n C G G G S ! ! F A a a l c x V Z v v c v c i t a i e > e e y i k i r r !.] i k k l e % v Z.N.A.M.S.",
"/ / / / [ / / / / [ [ s s I I B Z l n S ! F F F G G G C A C C C B V C C ! ~ ! C C A v Z v v c c B v Z v x x l i t t r e r r e , i j ~.L i t t d u < U 4.A.Z.N.S.",
"/ / / / R / [ [  . ./ s y I v f B l l S H F G G G G G G G G G A l n B V S ! ! C l l x x v v c Z v c b c i t i t f i t t w r , = a t ~.L ~.i u k r = U 4.S.A.N.S.",
"I I I Y / I U K P I K O w I I Z Z l l S ! H F G G A C A G G G A C S S C V V A B B Z A c v v x v c c b v a i a r i i q d i i u e e e 9 K.] k k d y = U 2.2.3.1.6.",
"I P I K P I P s s s w X & f I B m l V F ~ ! G G G G G G ! ! G G G G G C B B B c c V c a V v f v c x v B a t x i i i i i i x i i r ; ; R.L R.i u r = U 2.1.2.2.1.",
"I W I I I I I K K K s O : s y f c l b F ! Q G G G G G ! F o.! S A G S S G F C Z X o X & x v c Z v c c v x i x a d x i i f i i i i r i r L.| ; ; r % U 2.2.1.2.2.",
"K P I I I P K s K s s : O w y f l p l D F G F D A A G A ! ! S G G G G ! ! ! F A o 6 # @ c Z a x x c v v l t i i t i i t i i i z 1 i l i r { K., , % U 2.9.1.9.9.",
"s s s s s s s 1 > K s   : 1 < ; 7 * 9 D ' F Q Q ! Q Q Q ! ! ! C S S G H F S F ! a A W f X X X X c Z Z v a t i j i i z i d i i i i i i a i !.L K.z % v 9.9.2.2.C.",
"d d d f f d s s s 1 1 : : % % u ; * 9 l v c v ^ W W G ! ~ ! ! H G G G G ! ! ! ! f c A f e > y - a a e y a x k r i k k k i t i i i i a i i t Q.L R.% P C.1.2.1.6.",
"s s s s s y s > s 1 < O % z j = * * ; 9 * & r x ' ! ! ~ Q V V S S C C S S F F Z B c B B f v v f X X X o r y x i r v u k i f x f a i l d i i i !.L , Y 7.1.2.1.1.",
"I f P K f P K s s s 1 O : % = , 9 * 6 7 7 7 0 r B a a Z ~ ~ ! ~ H H G G G Q F F V c c v Z Z F v * e t t 9 7 r e i i k d f i i a d i i t t i i i R.F.z 2.1.B.9.3.",
"U I U P I U I K 1 R s O % y = j 6 - 6 7 t t 6 6 6 o 7 c ~ G F F G S G ! ! F F ! C f a V x l B p Z Q W v t - - , k r i i i i a y i a i t i i i d ~.] X.1.2.6.2.6.",
"P U U I P I P K s K 1 O % & X 0 ; 7 9 7 7 & 7 * e 7 7 p j 0 0 l G G ! ! F F C V A p B B c { ] { ] f l a t r r r , , , u i k f d i d i i d a i a i ~.| oX3.2.1.2.",
"U U U P I I K K K 1 s > % X X * 9 7 9 e e - 7 w e 7 - - $ % 9 v ! F D G _ ~ ! F A p n A | R ....R ] oXv Q W j r , - = , y i d a i i i f d a d j i > K.| B.1.1.2.",
"d d s s s s s > 1 K s   7 W.E.X X X X & 7 7 w w ; - ; e r ; ; = t 7 9 a W _ Q A B a p n ] u.b.b.d.R | x oX~.K.L L L L L L L L } i i a r l l f i k % F.| 1.2.2.1.",
"d K d 2 d P s 1 s > s O w '.E.4 * o f X - t & e = = - , , = = , t * * p Z F Z Z B V n F.R ^.^.^.^.,.{ R.L L  .,.,.,.,.,.,.,.,.:.L L K.~.a f d i r < oX| oX7.2.2.",
"s s s s 1 1 1 1 : 1 s X X E.E.d.g.|.'.7       & , r = = , < r , * * - ; 9 * 7 0 C Z Z F.R /.^.^.^./.E E ,.d.k.^.b.k.^.^.b.v.^.b.d.,.E L K.i i k u = ; | X.6.2.2.",
"K K K d K K s 1 K s > X p d.y.i.g./.E.B 6 a 0 * + 6 = = , = > > , ; 9 t , & - r x a p F.R /.b.^.^.^.f.f.^.^.^.^.^.^.^.^.^.^.^.^.^.b.f...L K.z r u , R.| 6.6.2.2.",
"U U U P U U P K d K w X 3 =.N J ~ C ~ $.=.-.=.8     . X j t > , ; - - - e e 9 ; - - - F.) k.^.^.^.^.^.^.^.^.^.^.^.^.^.^.^.^.^.^.^.^.^.k...L R.= > = X.K.8.6.6.2.",
"U U U U U U P d s K f X o >.-.0.;.;.e.;.$.%.-.m l S $.7 o O X t r , ; , e , ; - ; ..= | E k.^.^.^.^.^.^.^.^.^.^.^.^.^.^.^.^.^.^.^.^.^.^.k.R X.r R.L L.9.8.6.6.2.",
"P P U P P P K 2 K K y X # z.n.s.v.n.x.;.%.%.;.*.#.a.(.n X   X X e ; , ; ; z 1 y , K.L ..,.k.^.^.^.^.^.^.^.^.^.^.^.^.^.^.^.^.^.^.^.^.^.^./.:.L L L R.u 3.8.7.3.2.",
"K K K P K P P 1 > s u X # g.s.s.x.x.e.e.x.e.;.e.w.a.h.=.%.>.>.i X + + % 7 X.z , K.L ..f...u.^.^.^.^.^.^.^.^.^.^.^.^.^.^.^.^.^.^.^.^.^.^.b.f.L K.i = u 3.8.7.3.2.",
"s s d 1 1 d K < s s = X q h.r.s.c.;.c.c.x.c.c.c.v.s.h.h.(.d.^._ X . X @ 7 ..z K.L ..f.:.L R ,.^.^.^.^.^.^.^.^.^.^.^.^.^.^.^.^.^.^.^.^.^.^.f.) ~.u > s 3.8.6.2.2.",
"1 y s s d d 1 1 , d > X o 3 h 4 q 5 q q q q q 5 q a p q 8 q q w 7 0 7 @ X Y   ] ..f...R t.t.R y./.^.^.^.^.^.^.^.^.^.^.^.^.^.^.^.^.^.^.^.^.^.,.{ f % y 2.3.2.2.2.",
"d P d d s d 1 < > s e + o l l 5 m m q q q q q q q q q q q p q q 0 l l 0 6 z X.) k.^. .R t.t.L :.^.^.^.^.^.^.^.^.^.^.^.^.^.^.^.^.^.^.^.^.^.^.d.L y , f 2.2.6.B.2.",
"E U Y U U R P P K K 1 O & g.g.g.p.s.s.e.s.).`.).`.`.).v.c.p.c.c.v.h.p.h.}._.{ :.^.^.:.L L L ] u.^.^.^.^.^.^.^.^.^.^.^.^.^.^.^.^.^.^.^.^.^.^.d.L i = s 2.2.6.7.2.",
"d z 2 z P z z 1 1 s > O O _.d.h.s.c.c.s.c.m.m.n.m.m.c.c.c.c.v.v.s.v./.v.v.{ R u.^.^.^.,.:...d.v.^.^.^.^.^.^.^.^.^.^.^.^.^.^.^.^.^.^.^.^.^.k. .X.i & y B.2.2.2.2.",
". . . . . . . .   . O X & }.(._.].).).).m.m.s.p.e.s.v.m.`._.`.`.).).].(.p.h.] ..n./.^.^.^.k.^.^.^.^.^.^.^.^.^.^.^.^.^.^.^.^.^.^.^.^.^.^./.d.T ~.i & 1 S.2.2.2.2.",
"v c x v v x b b U U f a p E.i.p.a.r.r.p.i.w.;.*.w.;.;.w.v.;.;.p.p.i.e.r.*.r.0.] ....j.^.^.^.^.k.^.^.^.b.^.^.^.^.^.^.^.^.^.^.^.^.^.^.^.b...E K.k i = j 2.2.2.2.2.",
"-.$.&.&.=.&.=.-.$.%.$.=.#.;.O.N O.J J O.J O.O.H #.O.H o.#.o.o.o.N o.O.O.N N N +.] ] ) ) ) .././././.j./.k.k.k.k.k.k.k.k.k.k.v./.k.,.) ) { X.j j u = , 2.2.7.3.2.",
"*.*.%.+.*.&.*.q.i.i.;.i.;.;.e.;.*.*.*.#.%.w.i.i.w.w.e.p.;.;.;.@.*.*.O.+.s.w.r.0.r.r.| | | { R R R R R R R R T T T T T R T R R R R } | | , e u , < % , 2.7.V.3.2.",
"w.;.*.*.+.+.*.e.p.p.p.s.c.s.e.;.+.;.;.+.@.;.x.c.x.c.c.c.;.;.@.$.;.o.$.;.p.c.p.s.s.h.c.p.-.*.X.X.X.X.X.X.X.} } | | } } } } | | X.X.- > w e - % > : . < 1.V.Z.5.5.",
"s.a.s.s.a.r.r.l.h.h.h.h.v.c.s.p.e.c.x.;.x.x.c.c.x.x.x.c.c.c.x.x.c.p.x.p.x.x.c.c.x.s.c.p.p.p.;.v.s.d.d.h.y.y.g.u.r X % . - j ; & > , * - > e w > %   > M.S.M.5.5.",
"y.a.a.g.a.i.a.a.g.d.d.i.a.i.a.a.p.p.p.p.v.p.;.c.x.p.;.p.x.p.p.p.x.v.c.p.p.p.r.s.p.p.i.p.p.p./.p.a.i.h.d.g.g.E.g.6 X X X % = ; r & > w > = e y > > O s M.Z.5.M.M.",
"0 0 0 4 4 4 $ 4 3 6 6 6 3 # 3 3 3 # 3 3 8 3 3 8 8 8 8 5 8 8 8 3 3 8 3 3 5 3 3 $ 5 5 3 3 3 8 3 8 5 o 4 5 5 8 # # p 0 $ 0 +   X X 7 - 0 e - - y 1 <   & M.Z.M.S.Z.",
"D l j l M c l m m M S Q F F S S G m l C C a n C D C S G S H S S $.p q h F M l M g m M M C M n M F F q 5 m F l M q g l l j t @ X 7 7 6 7 6 6 - e O s s N.A.A.V.2.",
"h.u.i.E.z.z.z.l._._.}.}.}.}.}.[._.d.y.g.E./.E.E./._.'.}.}.'.}.}._.E.>.i.g.z.l.g.z.E.[.[.{.}.[.[.}._.m 8 n.{.0.&.J J q.&.y._.&.t o X     X       X B.S.N.A.V.N.2.",
"-.&.&.*.q.0.*.0.w.i.i.a.p.a.a.a.i.#.#.*.w.>.;.;.-.i.p.p.p.p.s.i.d.q.=.=.q.q.q.q.0.q.i.p.i.p.i.d.a.h.5 3 a.z.l.l.a.z.i.z.d.d.F o B ~ ! W ~ Z j F v ' / N.A.V.6.2.",
"$.%.&.&.&.&.#.#.#.#.#.$._ #.$.O.%.O.$.*.%.o.$.$.O.#.#.O.O.#.#.#.$._ $.$.&.&.=.&._ &.#.#.$.$.%.-.#.~ q 0 J O.{..X XOX{.OXz.l V 6 y.}. X{.'.(.g._.d.+ i 7.B.2.2.2.",
"M g l b v b b b b z b b v b l b b l V F g l l y.g.M h h q m M l D l l l b l k k b Y v v V n h m &._ g 0 z.).).).m.n.`.`.n.].=.# G q.-.q.;.;.%.-.%.w f 1.2.2.2.2.",
"h g $ ; , < < < < > = % % $ < < < % & $ 0 0 9 :.(.b 3 5 6 6 , & = < ; < , < < L < < < 1 r 0 3 8 &.' 0 0  X.X].m.e.;.v.m.{.OX=.# M &._ O.o.#.#.%.Q a f 2.2.2.2.2.",
"J 4 4 u I X.X.J.K.G.G.D.<.| D.D.L.G.X.t j ; = y.W.l # 0 j R | J.J.L.D.D.<.| | | L.G.X.[ 2 j 6 4 a.g.l o [..X0.l.]. X`.e.(..Xy.X S 0.#.#.#.;.>.g.>.8 s 2.2.8.C.2.",
"J g 6 y R F.L.L.I.J.L.D.J.P.P.P.P.J.L.1 r r 0 y.z.! j 6 < ( J.J.P.P.P.P.J.J.J.J.I.L.D.X.< u 0 0 z.y.p 6 [. X].r.{. Xc.p.]..Xy.+ b &.#.=.%.%.;.E.-.y I 2.2.6.8.2.",
"0 $ < < L L.I.P.I.J.D.J.D.P.P.P.I.D.L.2 < j @ 4 6 o 0 > < ] U.J.P.P.D.J.J.J.U.U.I.I.G.G.1 1 > & * # a 6  XOXl.l.a.i._.n.).OXy.. _ E.E.a.z.(.-.$ I 4.2.2.2.2.2.2.",
"p = K < L D.D.P.J.J.J.J.P.T.P.T.T.D.G.1 : j ; b C 6 p f 2 ] D.P.P.P.P.P.P.P.U.U.I.J.D.D.< 1 y y F q a o E.}.(.[.(.a.(.).(.[.:.+ ! d.w.-.0.d.' r I 3.2.2.2.2.2.2.",
"_ r 2 2 L L.J.I.I.U.Y.XXXXXXXXXXT.G.R.P = j 0 u.+X#.3 3 t ` L.D.!.I.I.!.~.XXXXXXXX~.H.G.K < s w d.h.a t o .  X.X.X.X XOX&.  , k 3 # o q # X g 6.C.1.2.2.5.3.2.2.",
"' ; < < L D.D.J.J.D.D.G.I.I.L.L.G.G.` s ; g + g._.V 6 6 r Y | X.G.G.<.L.L.L.K.U.I.H.G.G.K : s s g._.6 t $.J -.z.a.E.g.E.&.b Q ; V $.H N _ &._ Q ' 3.7.2.2.2.2.2.",
">.8 w 1 K ] ] L ] L L L ( L L R ] R Y = g 4 g &.g.C 8 5 6 I R ] ( R R R L L L L ] L R ] 1 e t l (.'.c + [. X$ . o # +   J }.' X $.v.(.`.`. Xy.. j 9.3.2.2.2.2.V.",
"C 5 t w P X.D.L.U.L.L.L.K.Y.L.L.J.X.X.p 4 $ 4 <.a.C 5 q - ^ X.J.I.U.I.L.L.L...Y.D.G.X.[ 1 e 0 0 h.i.6 j g.a.l.i.i.h.h.E.a.y.Q & $.m.(.).v.h.a.=...v W 2.2.2.2.S.",
"m q p > E L.R.XX~.XXXXT.T.T.T.P.I.D.L., j l $ N $.q 3 p 1 ] L.I.XXT.XXY.Y.XXY.Y.I.I.J.X.< u ; 4 N _ j j ( J  X.X.XOX.XOXa.D D o -.).).).h.r.h.E.y.& t 2.3.2.2.S.",
"m 4 * O R G.L.~.Y.Y.Y.~.T.P.Y.P.P.D.L.< ; g $ 0.h.m 6 t < ] D.U.T.T.T.T.Y.Y.U.U.J.L.<.X.< k 4 0 -.=.< $ (. X[.].z.a.z.).]. X:.@ N w.*.;.*.%.#.&._ ; c 2.7.V.3.S.",
"N $ j 2 R ..L.XXY.Y.Y.Y.Y.P.U.P.I.J.L.< $ ; $ 0.E.c # r 1 R J.P.T.T.T.Y.Y.U.J.U.I.L.| X.< , * g J ' j $ }..Xl.].s.a.m.m.[..X' $ M 0.O.O.+.#.O.=.' = z 2.2.A.N.S.",
"_ $ , 1 2 J.I.~.XXXX~.U.U.U.Y.U.XXJ.<.2 2 j j <.W.B $ j 2 E J.Y.XXXXXXY.U.J.U.U.XXY.G.G.1 > ; q d.E.l @ }..Xl.r.{. Xm.0.].OXy.@ M *.J +.O.O.w.h.y.= , 2.2.V.N.S.",
"G , , 1 R H.G.!.Q.!.!.<.<.L.U.Y.!.L...< $ % = <.W.( 0 0 & E G.K.~.R.!.L.<.L.L.L.!.!.G.X.s s y q y.d.j + }. Xm.e.). X].w.m..Xy.. l &.&.*.*.w.a.>.:.v Y 2.2.3.2.6.",
"@ * k > P ^ R X.( P ( E ] L v ( Y Y Y ; b j $ ; $ @ 9 t ; Y E Y ( Y W ( ( ( T { ] ] R ^ s s t 6 $ $ = 4 .X Xm.].p.s.l.l. XOX0.+ 0.z.s.h.h.(.*.+ v 2.2.2.2.2.2.2.",
"D # 0 q a D v Q W W f W c ! W W v b D 0 l y & ~ ' t a n t f G F W Y n b b Y Y Y W W I I p p q 0 F F j & g.z.].].m.n.).[.l.E.' + Y y.-.=.=.-.N p Z 2.2.2.2.2.2.2.",
"H 5 6 8 3 3 @ 3 @ 8 3 8 # @ o o 6 4 4 3 3 3 q i..XN o o 3 3 o 3 # 3 4 5 3 o # # 3 3 3 3 3 3 3 5 g.E.r r $   ]..X X.X XOX&.. ; y & @ X # X 3 q o t 8.6.2.2.2.2.2.",
"-.m o.#.O.#.O.$.o.%.-.;.*.-.-.;.*.o.o.+.+.o.O.c.m.@.@.0.;.;.@.;.;.+.o.o.+.+.+.+.@.+.@.@.@.@.@.@.z.Q.q 0 0.J l.l.l.s.l.m.-._ ! 7 ! y.w.y.-.H $.=.&.W ` 2.2.6.3.2.",
"n.*.p.n.v.v.n.z._.`.{.{.{.`.`.{.m.r.@.c.m.m.s.c.c.m.{.].`.{.m.`.{.e.@.@.x.m.m.c.m.m.m.{.`.`.m.{.].[.b @ [.{.0.J o.h O.+.0.[.'   y.}.[.[.).h.h.(.d.& = 2.2.6.8.2.",
";.o.+.0.@.+.+.+.*.%.;.%.*.*.*.0.0.O.J &.+.0.0.O.0.&.0.+.&.0.&.*.0.0.O.#.@.%.#.#.J &.*.0.*.0.*.-.0.-.4 $ 0.0.m.].{.{.].{.a.J F * J q.0.0.O.*.q.H _ ; 2 2.2.2.B.6.",
"O.N o.+.O.O.+.+.o.+.+.o.O.O.+.+.J ' &._ J J J J J J _ &.' O.J &.J _ &.&.#.O.#.&.#.#.#.O.O.J O.+.J N g g <.O.{.{.{..X{..Xl.N F - M O.O.O.+.O.O.&._ = z 2.2.2.6.8.",
"w.l.r.r.r.a.a.a.s.a.r.*.*.%.%.o.+.i.p.r.l.s.a.l.s.s.w.*.0.0.*.$.O.q.a.i.i.p.a.a.a.h.a.w.0.*.*.0.&.#.g $ ].{.].m.s.x.m.m.]. X>.@ c +.O.J *.*.O.(.y.+ z 2.2.2.2.8.",
"&.l.a.r.l.s.r.r.a.r.a.*.-.%.;.%.+.c.p.e.c.r.w.c.c.e.c.e.*.@.*.;.O.q.s.s.i.s.h.s.p.p.s.r.w.*.*.*.O.&.g $ ]..Xm.m.m.r.m.m.{..X&.# J J *.+.&.q.=.d.y.u z 2.6.8.3.8.",
"h.v.v.v.h.v.v.v.v.v.h.v./.v./.v.c.c.c.c.c.c.c.c.c.c.c.c.c.c.c.c.c.s.v.s.c.v.v.v.c.v.c.c.c.c.c.c.s.E.0 0 [..Xl.0.{..Xm.0.]..X=.+ ' z.E.a.z._.-.X v 1.2.2.2.6.6.B.",
"-.-.=.-.-.-.-.-.-.=.-.>.-.-.-.%.*.*.;.*.*.*.*.0.%.;.%.;.*.*.;.%.*.*.-.-.-.-.*.=.%.-.-.%.*.-.*.-.q.y.j @ [..Xl.r.].{.l.r.).OXy.o _ q.0.y.-.=._ I / B.3.2.2.7.6.8.",
"4 # & 3 3 # # & # 3 & # & 3 & # * = * & * & & & & & & & & & & * * & & & - - & = * & * & $ # $ # + # 9 &  X+X).].a.=.m.].(.OXR.. = X + * # , l 2.N.V.2.2.2.2.2.N.",
"^ Q / Q ^ ^ F ^ ^ ^ ^ ` ^ ^ ^ ^ E E ( ^ ( E ( Y ( / ^ / ( ( ( ( ( ^ ^ Q ^ ^ ^ ^ ^ ^ ^ ^ ^ ^ ^ ^ ' U  .U y.y.z.}.(.E.[.[.z.>.' E ..` ' ^ Q W Q 2.Z.B.2.2.2.2.2.2.",
"2.2.2.6.6.2.2.2.7.6.2.2.8.2.2.2.2.2.2.2.2.7.2.2.7.B.2.2.2.2.2.2.2.2.7.B.V.7.B.2.2.2.N.2.2.2.2.2.2.6.8.W.% . [.OXOX+XOX+X0.  / 6.6.2.2.2.2.A.V.N.S.N.2.2.2.2.2.2.",
"2.2.2.B.8.2.2.2.2.8.2.6.B.2.2.2.2.3.6.2.2.B.N.2.V.2.2.7.B.2.7.N.2.2.7.N.B.6.V.2.2.2.N.2.2.6.6.2.2.8.6.2.2.N.' F F ' b F ..} 5.8.2.2.2.6.N.N.S.N.A.2.V.V.2.2.2.2.",
"2.2.2.2.3.2.2.2.2.B.7.8.6.2.2.2.2.2.2.2.2.6.B.2.V.2.7.A.N.2.3.3.2.2.2.3.6.2.6.2.2.2.2.2.2.3.8.2.7.B.2.2.2.2.@ = = % j = b 8.6.8.2.2.2.2.V.N.S.N.A.V.S.N.2.2.2.2.",
"2.7.2.2.2.2.2.7.6.6.7.8.2.6.C.6.2.2.2.2.2.6.A.N.V.6.A.N.2.2.2.2.2.2.2.2.2.2.2.7.2.2.2.2.3.2.8.7.8.3.2.2.2.2.2.6.8.6.2.2.2.2.2.2.2.2.2.2.V.B.S.N.A.A.N.3.2.2.4.2."
};
