/* XPM */
static char *cd5e413147074569b8c1cf2e2e787993TsPcYThHN1DVU7Qy[] = {
/* columns rows colors chars-per-pixel */
"80 80 157 2 ",
"   c black",
".  c #03060A",
"X  c #06090A",
"o  c #090A0B",
"O  c #070F17",
"+  c #0E1112",
"@  c #071019",
"#  c #09131C",
"$  c #111416",
"%  c #15191B",
"&  c #181C1E",
"*  c #0B1824",
"=  c #0D1C2A",
"-  c #191E20",
";  c #0E1F30",
":  c #1C2124",
">  c #16212A",
",  c #1F2528",
"<  c #0F2031",
"1  c #142534",
"2  c #172A3D",
"3  c #21272A",
"4  c #232A2D",
"5  c #272F32",
"6  c #293135",
"7  c #2D363A",
"8  c #2F393D",
"9  c #313A3E",
"0  c #142B41",
"q  c #17324C",
"w  c #1A3249",
"e  c #1A3754",
"r  c #353F43",
"t  c #253C51",
"y  c #364145",
"u  c #3B474C",
"i  c #3D494E",
"p  c #3F4B50",
"a  c #234669",
"s  c #414E53",
"d  c #435156",
"f  c #46555B",
"g  c #48565D",
"h  c #4D5D65",
"j  c #506067",
"k  c #53636A",
"l  c #5B6D75",
"z  c #5E7177",
"x  c #62767E",
"c  c #6DD74E",
"v  c #6AD949",
"b  c #72DE4B",
"n  c #79DF4B",
"m  c #6ED650",
"M  c #71D554",
"N  c #74DA51",
"B  c #7ADD52",
"V  c #77D758",
"C  c #75E14C",
"Z  c #7BE44D",
"A  c #7EE84E",
"S  c #7CE352",
"D  c #59C67C",
"F  c #82DC54",
"G  c #83E44C",
"H  c #8AE64D",
"J  c #82EB4F",
"K  c #8DEB4D",
"L  c #93EC4F",
"P  c #9BEE4F",
"I  c #87F14F",
"U  c #93F04F",
"Y  c #9BF24F",
"T  c #82E454",
"R  c #82EB50",
"E  c #83E659",
"W  c #92E556",
"Q  c #94EC51",
"!  c #9AEE51",
"~  c #9FEA58",
"^  c #96F351",
"/  c #9DF151",
"(  c #A4F452",
")  c #A9F653",
"_  c #ACF953",
"`  c #AEF558",
"'  c #B0FB53",
"]  c #285582",
"[  c #2B5B8B",
"{  c #2F6499",
"}  c #326BA3",
"|  c #3775B3",
" . c #5F798A",
".. c #657982",
"X. c #6A7E87",
"o. c #6C828B",
"O. c #70868F",
"+. c #748B94",
"@. c #748D9A",
"#. c #7A939C",
"$. c #56BF8B",
"%. c #5488B7",
"&. c #7D97A3",
"*. c #3D81C5",
"=. c #4087CD",
"-. c #428BD4",
";. c #438FDC",
":. c #4490DD",
">. c #72A8D5",
",. c #4695E2",
"<. c #4798E8",
"1. c #4899E9",
"2. c #4A9EF1",
"3. c #639BEA",
"4. c #4CA2F7",
"5. c #4EA6FF",
"6. c #4FA9FF",
"7. c #50A7FF",
"8. c #6CB9FF",
"9. c #77B3FF",
"0. c #72BCFF",
"q. c #839DA8",
"w. c #86A0AB",
"e. c #89A4AF",
"r. c #87A3B1",
"t. c #8AA6B2",
"y. c #8EA9B5",
"u. c #8FABB8",
"i. c #91AEBA",
"p. c #95B2BE",
"a. c #97B5C2",
"s. c #98B6C3",
"d. c #9AB8C6",
"f. c #9EBDCB",
"g. c #A0BFCD",
"h. c #DFB6FE",
"j. c #FBB7FD",
"k. c #98C1DC",
"l. c #A1C0CE",
"z. c #A4C4D2",
"x. c #A7C8D6",
"c. c #A9CAD6",
"v. c #ACCDDC",
"b. c #AED0DF",
"n. c #9DCDED",
"m. c #89C9FF",
"M. c #99D3FF",
"N. c #AFD1E0",
"B. c #B2D5E4",
"V. c #B5D9E4",
"C. c #A2D8FF",
"Z. c #A9DCFF",
"A. c #C7E2EE",
"S. c #DDEEF5",
"D. c #DBF0FF",
"F. c #F1F6FF",
"G. c white",
/* pixels */
"v v v v v v v v v A Z C A C S v v v v J C v G                                               b Z A C R Z v v v v v v v v v v v v v v v v G G ) G P P b v v v v v ",
"v v v v v v b v v A A C A C S v v v v v L v                                                 C Z A v A v v v v v v b v v v b Z v v v v v v v Q C H v v v v C v v ",
"v C v v v Z v v v C A C A v b v v v v v U v o o o o o X o o o o o o o o o o o . . o o o o o b A A C R v v v P K v b n v v J v v v v v v v v v v v v v v Z I v v ",
"v C b v b A v v v v v v b v v v A           +.d.d.d.d.d.d.d.a.d.s.d.d.d.d.d.d.d.d.d.d.s.s.d.j           v b _ / v v A v C R v v v v v Z v v v v v v v v v C v v ",
"v C A v R Z v v v v v C C v v v A           e.G.G.G.G.G.G.G.G.G.G.G.G.G.G.G.G.G.G.G.G.G.G.G.l           v v b v v v J A A C v v v v v C A v v C C v v v v v v v ",
"C C R C A v C C v v v ( _ v v v v 7 8 8 8 9 a.G.G.G.G.G.G.G.G.G.G.G.G.G.G.G.G.G.G.G.G.G.G.G.+.8 8 8 9 7 v v v v C Z v R Z C C R C v v b Z v v R C v v v v v H v ",
"C                               3 B.G.G.G.G.G.G.G.G.G.G.G.G.G.G.G.G.G.G.G.G.G.G.G.G.G.G.G.G.G.G.G.G.G.p..                               C C Z R v v v v v H ) v ",
"v                               , S.G.G.G.G.G.G.G.G.G.G.G.G.G.G.G.G.G.G.G.G.G.G.G.G.G.G.G.G.G.G.G.G.G.s.X                               Z C R v v v v v v L K v ",
"b     y o.o.o.o.o.o.o.o.o.o.o.o.#.G.G.G.G.G.G.G.G.G.G.G.G.G.G.G.G.G.G.G.G.G.G.G.G.G.G.G.G.G.G.G.G.G.G.B.O.o.o.o.o.o.o.o.o.o.o.o.X.:     C C Z v v v v b v ! n G ",
"v     ..G.G.G.G.G.G.G.G.G.G.G.G.G.G.G.G.G.G.G.G.G.G.G.G.G.G.G.G.G.G.G.G.G.G.G.G.G.G.G.G.G.G.G.G.G.G.G.G.G.G.G.G.G.G.G.G.G.G.G.G.G.y     v v v v v v b L G P G ) ",
"v     ..G.G.G.G.G.G.G.G.G.G.G.G.G.G.G.G.G.G.G.G.G.G.G.G.G.G.G.G.G.G.G.G.G.G.G.G.G.G.G.G.G.G.G.G.G.G.G.G.G.G.G.G.G.G.G.G.G.G.G.G.G.y     v v v v v v v G ! ! G ) ",
"n     ..G.G.G.G.G.G.G.G.G.G.G.G.G.G.G.G.G.G.G.G.G.G.G.G.G.G.G.G.G.G.G.G.G.G.G.G.G.G.G.G.G.G.G.G.G.G.G.G.G.G.G.G.G.G.G.G.G.G.G.G.G.y     v v v v b v v n P P G ( ",
"v     ..G.G.G.G.G.G.G.G.G.G.G.G.G.G.G.G.G.G.G.G.G.G.G.G.G.G.G.G.G.G.G.G.G.G.G.G.G.G.G.G.G.G.G.G.G.G.G.G.G.G.G.G.G.G.G.G.G.G.G.G.G.y     v v v v v b v v b b v b ",
"v     k y.u.n.C.C.C.C.C.C.C.C.C.Z.G.G.G.G.G.G.G.G.G.G.G.G.G.G.G.G.G.G.G.G.G.G.G.G.G.G.G.G.G.G.G.G.G.G.G.C.Z.C.C.C.C.C.C.C.C.k.t.t.9     L G v v v H n v v v v v ",
"v v v     o *.j.j.j.j.j.j.j.j.j.9.G.G.G.G.G.G.G.G.G.G.G.G.G.G.G.G.G.G.G.G.G.G.G.G.G.G.G.G.G.G.G.G.G.G.Z.j.j.j.j.j.j.j.j.j.j.[     n ) H ! v v n v v v v v v v v ",
"v A C     . *.j.j.j.j.j.j.j.j.j.9.G.G.G.G.G.G.G.G.G.G.G.G.G.G.G.G.G.G.G.G.G.G.G.G.G.G.G.G.G.G.G.G.G.G.Z.j.j.j.j.j.j.j.j.j.j.[     H ( H P v v b b v v b C v Z A ",
"R A v     . *.j.j.j.j.j.j.j.m.M.M.G.G.G.G.G.G.G.G.G.G.G.G.G.G.G.G.G.G.G.G.G.G.G.G.G.G.G.G.G.G.G.G.G.G.G.M.M.0.j.j.j.j.j.j.j.[     H / G P v v v A v v R Z v v R ",
"R v v     X *.j.j.j.j.j.j.j.Z.G.G.G.G.G.G.G.G.G.G.G.G.G.G.G.G.G.G.G.G.G.G.G.G.G.G.G.G.G.G.G.G.G.G.G.G.G.G.G.m.j.j.j.j.j.j.j.[     v v v v v v v C b b R v v v v ",
"R v R C   . | ,.3.j.j.j.j.h.C.G.G.G.G.G.G.G.G.G.G.G.G.G.G.G.G.G.G.G.G.G.G.G.G.G.G.G.G.G.G.G.G.G.G.G.G.G.G.G.m.j.j.j.j.j.<.,.]     v v C v v v v Z C J Z v v v v ",
"R Z A v v v # * q j.j.m.G.G.G.G.G.G.G.G.G.G.G.G.G.G.G.G.G.G.G.G.G.G.G.G.G.G.G.G.G.G.G.G.G.G.G.G.G.G.G.G.G.G.G.G.D.9.j.-.= # # b b v v b v v v v C C J v v K n b ",
"R C C v v v     < j.j.m.G.G.G.G.G.G.G.G.G.G.G.G.G.G.G.G.G.G.G.G.G.G.G.G.G.G.G.G.G.G.G.G.G.G.G.G.G.G.G.G.G.G.G.G.G.8.j.=..     v v v v v v v v L v v v v v b v v ",
"A v v v v v v   = { } >.G.G.G.G.G.G.G.G.G.G.G.G.G.G.G.G.G.G.G.G.G.G.G.G.G.G.G.G.G.G.G.G.G.G.G.G.G.G.G.G.G.G.G.G.G.%.} [ o   v v C b v v v v v v v v v v n v v v ",
"v v v v C C v v v     l G.G.G.G.G.G.G.G.G.G.G.G.G.G.G.G.G.G.G.G.G.G.G.G.G.G.G.G.G.G.G.G.G.G.G.G.G.G.G.G.G.G.G.G.G.7     v v v n U K v b Z b v v v v v b K v v v ",
"v Z G v R Z v v v     l G.G.G.G.G.G.G.G.G.G.G.G.G.G.G.G.G.G.G.G.G.G.G.G.G.G.G.G.G.G.G.G.G.G.G.G.G.G.G.G.G.G.G.G.G.7     v v v v C U C K U b v v C b v v v v v v ",
"v b b v b v v v v     l G.G.G.G.G.G.G.y.p i s i k S.G.G.G.G.G.G.G.G.G.G.G.G.G.G.G.G.G.l.s p p p g v.G.G.G.G.G.G.G.7     v v v K v U C U v v v v v A b v v C v v ",
"v v v v v b b v v     l G.G.G.G.G.G.G.+.        & B.G.G.G.G.G.G.G.G.G.G.G.G.G.G.G.G.G.u.        . l.G.G.G.G.G.G.G.7     v v v ^ G K Z U v v v v v A C v C C v v ",
"b G v v c L G v v     l G.G.G.G.G.c.c.X.    # = w s.c.B.G.G.G.G.G.G.G.G.G.G.G.G.G.b.c.&.X   O * 1 y.c.B.G.G.G.G.G.7     v v v Z K U C K v v v v v C I v A C v v ",
"n _ n v n P v v v     l G.G.G.G.c.: $ + G.G.D D $.> $ k G.G.G.G.G.G.G.G.G.G.G.G.S.7 $ + G.G.;.1.:.2 + u G.G.G.G.G.7     v v v b C L C I v v v Z b v A C A b C v ",
"v P L v P n v v v     l G.G.G.G.z.+     G.G.D D D O   g G.G.G.G.G.G.G.G.G.G.G.G.A.,     G.G.6.6.2.<   7 G.G.G.G.G.7     v v v v v b v b v v v C I C A b A C C v ",
"v H ' G ) v v v v     l G.G.G.G.z.+   1 G.G.D D D @   f G.G.G.G.G.G.G.G.G.G.G.G.A.,   * G.G.5.5.1.1   9 G.G.G.G.G.7     v v v v v v v v v v v v C C A b A Z b v ",
"v v P G ) v v v v     l G.G.G.G.z.+   a D D D D D O   f G.G.G.G.G.G.G.G.G.G.G.G.A.,   q 4.7.5.5.2.;   7 G.G.G.G.G.7     v v C J C v v v b b v v C C A C A A b v ",
"v v G b H v v v v     l G.G.G.G.c.% X a D D D D D % X h G.G.G.G.G.G.G.G.G.G.G.G.A.4 X w 2.4.4.4.<.1 X r G.G.G.G.S.7     J b R C v v v v v v v v b b A C Z C v v ",
"v v v v v v v v v v v 5 9 y g.G.G.s.p. .2 0 0 0 t r.p.z.G.G.G.G.G.G.G.G.G.G.G.G.G.f.p.@.0 0 0 0 w &.p.g.G.G.#.r 9 v v v Z C A v C C v v v v b v v v v v b v v v ",
"b A C v v v v v R C v v     i.G.G.G.G.+.        & A.G.G.G.G.G.G.G.G.G.G.G.G.G.G.G.G.G.i.        X l.G.G.G.G.x     v v v Z C A C R b v v v ^ _ v v v v v v Z H v ",
"b A C v v v v A A v v v   X i.G.G.G.G.w.6 6 5 6 i A.G.G.G.G.G.G.G.z.f.c.G.G.G.G.G.G.G.d.7 6 6 6 r x.G.G.G.G.x     v v v Z C R C S v v v v K / v v v v v v C Z v ",
"v v v C v v C S v v v v   X i.G.G.G.G.G.G.G.G.G.G.G.G.G.G.G.G.G.B.3 o f G.G.G.G.G.G.G.G.G.G.G.S.G.G.G.G.G.G.x     v v v Z C R v b v v C v v v v v v L K v v v v ",
"v v v b A v A b v b A b   X i.G.G.G.G.G.G.G.G.G.G.G.G.G.G.G.G.G.B.%   i G.G.G.G.G.G.G.G.G.G.G.G.G.G.G.G.G.G...    v v v v v C v v v v v v v v v v v ) ) v v v v ",
"v v v v A v Z b b R C v v X k x +.G.G.G.G.G.G.G.G.G.G.G.G.G.G.G.G.+...q.G.G.G.G.G.G.G.G.G.G.G.G.G.G.G.b...x p v v v v v v v v v v v v v v v v v v v b c v v v v ",
"v v v v A A Z b R A v v v v     , S.G.G.G.G.G.G.G.G.G.G.G.G.G.G.G.G.G.G.G.G.G.G.G.G.G.G.G.G.G.G.G.G.G.s.    v v v v v v v v v v v S R C v v C v v v v v v n b v ",
"v v b v v A A C A v v C v v     3 N.G.S.G.S.G.G.S.G.S.G.S.G.S.G.S.G.S.G.S.G.G.S.G.S.G.G.S.G.S.G.S.G.G.i.o   v v v v Q R v v C v v v Z A b A Z v n n v v n L b v ",
"v v v A v A A C J v n C v v v v v 5 5 5 5 5 5 5 5 5 5 5 5 5 5 5 5 5 5 5 5 5 5 5 5 5 5 5 5 5 5 5 5 6 6 4 v v v v v L _ G v v b v C n m S S S c c n ! B c K W m c ",
"v v v A b A A v J v Z C v v C v v                                                                       v v v v v ( G v v v v v S E N E B B M M M ~ F F ` W M M ",
"v v v b b A A C J v C b v v v v v               o 8 y r r r r y y r r r r r r r y r r r r r r r r r y 9 v L G v ! G v b G c v v v F b T B S m V B W ` F ~ m F F ",
"v v v v v C C v C v v v v v v v v R C v v v     - b.G.G.G.G.G.G.G.G.G.G.G.G.G.G.G.G.G.G.G.G.G.G.G.G.G.i.X   ) v ! G v / ) b v v v n N Z S S c N ~ n ) F ~ G ` W ",
"Z v v v v v v v v v v v v C v v Z b v v v v     - B.G.G.G.G.G.G.G.G.G.G.G.G.G.G.G.G.G.G.G.G.G.G.G.G.G.a.X   _ L P G P ) n v v v v v v b c v v v K K ) G ! P P v ",
"v v v v v v C v v v v v v C Z v A v v A     l +.&.G.G.G.G.G.G.G.G.G.G.G.G.G.G.G.G.G.G.G.G.G.G.G.G.G.G.B.+.+.g     G _ n v c v v v v v v v v v v K H ( G ! P Z v ",
"v v b C v v v v v Z J v v C A v J v Z R     t.G.G.G.G.G.G.G.G.G.G.G.G.G.G.G.G.G.G.G.G.G.G.G.G.G.G.G.G.G.G.G...    H ) v n P b v b b v v v v v v H G ( G Y L n v ",
"v v A U A v Z A v v v v v b A C R C J b     e.G.G.G.G.G.G.G.G.G.G.G.G.G.G.G.G.G.G.G.G.G.G.G.G.G.G.G.G.G.G.G.o.$ $ G ) v L G v v v v v v v v v v v v L n H v v v ",
"v v v Z U C Y K v v v v C v Z C A C A v     e.G.G.G.G.G.G.G.G.G.G.G.G.G.G.G.G.G.G.G.G.G.G.G.G.G.G.G.G.G.G.G.S.c.z.7     P G v v v v v v A v v v v v v v v v v v ",
"v C G v U Z K v v v v v v Z C C A C Z v   X e.G.G.G.G.G.G.G.G.G.G.G.G.G.G.G.G.G.G.G.G.G.G.G.G.G.G.G.G.G.G.G.G.G.G.6     b v v v v v v v A R v v v v v v v v v v ",
"v Z Y C U Z G v v v v v v J Z C A C Z v     t.G.G.G.G.G.G.G.G.G.G.G.G.G.G.G.G.G.G.G.G.G.G.G.G.G.G.G.G.G.G.G.G.G.G.x s u v v v v v v v v v Z C v v v v v v Z I v ",
"v v K Z U A G v v v v v v C C C A C Z v     t.G.G.G.G.G.G.G.G.G.G.G.G.G.G.G.G.G.G.G.G.G.G.G.G.G.G.G.G.G.G.G.G.G.G.G.G.f.o     v v v C C v v A           v C A v ",
"v v b b U Z H v v v G C v v C v b v C v     e.G.G.G.G.G.G.G.G.G.G.G.G.G.G.G.G.G.G.G.G.G.G.G.G.G.G.G.G.G.G.G.G.G.G.G.G.f.o     v v v C R C v R           v v v v ",
"v v v v b v v v v v b b v v v v v v v v     e.G.G.G.G.G.G.G.G.G.G.G.G.G.G.G.G.G.G.G.G.G.G.G.G.G.G.G.G.G.G.G.G.G.G.G.G.g.+     v v v v C     e } } } } { @   v v ",
"v v v v b v v v v v v v v v b v v v v v     e.G.G.G.G.G.G.G.G.G.G.G.G.G.G.G.G.G.G.G.G.G.G.G.G.G.G.G.G.G.G.G.G.G.G.G.G.f.o     v v v v v     a F.G.G.G.,.#     v ",
"v v v v C v v v v b b v v C H v v v n v     e.G.G.G.G.G.G.G.G.G.G.G.G.G.G.G.G.G.G.G.G.G.G.G.G.G.G.G.G.G.G.G.G.G.G.G.G.z.4 - & v v C C v     a G.G.G.G.:.@     v ",
"v v v v v v v v Z H b v v v v v v b H C     e.G.G.G.G.G.G.G.G.G.G.G.G.G.G.G.G.G.G.G.G.G.G.G.G.G.G.G.G.G.G.G.G.G.G.G.G.G.B.V...    v J v     h G.G.G.G.*.@     / ",
"C I v v v v v v J b v v v v v v v v G Z     t.G.G.G.G.G.G.G.G.G.G.G.G.G.G.G.G.G.G.G.G.G.G.G.G.G.G.G.G.G.G.G.G.G.G.G.G.G.G.G.o.    v A v     j G.G.G.G.,.@     ) ",
"( v v v A v v A v v v b v v v v v b G Y     x #.q.G.G.G.G.G.G.G.G.G.G.G.G.G.G.G.G.G.G.B.#.@.l.G.G.G.G.G.G.G.G.G.G.G.G.G.G.G.o.    v v v     k G.G.G.G.>.#     ) ",
"_ v v v v A b A b v A A v v C v v J C K C U     - B.G.G.G.G.G.G.G.G.G.G.G.G.G.G.G.G.G.i.    O.G.G.G.G.G.G.G.G.G.G.G.G.G.G.G.o.    v v v     j G.G.G.G.v.%     ) ",
"_ v v v b A b A v A A b v v v v v n K K C U     : B.G.G.G.G.G.G.G.G.G.G.G.G.G.G.G.G.G.y.X   o.G.G.G.G.G.G.G.G.G.G.G.G.G.G.G.o.    v v b     j G.G.G.G.v.%     ) ",
"G v v v v Z C A C I v v v v v v v C K K n U     - B.G.G.G.G.G.G.G.G.G.G.G.G.G.G.G.G.G.y.    o.G.G.G.G.G.G.G.G.G.G.G.G.G.G.G.o.    b v b     j G.G.G.G.v.%     ) ",
"v v v Z C C Z A b A v v C v v v v n J L C P     : B.G.G.G.G.G.G.G.G.G.G.G.G.G.G.G.G.G.u.X   o.G.G.G.G.G.G.G.G.G.G.G.G.G.G.G.o.    v v v     h G.G.G.G.b.%     b ",
"v v v v A C C A b A v A v v v v v v v G b J     : B.G.G.G.G.G.G.G.z.z.v.G.G.G.G.G.G.G.u.X   o.G.G.G.G.G.G.G.G.G.G.G.G.G.G.G.o.    v v v 4 4 ..G.G.b.z.i.%     v ",
"v v v v J C Z A b G v J v v v v v v v v v v     : B.G.G.G.G.G.G.B.5 + g G.G.G.G.G.G.G.u.    o.G.G.G.G.G.G.G.G.G.G.G.G.G.G.G.o.        3 v.S.G.G.G.g + + v v v v ",
"v v v v C C C A b C v v v v H Z v v v v v v     : B.G.G.G.G.G.G.N.&   p G.G.G.G.G.G.G.u.X   o.G.G.G.G.G.G.G.G.G.G.G.G.G.G.G.o.        : S.G.G.G.G.p     v v v v ",
"v v v v v v v v v v v v v v b / b v v L b v     - B.G.G.G.G.G.G.B.-   p G.G.G.G.G.G.G.i.    o.G.G.G.G.G.G.G.G.G.G.G.G.G.G.G.o.    d z o.G.G.G.G.G.p     v C C v ",
"v v v v v v v v v v v v v v v ( H v L H v v     : B.G.G.G.G.G.G.B.-   p G.G.G.G.G.G.G.u.X   o.G.G.G.G.G.G.G.G.G.G.G.G.G.G.G.o.  X i.G.G.G.G.G.G.G.p     v C J v ",
"b J b v v v v v v v v v v v v K _ n ( H v v     : v.G.G.G.G.G.G.B.&   p G.G.G.G.G.G.G.t.X   o.G.G.G.G.G.G.G.G.G.G.G.G.G.G.G.o.    i.G.G.G.G.G.G.G.u     v v A A ",
"A Z v v v v v v v v v v b ! H v ) G ( n L v v v v 7 7 ..G.G.G.G.B.-   p G.G.G.G.S.f 7 6 G.G.G.G.G.G.G.G.G.G.G.G.G.G.G.G.G.G.o.  X i.G.G.G.G.e.7 7 v v v v v C A ",
"R v v A v v v Y ( v v v v K _ G ) G P ! G v v v v     f G.G.G.G.B.&   s G.G.G.G.A.:     G.G.G.G.G.G.G.G.G.G.G.G.G.G.G.G.G.G.o.    p.G.G.G.G.@.    b v v v v v A ",
"I v A v v v v Y P v v v v v P H ( H P P n v v v v     i G.G.G.G.B.&   s G.G.G.G.B.-     G.G.G.G.G.G.G.G.G.G.G.G.G.G.G.G.G.G.o.  X o.d.s.s.d.x     C b v C A C A ",
"R C J v v v v v v v v v v v L H ( H P P n v v v v     o G.G.G.G.B.-   p G.G.G.G.G.      G.G.G.G.G.G.G.G.G.G.G.G.G.G.G.G.G.G.o.    X X X X o X v v v v v v Z b A ",
"R C Z v v v v v v v v b v v C b ) G ! G b v b b v       G.G.G.G.B.:   s G.G.G.G.G.      G.G.G.G.G.G.G.G.G.G.G.G.G.G.G.G.G.G.o.                v v K b v v Z b A ",
"R v v v v Z J v v v v v v v v v n v b v v v v v v       G.G.G.G.f.o   4 G.G.G.G.G.      G.G.G.G.G.G.G.G.G.G.G.G.G.G.G.N.x l d v v v v v G H v v H L v v v v v G ",
"v v v v v v v v v v v v b C v v v v v v v v v v v       G.G.G.G.G.      G.G.G.G.G.      G.G.G.G.G.G.G.G.G.G.G.G.G.G.G.l.o     v v v v v c P n v P H v v v v v v ",
"v v v b C v v v A C v v A v v v v v v v v A v v G       G.G.G.G.G.      G.G.G.G.G.      G.G.G.G.G.G.G.G.S.S.S.S.S.S.S.a.o     C C v v v v P L G _ G v v v v v v ",
"v v v A A v v v v A v Z A v v v v v n v v G Z v U v v Z           v Z H                               o 3 4 3 4 4 , 4 3 Z A b A v v v b H G ) G P v L K v v v v ",
"v v v b b v v v v J Z A C v v v v v v v v C K v L v A ^           v v b                                                 C A C A v v v v L G ) G P P _ G v v v v ",
"v Z v v v v v S C C Z A v C J C v v v v v b ^ H U C ^ G           v v v                                                 v v v v v v v v L K ) G P / G v v v n v "
};
