/* XPM */
static char *_d0f2dcc47274a2df9461d87cf4b12dcYYx2cR05VA7vubTB[] = {
/* columns rows colors chars-per-pixel */
"80 80 208 2 ",
"   c black",
".  c #03060A",
"X  c #06090A",
"o  c #090A0B",
"O  c #150904",
"+  c #1C1306",
"@  c #080F16",
"#  c #0B1117",
"$  c #15191B",
"%  c #281506",
"&  c #341C04",
"*  c #271C18",
"=  c #2C210A",
"-  c #33230C",
";  c #392509",
":  c #3A320C",
">  c #2B2317",
",  c #352616",
"<  c #352A1B",
"1  c #3B2C19",
"2  c #3B321B",
"3  c #0C1B28",
"4  c #191E20",
"5  c #1D2226",
"6  c #142536",
"7  c #262729",
"8  c #372C27",
"9  c #3A3429",
"0  c #272F32",
"q  c #2B3438",
"w  c #2D363A",
"e  c #393736",
"r  c #48330B",
"t  c #452D17",
"y  c #4F3111",
"u  c #46341A",
"i  c #422F24",
"p  c #463828",
"a  c #533C24",
"s  c #553D29",
"d  c #443635",
"f  c #473B33",
"g  c #453B3A",
"h  c #4A3D3B",
"j  c #523E34",
"k  c #54431C",
"l  c #65471D",
"z  c #4B4228",
"x  c #58462A",
"c  c #5B452D",
"v  c #4B423A",
"b  c #564637",
"n  c #5B4633",
"m  c #5C4A34",
"M  c #5A5238",
"N  c #62472D",
"B  c #68542B",
"V  c #785A2A",
"C  c #644B34",
"Z  c #6A5439",
"A  c #73583B",
"S  c #796438",
"D  c #162F46",
"F  c #353F43",
"G  c #253C51",
"H  c #473E41",
"J  c #394449",
"K  c #3F4B50",
"L  c #224669",
"P  c #4B4545",
"I  c #534543",
"U  c #584746",
"Y  c #574A44",
"T  c #554B4A",
"R  c #5B4C4B",
"E  c #5B544C",
"W  c #414E53",
"Q  c #47545A",
"!  c #624E45",
"~  c #6C5A43",
"^  c #735842",
"/  c #695656",
"(  c #695957",
")  c #685758",
"_  c #5C6056",
"`  c #7C6244",
"'  c #786549",
"]  c #69635A",
"[  c #756A56",
"{  c #4D5D65",
"}  c #6F5E60",
"|  c #516168",
" . c #5B6D75",
".. c #5E7177",
"X. c #746664",
"o. c #736D66",
"O. c #63767D",
"+. c #845C33",
"@. c #876739",
"#. c #906C39",
"$. c #A2743E",
"%. c #876A49",
"&. c #946E4A",
"*. c #897349",
"=. c #97764A",
"-. c #866D57",
";. c #8C7254",
":. c #897658",
">. c #947657",
",. c #A47B50",
"<. c #887465",
"1. c #927A65",
"2. c #71B459",
"3. c #758171",
"4. c #69D64C",
"5. c #6AD949",
"6. c #72DE4B",
"7. c #79DF4A",
"8. c #79E44D",
"9. c #7AE44D",
"0. c #59C67C",
"q. c #988550",
"w. c #9B8458",
"e. c #A78759",
"r. c #B48A5A",
"t. c #AF9058",
"y. c #94876A",
"u. c #948678",
"i. c #A98C66",
"p. c #B68D66",
"a. c #AB9368",
"s. c #B89568",
"d. c #A78D75",
"f. c #A99576",
"g. c #B89A75",
"h. c #BAA36D",
"j. c #B9A478",
"k. c #C0905F",
"l. c #C49769",
"z. c #C49A74",
"x. c #C7A777",
"c. c #CDAC75",
"v. c #82E84D",
"b. c #8FEE50",
"n. c #AAF752",
"m. c #2B5A8A",
"M. c #2F6499",
"N. c #336CA5",
"B. c #5F798A",
"V. c #667A83",
"C. c #847F87",
"Z. c #6C828B",
"A. c #748C96",
"S. c #778F98",
"D. c #6D9CA2",
"F. c #3D81C5",
"G. c #438ED9",
"H. c #6DA3DC",
"J. c #4899E9",
"K. c #4DA5FC",
"L. c #50A7FF",
"P. c #74B6FF",
"I. c #7FC4FF",
"U. c #939C9E",
"Y. c #AB9987",
"T. c #B8A586",
"R. c #AEA593",
"E. c #89A4AF",
"W. c #8DA9B5",
"Q. c #91AEBA",
"!. c #95B2BE",
"~. c #C09B89",
"^. c #C5AA86",
"/. c #CDB58E",
"(. c #D7B888",
"). c #C9B697",
"_. c #DCBC95",
"`. c #ADE292",
"'. c #D8C38A",
"]. c #D8C598",
"[. c #EBCC94",
"{. c #DBC7A5",
"}. c #CFC7B6",
"|. c #E9D3AC",
" X c #F6DAA9",
".X c #F9E6B1",
"XX c #FBE6B8",
"oX c #9AB8C5",
"OX c #9AB8C6",
"+X c #A0BFCD",
"@X c #DFB6FE",
"#X c #FBB7FD",
"$X c #98C1DC",
"%X c #A8C8D6",
"&X c #A8C8D7",
"*X c #92CEFD",
"=X c #AFD1E0",
"-X c #B2D5E4",
";X c #B5D9E4",
":X c #A2D8FF",
">X c #A9DCFF",
",X c #FDEBC4",
"<X c #FFF5C8",
"1X c #F6F0D8",
"2X c #CAE4F0",
"3X c #DDEEF5",
"4X c #F1F6FF",
"5X c white",
/* pixels */
"5.5.p < n m C x a p d s n b Z n C ^ A Z A Z Z                                               ;.>.;.%.%.-.;.-.:.%.;.>.>.>.>.-.1.<.h d Y b v Y ] o.C./ } } } <.} } ",
"5.5.9 , j c s a c n b b n m n c C A A Z A ^                                                 ;.;.>.>.>.>.:.>.:.;.-.-.&.>.<.-.<.[ p d ( ( ( ( ( ( ) ) ( ( ) ) ) ) ",
"5.8.f , s c s u m m b m n n n c C ^ ^ A ^ A . o o o o . o o o o o o o o o o o . . o o o o o >.%.%.&.;.;.:.;.-.%.>.;.%.>.-.>.<.<.p j [ X.o.X.( / / R R ( ) ) ) / ",
"5.8.9 < b c c s n n b m n n n C Z           A.oXoXoXoXoXoXoXoXoXoXoXoXOXOXOXOXOXoXoXoXoXoXoX{           :.:.:.;.>.%.A A ^ ^ <.<.d h ] } X.( ( ( R / / ( ) ) ) / ",
"5.8.9 < b C N n n m m b n n n m Z           E.5X5X5X5X5X5X5X5X5X5X5X5X5X5X5X5X5X5X5X5X5X5X5X .          ;.;.;.;.%.%.+.^ Z ^ -.<.j f ] ] X.] ( / / / / / ) ) ) ) ",
"8.5.f 1 m m n c b b m b b n m x C w w w w w oX5X5X5X5X5X5X5X5X5X5X5X5X5X5X5X5X5X5X5X5X5X5X5XA.w F w w q :.[ A Z Z %.;.>.-.-.<.<.d j ] X.X.] / / / / / / ) ) ) ) ",
"8.                              7 -X5X5X5X5X5X5X5X5X5X5X5X5X5X5X5X5X5X5X5X5X5X5X5X5X5X5X5X5X5X5X5X5X5X!.X                               } ( } ( / ) } } ) ) ) } ",
"5.                              5 3X5X5X5X5X5X5X5X5X5X5X5X5X5X5X5X5X5X5X5X5X5X5X5X5X5X5X5X5X5X5X5X5X5XoXX                               b U ( o.<.} } } } } } <.",
"6.    J Z.Z.Z.Z.Z.Z.Z.Z.Z.Z.Z.Z.S.5X5X5X5X5X5X5X5X5X5X5X5X5X5X5X5X5X5X5X5X5X5X5X5X5X5X5X5X5X5X5X5X5X5X-XZ.Z.Z.Z.Z.Z.Z.Z.Z.Z.Z.Z.V.5     I R / o.X.} } X.} } } } ",
"5.    V.5X5X5X5X5X5X5X5X5X5X5X5X5X5X5X5X5X5X5X5X5X5X5X5X5X5X5X5X5X5X5X5X5X5X5X5X5X5X5X5X5X5X5X5X5X5X5X5X5X5X5X5X5X5X5X5X5X5X5X5X5XJ     h Y / o.X.X.} X.} <.<.} ",
"5.    V.5X5X5X5X5X5X5X5X5X5X5X5X5X5X5X5X5X5X5X5X5X5X5X5X5X5X5X5X5X5X5X5X5X5X5X5X5X5X5X5X5X5X5X5X5X5X5X5X5X5X5X5X5X5X5X5X5X5X5X5X5XF     ( ( ( ] / / / } ) ) ( ( ",
"7.    V.5X5X5X5X5X5X5X5X5X5X5X5X5X5X5X5X5X5X5X5X5X5X5X5X5X5X5X5X5X5X5X5X5X5X5X5X5X5X5X5X5X5X5X5X5X5X5X5X5X5X5X5X5X5X5X5X5X5X5X5X5XJ     X.X.( ) / / / ) ) ) ) ) ",
"5.    V.5X5X5X5X5X5X5X5X5X5X5X5X5X5X5X5X5X5X5X5X5X5X5X5X5X5X5X5X5X5X5X5X5X5X5X5X5X5X5X5X5X5X5X5X5X5X5X5X5X5X5X5X5X5X5X5X5X5X5X5X5XJ     b U U R R R R R R R U R ",
"5.    | W.Q.$X>X:X:X:X:X:X:X:X:X>X5X5X5X5X5X5X5X5X5X5X5X5X5X5X5X5X5X5X5X5X5X5X5X5X5X5X5X5X5X5X5X5X5X5X5X:X>X:X:X:X:X:X:X:X:X$XE.W.w     d d h U I I I U U U I U ",
"5.5.9     o F.#X#X#X#X#X#X#X#X#XP.5X5X5X5X5X5X5X5X5X5X5X5X5X5X5X5X5X5X5X5X5X5X5X5X5X5X5X5X5X5X5X5X5X5X>X#X#X#X#X#X#X#X#X#X#Xm.    , j v d h b R U U U U U U R U ",
"5.8.d     . F.#X#X#X#X#X#X#X#X#XP.5X5X5X5X5X5X5X5X5X5X5X5X5X5X5X5X5X5X5X5X5X5X5X5X5X5X5X5X5X5X5X5X5X5X>X#X#X#X#X#X#X#X#X#X#Xm.    * d g d g h R I I I I Y h U U ",
"v.9.p     . F.#X#X#X#X#X#X#X*X*X*X5X5X5X5X5X5X5X5X5X5X5X5X5X5X5X5X5X5X5X5X5X5X5X5X5X5X5X5X5X5X5X5X5X5X5X*X*XP.#X#X#X#X#X#X#Xm.    * 0 e i 8 e h d d d d d d d d ",
"v.6.e     . F.#X#X#X#X#X#X#X>X5X5X5X5X5X5X5X5X5X5X5X5X5X5X5X5X5X5X5X5X5X5X5X5X5X5X5X5X5X5X5X5X5X5X5X5X5X5X5X*X#X#X#X#X#X#X#Xm.    8 p e e e g h d g g d h h h h ",
"v.6.v <   . N.J.H.#X#X#X#X@X>X5X5X5X5X5X5X5X5X5X5X5X5X5X5X5X5X5X5X5X5X5X5X5X5X5X5X5X5X5X5X5X5X5X5X5X5X5X5X5X*X#X#X#X#X#XJ.J.m.    * 8 e 8 8 d d d g f e d d d d ",
"v.8.9 2 n M # 3 D #X#XI.4X5X5X5X5X5X5X5X5X5X5X5X5X5X5X5X5X5X5X5X5X5X5X5X5X5X5X5X5X5X5X5X5X5X5X5X5X5X5X5X5X5X5X5X3XP.#XG.3 # # 2 * * e g 9 h h P h P P h P H v H ",
"v.8.9 , b m     6 #X#X*X5X5X5X5X5X5X5X5X5X5X5X5X5X5X5X5X5X5X5X5X5X5X5X5X5X5X5X5X5X5X5X5X5X5X5X5X5X5X5X5X5X5X5X5X5XP.#XG..     z * * 8 P g h I R Y T T T T T U U ",
"8.4.i 1 b C N   3 M.N.H.5X5X5X5X5X5X5X5X5X5X5X5X5X5X5X5X5X5X5X5X5X5X5X5X5X5X5X5X5X5X5X5X5X5X5X5X5X5X5X5X5X5X5X5X5XF.M.m.X   % = * * 0 g d g P U Y I T Y T I I T ",
"5.5.e , n C N s n      .5X5X5X5X5X5X5X5X5X5X5X5X5X5X5X5X5X5X5X5X5X5X5X5X5X5X5X5X5X5X5X5X5X5X5X5X5X5X5X5X5X5X5X5X5Xq     p 2 - % > 8 e h g g H R T I I T Y T Y P ",
"4.v.9 * n C N x m      .5X5X5X5X5X5X5X5X5X5X5X5X5X5X5X5X5X5X5X5X5X5X5X5X5X5X5X5X5X5X5X5X5X5X5X5X5X5X5X5X5X5X5X5X5Xq     O ; R.R.* 7 8 d i e d h g g g g g g g g ",
"5.5.f < v m N c n      .5X5X5X5X5X5X5XQ.K K W K | 3X5X5X5X5X5X5X5X5X5X5X5X5X5X5X5X5X5X&XK K K K Q %X5X5X5X5X5X5X5Xq     - t ).)., * d d 8 d 8 H g g g g g d g g ",
"5.5.f < n n C c s      .5X5X5X5X5X5X5XA.        $ -X5X5X5X5X5X5X5X5X5X5X5X5X5X5X5X5X5XW.        . %X5X5X5X5X5X5X5Xq     T.T.f.Y., * i d d d d d d g e d g d d g ",
"6.v.p < c c x s x      .5X5X5X5X5X%X%XV.    # 3 D oX%X-X5X5X5X5X5X5X5X5X5X5X5X5X5X=X%XS.X   @ 3 6 W.%X;X5X5X5X5X5Xq     y.e.i.d.* * d d d d d H h h H g g g h g ",
"8.n.e , a x a a m      .5X5X5X5X%X5 # $ 5X5X0.0.D.5 $ | 5X5X5X5X5X5X5X5X5X5X5X5X3Xw $ # 5X5XG.J.G.6 # J 5X5X5X5X5Xq     %.A ;.' , * d d d H H / I U I T T Y T I ",
"5.b.p < z c s s n      .5X5X5X5X%Xo     5X5X0.0.0.#   Q 5X5X5X5X5X5X5X5X5X5X5X5X2X5     5X5XL.L.K.6   q 5X5X5X5X5Xw     =.e.>.a., 7 d d d h U R U T T U R T T T ",
"5.b.f < b n n c n      .5X5X5X5X%X#   6 5X5X0.0.0.# X Q 5X5X5X5X5X5X5X5X5X5X5X5X2X5   3 5X5XK.L.J.6   w 5X5X5X5X5Xq     g.x.e.g., * d d d h H U T U I P I I I I ",
"5.5.i 1 b C C n C      .5X5X5X5X%Xo   L 0.0.0.0.0.# X K 5X5X5X5X5X5X5X5X5X5X5X5X2X5   D K.L.L.L.K.3   q 5X5X5X5X5Xq     s.r.s.d.% 1 d d i d d I P j P h P h H I ",
"5.5.f < n n c x n      .5X5X5X5X%X$ o L 0.0.0.0.0.$ X { 5X5X5X5X5X5X5X5X5X5X5X5X2X0 o D J.K.J.K.J.6 X J 5X5X5X5X3Xq     s.s.z.f.% * d d 8 d d h d d d g d d g d ",
"5.5.e 8 m c C c C n b q w J +X5X5XoXQ.B.6 D 6 D G E.Q.%X5X5X5X5X5X5X5X5X5X5X5X5X5XoXoXA.D 6 D 6 D S.oXoX5X5XS.F w a y a y a y a i % i d i d d d H d d d d d d d ",
"5.v.f < n C x c C b b b     Q.5X5X5X5XA.        $ 2X5X5X5X5X5X5X5X5X5X5X5X5X5X5X5X5X5XQ.        o %X5X5X5X5XV.    y y y N a a a , 7 d d d e H H d H H d g H H j ",
"6.8.p < n b x C j n n b   X Q.5X5X5X5XE.q q 0 0 K 2X5X5X5X5X5X5X5X&XoX%X5X5X5X5X5X5X5XoXw q 0 q F &X5X5X5X5XO.    x.(.(._._._.}.* 8 d d H H H R R T R Q T E R R ",
"5.5.p < b C N c n n m n   X Q.5X5X5X5X5X5X5X5X5X5X5X5X5X5X5X5X5X-X7 X Q 5X5X5X5X5X5X5X5X5X5X5X3X5X5X5X5X5X5XO.    l.(.x.x.s.x.x.% 7 8 d e d H U H H H H g g g h ",
"5.5.f 2 x x x z C m b z   X Q.5X5X5X5X5X5X5X5X5X5X5X5X5X5X5X5X5X-X$   J 5X5X5X5X5X5X5X5X5X5X5X5X5X5X5X5X5X5XO.    c.s.g.s.z.a.d.O % & % % + O % % + % % + + % + ",
"5.5.9 < M x c m p s z p 9 o | O.A.5X5X5X5X5X5X5X5X5X5X5X5X5X5X5X5XA.V.E.5X5X5X5X5X5X5X5X5X5X5X5X5X5X5X%XV.O.W e.s.r.=.,.=.i.>.i.s b N s b b c s j j j n j c z c ",
"5.5.p < b m m c 2 1 9 , 2 2     7 3X5X5X5X5X5X5X5X5X5X5X5X5X5X5X5X5X5X5X5X5X5X5X5X5X5X5X5X5X5X5X5X5X5XoX    %.@.@.@.%.%.S S #.@.%.=.&.%.>.>.&.>.>.&.=.&.&.&.&.&.",
"5.5.9 = u p a p u 2 < 9 < 9     5 %X5X3X5X3X5X5X3X5X3X5X3X5X3X5X3X5X3X5X3X5X5X3X5X3X5X5X3X5X3X5X3X5X5XQ.o   =.=.%.&.i.,.a.e.i.e.,.p.&.#.&.=.#.#.i.,.,.i.e.e.e.e.",
"5.5.> O < a % 2 , i i > p 8 < d q 0 0 0 0 0 0 0 0 0 0 0 0 0 0 0 0 0 0 0 0 0 0 0 0 0 0 0 0 0 0 0 0 q q 7 $.$.,.#.#.$.l.z.l.l.s.s.l.s.,.#.=.q.+.#.,.l.r.l.l.r.x.r.",
"5.5.7 O < 1 i p 9 9 9 d 8 9 < 8 >                                                                       r.r.k.p.p.r.k.p.r.s.s.s.s.r.r.t.r.s.s.e.s.l.s.s.s.t.l.x.",
"5.5.> * p i a < p < > f > 9 p u 8               o w J F J F F J J F F F F F F F J F F F F F F F F F J w p.p.l.p.p.p.p.i.s.a.e.i.,.a.s.j.s.e.a.i.a.a.i.e.g.s.i.i.",
"5.5.4 o , i < 2 t 1 9 z , % % O < < < p u u     5 %X5X5X5X5X5X5X5X5X5X5X5X5X5X5X5X5X5X5X5X5X5X5X5X5X5X!..   y t t y y t a r r y y y ; & r r r r y r r r r u r ; ",
"8.5.T i f b % 1 p u < , , + 1 z x x c x m k     5 -X5X5X5X5X5X5X5X5X5X5X5X5X5X5X5X5X5X5X5X5X5X5X5X5X5XoXX   j s s j p 1 z 1 2 p p : ` Z C C x c x y C Z u ; C ' ",
"5.5.4.4., O % O O + o O - u f.XXe.%.=.S      .A.S.5X5X5X5X5X5X5X5X5X5X5X5X5X5X5X5X5X5X5X5X5X5X5X5X5X5X-XA.A.Q     j < , u 9 9 2 - r {./.>.%.@.S q.&.d.^.^ r y.].",
"5.5.R.U.[ c x B Z ~ A [ k ; *.f.c.h.h.s.    E.5X5X5X5X5X5X5X5X5X5X5X5X5X5X5X5X5X5X5X5X5X5X5X5X5X5X5X5X5X5X5XV.    j < t : z A ~ l r i.g.z.^.x.a.a.c.i.i.V & %.^.",
"5.5.9 + Y.)./.j.{.{.{.|.[ r B S h..X[..X    E.5X5X5X5X5X5X5X5X5X5X5X5X5X5X5X5X5X5X5X5X5X5X5X5X5X5X5X5X5X5X5XZ.$ # c u u 1 m d.T.r a V %.|.XX XXX X,Xe.A l r A A ",
"5.5.v 9 -.C.&.&.,.&.>.f.A & %.{.c.[.c.c.    E.5X5X5X5X5X5X5X5X5X5X5X5X5X5X5X5X5X5X5X5X5X5X5X5X5X5X5X5X5X5X5X3X%X%Xq     2 z <.y.: : c.'.].c.c.l.[.(.(.'.' = B q.",
"5.8.h R %.A &.+.@.+.&.%.c r g.<X[.c.c.$.  X E.5X5X5X5X5X5X5X5X5X5X5X5X5X5X5X5X5X5X5X5X5X5X5X5X5X5X5X5X5X5X5X5X5X5X0     p u [ [ k : |..Xx.[.t.q.c.c.|.XXq.; Z 3.",
"5.8.h * 1.T.e.,.#.#.%.1.C % i.XXc.t.'.[.    W.5X5X5X5X5X5X5X5X5X5X5X5X5X5X5X5X5X5X5X5X5X5X5X5X5X5X5X5X5X5X5X5X5X5XO.K K 9 z u.u.z : {.|.h.t.[. Xx.w./.<X*.= ;.g.",
"5.4.R t Y.Y.,.#.#.#.+.;.N & g.,X(.e.c. X    E.5X5X5X5X5X5X5X5X5X5X5X5X5X5X5X5X5X5X5X5X5X5X5X5X5X5X5X5X5X5X5X5X5X5X5X5XoXo     R.z : {.|.c.e.[.          ' = ' T.",
"5.4.8.5.E % a.j.a.h.f.T.%.% i.,X/.^.c.q.    E.5X5X5X5X5X5X5X5X5X5X5X5X5X5X5X5X5X5X5X5X5X5X5X5X5X5X5X5X5X5X5X5X5X5X5X5X+Xo     u 2 z |.|.h.'.h.          3.= s x ",
"5.5.5.5.o.C q.q.w.w.w.y.C & u.{.).].T.a.    E.5X5X5X5X5X5X5X5X5X5X5X5X5X5X5X5X5X5X5X5X5X5X5X5X5X5X5X5X5X5X5X5X5X5X5X5X+X#     1 < 2 ].|.    G N.N.N.N.M.#   s N ",
"5.5.5.5.5.`.B = = : : : 2 1 a O y.<XXX<X    E.5X5X5X5X5X5X5X5X5X5X5X5X5X5X5X5X5X5X5X5X5X5X5X5X5X5X5X5X5X5X5X5X5X5X5X5XoXo     b b p O +     L 4X5X5X5XJ.#     ).",
"5.5.5.5.).R.[ S *.S S ' c 1 B ' q.T.f.j.    E.5X5X5X5X5X5X5X5X5X5X5X5X5X5X5X5X5X5X5X5X5X5X5X5X5X5X5X5X5X5X5X5X5X5X5X5X%X7 4 4 i 2 z [ S     L 5X5X5X5XG.#     ).",
"4.4.5.5.s O ^.[.(.[.~.~.A r >.,X%.O % %     E.5X5X5X5X5X5X5X5X5X5X5X5X5X5X5X5X5X5X5X5X5X5X5X5X5X5X5X5X5X5X5X5X5X5X5X5X5X-X;XV.    1 {.|.    { 5X5X5X5XG.#     |.",
"7.b.C.<.1.>.z.s.c.c.z.^.+.& %.1.j.d.f.h.    W.5X5X5X5X5X5X5X5X5X5X5X5X5X5X5X5X5X5X5X5X5X5X5X5X5X5X5X5X5X5X5X5X5X5X5X5X5X5X5XZ.    a u.y.    | 5X5X5X5XG.@     j.",
"n.6.d * C.~.p.t.c.(.(.|.+.y +.%.T.,X.X<X    O.S.E.5X5X5X5X5X5X5X5X5X5X5X5X5X5X5X5X5X5X-XS.S.%X5X5X5X5X5X5X5X5X5X5X5X5X5X5X5XZ.    2 :.[     | 5X5X5X5XH.# .   >.",
"n.5.U d 1.,.=.=.=.=.;.i.n y 1.|.x.[.j.t.j.].    4 %X5X5X5X5X5X5X5X5X5X5X5X5X5X5X5X5X5XQ.    Z.5X5X5X5X5X5X5X5X5X5X5X5X5X5X5XZ.    2 ).'.    | 5X5X5X5X%X$     ' ",
"n.5.M < X.` A S S #.S [ N & 1.,X[.c.c.e.h.h.    5 -X5X5X5X5X5X5X5X5X5X5X5X5X5X5X5X5X5XW.X   Z.5X5X5X5X5X5X5X5X5X5X5X5X5X5X5XZ.    : |.XX    | 5X5X5X5X%X$     q.",
"v.5.e * Y.T.=.q.S @.S w.^ & 1.<Xc.t.c. X[.t.    4 -X5X5X5X5X5X5X5X5X5X5X5X5X5X5X5X5X5XW.    Z.5X5X5X5X5X5X5X5X5X5X5X5X5X5X5XZ.    : {..X    { 5X5X5X5X%X$     ).",
"5.5.] M y.i.q.#.q.#.%.;.N % a.XXc.t.c.[.'.q.    5 -X5X5X5X5X5X5X5X5X5X5X5X5X5X5X5X5X5XW.X   Z.5X5X5X5X5X5X5X5X5X5X5X5X5X5X5XZ.    : |.[.    { 5X5X5X5X=X$     T.",
"5.5.5.5.x - e.'.t.h.j.^.A - j.XX[.c.h.t.t.'.    5 -X5X5X5X5X5X5X5X&X&X%X5X5X5X5X5X5X5XQ.X   Z.5X5X5X5X5X5X5X5X5X5X5X5X5X5X5XZ.    ;  X.X0 7 V.5X5X%X%XQ.$     ; ",
"5.5.5.5.R ; ' :.:.:.:.y.b t ' T.^.'.'.a.c.].    5 ;X5X5X5X5X5X5X-X0 # Q 5X5X5X5X5X5X5XW.    Z.5X5X5X5X5X5X5X5X5X5X5X5X5X5X5XZ.        7 %X3X5X5X5XQ # # [ ; B ^ ",
"5.5.5.4.m & u % ; : + , - u a O >.<X|..XXX.X    5 -X5X5X5X5X5X5X-X$   W 5X5X5X5X5X5X5XQ.X   Z.5X5X5X5X5X5X5X5X5X5X5X5X5X5X5XZ.        5 3X5X5X5X5XK     ; y :.).",
"5.5.U.u.[ >.*.%.*.' <.f.M ; Z >.w.j.h.h.j.h.    $ -X5X5X5X5X5X5X-X4   K 5X5X5X5X5X5X5XQ.    Z.5X5X5X5X5X5X5X5X5X5X5X5X5X5X5XZ.    W ..Z.5X5X5X5X5XK     C & ' ).",
"5.6.u & a.(.i.j.j.f./.|.:.: y.,Xf.S S S B S     5 -X5X5X5X5X5X5X-X4   W 5X5X5X5X5X5X5XW.X   Z.5X5X5X5X5X5X5X5X5X5X5X5X5X5X5XZ.  X Q.5X5X5X5X5X5X5XK     ^ & u.|.",
"6.v.b u -.&.=.&.=.=.=.e.B ; S 3.f.(.].].[.].    5 %X5X5X5X5X5X5X-X$   W 5X5X5X5X5X5X5XE.X   Z.5X5X5X5X5X5X5X5X5X5X5X5X5X5X5XZ.    Q.5X5X5X5X5X5X5XK     Z : A y.",
"9.8.v p ' A ,.+.#.#.@.@.l ; S q.^.XX.X X.X.X'.S -.q q V.5X5X5X5X-X4   W 5X5X5X5X3XQ q q 5X5X5X5X5X5X5X5X5X5X5X5X5X5X5X5X5X5XZ.  X Q.5X5X5X5XE.q w XXa.S Z r B ;.",
"v.6.v i d.p.e.#.=.#.V *.V - a..X(.c.h.a.h.'.'.|./.    Q 5X5X5X5X-X4   W 5X5X5X5X2X5     5X5X5X5X5X5X5X5X5X5X5X5X5X5X5X5X5X5XZ.    !.5X5X5X5XA.    (.].|.*.- B ` ",
"8.6._ 2 d.f.>.$.=.e.=.%.B = y.<X].(.c.t.h.c.^.XX^.    K 5X5X5X5X-X$   W 5X5X5X5X-X$     5X5X5X5X5X5X5X5X5X5X5X5X5X5X5X5X5X5XZ.  X Z.oXoXoXoXV.    j.[.<X:.% S ;.",
"v.8.8.8.M % i.x.d.c.T.T.' : y.XXc.e.c..X[.q.x.,X).    X 5X5X5X5X-X4   W 5X5X5X5X5X      5X5X5X5X5X5X5X5X5X5X5X5X5X5X5X5X5X5XZ.    X X X . o X .Xh.q.]..X' r ' T.",
"v.8.8.5.o.y.:.>.>.<.:.y.M = y.<X[.s.s.[./.t.j.,X).      5X5X5X5X;X5   W 5X5X5X5X5X      5X5X5X5X5X5X5X5X5X5X5X5X5X5X5X5X5X5XZ.                [.a.j.]..Xq.= B d.",
"8.5.5.5.5.9.v O 2 = % 9 > = f.1X(.c.c.$.a.'.).<X}.      5X5X5X5XoXo   7 5X5X5X5X5X      5X5X5X5X5X5X5X5X5X5X5X5X5X5X5X=XO. .Q 5.z - |.XX'.'.t.*.'.h.].1X3.% s % ",
"6.5.5.5.5.5.R.Y.] ] ] ] ] E 3.y.x.[.(.x./.{.j.y.<.      5X5X5X5X5X      5X5X5X5X5X      5X5X5X5X5X5X5X5X5X5X5X5X5X5X5X%Xo     5._ ] y.y.j.'.c.j./.].a.y.[ b [ ' ",
"5.5.5.8.6.5.5.5.8.6.5.5.8.6.E o :.1X.X<X<X,X].+ v       5X5X5X5X5X      5X5X5X5X5X      5X5X5X5X5X5X5X5X3X3X3X3X3X3X3XoXX     8.8.5.1 % |.XX<X<X.X.X_ + ] 5.5.5.",
"5.5.6.8.8.5.5.5.6.8.5.8.8.5.5.2.2.Z x ' A R o.[ ] 6.5.v.          5.8.v.                              o 7 7 5 0 7 5 7 7 8.8.8.9.4.5.X.] [ [ x Z 3._ 3._ O.5.5.5.",
"5.5.5.5.8.5.5.5.6.8.8.v.8.5.5.5.! = 2 : - : z 5.b.5.v.b.          5.5.6.                                                8.9.8.9.5.5.5.5.> z = 1 2 : _ v.5.5.5.5.",
"5.8.5.5.5.5.5.8.6.6.8.8.8.8.8.8.5.5.5.5.5.7.b.v.b.8.b.v.          5.5.5.                                                5.5.5.5.5.5.5.5.b.v.n.v.b.n.8.5.5.5.9.5."
};
