/* XPM */
static char *d2a50dcada844626bbad466aeb338344ERNEzr6lo3M3lwzS[] = {
/* columns rows colors chars-per-pixel */
"80 80 210 2 ",
"   c black",
".  c #03060A",
"X  c #06090A",
"o  c #090A0B",
"O  c #150904",
"+  c #1C1306",
"@  c #080F16",
"#  c #0B1117",
"$  c #15191B",
"%  c #271504",
"&  c #2E1C0E",
"*  c #2C210A",
"=  c #33230C",
"-  c #392509",
";  c #3A320C",
":  c #2B2316",
">  c #2C241C",
",  c #352515",
"<  c #352A1B",
"1  c #3B2C1A",
"2  c #3A321A",
"3  c #0C1B28",
"4  c #191E20",
"5  c #1D2226",
"6  c #142536",
"7  c #23282B",
"8  c #362C27",
"9  c #3B2D23",
"0  c #3D3223",
"q  c #33332C",
"w  c #3D342B",
"e  c #272F32",
"r  c #2B3438",
"t  c #2D363A",
"y  c #393837",
"u  c #452909",
"i  c #48330B",
"p  c #442D18",
"a  c #502D12",
"s  c #47341A",
"d  c #543715",
"f  c #422F24",
"g  c #433423",
"h  c #453925",
"j  c #4B3B24",
"k  c #45352A",
"l  c #49362C",
"z  c #443A2C",
"x  c #4C3D2C",
"c  c #533C24",
"v  c #523E2C",
"b  c #443634",
"n  c #473B37",
"m  c #4C3C33",
"M  c #453B3A",
"N  c #523E34",
"B  c #54431C",
"V  c #65471D",
"C  c #4B4227",
"Z  c #4D412D",
"A  c #57442A",
"S  c #4A4237",
"D  c #564736",
"F  c #5A5238",
"G  c #64492B",
"H  c #664D36",
"J  c #6A5439",
"K  c #705732",
"L  c #7A6539",
"P  c #142B41",
"I  c #19334C",
"U  c #353F43",
"Y  c #253C51",
"T  c #473E41",
"R  c #394449",
"E  c #3F4B50",
"W  c #395155",
"Q  c #224669",
"!  c #4B4545",
"~  c #564845",
"^  c #554B4A",
"/  c #5B554F",
"(  c #414E53",
")  c #495358",
"_  c #624E45",
"`  c #695745",
"'  c #745A43",
"]  c #685856",
"[  c #685758",
"{  c #5C6056",
"}  c #746651",
"|  c #4D5A64",
" . c #6F5E60",
".. c #516168",
"X. c #5B6D75",
"o. c #5E7177",
"O. c #746464",
"+. c #716B65",
"@. c #64757B",
"#. c #845C33",
"$. c #876739",
"%. c #906C39",
"&. c #866944",
"*. c #896A4C",
"=. c #946E4A",
"-. c #897349",
";. c #97764A",
":. c #897154",
">. c #947658",
",. c #A47B50",
"<. c #8C7564",
"1. c #758171",
"2. c #6CD74D",
"3. c #6AD949",
"4. c #72DD4B",
"5. c #79DF4B",
"6. c #71D058",
"7. c #75E14C",
"8. c #7BE44D",
"9. c #7EE84E",
"0. c #7CE650",
"q. c #59C67C",
"w. c #998553",
"e. c #AC8859",
"r. c #AF9058",
"t. c #97866B",
"y. c #A98C66",
"u. c #B68D66",
"i. c #AB9368",
"p. c #B89568",
"a. c #A89176",
"s. c #B89A75",
"d. c #BAA36D",
"f. c #B9A478",
"g. c #C0905F",
"h. c #C49769",
"j. c #C49A74",
"k. c #CAA976",
"l. c #82DC56",
"z. c #82E34C",
"x. c #86EA4E",
"c. c #95ED4F",
"v. c #95F14F",
"b. c #85EA51",
"n. c #99EC53",
"m. c #9CF251",
"M. c #AAF754",
"N. c #2B5A8A",
"B. c #2F6499",
"V. c #336CA5",
"C. c #5F798A",
"Z. c #567990",
"A. c #677A85",
"S. c #7C7C84",
"D. c #827F90",
"F. c #548998",
"G. c #6C828B",
"H. c #6E8B93",
"J. c #778D95",
"K. c #748C96",
"L. c #56BF8B",
"P. c #578FAB",
"I. c #5488B7",
"U. c #6C95AA",
"Y. c #7D97A3",
"T. c #5EA4A4",
"R. c #74AFB6",
"E. c #3D81C5",
"W. c #438ED9",
"Q. c #76B0C6",
"!. c #72A8D5",
"~. c #4899E9",
"^. c #639BEA",
"/. c #4DA5FC",
"(. c #50A7FF",
"). c #74B6FF",
"_. c #918F8D",
"`. c #B6A589",
"'. c #879BA7",
"]. c #89A4AF",
"[. c #8CA9B6",
"{. c #91AEBA",
"}. c #95B2BE",
"|. c #CEB48D",
" X c #C3A694",
".X c #E5BD8B",
"XX c #E8C997",
"oX c #DBC7A5",
"OX c #E5D0A0",
"+X c #8EB7C8",
"@X c #9AB8C5",
"#X c #9AB8C6",
"$X c #A0BFCD",
"%X c #DFB6FE",
"&X c #FBB7FD",
"*X c #98C1DC",
"=X c #A8C8D6",
"-X c #A8C8D7",
";X c #92CEFD",
":X c #AFD1E0",
">X c #B2D5E4",
",X c #B5D9E4",
"<X c #A2D8FF",
"1X c #A9DCFF",
"2X c #FEF2C7",
"3X c #C7E2EE",
"4X c #DDEEF5",
"5X c #DBF0FF",
"6X c #F1F6FF",
"7X c white",
/* pixels */
"O.<.<. .<. . .^ S ^ ~ w ~ _ N H A v G H ' ' K                                               D _ A D H ~ x l h N m x x x x x m Z g 2 1 s h x Z S z < D 3.3.3.3.3.",
"[ [ [ [ [ [ [ [ ] [ / k j , p _ G A G J J H                                                 D j D G D D D A v x x v x x x x m Z h h b h g g g g 0 : ! 3.4.8.3.3.",
"[ ~ [ ~ / [  . .O.O.[ k b , , N H H G ' ' H o o o o o . o o o o o o o o o o o . . o o o o o H D D D G N A Z x x x A v x x m x Z l x A j h p 0 0 0 > S 3.7.x.2.3.",
"[ [ [ [ [ ] [  . . .+.k m N f , =       .   K.#X#X#X#X#X@X@X@X@X@X@X@X@X@X@X@X@X@X@X@X@X@X@X|           A l j x m x x m x x S Z h x Z Z x x h h z > ^ 3.3.7.3.3.",
"[ ] ] [ ] / [  . . . .w N _ N , %           ].7X7X7X7X7X7X7X7X7X7X7X7X7X7X7X7X7X7X7X7X7X7X7XX.          x l v x x x x A m m b Z x x h Z Z Z Z x j 8 ~ 3.3.3.3.3.",
"[ ] ] ] [ [  . .<.O.[ k N ~ _ N A t U t t t @X7X7X7X7X7X7X7X7X7X7X7X7X7X7X7X7X7X7X7X7X7X7X7XK.t U y t t h A D x x v x x x A Z x S Z j j x x x z z < ~ 3.3.3.x.3.",
"[                               7 >X7X7X7X7X7X7X7X7X7X7X7X7X7X7X7X7X7X7X7X7X7X7X7X7X7X7X7X7X7X7X7X7X7X{..                               x x h h z > ^ 3.3.x.M.2.",
" .                              5 4X7X7X7X7X7X7X7X7X7X7X7X7X7X7X7X7X7X7X7X7X7X7X7X7X7X7X7X7X7X7X7X7X7X@XX                               x C Z D z < ~ 3.3.v.c.3.",
"O.    R G.G.G.G.G.G.G.G.G.G.G.G.K.7X7X7X7X7X7X7X7X7X7X7X7X7X7X7X7X7X7X7X7X7X7X7X7X7X7X7X7X7X7X7X7X7X7X>XH.G.G.G.G.G.G.G.G.G.G.G.A.5     x Z x h k 8 ~ 5.2.m.0.z.",
"O.    @.7X7X7X7X7X7X7X7X7X7X7X7X7X7X7X7X7X7X7X7X7X7X7X7X7X7X7X7X7X7X7X7X7X7X7X7X7X7X7X7X7X7X7X7X7X7X7X7X7X7X7X7X7X7X7X7X7X7X7X7X7XR     x Z Z Z h > D m.5.m.l.M.",
"]     A.7X7X7X7X7X7X7X7X7X7X7X7X7X7X7X7X7X7X7X7X7X7X7X7X7X7X7X7X7X7X7X7X7X7X7X7X7X7X7X7X7X7X7X7X7X7X7X7X7X7X7X7X7X7X7X7X7X7X7X7X7XU     x j h m b q ~ 5.m.m.z.M.",
"[     @.7X7X7X7X7X7X7X7X7X7X7X7X7X7X7X7X7X7X7X7X7X7X7X7X7X7X7X7X7X7X7X7X7X7X7X7X7X7X7X7X7X7X7X7X7X7X7X7X7X7X7X7X7X7X7X7X7X7X7X7X7XR     x x z Z z < ~ z.m.n.0.M.",
"~     A.7X7X7X7X7X7X7X7X7X7X7X7X7X7X7X7X7X7X7X7X7X7X7X7X7X7X7X7X7X7X7X7X7X7X7X7X7X7X7X7X7X7X7X7X7X7X7X7X7X7X7X7X7X7X7X7X7X7X7X7X7XU     h Z Z Z h < ~ 3.4.4.2.7.",
"~     ..[.[.;X1X<X<X<X<X<X<X<X<X1X7X7X7X7X7X7X7X7X7X7X7X7X7X7X7X7X7X7X7X7X7X7X7X7X7X7X7X7X7X7X7X7X7X7X7X<X1X<X<X<X<X<X<X<X<X*X].].U     j h x z h < ^ 3.2.3.3.2.",
"^ ^ ~     o E.&X&X&X&X&X&X&X&X&X).7X7X7X7X7X7X7X7X7X7X7X7X7X7X7X7X7X7X7X7X7X7X7X7X7X7X7X7X7X7X7X7X7X7X1X&X&X&X&X&X&X&X&X&X&XN.    h l h g s 2 2 z > D 3.2.2.3.3.",
"D ~ ~     . E.&X&X&X&X&X&X&X&X&X).7X7X7X7X7X7X7X7X7X7X7X7X7X7X7X7X7X7X7X7X7X7X7X7X7X7X7X7X7X7X7X7X7X7X1X&X&X&X&X&X&X&X&X&X&XN.    Z A x k g w 0 0 : ^ 2.7.3.0.0.",
"b b b     . E.&X&X&X&X&X&X&X;X;X;X7X7X7X7X7X7X7X7X7X7X7X7X7X7X7X7X7X7X7X7X7X7X7X7X7X7X7X7X7X7X7X7X7X7X7X;X;X).&X&X&X&X&X&X&XN.    x x v x x x l D : ~ b.0.3.2.b.",
"M M M     . E.&X&X&X&X&X&X&X1X7X7X7X7X7X7X7X7X7X7X7X7X7X7X7X7X7X7X7X7X7X7X7X7X7X7X7X7X7X7X7X7X7X7X7X7X7X7X7X;X&X&X&X&X&X&X&XN.    x v x x l j l g : ~ 0.3.2.3.7.",
"b b b b   . V.~.^.&X&X&X&X%X1X7X7X7X7X7X7X7X7X7X7X7X7X7X7X7X7X7X7X7X7X7X7X7X7X7X7X7X7X7X7X7X7X7X7X7X7X7X7X7X;X&X&X&X&X&X~.~.N.    x v m x x x m z 0 ~ 8.2.3.3.4.",
"~ N ~ T N ~ # 3 I &X&X).7X7X7X7X7X7X7X7X7X7X7X7X7X7X7X7X7X7X7X7X7X7X7X7X7X7X7X7X7X7X7X7X7X7X7X7X7X7X7X7X7X7X7X7X5X).&XW.3 # # v m x x j j x x x h : S 3.2.x.8.2.",
"^ ~ ^ T ^ ^     6 &X&X;X7X7X7X7X7X7X7X7X7X7X7X7X7X7X7X7X7X7X7X7X7X7X7X7X7X7X7X7X7X7X7X7X7X7X7X7X7X7X7X7X7X7X7X7X7X).&XW..     l x v x j x x x m D : ~ 2.3.7.2.7.",
"~ ^ ~ ~ ~ ! !   3 B.V.!.7X7X7X7X7X7X7X7X7X7X7X7X7X7X7X7X7X7X7X7X7X7X7X7X7X7X7X7X7X7X7X7X7X7X7X7X7X7X7X7X7X7X7X7X7XI.V.N.X   N m x m x x m v x Z x : z 2.5.3.2.3.",
"~ ~ ^ ~ ~ ~ T T M     X.7X7X7X7X7X7X7X7X7X7X7X7X7X7X7X7X7X7X7X7X7X7X7X7X7X7X7X7X7X7X7X7X7X7X7X7X7X7X7X7X7X7X7X7X7Xr     l x m v x x x m m x N Z m 8 z 4.x.2.3.2.",
"M M M b b b b 8 y     X.7X7X7X7X7X7X7X7X7X7X7X7X7X7X7X7X7X7X7X7X7X7X7X7X7X7X7X7X7X7X7X7X7X7X7X7X7X7X7X7X7X7X7X7X7Xr     h g p < x x v m A A m x S : Z 3.3.3.3.2.",
"M M M M b M M y b     X.7X7X7X7X7X7X7X[.E E ( E ..4X7X7X7X7X7X7X7X7X7X7X7X7X7X7X7X7X7X-XE E E E ) =X7X7X7X7X7X7X7Xt     l g j f N x j b v v m x w w n 3.3.8.3.3.",
"b b M b y b b b 8     X.7X7X7X7X7X7X7XK.        $ >X7X7X7X7X7X7X7X7X7X7X7X7X7X7X7X7X7X[.        . =X7X7X7X7X7X7X7Xt     x x l j 1 1 1 g l x x Z h < 0 3.7.7.3.3.",
"M T M N T M b y T     X.7X7X7X7X7X=X=XA.    # 3 I @X=X>X7X7X7X7X7X7X7X7X7X7X7X7X7X=X=XY.X   @ 3 6 [.=X,X7X7X7X7X7Xt     v m N m g g g g l h z g z w z 3.9.7.3.3.",
"^ ^ ^ ! ^ ^ ! M M     X.7X7X7X7X=X4 $ $ 7X7Xq.q.L.5 $ ..7X7X7X7X7X7X7X7X7X7X7X7X4Xr $ # 7X7XW.~.W.6 # R 7X7X7X7X7Xt     N x x N v N x j j g f 1 9 < S 7.9.4.7.3.",
"^ ~ ^ ^ ^ ^ ! M b     X.7X7X7X7X=Xo     7X7Xq.q.q.@   ) 7X7X7X7X7X7X7X7X7X7X7X7X3X5     7X7X(.(./.6   t 7X7X7X7X7Xt     v m v x x x j x l l k g h : w 4.9.7.7.3.",
"! ! ^ ! ! ! ! M T     X.7X7X7X7X=X#   6 7X7Xq.q.q.@ . ) 7X7X7X7X7X7X7X7X7X7X7X7X3X7   3 7X7X(./.~.6   t 7X7X7X7X7Xt     m v m v l l x x j x x x D < z 4.9.8.7.3.",
"T T T S T ! ! y 8     X.7X7X7X7X=Xo   Q q.q.q.q.q.@   ) 7X7X7X7X7X7X7X7X7X7X7X7X3X5   I /./././.~.3   t 7X7X7X7X7Xt     m x v x A x D m x x x v x < w 2.8.8.7.3.",
"b b M b y b M q b     X.7X7X7X7X=X$ o Q q.q.q.q.q.$ . | 7X7X7X7X7X7X7X7X7X7X7X7X3X7 X I ~./././.~.6 X R 7X7X7X7X4Xt     x x l x x x x j x x x m z 0 b 7.9.7.3.3.",
"b l b b b n b y w m 8 e t R $X7X7X@X}.C.6 P P P Y ].{.=X7X7X7X7X7X7X7X7X7X7X7X7X7X@X@XK.P P P P I Y.{.$X7X7XK.U t j x j S A m x D m x m m x m m m > l 3.3.3.3.3.",
"M S M m n b y q 8 b f &     {.7X7X7X7XK.        $ 3X7X7X7X7X7X7X7X7X7X7X7X7X7X7X7X7X7X{.        o =X7X7X7X7XA.    h h x x Z v m x j l x v x x D x 9 m 3.3.7.x.3.",
"/ ^ ^ ^ ^ ) ! ! T T y &   X {.7X7X7X7X'.t r e e E 3X7X7X7X7X7X7X7X-X@X=X7X7X7X7X7X7X7X@Xt e e e U -X7X7X7X7X@.    s 0 g x Z C S x x x x x x x x x < b 3.3.7.8.3.",
"T S S S ! S S y y b 8 :   X {.7X7X7X7X7X7X7X7X7X7X7X7X7X7X7X7X7X>X7 o ) 7X7X7X7X7X7X7X7X7X7X7X4X7X7X7X7X7X7XA.    9 9 0 0 l z C x C j v x j j h x , w c.3.3.3.3.",
"+ % + + % + + + O + : %   X {.7X7X7X7X7X7X7X7X7X7X7X7X7X7X7X7X7X>X$   E 7X7X7X7X7X7X7X7X7X7X7X7X7X7X7X7X7X7X@.    9 0 < 0 0 q 2 h h C j C C x x x < w M.3.3.3.3.",
"D D D D D D F F ~ ~ N v c X ..@.H.7X7X7X7X7X7X7X7X7X7X7X7X7X7X7X7XH.A.'.7X7X7X7X7X7X7X7X7X7X7X7X7X7X7X=XA.@.( < g w 8 9 0 < < 2 2 p h h h Z Z Z x < C 7.3.3.3.3.",
">.*.-.-.:.-.*.<.*.*.*.:.*.,.    5 4X7X7X7X7X7X7X7X7X7X7X7X7X7X7X7X7X7X7X7X7X7X7X7X7X7X7X7X7X7X7X7X7X7X@X    k 8 8 8 9 9 2 0 2 2 1 2 0 2 g h C C h < w 3.3.7.4.3.",
";.;.=.%.;.-.;.,.y.y.,.y.,.,.    7 :X7X4X7X4X7X7X4X7X4X7X4X7X4X7X4X7X4X7X4X7X7X4X7X4X7X7X4X7X4X7X4X7X7X{.o   = , 9 9 9 9 0 2 2 2 2 0 0 1 0 g z 0 q : w 3.7.c.4.3.",
"e.,.;.;.%.%.;.r.u.u.u.p.h.p.r.,.%.e e e e e e e e e e e e e e e e e e e e e e e e e e e e e e e e e r 7 1 O O % 1 w h 2 ; : 2 2 0 1 9 f g 1 > 9 7 + q 4.c.n.6.6.",
"p.i.p.p.i.r.r.d.s.s.s.s.h.h.p.u.e.                                                                      t.t.a.t.h % : + < C 2 : 9 9 1 < 9 g k 9 : O 8 l.M.l.6.6.",
"t.i.i.a.i.i.i.i.a.a.a.y.y.y.i.i.u.              o t R U R U U R R U U U U U U U R U U U U U U U R U R t a.a.`.a.p % % % : ; 2 h , 9 f 9 < g l 8 8 : M l.n.6.l.l.",
"s i s i i i ; i u p p p u - u u u - u u a u     5 =X7X7X7X7X7X7X7X7X7X7X7X7X7X7X7X7X7X7X7X7X7X7X7X7X7X}.X   - - c s ; s = o % % 1 p g g 1 9 k w 8 O & l.n.l.M.c.",
"J A c A K A A G G K J ` J K H H ' G A H H G     4 >X7X7X7X7X7X7X7X7X7X7X7X7X7X7X7X7X7X7X7X7X7X7X7X7X7X@XX   A K B A A A Z j , % p p p p p a 1 f > l b z.m.c.c.3.",
"s.t.y.`.f.f.f.d.|.|.oXoXoXoXoXoX|.i.t.a.    X.K.Y.7X7X7X7X7X7X7X7X7X7X7X7X7X7X7X7X7X7X7X7X7X7X7X7X7X7X>XK.H.)     L >.-.t.|.*.h = % O O % O O + % l.M.z.m.c.z.3.",
">.*.-.;.w.w.;.w.e.y.i.i.u.i.i.i.y.&.&.>.    [.7X7X7X7X7X7X7X7X7X7X7X7X7X7X7X7X7X7X7X7X7X7X7X7X7X7X7X7X7X7X7XA.    f.y.f.a.a.J = H ' ` F ' H Z J D }  .z.m.c.7.3.",
"*.=.-.-.-.-.&.&.&.&.&.*.' &.&.$.>.$.*.;.    ].7X7X7X7X7X7X7X7X7X7X7X7X7X7X7X7X7X7X7X7X7X7X7X7X7X7X7X7X7X7X7XG.$ $ 2XXX2Xs.A G p t.oXOXXXoX Xa.|.a.* Z 5.x.3.3.3.",
"K B A F D F F F F D F F D F A F F A G J     ].7X7X7X7X7X7X7X7X7X7X7X7X7X7X7X7X7X7X7X7X7X7X7X7X7X7X7X7X7X7X7X4X=X-Xe     k..X:.= L w.>.w.,.,.>.>.=.f N 2.3.3.3.3.",
"V B ; 2 0 q q e q 8 2 : : ; q q q > , ;   X ].7X7X7X7X7X7X7X7X7X7X7X7X7X7X7X7X7X7X7X7X7X7X7X7X7X7X7X7X7X7X7X7X7X7Xe     XX2X:.; G -.' %.#.&.*.;.J c N 2.3.3.3.3.",
"L i i z ^ @.1.F.G.A.A.Z.1.X.Z.Z.K.A.@.Z     [.7X7X7X7X7X7X7X7X7X7X7X7X7X7X7X7X7X7X7X7X7X7X7X7X7X7X7X7X7X7X7X7X7X7X@.( E k.2Xt.+ J w.&.&.&.,.<.s.<.a b 2.3.9.b.3.",
"L B s w ) A.H.H.U.F.K.Z.F.P.P.P.P.F.K.y     ].7X7X7X7X7X7X7X7X7X7X7X7X7X7X7X7X7X7X7X7X7X7X7X7X7X7X7X7X7X7X7X7X7X7X7X7X@XX     * F *.&.:.;.*.,.          3.7.9.3.",
"s ; q q W H.U.P.U.F.Z.F.Z.P.P.P.U.Z.H.y     ].7X7X7X7X7X7X7X7X7X7X7X7X7X7X7X7X7X7X7X7X7X7X7X7X7X7X7X7X7X7X7X7X7X7X7X7X@XX     % ' `.`.i.s.|.>.          3.3.3.3.",
"c , S q W Z.Z.P.F.F.F.F.P.Q.P.Q.Q.Z.A.y     ].7X7X7X7X7X7X7X7X7X7X7X7X7X7X7X7X7X7X7X7X7X7X7X7X7X7X7X7X7X7X7X7X7X7X7X7X=X#     % ' a.e.>.  . I V.V.V.B.B.#   3.3.",
"} h M U W H.F.U.U.T.R.+X+X+X+X+XQ.A.D.~     ].7X7X7X7X7X7X7X7X7X7X7X7X7X7X7X7X7X7X7X7X7X7X7X7X7X7X7X7X7X7X7X7X7X7X7X7X@Xo     Z u - - d     Q 6X7X7X7X~.#     3.",
"} 2 q q W Z.Z.F.F.Z.Z.A.U.U.H.K.A.A. .b     ].7X7X7X7X7X7X7X7X7X7X7X7X7X7X7X7X7X7X7X7X7X7X7X7X7X7X7X7X7X7X7X7X7X7X7X7X=X7 5 $ 2 H =.K K     Q 7X7X7X7XW.#     2.",
">.a f y M | | W | W W W { W W | | ) / ;     ].7X7X7X7X7X7X7X7X7X7X7X7X7X7X7X7X7X7X7X7X7X7X7X7X7X7X7X7X7X7X7X7X7X7X7X7X7X>X,XA.    j.|.XX    | 7X7X7X7XW.#     m.",
"H a g k ! @.Z.K.T.H.H.H.G.R.H.H.F.@.@.C     ].7X7X7X7X7X7X7X7X7X7X7X7X7X7X7X7X7X7X7X7X7X7X7X7X7X7X7X7X7X7X7X7X7X7X7X7X7X7X7XG.    k. Xk.    ..7X7X7X7XW.#     M.",
"G d c 9 / K._.+X[.+X+XR.Q.Q.Q.P.U.Z.H.z     @.Y.'.7X7X7X7X7X7X7X7X7X7X7X7X7X7X7X7X7X7X,XK.K.=X7X7X7X7X7X7X7X7X7X7X7X7X7X7X7XG.    |..X|.    ..7X7X7X7X!.#     M.",
"G d 1 : ) A.A.[.R.[.R.[.Q.P.R.P.P.Z.H.q 2 B     4 :X7X7X7X7X7X7X7X7X7X7X7X7X7X7X7X7X7X{.    G.7X7X7X7X7X7X7X7X7X7X7X7X7X7X7XG.    e.;.,.    ..7X7X7X7X=X4     M.",
"K ; C y ) 1.H.+XR.R.R.R.R.P.T.P.U.Z.H.q 2 2     5 >X7X7X7X7X7X7X7X7X7X7X7X7X7X7X7X7X7X[.X   G.7X7X7X7X7X7X7X7X7X7X7X7X7X7X7XG.    w.$.$.    ..7X7X7X7X-X$     M.",
"$.; w y y F.U.[.+X+X{.T.T.T.R.T.}.F.1.y y C     $ >X7X7X7X7X7X7X7X7X7X7X7X7X7X7X7X7X7X[.    G.7X7X7X7X7X7X7X7X7X7X7X7X7X7X7XG.    ;.L %.    ..7X7X7X7X:X$     M.",
"J 2 w w ) S.A.'.`.'.'.1.1.H.T.R.].H.+.q ; :     5 >X7X7X7X7X7X7X7X7X7X7X7X7X7X7X7X7X7X{.X   G.7X7X7X7X7X7X7X7X7X7X7X7X7X7X7XG.    -.-.;.    | 7X7X7X7X:X$     3.",
"- 1 Z q ! ] ) @.{ ^ { { | W D { / / ` 2 F C     5 >X7X7X7X7X7X7X7X-X=X=X7X7X7X7X7X7X7X[.X   G.7X7X7X7X7X7X7X7X7X7X7X7X7X7X7XG.    f.p.s.7 7 A.7X7X-X-X{.$     3.",
"J - a d A J D ` _ _ N _ D ' H _ D F H s A l     7 ,X7X7X7X7X7X7X>Xe # ) 7X7X7X7X7X7X7X[.    G.7X7X7X7X7X7X7X7X7X7X7X7X7X7X7XG.        7 =X4X7X7X7X) # @ 3.3.3.3.",
"J d p a u u - - - a u a - - - - p i i u u i     4 ,X7X7X7X7X7X7X>X$   ( 7X7X7X7X7X7X7X{.X   G.7X7X7X7X7X7X7X7X7X7X7X7X7X7X7XG.        5 4X7X7X7X7XE     3.3.3.3.",
">.G #.*.$.&.$.-.#.=.>.,.;.>.>.,.;.#.#.%.%.#.    $ >X7X7X7X7X7X7X>X4   E 7X7X7X7X7X7X7X{.    G.7X7X7X7X7X7X7X7X7X7X7X7X7X7X7XG.    ( o.G.7X7X7X7X7X(     3.8.7.3.",
"j.,.u.k.j.j.k.f.|..XXXXXXX.X.XXXk.r.;.u.k.k.    7 >X7X7X7X7X7X7X>X4   E 7X7X7X7X7X7X7X[.X   G.7X7X7X7X7X7X7X7X7X7X7X7X7X7X7XG.  X {.7X7X7X7X7X7X7XW     3.7.x.3.",
",.#.%.w.;.%.%.%.;.=.,.=.;.;.;.>.w.%.L -.%.w.    5 =X7X7X7X7X7X7X>X$   E 7X7X7X7X7X7X7X].X   G.7X7X7X7X7X7X7X7X7X7X7X7X7X7X7XG.    {.7X7X7X7X7X7X7XR     3.3.x.7.",
"%.K #.%.$.$.%.%.#.%.%.#.$.$.%.%.L } *.$.L L L L L t t A.7X7X7X7X>X4   ( 7X7X7X7X4X) t e 7X7X7X7X7X7X7X7X7X7X7X7X7X7X7X7X7X7XG.  X [.7X7X7X7X].t r < D 3.3.3.7.9.",
"e.p.r.r.r.i.i.i.p.i.r.;.;.=.=.#.%.i.u.r.d.p.i.d.p.    ) 7X7X7X7X>X4   ( 7X7X7X7X3X5     7X7X7X7X7X7X7X7X7X7X7X7X7X7X7X7X7X7XG.    }.7X7X7X7XK.    * C 3.3.3.3.9.",
"-.d.i.r.d.p.r.r.i.r.u.;.>.=.,.=.%.h.u.r.h.r.e.h.h.    R 7X7X7X7X,X$   ( 7X7X7X7X>X4     7X7X7X7X7X7X7X7X7X7X7X7X7X7X7X7X7X7XG.  X G.@X@X@X@XA.  X z ! 3.7.9.7.9.",
"s.j.j.j.s.j.j.j.j.s.s.j.`.h. Xh.h.h.h.h.h.h.h.h.h.    X 7X7X7X7X>X4   ( 7X7X7X7X7X      7X7X7X7X7X7X7X7X7X7X7X7X7X7X7X7X7X7XG.    X X X . o X & A 2.3.3.3.8.4.x.",
";.>.>.>.>.>.>.>.>.>.>.>.>.>.>.=.;.;.,.;.;.;.;.,.;.      7X7X7X7X,X5   ( 7X7X7X7X7X      7X7X7X7X7X7X7X7X7X7X7X7X7X7X7X7X7X7XG.                ^ ] x.5.3.3.5.4.9.",
"u - : u i - - = - u , - , u , ; 1 < , , , , = , ,       7X7X7X7X@Xo   7 7X7X7X7X7X      7X7X7X7X7X7X7X7X7X7X7X7X7X7X7X:X@.X.) + < % % , - 1 A 3.z.c.3.3.3.3.3.8.",
"] ' ] ` ] ] ` ] [ [ [ [ ] ] ] ] { / { ] { { { { {       7X7X7X7X7X      7X7X7X7X7X      7X7X7X7X7X7X7X7X7X7X7X7X7X7X7X=Xo     / +.+.} ] ` _ ` 3.c.x.3.3.3.3.3.3.",
"3.3.3.7.7.3.3.3.9.7.3.3.9.3.3.3.3.3.3.3.3.8.3.3.9.      7X7X7X7X7X      7X7X7X7X7X      7X7X7X7X7X7X7X7X4X4X4X4X4X4X4X@XX     7.7.3.3.3.3.m.c.z.M.z.3.3.3.3.3.3.",
"3.3.3.x.9.3.3.3.7.8.3.7.9.3.3.3.3.4.7.3.3.z.8.3.v.3.3.z.          3.8.x.                              o 7 7 7 7 7 5 7 7 +. .6.9.3.3.3.8.z.z.M.z.m.3.c.c.3.3.3.3.",
"3.3.3.3.3.3.3.3.3.x.7.9.7.3.3.3.3.3.3.3.3.7.x.3.v.3.8.v.          3.3.4.                                                F 9.4.9.3.3.3.3.c.z.M.z.m.c.M.z.3.3.3.3.",
"3.8.3.3.3.3.3.9.4.7.8.9.7.7.9.7.3.3.3.3.3.5.m.8.v.8.v.z.          3.3.3.                                                3.3.3.3.3.3.3.3.c.x.M.z.m.m.z.3.3.3.5.3."
};
