/* XPM */
static char *bbace8a6ef9d470cf80f2fdd14644dbckpXjSIIgXhwNziJz[] = {
/* columns rows colors chars-per-pixel */
"80 80 212 2 ",
"   c black",
".  c #03060A",
"X  c #06090A",
"o  c #090A0B",
"O  c #180F06",
"+  c #080F16",
"@  c #0E1112",
"#  c #08121B",
"$  c #111416",
"%  c #15191B",
"&  c #181C1E",
"*  c #271C18",
"=  c #362717",
"-  c #352A1B",
";  c #342B1D",
":  c #0C1A27",
">  c #191E20",
",  c #0E1F30",
"<  c #1C2124",
"1  c #16212A",
"2  c #1F2528",
"3  c #0F2031",
"4  c #152737",
"5  c #2C2523",
"6  c #21272A",
"7  c #232A2D",
"8  c #372C26",
"9  c #3A342A",
"0  c #272F32",
"q  c #293135",
"w  c #2D363A",
"e  c #2F393D",
"r  c #3C3735",
"t  c #313A3E",
"y  c #4F3819",
"u  c #422F24",
"i  c #43352C",
"p  c #49362C",
"a  c #443A2C",
"s  c #4C3C29",
"d  c #533C24",
"f  c #553D2A",
"g  c #443634",
"h  c #443A33",
"j  c #4C3C33",
"k  c #493D3B",
"l  c #523E34",
"z  c #4C422A",
"x  c #54422C",
"c  c #5A4728",
"v  c #5B452D",
"b  c #4B423A",
"n  c #544333",
"m  c #5B4633",
"M  c #554A34",
"N  c #5C4A34",
"B  c #54443C",
"V  c #5A4639",
"C  c #53493E",
"Z  c #5C4A3A",
"A  c #5A5238",
"S  c #61462D",
"D  c #624A2E",
"F  c #604732",
"G  c #644B33",
"H  c #694E35",
"J  c #634D3A",
"K  c #684D3A",
"L  c #6B5236",
"P  c #65523B",
"I  c #6D543B",
"U  c #71563D",
"Y  c #72593E",
"T  c #7A653A",
"R  c #142B41",
"E  c #19324A",
"W  c #1A3754",
"Q  c #353F43",
"!  c #253C51",
"~  c #473E41",
"^  c #364145",
"/  c #3D494E",
"(  c #3F4B50",
")  c #1F4468",
"_  c #234669",
"`  c #4B4545",
"'  c #534543",
"]  c #584746",
"[  c #544A44",
"{  c #5B4B44",
"}  c #554B4A",
"|  c #5B4C4B",
" . c #5B5349",
".. c #414E53",
"X. c #47545A",
"o. c #5B5654",
"O. c #624E45",
"+. c #655649",
"@. c #715641",
"#. c #745B43",
"$. c #655554",
"%. c #695656",
"&. c #665955",
"*. c #695A56",
"=. c #685758",
"-. c #665A59",
";. c #6C5A5A",
":. c #7B6346",
">. c #6D615D",
",. c #796855",
"<. c #71635E",
"1. c #4D5D65",
"2. c #6F5E60",
"3. c #506067",
"4. c #53636A",
"5. c #5B6D75",
"6. c #5E7177",
"7. c #6C6462",
"8. c #736363",
"9. c #756965",
"0. c #796A68",
"q. c #62767E",
"w. c #797771",
"e. c #876A4B",
"r. c #897349",
"t. c #886D52",
"y. c #866D59",
"u. c #8C7254",
"i. c #8C7559",
"p. c #927556",
"a. c #92755A",
"s. c #867165",
"d. c #8A7665",
"f. c #947A63",
"g. c #847C78",
"h. c #6AD949",
"j. c #72DE4B",
"k. c #79DF4A",
"l. c #75E14C",
"z. c #7BE54D",
"x. c #7EE84E",
"c. c #59C67C",
"v. c #9B8458",
"b. c #8E8372",
"n. c #83E44C",
"m. c #8BE74D",
"M. c #82EB4F",
"N. c #95EC4F",
"B. c #82EC50",
"V. c #94EF50",
"C. c #9DF051",
"Z. c #A9F752",
"A. c #B0FB53",
"S. c #83DA6B",
"D. c #8BE16C",
"F. c #2B5A8A",
"G. c #2F6499",
"H. c #326BA3",
"J. c #3775B3",
"K. c #5F798A",
"L. c #657982",
"P. c #6A7E87",
"I. c #6C828B",
"U. c #70868F",
"Y. c #748C96",
"T. c #7A939C",
"R. c #7D97A3",
"E. c #55A4A1",
"W. c #3D81C5",
"Q. c #438DD8",
"!. c #438EDA",
"~. c #72A8D5",
"^. c #4797E6",
"/. c #4A9EF1",
"(. c #639BEA",
"). c #4DA5FC",
"_. c #50A7FF",
"`. c #6CB9FF",
"'. c #76B5FF",
"]. c #A09A90",
"[. c #839DA8",
"{. c #86A0AB",
"}. c #89A4AF",
"|. c #8BA7B3",
" X c #8FABB8",
".X c #91AEBA",
"XX c #95B2BE",
"oX c #98B6C3",
"OX c #9AB8C6",
"+X c #9CBAC8",
"@X c #A0BFCD",
"#X c #DFB6FE",
"$X c #FBB7FD",
"%X c #98C1DC",
"&X c #A1C0CE",
"*X c #A4C4D2",
"=X c #A9CAD6",
"-X c #ABCCDB",
";X c #AED0DF",
":X c #9DCDED",
">X c #89C9FF",
",X c #99D3FF",
"<X c #AFD1E0",
"1X c #B2D5E4",
"2X c #B5D9E4",
"3X c #A2D8FF",
"4X c #A9DCFF",
"5X c #C7E2EE",
"6X c #DDEEF5",
"7X c #DBF0FF",
"8X c #F1F6FF",
"9X c white",
/* pixels */
"h.h.h.h.h.h.h.h.l.x.z.l.B.l.l.h.h.h.h.n.z.h.n.                                              j.z.z.l.B.z.h.h.h.h.h.h.h.h.h.h.h.h.h.h.h.h.n.n.Z.n.C.N.k.h.h.h.h.h.",
"h.h.h.h.h.h.h.h.h.x.z.l.B.l.z.h.h.h.h.h.V.h.                                                j.x.x.h.B.h.h.h.h.h.h.j.h.h.h.l.z.h.h.h.h.h.h.h.N.k.m.S.S.h.S.D.S.z.",
"h.l.h.h.h.z.h.h.h.l.z.l.x.h.j.h.h.h.h.h.V.h.o o o o o X o o o X o o o o o o o . . o o o o o j.x.z.j.B.h.h.h.N.m.h.j.l.h.h.M.h.h.h.h.h.h.9 O r * 5 5 8 5 8 5 8 8 ",
"h.l.j.h.j.x.h.h.h.h.h.h.j.h.h.h.x.          Y.OXOXOXOXOXOXOXoXOXoXOXOXOXOXOXOXOXOXOXOXoXoXOX3.          h.j.Z.Z.h.h.n.h.l.B.h.h.h.h.h.z.o.` } X.` } ' } } } } } ",
"h.l.x.h.B.z.h.h.h.h.h.j.l.h.h.h.x.          {.9X9X9X9X9X9X9X9X9X9X9X9X9X9X9X9X9X9X9X9X9X9X9X5.          h.h.j.h.h.h.B.x.z.l.h.h.h.h.` * w.w.} 7.-.-.-.-.=.2.=.-.",
"l.l.B.l.B.h.j.l.h.h.h.Z.A.h.h.h.h.w e e e t XX9X9X9X9X9X9X9X9X9X9X9X9X9X9X9X9X9X9X9X9X9X9X9XY.e e e t w h.h.h.h.l.z.h.B.z.l.l.B.l.h.} r } ` ;.7.-.-.-.2.2.-.2.=.",
"l.                              6 1X9X9X9X9X9X9X9X9X9X9X9X9X9X9X9X9X9X9X9X9X9X9X9X9X9X9X9X9X9X9X9X9X9XXX.                               } ~ -.9.7.7.0.2.2.2.7.2.",
"h.                              2 6X9X9X9X9X9X9X9X9X9X9X9X9X9X9X9X9X9X9X9X9X9X9X9X9X9X9X9X9X9X9X9X9X9XoXX                               ` | -.;.2.2.2.2.2.2.2.2.",
"j.    ^ I.I.I.I.I.I.I.I.I.I.I.I.T.9X9X9X9X9X9X9X9X9X9X9X9X9X9X9X9X9X9X9X9X9X9X9X9X9X9X9X9X9X9X9X9X9X9X1XU.I.I.I.I.I.I.I.I.I.I.I.P.<     ] | 2.8.2.2.8.8.8.8.8.8.",
"h.    L.9X9X9X9X9X9X9X9X9X9X9X9X9X9X9X9X9X9X9X9X9X9X9X9X9X9X9X9X9X9X9X9X9X9X9X9X9X9X9X9X9X9X9X9X9X9X9X9X9X9X9X9X9X9X9X9X9X9X9X9X9X^     ;.%.=.%.=.;.%.%.%.;.;.%.",
"h.    L.9X9X9X9X9X9X9X9X9X9X9X9X9X9X9X9X9X9X9X9X9X9X9X9X9X9X9X9X9X9X9X9X9X9X9X9X9X9X9X9X9X9X9X9X9X9X9X9X9X9X9X9X9X9X9X9X9X9X9X9X9X^     8.;.2.%.=.$.%.$.%.%.%.$.",
"k.    L.9X9X9X9X9X9X9X9X9X9X9X9X9X9X9X9X9X9X9X9X9X9X9X9X9X9X9X9X9X9X9X9X9X9X9X9X9X9X9X9X9X9X9X9X9X9X9X9X9X9X9X9X9X9X9X9X9X9X9X9X9X^     8.;.2.2.=.=.%.%.%.%.%.;.",
"h.    L.9X9X9X9X9X9X9X9X9X9X9X9X9X9X9X9X9X9X9X9X9X9X9X9X9X9X9X9X9X9X9X9X9X9X9X9X9X9X9X9X9X9X9X9X9X9X9X9X9X9X9X9X9X9X9X9X9X9X9X9X9XQ     s.8.;.O.&.+.&.$.$.%.%.%.",
"h.    4. X X:X3X3X3X3X3X3X3X3X3X4X9X9X9X9X9X9X9X9X9X9X9X9X9X9X9X9X9X9X9X9X9X9X9X9X9X9X9X9X9X9X9X9X9X9X9X3X4X3X3X3X3X3X3X3X3X%X|.}.Q     8.;.;.&.$.$.%.&.%.=.%.$.",
"h.h.h.    o W.$X$X$X$X$X$X$X$X$X'.9X9X9X9X9X9X9X9X9X9X9X9X9X9X9X9X9X9X9X9X9X9X9X9X9X9X9X9X9X9X9X9X9X9X4X$X$X$X$X$X$X$X$X$X$XF.    g %.O.O.$.>.>.;.;.;.;.>.;.;.>.",
"h.x.l.    . W.$X$X$X$X$X$X$X$X$X'.9X9X9X9X9X9X9X9X9X9X9X9X9X9X9X9X9X9X9X9X9X9X9X9X9X9X9X9X9X9X9X9X9X9X4X$X$X$X$X$X$X$X$X$X$XF.    u O.] B { ;.8.8.<.8.<.8.>.8.8.",
"B.x.h.    . W.$X$X$X$X$X$X$X>X,X,X9X9X9X9X9X9X9X9X9X9X9X9X9X9X9X9X9X9X9X9X9X9X9X9X9X9X9X9X9X9X9X9X9X9X9X,X,X`.$X$X$X$X$X$X$XF.    k l ] ' B ;.8.8.8.8.8.9.8.8.8.",
"B.h.h.    X W.$X$X$X$X$X$X$X4X9X9X9X9X9X9X9X9X9X9X9X9X9X9X9X9X9X9X9X9X9X9X9X9X9X9X9X9X9X9X9X9X9X9X9X9X9X9X9X>X$X$X$X$X$X$X$XF.    k ] ] ' | ;.8.2.2.2.2.2.8.2.2.",
"B.j.B.j.  . J.^.(.$X$X$X$X#X3X9X9X9X9X9X9X9X9X9X9X9X9X9X9X9X9X9X9X9X9X9X9X9X9X9X9X9X9X9X9X9X9X9X9X9X9X9X9X9X>X$X$X$X$X$X^.^.F.    g ;.;.=.7.%.=.=.=.=.=.;.=.=.=.",
"B.l.x.h.h.h.# : E $X$X>X9X9X9X9X9X9X9X9X9X9X9X9X9X9X9X9X9X9X9X9X9X9X9X9X9X9X9X9X9X9X9X9X9X9X9X9X9X9X9X9X9X9X9X9X7X'.$XQ.: # # s.p g 8.s.0.d.{ $.=.$.$.o.=.=.=.=.",
"M.l.l.h.h.h.    3 $X$X>X9X9X9X9X9X9X9X9X9X9X9X9X9X9X9X9X9X9X9X9X9X9X9X9X9X9X9X9X9X9X9X9X9X9X9X9X9X9X9X9X9X9X9X9X9X'.$XQ.X     d.l i <.*.;.s.o.;.=.=.=.=.=.=.=.=.",
"x.h.h.h.h.h.h.  : G.H.~.9X9X9X9X9X9X9X9X9X9X9X9X9X9X9X9X9X9X9X9X9X9X9X9X9X9X9X9X9X9X9X9X9X9X9X9X9X9X9X9X9X9X9X9X9XW.H.F.o   d.d.j j <.<.>.0.$.;.=.=.$.$.=.=.=.$.",
"h.h.h.h.l.j.h.h.h.    5.9X9X9X9X9X9X9X9X9X9X9X9X9X9X9X9X9X9X9X9X9X9X9X9X9X9X9X9X9X9X9X9X9X9X9X9X9X9X9X9X9X9X9X9X9Xq     d.d.d.d.k g >.<.8.0.$.&.=.-.=.=.=.=.=.$.",
"h.n.n.h.B.z.h.h.h.    5.9X9X9X9X9X9X9X9X9X9X9X9X9X9X9X9X9X9X9X9X9X9X9X9X9X9X9X9X9X9X9X9X9X9X9X9X9X9X9X9X9X9X9X9X9Xw     i.i.d.s.j j +.$.$.*.*.=.;.;.-.-.-.2.2.2.",
"h.h.j.h.h.h.h.h.h.    5.9X9X9X9X9X9X9X X( / ../ 4.6X9X9X9X9X9X9X9X9X9X9X9X9X9X9X9X9X9X&X..( ( ( X.;X9X9X9X9X9X9X9Xq     a.i.d.d.j h { B { ] ;.9.8.8.8.8.8.2.8.8.",
"h.h.h.h.h.j.j.h.h.    5.9X9X9X9X9X9X9XY.        & 1X9X9X9X9X9X9X9X9X9X9X9X9X9X9X9X9X9X X        . +X9X9X9X9X9X9X9Xw     i.d.d.s.k i ] l B ] =.9.8.8.8.8.8.8.0.2.",
"j.n.h.h.j.N.n.h.h.    5.9X9X9X9X9X=X=XL.    # : E oX=X1X9X9X9X9X9X9X9X9X9X9X9X9X9X;X=XR.X   + : 4  X=X1X9X9X9X9X9Xw     f.f.d.s.k p | ' { | *.<.8.8.8.2.2.2.8.2.",
"k.Z.n.h.k.C.h.h.h.    5.9X9X9X9X=X< $ $ 9X9Xc.c.E.1 $ 4.9X9X9X9X9X9X9X9X9X9X9X9X6Xw $ @ 9X9XQ.^.Q.4 @ / 9X9X9X9X9Xw     i.d.d.d.j j ;.*.<.*.$.*.=.;.=.=.;.;.-.=.",
"h.C.m.j.C.k.h.h.h.    5.9X9X9X9X*X@     9X9Xc.c.c.@   1.9X9X9X9X9X9X9X9X9X9X9X9X5X2     9X9X_._.).3   w 9X9X9X9X9Xe     i.f.d.d.j g 9.<.0.<.$.$.$.$.$.=.$.=.$.-.",
"h.n.A.n.Z.h.h.h.h.    5.9X9X9X9X*X@   4 9X9Xc.c.c.@   X.9X9X9X9X9X9X9X9X9X9X9X9X5X2   : 9X9X_.).^.4   t 9X9X9X9X9Xe     i.d.d.d.j g 9.;.<.0.$.$.$.$.$.$.$.=.$.-.",
"h.h.C.n.Z.h.h.h.h.    5.9X9X9X9X*X@   _ c.c.c.c.c.#   X.9X9X9X9X9X9X9X9X9X9X9X9X5X2   E )._.).)./.,   w 9X9X9X9X9Xw     f.d.d.d.j i 8.*.<.8.$.$.=.=.=.=.=.=.=.$.",
"h.h.n.k.n.h.h.h.h.    5.9X9X9X9X=X% X _ c.c.c.c.c.% X 3.9X9X9X9X9X9X9X9X9X9X9X9X5X7 X E ^.).).).^.4 X Q 9X9X9X9X6Xw     i.d.s.y.j i 0.<.0.s.$.$.$.$.$.$.$.$.$.$.",
"h.h.h.h.h.h.h.h.h.].].0 t ^ @X9X9XoXXXK.4 R R R ! }.XX*X9X9X9X9X9X9X9X9X9X9X9X9X9X+XoXY.R R R R E R.XX@X9X9XT.Q t e.e.:.y.u.s.s.j j ] $.$.| <.*.;.;.2.2.2.2.2.2.",
"j.M.l.h.h.h.h.h.b O O =     .X9X9X9X9XY.        & 5X9X9X9X9X9X9X9X9X9X9X9X9X9X9X9X9X9X.X        X &X9X9X9X9Xq.    e.L I y.d.d.s.h i { [ { ' <.<.2.2.2.2.7.2.2.2.",
"j.z.j.h.b.w.w.w. .s V M   X .X9X9X9X9X{.q q 0 q / 5X9X9X9X9X9X9X9X*X+X=X9X9X9X9X9X9X9XOXw q q q Q =X9X9X9X9Xq.    T e.e.u.d.f.g.p 9 ' B k B =.8.2.8.0.8.2.8.8.0.",
"h.h.h.l.9 o 5 O j z Z N   X .X9X9X9X9X9X9X9X9X9X9X9X9X9X9X9X9X9X1X6 o X.9X9X9X9X9X9X9X9X9X9X9X6X9X9X9X9X9X9Xq.    #.i.v.d.y.d.f.g p | { ] { >.8.2.2.2.2.8.2.8.2.",
"h.h.t z [  .z A P A m x   X .X9X9X9X9X9X9X9X9X9X9X9X9X9X9X9X9X9X1X%   / 9X9X9X9X9X9X9X9X9X9X9X9X9X9X9X9X9X9Xq.    t.u.u.i.i.d.d.l h %.%.;.*.;.*.2.=.=.=.=.-.2.=.",
"h.h.- ; b M M z x N G c c X 4.q.Y.9X9X9X9X9X9X9X9X9X9X9X9X9X9X9X9XY.L.[.9X9X9X9X9X9X9X9X9X9X9X9X9X9X9X;XL.q...p.a.u.t.t.u.b.d.d.l h 2.<.9.8.*.$.=.$.=.=.$.$.=.$.",
"h.h.y 9 M z A Z m v v G G G     6 6X9X9X9X9X9X9X9X9X9X9X9X9X9X9X9X9X9X9X9X9X9X9X9X9X9X9X9X9X9X9X9X9X9XoX    a.e.t.r.u.u.d.f.d.d.k i <.9.8.8.=.$.$.$.$.$.$.=.$.$.",
"h.h.9 ; C M Z n x v v G x f     6 ;X9X6X9X6X9X9X6X9X6X9X6X9X6X9X6X9X6X9X6X9X9X6X9X6X9X9X6X9X6X9X6X9X9X.Xo   a.t.u.u.u.u.i.d.d.d.n p 8.7.>.;.*.=.$.$.=.=.=.=.=.=.",
"h.h.r 5 B V V l H K K F f f f d J 0 0 0 0 0 0 0 0 0 0 0 0 0 0 0 0 0 0 0 0 0 0 0 0 0 0 0 0 0 0 0 0 q q 7 t.p.i.p.i.p.u.i.i.d.s.s.j k 8.<.9.<.*.$.$.$.| $.$.$.$.$.",
"h.h.h 8 ' J J V l d f l S l l f G                                                                       i.y.t.p.u.r.e.i.f.f.d.s.j g $.$.%.%.*.*.;.;.;.2.2.;.2.2.",
"h.h.r 8 B Z J V f f f f l F V F H               o e ^ Q Q Q Q ^ ^ Q Q Q Q Q Q Q ^ Q Q Q Q Q Q Q Q Q ^ Q i.y.p.i.u.r.t.u.i.d.d.d.j i | ' { | ;.8.8.8.2.8.2.8.8.8.",
"h.h.a 8 B l l f l f l l V V O.V P Y @.I I I     > ;X9X9X9X9X9X9X9X9X9X9X9X9X9X9X9X9X9X9X9X9X9X9X9X9X9X.XX   a.p.u.u.u.i.i.i.s.d.j g { n C { ;.9.8.8.8.8.8.8.8.0.",
"z.h.g 5 k l f p F F m m V V l l L U U P U U     & 1X9X9X9X9X9X9X9X9X9X9X9X9X9X9X9X9X9X9X9X9X9X9X9X9X9XoXX   i.p.r.u.u.u.i.y.d.s.p g { { [ | ;.>.2.2.2.8.2.8.8.8.",
"j.h.g - n n n f m v F J F V F V A U U I     5.Y.R.9X9X9X9X9X9X9X9X9X9X9X9X9X9X9X9X9X9X9X9X9X9X9X9X9X9X1XY.Y.X.    e.U :.t.d.d.y.j j -.*.=.&.;.;.-.=.=.;.;.;.=.=.",
"h.h.p 8 M V m v F v v V N N ] m P U Y I     |.9X9X9X9X9X9X9X9X9X9X9X9X9X9X9X9X9X9X9X9X9X9X9X9X9X9X9X9X9X9X9XL.    :.U U y.d.d.d.j j <.<.9.<.>.&.$.$.o.$.=.=.$.=.",
"h.h.h - m K m m F F m m N N V Z c I I I     }.9X9X9X9X9X9X9X9X9X9X9X9X9X9X9X9X9X9X9X9X9X9X9X9X9X9X9X9X9X9X9XI.$ $ T e.u.f.d.f.d.i g *.8.8.;.;.$.=.=.=.=.-.=.=.;.",
"h.h.9 - M Z N c m m m m V M G v G I Y U     }.9X9X9X9X9X9X9X9X9X9X9X9X9X9X9X9X9X9X9X9X9X9X9X9X9X9X9X9X9X9X9X6X=X*Xw     f.f.d.d.l i 8.8.8.8.&.$.$.$.$.$.=.-.=.=.",
"h.l.9 = m G F v J m n m V N m v H #.Y H   X }.9X9X9X9X9X9X9X9X9X9X9X9X9X9X9X9X9X9X9X9X9X9X9X9X9X9X9X9X9X9X9X9X9X9Xq     i.i.d.d.j h <.8.8.;.;.*.*.$.$.*.$.=.=.$.",
"h.l.a - m G F v N m m n m Z m v G L H H     |.9X9X9X9X9X9X9X9X9X9X9X9X9X9X9X9X9X9X9X9X9X9X9X9X9X9X9X9X9X9X9X9X9X9Xq.../ i.i.d.d.p g $.%.&.$.8.;.;.=.;.=.;.-.;.=.",
"h.h.a - m G m v m m V M m M m v x S F S     }.9X9X9X9X9X9X9X9X9X9X9X9X9X9X9X9X9X9X9X9X9X9X9X9X9X9X9X9X9X9X9X9X9X9X9X9X+Xo     d.j p B { ] B <.          8.8.8.8.",
"h.h.a - m M F v x m Z Z n x f x G L H H     }.9X9X9X9X9X9X9X9X9X9X9X9X9X9X9X9X9X9X9X9X9X9X9X9X9X9X9X9X9X9X9X9X9X9X9X9X+Xo     s.l g B ' B l 8.          8.0.8.0.",
"h.h.a - M m F v v m V V n d d d L @.L P     }.9X9X9X9X9X9X9X9X9X9X9X9X9X9X9X9X9X9X9X9X9X9X9X9X9X9X9X9X9X9X9X9X9X9X9X9X&X@     d.l g { ]     W H.H.H.H.G.#   8.2.",
"h.h.h - m N v v f n l n n v v x K U U L     }.9X9X9X9X9X9X9X9X9X9X9X9X9X9X9X9X9X9X9X9X9X9X9X9X9X9X9X9X9X9X9X9X9X9X9X9X+Xo     d.j i $.%.    ) 8X9X9X9X^.#     ;.",
"h.h.p - n m S m v s s s m Z J G G @.@.L     }.9X9X9X9X9X9X9X9X9X9X9X9X9X9X9X9X9X9X9X9X9X9X9X9X9X9X9X9X9X9X9X9X9X9X9X9X*X7 & & s.j i 8.0.    _ 9X9X9X9XQ.#     =.",
"h.h.h = f d f y n m m V m m v v H L @.U     }.9X9X9X9X9X9X9X9X9X9X9X9X9X9X9X9X9X9X9X9X9X9X9X9X9X9X9X9X9X9X9X9X9X9X9X9X9X1X2XL.    h ,.*.    1.9X9X9X9XQ.#     $.",
"k.N.h = s x d d m m m V Z m m c H I U U     |.9X9X9X9X9X9X9X9X9X9X9X9X9X9X9X9X9X9X9X9X9X9X9X9X9X9X9X9X9X9X9X9X9X9X9X9X9X9X9XI.    p 8.>.    3.9X9X9X9XQ.+     $.",
"Z.h.a - n m v v v M Z V M B m v H I @.L     q.T.[.9X9X9X9X9X9X9X9X9X9X9X9X9X9X9X9X9X9X1XT.Y.*X9X9X9X9X9X9X9X9X9X9X9X9X9X9X9XI.    j <.<.    4.9X9X9X9X~.#     $.",
"Z.h.h - m G m v m M V V m N m v K I U U L U     & 1X9X9X9X9X9X9X9X9X9X9X9X9X9X9X9X9X9X.X    I.9X9X9X9X9X9X9X9X9X9X9X9X9X9X9XI.    g *.$.    3.9X9X9X9X-X&     -.",
"Z.h.a - m N S v m N m Z m M G v G I @.U U #.    < 1X9X9X9X9X9X9X9X9X9X9X9X9X9X9X9X9X9X|.X   I.9X9X9X9X9X9X9X9X9X9X9X9X9X9X9XI.    i ] ]     3.9X9X9X9X-X%     8.",
"n.h.a - m N S v N m Z V V M m N L @.@.L L H     & 1X9X9X9X9X9X9X9X9X9X9X9X9X9X9X9X9X9X X    I.9X9X9X9X9X9X9X9X9X9X9X9X9X9X9XI.    g ] B     3.9X9X9X9X-X%     8.",
"h.h.a - m N v x m N V Z V N m v H U U H G S     < 1X9X9X9X9X9X9X9X9X9X9X9X9X9X9X9X9X9X XX   I.9X9X9X9X9X9X9X9X9X9X9X9X9X9X9XI.    p ] ]     1.9X9X9X9X;X%     2.",
"h.h.h - m N G x m N N N J m m S m G H H H H     < 1X9X9X9X9X9X9X9X*X*X;X9X9X9X9X9X9X9X XX   I.9X9X9X9X9X9X9X9X9X9X9X9X9X9X9XI.    j | %.7 7 L.9X9X<X*X X%     2.",
"h.h.h - m N m v m m m Z V m m v v G S v H I     < 1X9X9X9X9X9X9X1X0 @ X.9X9X9X9X9X9X9X X    I.9X9X9X9X9X9X9X9X9X9X9X9X9X9X9XI.        6 ;X6X9X9X9XX.@ @ =.%.=.%.",
"h.h.a - m G v v m M V m v x x d G H H H I U     < 1X9X9X9X9X9X9X<X&   ( 9X9X9X9X9X9X9X XX   I.9X9X9X9X9X9X9X9X9X9X9X9X9X9X9XI.        < 6X9X9X9X9X(     =.=.=.%.",
"h.h.a - m N G v V m n l n x f d G U U U Y U     > 1X9X9X9X9X9X9X1X>   ( 9X9X9X9X9X9X9X.X    I.9X9X9X9X9X9X9X9X9X9X9X9X9X9X9XI.    ..6.I.9X9X9X9X9X(     %.%.=.%.",
"h.h.g - m N m v f f s n n m m x G U Y U Y I     < 1X9X9X9X9X9X9X1X>   ( 9X9X9X9X9X9X9X XX   I.9X9X9X9X9X9X9X9X9X9X9X9X9X9X9XI.  X .X9X9X9X9X9X9X9X(     %.$.%.%.",
"j.n.a = n v v f x x z n N Z J c G U @.U U L     < ;X9X9X9X9X9X9X1X&   ( 9X9X9X9X9X9X9X|.X   I.9X9X9X9X9X9X9X9X9X9X9X9X9X9X9XI.    .X9X9X9X9X9X9X9X/     ;.%.;.2.",
"x.x.9 = f x s y m v B N Z m v v H U @.L U Y U #.P w w L.9X9X9X9X1X>   ( 9X9X9X9X6XX.w q 9X9X9X9X9X9X9X9X9X9X9X9X9X9X9X9X9X9XI.  X .X9X9X9X9X}.w w 8.2.2.8.8.8.8.",
"B.h.r = x v f d J M Z Z Z m m c H @.U L @.#.I Y P     X.9X9X9X9X1X&   ..9X9X9X9X5X<     9X9X9X9X9X9X9X9X9X9X9X9X9X9X9X9X9X9XI.    XX9X9X9X9XY.    d.s.2.2.s.8.0.",
"B.h.a - m G J v v n Z Z m m m m K I U L #.#.L L U     / 9X9X9X9X1X&   ..9X9X9X9X1X>     9X9X9X9X9X9X9X9X9X9X9X9X9X9X9X9X9X9XI.  X I.OXoXoXOXq.    2.8.8.2.2.8.8.",
"B.z.r - m N S v J m Z Z m m v v H I L P U U H L I     X 9X9X9X9X1X>   ..9X9X9X9X9X      9X9X9X9X9X9X9X9X9X9X9X9X9X9X9X9X9X9XI.    X X X X o X =.=.=.=.;.;.%.;.%.",
"B.l.a - m N m v v m Z Z m M m G H @.#.U #.U I @.H       9X9X9X9X1X<   ..9X9X9X9X9X      9X9X9X9X9X9X9X9X9X9X9X9X9X9X9X9X9X9XI.                $.=.=.$.$.%.=.%.;.",
"M.h.a - m N S v V N Z Z m n N v F I @.H H S v S H       9X9X9X9X+Xo   7 9X9X9X9X9X      9X9X9X9X9X9X9X9X9X9X9X9X9X9X9X<Xq.5...s.j h *.<.8.<.2.$.=.=.%.%.;.%.=.=.",
"h.h.a - n G m v F M Z Z Z m m v H U U H G D S S L       9X9X9X9X9X      9X9X9X9X9X      9X9X9X9X9X9X9X9X9X9X9X9X9X9X9X&Xo     s.j h >.>.<.;.2.=.=.=.=.=.=.%.;.=.",
"h.h.a - N N v v v m V Z Z m K G S H S F H L I U I       9X9X9X9X9X      9X9X9X9X9X      9X9X9X9X9X9X9X9X6X6X6X6X6X6X6XoXo     s.j g >.9.8.2.;.%.$.$.=.=.%.%.%.$.",
"h.h.9 - m N G v m N Z Z m n v c v F S v H U I I L U I U           L U U                               o 6 7 6 7 7 2 7 6 a.d.d.s.j g &.*.=.$.;.=.=.=.=.=.%.;.=.=.",
"h.h.9 - m N m v N m V m n x f d L @.U L #.#.U #.L I I I           K @.U                                                 y.a.s.d.b i { C ' ] 2.2.2.2.2.s.2.2.s.2.",
"h.z.p - m N G v f n n n n x f x F L L H U U I L @.I U I           U U L                                                 a.d.f.d.j i { [ ] ] 2.2.2.2.2.2.s.s.2.2."
};
