/* XPM */
static char *_532adc79534448ed57c8d9311c920e3The6zlum7TqjwmSm[] = {
/* columns rows colors chars-per-pixel */
"80 80 213 2 ",
"   c black",
".  c #03060A",
"X  c #06090A",
"o  c #090A0B",
"O  c #140A05",
"+  c #1C1306",
"@  c #080F16",
"#  c #0E1112",
"$  c #08121B",
"%  c #15191B",
"&  c #291706",
"*  c #341C04",
"=  c #271C18",
"-  c #30220B",
";  c #2C241A",
":  c #352616",
">  c #352A1B",
",  c #3B2D1C",
"<  c #3C321C",
"1  c #0C1A27",
"2  c #191E20",
"3  c #0E1F30",
"4  c #1C2124",
"5  c #1E2428",
"6  c #152737",
"7  c #2C2523",
"8  c #21272A",
"9  c #232A2D",
"0  c #392D25",
"q  c #3A3329",
"w  c #272F32",
"e  c #293135",
"r  c #2D363A",
"t  c #2F393D",
"y  c #333B3D",
"u  c #452909",
"i  c #452D17",
"p  c #43321C",
"a  c #493518",
"s  c #422F24",
"d  c #433423",
"f  c #4A3623",
"g  c #453925",
"h  c #4B3B24",
"j  c #43352C",
"k  c #49362C",
"l  c #443A2C",
"z  c #4C3D2C",
"x  c #533E2B",
"c  c #463A36",
"v  c #4C3C33",
"b  c #523E34",
"n  c #4B4227",
"m  c #4D412D",
"M  c #594525",
"N  c #54422C",
"B  c #5B452D",
"V  c #5C4A2D",
"C  c #4D4132",
"Z  c #4B423C",
"A  c #544333",
"S  c #5B4633",
"D  c #554A34",
"F  c #5C4A34",
"G  c #54443C",
"H  c #5A4639",
"J  c #53493E",
"K  c #5C4A3A",
"L  c #5A5238",
"P  c #63492C",
"I  c #644B33",
"U  c #694E35",
"Y  c #634D3A",
"T  c #6B5236",
"R  c #65523B",
"E  c #6C553A",
"W  c #775A36",
"Q  c #71563D",
"!  c #72593E",
"~  c #142B41",
"^  c #19324A",
"/  c #1A3754",
"(  c #353F43",
")  c #253C51",
"_  c #473E41",
"`  c #364145",
"'  c #3D494E",
"]  c #3F4B50",
"[  c #1F4468",
"{  c #234669",
"}  c #4B4545",
"|  c #534543",
" . c #584746",
".. c #544A44",
"X. c #5B4B44",
"o. c #554B4A",
"O. c #5B4C4B",
"+. c #5B5349",
"@. c #414E53",
"#. c #48545A",
"$. c #5B5654",
"%. c #624E45",
"&. c #685646",
"*. c #735942",
"=. c #655554",
"-. c #695656",
";. c #665955",
":. c #695A56",
">. c #685758",
",. c #665A59",
"<. c #6B5B5A",
"1. c #5C6056",
"2. c #786549",
"3. c #6D615D",
"4. c #796855",
"5. c #71635E",
"6. c #4D5D65",
"7. c #6F5E60",
"8. c #506067",
"9. c #53636A",
"0. c #5B6D75",
"q. c #5E7177",
"w. c #6C6462",
"e. c #736363",
"r. c #756965",
"t. c #796A68",
"y. c #79766D",
"u. c #62767E",
"i. c #867165",
"p. c #7B8177",
"a. c #6DD74E",
"s. c #6AD949",
"d. c #72DE4B",
"f. c #79DF4B",
"g. c #6FD552",
"h. c #75E14C",
"j. c #7BE54D",
"k. c #7EE94E",
"l. c #59C67C",
"z. c #81DC55",
"x. c #83E34C",
"c. c #8AE64D",
"v. c #82EB4F",
"b. c #8DEB4E",
"n. c #92ED4F",
"m. c #9AEE4F",
"M. c #87F14F",
"N. c #95F14F",
"B. c #8AE253",
"V. c #82EC50",
"C. c #92E953",
"Z. c #9CEE51",
"A. c #95F251",
"S. c #9DF051",
"D. c #A9F753",
"F. c #AAF754",
"G. c #84DB6C",
"H. c #2B5A8A",
"J. c #2F6499",
"K. c #326BA3",
"L. c #3775B3",
"P. c #5F798A",
"I. c #657982",
"U. c #6A7E87",
"Y. c #6C828B",
"T. c #748C96",
"R. c #778F98",
"E. c #7D97A3",
"W. c #55A4A1",
"Q. c #3D81C5",
"!. c #438DD8",
"~. c #438EDA",
"^. c #6DA3DC",
"/. c #4797E6",
"(. c #4A9EF1",
"). c #4DA5FC",
"_. c #50A7FF",
"`. c #6CB9FF",
"'. c #76B5FF",
"]. c #8C8B8A",
"[. c #AEA593",
"{. c #839DA8",
"}. c #86A0AB",
"|. c #89A4AF",
" X c #8BA7B3",
".X c #8FABB8",
"XX c #91AEBA",
"oX c #95B2BE",
"OX c #98B6C3",
"+X c #9AB8C6",
"@X c #9CBAC8",
"#X c #A0BFCD",
"$X c #DFB6FE",
"%X c #FBB7FD",
"&X c #98C1DC",
"*X c #A1C0CE",
"=X c #A4C4D2",
"-X c #A9CAD6",
";X c #ABCCDB",
":X c #AED0DF",
">X c #9DCDED",
",X c #89C9FF",
"<X c #99D3FF",
"1X c #AFD1E0",
"2X c #B2D5E4",
"3X c #B5D9E4",
"4X c #A2D8FF",
"5X c #A9DCFF",
"6X c #C7E2EE",
"7X c #DDEEF5",
"8X c #DBF0FF",
"9X c #F1F6FF",
"0X c white",
/* pixels */
"s.s.s.s.s.s.s.s.s.V.j.h.V.d.j.s.s.s.s.v.h.s.x.                                              d.j.k.s.M.j.s.s.s.s.s.s.s.s.s.s.s.s.s.s.s.s.x.x.D.x.S.n.f.s.s.s.s.s.",
"G.s.s.s.s.G.s.s.s.k.k.h.V.h.j.s.s.s.s.s.n.s.                                                h.j.j.h.k.s.s.s.s.s.s.d.s.s.s.d.j.s.s.s.s.s.s.s.n.j.c.s.s.s.d.h.s.s.",
"7 w w q 0 7 7 = } h.j.h.V.s.s.s.s.s.s.s.N.s.o o o o o . o o o o o o o o o o o . . o o o o o d.k.j.d.V.s.s.s.m.b.s.d.h.s.s.v.s.s.s.s.s.s.s.s.s.s.s.s.s.s.h.M.s.s.",
"#.o.o.} _ } } } w.s.s.s.s.s.s.s.k.          T.+X+X+X+X+X+X+XOX+XOX+X+X+X+X+X+X+X+X+X+XOXOX+X8.          s.d.F.Z.s.s.v.s.j.v.s.s.s.s.s.j.s.s.s.s.s.s.s.s.s.h.s.s.",
"-.7.-.=.>.3.e.w.1.= #.d.j.s.s.s.k.          |.0X0X0X0X0X0X0X0X0X0X0X0X0X0X0X0X0X0X0X0X0X0X0X0.          s.s.d.s.s.s.V.k.j.h.s.s.s.s.s.h.j.s.s.h.h.s.s.s.s.s.s.s.",
"-.:.<.<.<.w.,.$.#.y  .].].s.s.s.s.r t t t t OX0X0X0X0X0X0X0X0X0X0X0X0X0X0X0X0X0X0X0X0X0X0X0XT.t t ( t r s.s.s.s.h.j.s.k.j.h.h.V.h.s.s.s.j.s.s.V.f.s.s.s.s.s.c.s.",
"5.                              8 2X0X0X0X0X0X0X0X0X0X0X0X0X0X0X0X0X0X0X0X0X0X0X0X0X0X0X0X0X0X0X0X0X0XoX.                               h.h.j.V.s.s.s.s.s.x.F.s.",
"7.                              5 7X0X0X0X0X0X0X0X0X0X0X0X0X0X0X0X0X0X0X0X0X0X0X0X0X0X0X0X0X0X0X0X0X0XOXX                               j.h.V.s.s.s.s.s.s.n.b.s.",
"4.    ` Y.Y.Y.Y.Y.Y.Y.Y.Y.Y.Y.Y.R.0X0X0X0X0X0X0X0X0X0X0X0X0X0X0X0X0X0X0X0X0X0X0X0X0X0X0X0X0X0X0X0X0X0X2XY.Y.Y.Y.Y.Y.Y.Y.Y.Y.Y.Y.U.5     h.h.j.s.s.s.s.d.s.Z.x.f.",
"<.    I.0X0X0X0X0X0X0X0X0X0X0X0X0X0X0X0X0X0X0X0X0X0X0X0X0X0X0X0X0X0X0X0X0X0X0X0X0X0X0X0X0X0X0X0X0X0X0X0X0X0X0X0X0X0X0X0X0X0X0X0X0X`     s.s.s.s.s.s.s.m.f.m.x.D.",
"=.    I.0X0X0X0X0X0X0X0X0X0X0X0X0X0X0X0X0X0X0X0X0X0X0X0X0X0X0X0X0X0X0X0X0X0X0X0X0X0X0X0X0X0X0X0X0X0X0X0X0X0X0X0X0X0X0X0X0X0X0X0X0X`     s.s.s.s.s.s.s.x.S.Z.x.D.",
";.    I.0X0X0X0X0X0X0X0X0X0X0X0X0X0X0X0X0X0X0X0X0X0X0X0X0X0X0X0X0X0X0X0X0X0X0X0X0X0X0X0X0X0X0X0X0X0X0X0X0X0X0X0X0X0X0X0X0X0X0X0X0X`     s.s.s.s.d.s.s.f.S.m.x.D.",
"=.    I.0X0X0X0X0X0X0X0X0X0X0X0X0X0X0X0X0X0X0X0X0X0X0X0X0X0X0X0X0X0X0X0X0X0X0X0X0X0X0X0X0X0X0X0X0X0X0X0X0X0X0X0X0X0X0X0X0X0X0X0X0X(     d.s.s.s.s.d.s.s.d.d.s.d.",
",.    9..X.X>X4X4X4X4X4X4X4X4X4X5X0X0X0X0X0X0X0X0X0X0X0X0X0X0X0X0X0X0X0X0X0X0X0X0X0X0X0X0X0X0X0X0X0X0X0X4X5X4X4X4X4X4X4X4X4X&X X Xy     n.j.s.s.s.c.f.s.s.s.s.s.",
"w.w.<.    o Q.%X%X%X%X%X%X%X%X%X'.0X0X0X0X0X0X0X0X0X0X0X0X0X0X0X0X0X0X0X0X0X0X0X0X0X0X0X0X0X0X0X0X0X0X5X%X%X%X%X%X%X%X%X%X%XH.    f.D.c.m.s.s.h.s.s.s.s.s.s.s.s.",
"<.r.w.    . Q.%X%X%X%X%X%X%X%X%X'.0X0X0X0X0X0X0X0X0X0X0X0X0X0X0X0X0X0X0X0X0X0X0X0X0X0X0X0X0X0X0X0X0X0X5X%X%X%X%X%X%X%X%X%X%XH.    x.D.x.m.s.s.f.f.s.s.a.h.s.j.k.",
"w.r.w.    . Q.%X%X%X%X%X%X%X,X<X<X0X0X0X0X0X0X0X0X0X0X0X0X0X0X0X0X0X0X0X0X0X0X0X0X0X0X0X0X0X0X0X0X0X0X0X<X<X`.%X%X%X%X%X%X%XH.    c.S.x.n.s.s.d.j.s.s.v.j.s.s.V.",
"7.e.<.    . Q.%X%X%X%X%X%X%X5X0X0X0X0X0X0X0X0X0X0X0X0X0X0X0X0X0X0X0X0X0X0X0X0X0X0X0X0X0X0X0X0X0X0X0X0X0X0X0X,X%X%X%X%X%X%X%XH.    s.s.s.s.s.s.s.h.h.d.V.s.s.s.s.",
">.>.>.>.  . L./.^.%X%X%X%X$X4X0X0X0X0X0X0X0X0X0X0X0X0X0X0X0X0X0X0X0X0X0X0X0X0X0X0X0X0X0X0X0X0X0X0X0X0X0X0X0X,X%X%X%X%X%X/./.H.    s.s.h.s.s.s.s.j.h.v.j.s.s.s.s.",
"=.>.=.>.-.$.$ 1 ~ %X%X,X0X0X0X0X0X0X0X0X0X0X0X0X0X0X0X0X0X0X0X0X0X0X0X0X0X0X0X0X0X0X0X0X0X0X0X0X0X0X0X0X0X0X0X0X8X'.%X!.3 $ $ d.h.s.s.d.s.s.s.s.j.h.k.s.s.b.h.d.",
">.>.=.>.,.O.    3 %X%X,X0X0X0X0X0X0X0X0X0X0X0X0X0X0X0X0X0X0X0X0X0X0X0X0X0X0X0X0X0X0X0X0X0X0X0X0X0X0X0X0X0X0X0X0X0X'.%X!..     s.s.s.s.s.s.s.s.N.s.s.s.s.s.f.s.s.",
"=.=.=.=.>.=.,.  3 J.K.^.0X0X0X0X0X0X0X0X0X0X0X0X0X0X0X0X0X0X0X0X0X0X0X0X0X0X0X0X0X0X0X0X0X0X0X0X0X0X0X0X0X0X0X0X0XQ.K.H.o   s.s.j.s.s.s.s.s.s.s.s.s.s.s.f.s.s.s.",
"=.=.=.>.>.>.w.r.;.    0.0X0X0X0X0X0X0X0X0X0X0X0X0X0X0X0X0X0X0X0X0X0X0X0X0X0X0X0X0X0X0X0X0X0X0X0X0X0X0X0X0X0X0X0X0Xe     s.s.s.f.n.b.s.d.x.d.s.s.s.s.s.d.x.s.s.s.",
"<.e.<.,.3.,.$.,.3.    0.0X0X0X0X0X0X0X0X0X0X0X0X0X0X0X0X0X0X0X0X0X0X0X0X0X0X0X0X0X0X0X0X0X0X0X0X0X0X0X0X0X0X0X0X0Xr     s.s.s.s.h.N.h.n.b.d.s.s.d.d.s.s.s.s.s.s.",
"e.<.e.e.e.r.<.} }     0.0X0X0X0X0X0X0X.X] ' @.' 9.7X0X0X0X0X0X0X0X0X0X0X0X0X0X0X0X0X0X*X@.] ] ] #.;X0X0X0X0X0X0X0Xe     s.s.s.b.s.b.h.N.s.s.s.s.s.j.s.s.s.j.s.s.",
"t.e.r.e.w.e.<.}  .    0.0X0X0X0X0X0X0XT.        % 3X0X0X0X0X0X0X0X0X0X0X0X0X0X0X0X0X0X.X        . #X0X0X0X0X0X0X0Xr     s.s.s.A.v.N.j.b.s.s.s.s.s.k.j.s.h.h.s.s.",
"e.7.7.e.w.3.,.o...    0.0X0X0X0X0X-X-XU.    $ 3 ^ OX-X2X0X0X0X0X0X0X0X0X0X0X0X0X0X:X-XE.X   @ 1 6 .X-X2X0X0X0X0X0Xr     s.s.s.j.c.b.h.n.s.s.s.s.s.j.v.s.k.h.s.s.",
">.>.>.<.,.<.,.,.;.    0.0X0X0X0X-X5 # # 0X0Xl.l.W.5 # 9.0X0X0X0X0X0X0X0X0X0X0X0X7Xr # # 0X0X!./.!.6 # ' 0X0X0X0X0Xr     s.s.s.d.h.n.h.b.s.s.s.j.h.s.k.h.v.d.h.s.",
"=.=.=.=.=.=.w.w.3.    0.0X0X0X0X=X#     0X0Xl.l.l.#   #.0X0X0X0X0X0X0X0X0X0X0X0X6X8     0X0X_.).).3   r 0X0X0X0X0Xr     s.s.s.s.s.h.s.h.s.s.s.j.v.h.k.d.k.h.h.s.",
">.>.=.=.=.=.,.t.;.    0.0X0X0X0X=X#   6 0X0Xl.l.l.$ X ] 0X0X0X0X0X0X0X0X0X0X0X0X6X5   1 0X0X).)./.6   t 0X0X0X0X0Xt     s.s.s.s.s.s.s.s.s.s.s.s.j.h.k.h.k.j.d.s.",
">.>.=.=.,.=.,.t.3.    0.0X0X0X0X=X#   { l.l.l.l.l.@ X #.0X0X0X0X0X0X0X0X0X0X0X0X6X5   ^ ).).).).(.3   r 0X0X0X0X0Xr     s.s.h.v.h.s.s.s.d.s.s.s.h.j.k.h.k.j.h.s.",
"=.=.O.=.<.=.$.r.r.    0.0X0X0X0X-X% X { l.l.l.l.l.% X 6.0X0X0X0X0X0X0X0X0X0X0X0X6X9 X ^ (.).).)./.6 X ` 0X0X0X0X7Xr     7 + = O ].s.s.s.s.s.s.s.s.d.v.s.k.h.s.s.",
">.<.7.>.>.3.,.$.;.X.O.e t ` #X0X0XOXoXP.6 ~ ~ ~ ) |.oX=X0X0X0X0X0X0X0X0X0X0X0X0X0X@XOXT.~ ~ ~ ~ ^ E.oX#X0X0XR.` t  .b k C C q q r.[.[.].s.s.d.s.s.s.s.s.s.s.s.s.",
"e.e.e.7.e.e.,...| ..X.j     XX0X0X0X0XT.        % 6X0X0X0X0X0X0X0X0X0X0X0X0X0X0X0X0X0XXX        X *X0X0X0X0XI.     .b k C C n h < ; & O r.C.F.s.s.s.s.s.s.h.v.s.",
"e.e.e.e.t.t.=.} Z Z X.0   X XX0X0X0X0X}.e e w e ] 6X0X0X0X0X0X0X0X=X@X-X0X0X0X0X0X0X0X+Xr e e e ( -X0X0X0X0Xu.    X.b v C C C m g z l < X.p.y.y.].s.s.s.s.h.j.s.",
"e.e.e.w.e.e.,.o.O.J G j   X XX0X0X0X0X0X0X0X0X0X0X0X0X0X0X0X0X0X2X8 o #.0X0X0X0X0X0X0X0X0X0X0X7X0X0X0X0X0X0Xu.     .b v v C C A C C m J g & + O Z s.b.b.s.s.s.s.",
">.<.<.>.;.<.<.;.5.$.&.l   X XX0X0X0X0X0X0X0X0X0X0X0X0X0X0X0X0X0X2X%   ' 0X0X0X0X0X0X0X0X0X0X0X0X0X0X0X0X0X0Xu.    X.b k v z m C n < D g q L l Z l J :.D.s.s.s.s.",
"=.>.=.=.$.=.3.w.3.r.e.l k o 9.u.T.0X0X0X0X0X0X0X0X0X0X0X0X0X0X0X0XT.I.{.0X0X0X0X0X0X0X0X0X0X0X0X0X0X0X:XI.u.@.,.X.X.c d z z z C h g m D n m C C Z q y s.s.s.s.s.",
"=.>.>.=.=.=.,.w.3.r.e.z k K     8 7X0X0X0X0X0X0X0X0X0X0X0X0X0X0X0X0X0X0X0X0X0X0X0X0X0X0X0X0X0X0X0X0X0XOX    >.;.X.X.v s k z z z V N - n F d D l 0 0 | s.s.h.d.s.",
"=.,.>.>.,.,.3.3.r.;.;.k v H     8 :X0X7X0X7X0X0X7X0X7X0X7X0X7X0X7X0X7X0X7X0X0X7X0X7X0X0X7X0X7X0X7X0X0XXXo   <.=.O.b k s j z z h i n V a g m z m D ; J s.j.n.f.s.",
"=.=.O.=.=.>.,.w.t.e.3.j v S H A H w w w w w w w w w w w w w w w w w w w w w w w w w w w w w w w w e e 9 <.<.;.;.X.| v z x > : , g n M n h h h m j 0 ..a.B.C.g.g.",
"<.>.<.<.<.<.,.=...:.3.d v K %.S Y                                                                       ;.;.=.;.X...v l k g f k p p p p h n N N g > X.z.F.C.g.g.",
"e.e.7.e.e.e.;.o.....O.d A H H A S               o t ` ( ( ( ( ` ` ( ( ( ( ( ( ( ` ( ( ( ( ( ( ( ( ( ` t =.,.;.;.X.X.G l k v N z d < < p g h h z g : | B.Z.g.z.z.",
"r.e.7.e.t.e.$.o.X.Z G j v , d S F B F *.*.Q     2 :X0X0X0X0X0X0X0X0X0X0X0X0X0X0X0X0X0X0X0X0X0X0X0X0X0XOX.   ,.3.c j v z v A b z z g d p < f f d g ; | B.Z.B.F.C.",
"e.7.<.w.e.e.,.$.| Z +.z j * : S Y M N I ! T     % 3X0X0X0X0X0X0X0X0X0X0X0X0X0X0X0X0X0X0X0X0X0X0X0X0X0XOXX   r.t.7 & 0 A b x k x z C C g g d < p p ; ..x.Z.S.n.s.",
"<.,.=.>.<.w.,.=.;.:.:.j v v d : - * i P     0.T.E.0X0X0X0X0X0X0X0X0X0X0X0X0X0X0X0X0X0X0X0X0X0X0X0X0X0X2XT.T.#.    + 0 Z v v f A l l C C z g g g g ; F x.S.m.x.s.",
"=.=.=.=.=.,.,.3.r.r.;.j b &.A : & & u V      X0X0X0X0X0X0X0X0X0X0X0X0X0X0X0X0X0X0X0X0X0X0X0X0X0X0X0X0X0X0X0XI.    = k G v A f v c m C C C z z z z ; | x.Z.n.f.s.",
"=.=.,.=.=.=.<.w.:.5.:.c v b H A R B x V     |.0X0X0X0X0X0X0X0X0X0X0X0X0X0X0X0X0X0X0X0X0X0X0X0X0X0X0X0X0X0X0XY.# % O j v k H x z C C c l z C z l n > ..h.c.s.s.s.",
"<.=.=.=.=.=.7.7.e.e.<.c v X.X.A L R M F     |.0X0X0X0X0X0X0X0X0X0X0X0X0X0X0X0X0X0X0X0X0X0X0X0X0X0X0X0X0X0X0X7X-X=Xr     k x k x z v v m k l z l g ; | s.s.s.s.s.",
">.;.=.=.=.>.>.7.r.t.<.j v J K D N S B E   X |.0X0X0X0X0X0X0X0X0X0X0X0X0X0X0X0X0X0X0X0X0X0X0X0X0X0X0X0X0X0X0X0X0X0Xe     z b h v C m z z z z m C l ; J s.s.s.s.s.",
"=.<.7.>.<.7.<.=.>.=.=.q v X.J H N V V E      X0X0X0X0X0X0X0X0X0X0X0X0X0X0X0X0X0X0X0X0X0X0X0X0X0X0X0X0X0X0X0X0X0X0Xu.@.' k A b x C z z k m A C C c > J s.s.k.V.s.",
"<.e.7.7.7.e.>. . .|  .j Z ..K K D V B E     |.0X0X0X0X0X0X0X0X0X0X0X0X0X0X0X0X0X0X0X0X0X0X0X0X0X0X0X0X0X0X0X0X0X0X0X0X@Xo     z z z v z z z z           s.h.k.s.",
"e.t.e.7.e.t.>.| | | X.q c G G D D F B R     |.0X0X0X0X0X0X0X0X0X0X0X0X0X0X0X0X0X0X0X0X0X0X0X0X0X0X0X0X0X0X0X0X0X0X0X0X@Xo     p k z A C z z l           s.s.s.s.",
"e.7.7.7.7.7.>.O.|  .O.q b G ..G S V B E     |.0X0X0X0X0X0X0X0X0X0X0X0X0X0X0X0X0X0X0X0X0X0X0X0X0X0X0X0X0X0X0X0X0X0X0X0X*X#     p g z b C     / K.K.K.K.J.$   s.s.",
">.>.>.>.<.<.,.>.-.-.-.j v ..K H N F B R     |.0X0X0X0X0X0X0X0X0X0X0X0X0X0X0X0X0X0X0X0X0X0X0X0X0X0X0X0X0X0X0X0X0X0X0X0X@Xo     h h d d g     [ 9X0X0X0X/.$     s.",
"=.=.>.>.=.=.<.e.e.t.e.k v | X.S F F F R     |.0X0X0X0X0X0X0X0X0X0X0X0X0X0X0X0X0X0X0X0X0X0X0X0X0X0X0X0X0X0X0X0X0X0X0X0X=X9 2 2 N j 0 : ,     { 0X0X0X0X!.$     s.",
"=.;.=.=.>.=.>.t.e.5.>.k c > : H F F I E     |.0X0X0X0X0X0X0X0X0X0X0X0X0X0X0X0X0X0X0X0X0X0X0X0X0X0X0X0X0X0X0X0X0X0X0X0X0X2X3XI.    z z z     6.0X0X0X0X!.$     S.",
"-.=.=.=.<.=.>.y.-.e.e.v s ; > z L x A T     |.0X0X0X0X0X0X0X0X0X0X0X0X0X0X0X0X0X0X0X0X0X0X0X0X0X0X0X0X0X0X0X0X0X0X0X0X0X0X0XY.    z v z     8.0X0X0X0X!.$     D.",
">.;.>.>.,.=.>.t.e.r.e.c v b v 0 & & * V     u.E.{.0X0X0X0X0X0X0X0X0X0X0X0X0X0X0X0X0X0X2XR.R.=X0X0X0X0X0X0X0X0X0X0X0X0X0X0X0XY.    m v z     8.0X0X0X0X^.$     D.",
"<.<.>.<.<.7.>.>.:.=.=.k v O.G > , : p S &.T     % 2X0X0X0X0X0X0X0X0X0X0X0X0X0X0X0X0X0XXX    Y.0X0X0X0X0X0X0X0X0X0X0X0X0X0X0XY.    z A z     8.0X0X0X0X:X%     D.",
"<.e.e.7.7.t.>. . .| =.j v G ..D &.R F B B B     5 2X0X0X0X0X0X0X0X0X0X0X0X0X0X0X0X0X0X XX   Y.0X0X0X0X0X0X0X0X0X0X0X0X0X0X0XY.    C A v     6.0X0X0X0X:X%     D.",
"e.e.t.e.7.e.7.c  .| X.j v ..X.K N S H S I U     % 3X0X0X0X0X0X0X0X0X0X0X0X0X0X0X0X0X0X.X    Y.0X0X0X0X0X0X0X0X0X0X0X0X0X0X0XY.    z z z     8.0X0X0X0X;X%     D.",
"e.<.e.e.7.7.7. .O.X.} > v X...C A S Y &.*.*.    5 2X0X0X0X0X0X0X0X0X0X0X0X0X0X0X0X0X0X.XX   Y.0X0X0X0X0X0X0X0X0X0X0X0X0X0X0XY.    C z z     6.0X0X0X0X:X%     d.",
"7.=.>.7.7.>.7.>.=.<.-.j G X.G K K A A Y *.*.    2 2X0X0X0X0X0X0X0X=X=X:X0X0X0X0X0X0X0X.XX   Y.0X0X0X0X0X0X0X0X0X0X0X0X0X0X0XY.    z v z 9 9 I.0X0X:X=XXX%     s.",
">.>.%.=.<.-.>.t.w.e.<.l b G | H H N N E *.E     5 2X0X0X0X0X0X0X2Xw # #.0X0X0X0X0X0X0X.X    Y.0X0X0X0X0X0X0X0X0X0X0X0X0X0X0XY.        8 :X7X0X0X0X#.# # s.s.s.s.",
"-.<.-.=.-.-.>.t.7.e.5.v c G K %.R F N E *.R     5 2X0X0X0X0X0X0X2X%   ] 0X0X0X0X0X0X0X.XX   Y.0X0X0X0X0X0X0X0X0X0X0X0X0X0X0XY.        5 7X0X0X0X0X]     s.s.s.s.",
"-.-.-.-.-.=.>.t.;.5.<.j k H K b S F V R T E     % 2X0X0X0X0X0X0X2X2   ] 0X0X0X0X0X0X0XXX    Y.0X0X0X0X0X0X0X0X0X0X0X0X0X0X0XY.    @.q.Y.0X0X0X0X0X]     s.h.h.s.",
"%.-.-.-.>.=.>.7.5.r.3.j b &.%.b N N F E *.E     5 2X0X0X0X0X0X0X2X2   ] 0X0X0X0X0X0X0X.XX   Y.0X0X0X0X0X0X0X0X0X0X0X0X0X0X0XY.  X XX0X0X0X0X0X0X0X]     s.h.V.s.",
"-.-.-.:.>.<.<.=.:.:.=.j z v v G D F F E *.E     5 ;X0X0X0X0X0X0X2X%   ] 0X0X0X0X0X0X0X XX   Y.0X0X0X0X0X0X0X0X0X0X0X0X0X0X0XY.    XX0X0X0X0X0X0X0X'     s.s.k.j.",
"i.7.7.e.7.e.<.X.O.v G v j & : S R F V R *.E Q Q W r r I.0X0X0X0X2X2   @.0X0X0X0X7X#.r e 0X0X0X0X0X0X0X0X0X0X0X0X0X0X0X0X0X0XY.  X XX0X0X0X0X|.r t ; J s.s.s.h.k.",
"i.7.r.e.7.e.>.} ..G | v G q , k f p i P 2.T ! Q !     #.0X0X0X0X2X2   @.0X0X0X0X6X4     0X0X0X0X0X0X0X0X0X0X0X0X0X0X0X0X0X0XY.    oX0X0X0X0XT.    ; J s.s.s.s.k.",
"e.<.e.e.<.e.<._ | | X.0 G %.b : & O * S 2.E T Q Q     ' 0X0X0X0X3X%   @.0X0X0X0X2X2     0X0X0X0X0X0X0X0X0X0X0X0X0X0X0X0X0X0XY.  X Y.+XOXOX+Xu.    q ..s.h.k.h.k.",
"<.-.<.<.-.-.>.<.:.3.-.l j %.K b N N N V I P I T W     o 0X0X0X0X2X%   @.0X0X0X0X0X      0X0X0X0X0X0X0X0X0X0X0X0X0X0X0X0X0X0XY.    X X X . o X C l > } s.s.j.d.k.",
"-.%.-.-.=.=.<.7.e.r.,.v k X.K b F S B V I I P U E       0X0X0X0X2X5   @.0X0X0X0X0X      0X0X0X0X0X0X0X0X0X0X0X0X0X0X0X0X0X0XY.                z l ; ..s.s.k.d.k.",
"-.-.-.-.=.-.-.e.e.5.<.v k X.K b R S F I E E P U P       0X0X0X0X@Xo   9 0X0X0X0X0X      0X0X0X0X0X0X0X0X0X0X0X0X0X0X0X1Xu.0.#.l z z z x z C z m l ; J s.s.s.s.k.",
"<.-.-.-.=.=.<.7.r.5.:.v j %.X.H K S V R *.! T T M       0X0X0X0X0X      0X0X0X0X0X      0X0X0X0X0X0X0X0X0X0X0X0X0X0X0X*Xo     l z C z z z m c C l > } s.s.s.s.s.",
"-.-.-.&.-.>.<.e.r.5.3.A k X.K H F D F R *.! ! T U       0X0X0X0X0X      0X0X0X0X0X      0X0X0X0X0X0X0X0X7X7X7X7X7X7X7XOXo     m C C N v z z C z z ; } s.s.s.s.s.",
"-.-.-.<.>.<.=.,.;.:.=.v k %.H b D V D E ! Q Q T ! ! W T           U U U                               o 8 9 8 9 9 5 9 8 k k j a C z v h b z l m l > ..n.s.s.s.s.",
"4.e.5.e.e.e.=.O. ...J j k X.%.b Y F I E &.Q T T W Q E E           P P U                                                 g s , q l g z k z h m l c > ..j.s.s.s.s.",
"e.5.5.e.e.e.=. .| ..X.l c %.H b S F I R E Q *.! *.Q U E           P P I                                                 g s q l d d l l k z v m g ; | s.s.s.j.s."
};
