/* XPM */
static char *YnVzaCUyODElMjk_[] = {
/* columns rows colors chars-per-pixel */
"80 80 255 2 ",
"   c #1B541C",
".  c #1B6119",
"X  c #2A6C1D",
"o  c #1C4C29",
"O  c #1C532B",
"+  c #1D5826",
"@  c #1D4C34",
"#  c #1F5632",
"$  c #214E2C",
"%  c #225424",
"&  c #23542C",
"*  c #245B2C",
"=  c #295E2D",
"-  c #255C24",
";  c #224D34",
":  c #234F3A",
">  c #245433",
",  c #295634",
"<  c #255B34",
"1  c #2A5B34",
"2  c #25543A",
"3  c #29563A",
"4  c #255C3B",
"5  c #2C5C3B",
"6  c #315E3D",
"7  c #1D6A29",
"8  c #25632C",
"9  c #2A632C",
"0  c #2C6A2D",
"q  c #286526",
"w  c #336A2C",
"e  c #2B752A",
"r  c #34762D",
"t  c #266334",
"y  c #2C6334",
"u  c #266B34",
"i  c #2C6B35",
"p  c #25643C",
"a  c #2B633B",
"s  c #266B3B",
"d  c #2C6C3C",
"f  c #316435",
"g  c #336C34",
"h  c #32643B",
"j  c #336B3B",
"k  c #3A6D3C",
"l  c #396B37",
"z  c #2C7334",
"x  c #2C7C34",
"c  c #2D733C",
"v  c #2C7B3C",
"b  c #257636",
"n  c #337234",
"m  c #3C7434",
"M  c #337C35",
"N  c #3B7C34",
"B  c #33743C",
"V  c #3B733C",
"C  c #347B3B",
"Z  c #3B7B3C",
"A  c #215F1C",
"S  c #41763D",
"D  c #437D3B",
"F  c #437C35",
"G  c #427A2D",
"H  c #2C5C43",
"J  c #285844",
"K  c #325C44",
"L  c #325D49",
"P  c #234E40",
"I  c #2C6443",
"U  c #2C6B43",
"Y  c #2D6449",
"T  c #2C6B4A",
"R  c #256443",
"E  c #336343",
"W  c #336C44",
"Q  c #3A6D44",
"!  c #33654A",
"~  c #346C4B",
"^  c #3A6D4C",
"/  c #396743",
"(  c #2D7344",
")  c #2D7A43",
"_  c #2D734B",
"`  c #2D7B4A",
"'  c #267645",
"]  c #337344",
"[  c #3B7343",
"{  c #347B44",
"}  c #3B7B44",
"|  c #34744B",
" . c #3B744C",
".. c #347B4B",
"X. c #3B7B4C",
"o. c #336C52",
"O. c #3B6D53",
"+. c #356755",
"@. c #347352",
"#. c #3B7453",
"$. c #357B53",
"%. c #3B7C53",
"&. c #3C7C5B",
"*. c #38775A",
"=. c #2F7452",
"-. c #3F7A62",
";. c #417443",
":. c #437D44",
">. c #42744B",
",. c #427C4C",
"<. c #487C47",
"1. c #427C54",
"2. c #427D5A",
"3. c #457854",
"4. c #406E4A",
"5. c #457D64",
"6. c #39862C",
"7. c #2E843A",
"8. c #348234",
"9. c #33833C",
"0. c #3B843C",
"q. c #3B8C3D",
"w. c #398836",
"e. c #3B9339",
"r. c #2E8127",
"t. c #44823D",
"y. c #438C3D",
"u. c #498639",
"i. c #538A3D",
"p. c #43923D",
"a. c #459838",
"s. c #498E33",
"d. c #56A939",
"f. c #4EA734",
"g. c #348343",
"h. c #3B8344",
"j. c #358B44",
"k. c #3C8B43",
"l. c #35824B",
"z. c #3C834C",
"x. c #3C8B4B",
"c. c #368C4B",
"v. c #3C9245",
"b. c #3C924B",
"n. c #3B9747",
"m. c #3C8353",
"M. c #3D8B53",
"N. c #3D845B",
"B. c #3D8B5B",
"V. c #358553",
"C. c #3E9554",
"Z. c #2D8346",
"A. c #3D8763",
"S. c #3EA151",
"D. c #428445",
"F. c #4A8543",
"G. c #438B44",
"H. c #4B8B44",
"J. c #43844C",
"K. c #4A834C",
"L. c #438B4C",
"P. c #4A8C4C",
"I. c #558C4C",
"U. c #439444",
"Y. c #43934C",
"T. c #4B944C",
"R. c #44994C",
"E. c #4B9C4D",
"W. c #479744",
"Q. c #529B4B",
"!. c #569549",
"~. c #428454",
"^. c #4A8452",
"/. c #438C53",
"(. c #4A8D53",
"). c #43845B",
"_. c #4A855B",
"`. c #438C5C",
"'. c #4A8C5B",
"]. c #538C57",
"[. c #449453",
"{. c #4A9354",
"}. c #459B54",
"|. c #4C9C54",
" X c #45925A",
".X c #4B945C",
"XX c #449A5B",
"oX c #4C9B5B",
"OX c #539D54",
"+X c #53955B",
"@X c #529C5C",
"#X c #589857",
"$X c #62975B",
"%X c #4CA34B",
"&X c #4BA549",
"*X c #52A34C",
"=X c #57A749",
"-X c #5BB346",
";X c #4CA354",
":X c #4DA35B",
">X c #4BA957",
",X c #53A454",
"<X c #5CA453",
"1X c #5BAC54",
"2X c #53A45B",
"3X c #5AA45B",
"4X c #54AA5C",
"5X c #5CAB5B",
"6X c #55AA54",
"7X c #5AB357",
"8X c #61AA4B",
"9X c #64B84B",
"0X c #62A95A",
"qX c #62B45A",
"wX c #65BB5C",
"eX c #68B757",
"rX c #72BD5A",
"tX c #448C62",
"yX c #4B8C64",
"uX c #478665",
"iX c #4B9463",
"pX c #4C9B63",
"aX c #479467",
"sX c #539562",
"dX c #539C62",
"fX c #579B69",
"gX c #52916B",
"hX c #4CA563",
"jX c #53A363",
"kX c #5AA464",
"lX c #55AA63",
"zX c #5AAB63",
"xX c #57A66A",
"cX c #5BB265",
"vX c #5BA972",
"bX c #64AA66",
"nX c #6CBB64",
"mX c #69B667",
"MX c #74BB69",
"NX c #6BB674",
"BX c #6AB174",
"VX c #619F6C",
"CX c #6CC356",
"ZX c #76C958",
"AX c #7CD558",
"SX c #71C74C",
"DX c #6EC365",
"FX c #78C868",
"GX c #7DD365",
"HX c #77C773",
"JX c #7ED277",
"KX c #82D969",
"LX c #83D374",
"PX c #83DF5F",
"IX c #86DA82",
/* pixels */
"n q r g & * y ;.[ h h >.y j U d B n v.n.' ( {.9.x kXW 1.| iXpX|.g.@X[.c.l.M.k.q.&X&X{.c C.S.j.U.W.M C z.%XQ.N F.{.{ $.'  .k M q.D.0 q D 9 0 t.- p < V V U p n w ",
"V q w F.i t V j f * a >.j d U } j K.Y.g.R U T.p.9.3X#XD.z.dXXXv v 2XoXj.c.{.g.R.%X,X~.( C.:Xj.|.nXe.9.XX|.0.e 0..Xl.....} B h.h.] 8 q Z [ * F D 5 4 Z B < p V n ",
"V w 0 ].} q B k % + = [ ,.i i z.c /./.' R U G.Q.r.8XrX6.p.jXz.z B [.:XC.Z.hXg.|.2X{.^ o.V.hX[.e.GXd.0.oX.X{ u B .X'...{ h.Z /.~.T < 1 Q ^.9 F !.g < ;.g o # d [ ",
"g V 0 ].I.w * V % 9 y y ,.i z x.n { %.Y o.p C E.6.=XAXd.8.|.h.B /.Z oX:XZ.oX}.c..XX.O.O._ aXjXw.ZXCXW.l.tX..C g.$.iX} ) P.C B m.R J 4 4 2.f F !.:.9 j 1 & a 4 [ ",
"q g y ^.!.D * y = V Q 8 X.u z k.g.i I L ~ R z G.^.T.ZXSXq.x.D.D.0X8.n.C.Z.C.hXc.] | O.O.B z.pXk.eXKX6X9.~...|.|.s '.X.C E.k.8 p 4 4 H 4 ^ j G I.I.y h * 0 ;.y 1 ",
"0 9 < ;.D.t.d < f ].,.t [ u B L.Y.z ~ L !  .M K.1.J.-X-XjXc.D.#XLXp.j.c.c.:XhX>X| #.^ [ J.h.[.9.=X9X1XG.z.h.nX6Xv ~.[ 0.T.n.{ p s 4 I I Q = w u.<.k h * S I.f 1 ",
"l l * j m w j y m #X<.g D.z C x.Y.} O.! ] /.9.dX&.m.%Xe.pXM.k.nXMXs.&X}.x.XX>X>X~._.[ D.I.|.@X8.p.&XW.Y.G.Q.CX&Xq.+XZ Z v.T.z.W y t  .j ,.w A S k l y f u.!.9 l ",
"G <.1 f w   y y t.!.V B !.0.C D.z.} O.^ { [.0.BXsX] }.q...z.,XDXeXs.wXcXj.:X>X}.X.~.h.{.y.5XHX8.U.OXM } y.qXCXd.u.mXy.0.E.k.| W B B X.y #Xm q V * = = n i.s.- <.",
"l I.w - m   + j u.!.q 0 0Xu.n z.U  .~ | oXU.e MXmXe R.U.) g.7XwX=X6.7XFXT.T.v.b.l.z.XXlXc.{.LXa.q.pX..d E.wX-Xw.6.MXQ.0.G.B | T } F...i Q.i.q j i o 9 F u.m & #.",
"w I.l   V g O V G G - 8 !.OXc X. .p W m.[.E.X <XnX8.9.xX{ j.&X7XE.u Q.FXT.D.[.s v l.S.cXg.k.JX&X7 fXgX] 2X%X5Xe r BX3XM G.c R Y { (.,.+ H.Q.8 #  .& 8 m G r O +.",
"% S ;.o W W # W D m 1 * g K.d 2.o.U d [.E.W.M 0.mX9.l.gX .L.&X7XM.s Z 3X#Xz.iXm.` C.>XhXC.c bX,Xb pXuXW |.,XoXB j J.sX] X.%.~ p D./.z.t e T.p R #.> 1 V V 9 @ : ",
", , ^ 1 < > 4 ^ ;.h I 2 y 1.~ Y ! %.} [.;XU.L.i {.X.%.&. ..X4XR.) ..j K.sXz.$.%.A.hXhXhXpX) k.2Xl.V.X.z.@XzX..| | I tXm.W W #.X.(.D.m.[ A V E H H # / [ k * ; : ",
"6 : 3 , & O 4 h I 2 L L I ~ O.I W X.(.k.OXG.m...| &.R $.( m.|.g.) ).#.#.X.m...*.aXhXhXoX/.'.] `.{ z C 9.T.h.] *.*.o.*.%. .h  .'.L.D.,.U g 1 6 $ # > 6 5 , & 6 3 ",
"K 3 $ = m V j < > : +.+.J 4 #.W p  .z.} T.B 1.5.| ( (.+X3XL.c ] ..uX5.#.z.x.W uXaXV.dXc.z.'.&.U { <X&XQ.z d @.5.uX@.T  .W ~ ,.X.B J.d ~ W > & S  .;.6 $ $ $ K 3 ",
"6 3 % l i.!.D 9 > 2 L O.O.W k g ] %.d [ 3.j ).N.] V FXZXLX,XW ~ *.uX5.3.b.k.d 2.A.( .X[ ^.2._.d <XGXGXDXC %.~ @.uX_ ,.J.W W #.j W  .<  .~ < w I.!.I.l , ; : L K ",
"6 , - F u.i.F y a 3 K ^ K W V F.~.| [ j j 3.2.%.d 0Xd.SXCXG.yX5.*.5.gX .9.R.vX_.*.%.B ,._._.#.J.eXd.GX-Xh.).o.&.tX{ :.V +X_.#.~ j t ] I  .1 G i.i.I.f 6 , : K L ",
", = m m u.F.O 4 ! 6 3 ^ O.1 Z #X .I d :.(.X.[ 1.h.,X-XAXT.c m.tXo.-.yX} G.3XiX$.#.] $XT.[ 2.2.{.=XCXnX8.C N.$.=.~.J.m (.fX%.H ~ B G. .< ~ W N t.$X/ % , a > : L ",
", % l Z :.j @ I  .h 6 4 I ~ (.D.W I g bXkXX.d B h.6X-X1XB { [.iX&.T &.C G.vX'.=.] @XMXH.} ( X.jX5XnXW.u 9.dXV._ ..j n sX'.s o.I 3XU.d p R U D.F.3., , 1 j 2 ; 3 ",
"3 : 6 h h & + j <.j W I R I %. .p W T.mXfXm.X.| m. XY.q.z {.4X;X/...l.l.l.XXV.' x.mXHXk.x.g.l.[.}.}.z C T.5XM./... .] ~.m.s B K.nXu.c U Y U C n 1 $ w S k y , , ",
"J K > 2 2 > y D D.n X...X.s W | W { 0XzX+X'.iXM.Z.` ) c v }.6XE.x.:XM.M.l.V.V.Z.;X5XnXY.|.}.C.Z.v { b x.,X,Xx.'.`.).m.] ..} i <X=XW.C X.W U 8 8 = & f S l 9 l 6 ",
"W I 1 3 H 6 k D t.e } h.} Z ].Z ..} ,XOX.X/.xXC.M.M.B.M.XXhXzXE.9.lX[.x.B.B.B.B.6X7XlXY.;X;Xb.c.B.B.`.oX5X3X/.oXdXl.L.oXX.z.Z Q.T.y.} /...W u g y W [ ;.f % S f ",
"B j y h L 6 S <.m . C /.0.0.0XH.C [.T.{.{ { jXXXM.M. XM.hXhX2Xg.) xXjX[.A.aXV.C.2X,X[.v ;XzXb.C.tX$.B.oX2XT.} z.kXU.G.NX+XM G.E./.u { '.J.{ n C d [  .~ , $ S k ",
"m g y 1 3 6 h k M . z L.L.e eX8X8.[.@X9.z ) XX>Xb.L.oXM.:XhXiX..@.iXbX|.tXN.$.[.{.[.{.z R.zXoXB.`.] `.XXY.{.} J.,X,Xw.MXnX0.k.oX%.p ( x.J.C r Z i ( *.I , ; / / ",
"g g a > 2 E 5 + H.C q C {.M 8XCXE.9.OXe g.j.Z.lX[.h.kXC.S.:X.._ @.&.{.@XtX=.~./.B h.mXy.g. XxXtX%...B.g.e eX.X{ U.>Xw.nXFXQ.k.XXT ] ) c Y.Z 0 D.c s  .2 ; : , ! ",
"$ > > > 4 p j } 0XZ t s /.M =XDXcXx N H.q.4XZ.}.(.h.3X4Xx v ....| ] { X.&.$.m.(.F.MXLXy.Z { $.A.| ..B.x.d.KX#X{ x ;Xk.mXFXeXx { X.J.dXu 9.0.0 } h.7 O < 3 : : : ",
"@ E I o 4 p n I.$XV  .W z.8.p.7XbX}.t.6.wXDX9.C.(.h.2XzX|.x.l.| ).~.{ iXN.` X.L.Q.HXMXH.L.` B.tX_ m.`.v.rXKXT./.j.}.9.W.9XeXx.x.Z #XbXx 8.n j z.m.c + < $ 3 J @ ",
": ! ~ o p y 6.!.$X[ #.>.T.r e |.l. XF.y.ZXCXq.zXL.G.2X4X+Xx.X.) [.[.' hX X9.j.E.qXFXMXq.{.' pXhX_ m.[.*XSXKXG.M.[.;X9.q.<XW.{.9.y.eX5X6.y.r Z J.z.} y < % h 1 > ",
"3 a ^ 4 p d u.s.H.y J  .bX6.8.oX` ..K.8XCX-Xy.BXOXT.zX|..Xz./.M.hX[.l.xXoXq.v.E.9XDXzXv M.l.C.cXB.m.T.0XrX8X{ ) T.HXU.0.2XM j.C <XrXa.6.0Xw.B ,.] W a f - l 5 = ",
"5 f k B a [ N u.Z y I W MXs.e {.N.p L.eX9Xa.8.HXNXq.:XM.M.z. XoXlXb.c.hX4X&Xn.%X*XqX/.` V.C.&X4X2X/.{.,X5X%X( ..0.LX<Xx .Xl.c G.1X0Xw.e eXQ.j X.W a < h n g f 6 ",
"= V V k a W 9 D g d 2.d 0X=X0 ~.yXs Y.6XeX6.x BXHXq.C.`...c M.lXhXZ.b.:XcX>XU.E.k.zX` tXB.c.%X=X4X[.{.h.kXz...oXC MXmXe /.fXu /.Q.=X8.q #X#Xc [ W 3 & y F g 5 5 ",
"+ B j j 5 E < V * t ).d F.0XW 1.fXB v.&X3XZ s l.lXn.M.B.l.v }.lXcXc.q.>XlXXXg.z.z.iX| aXfX` ,X6X;Xk.`.%.aXZ.j.2X} +XmXM x.gXs (.E.W.c y B {.| I h 6 & g Z V J J ",
"O t Q j , 6 h 4 s W m.B d (. .W [ z E.lX/.| ..` b.XX..$.M.C.zX4XlXn.7.:XdX Xl.M.~.....`.fX) ;X2XR.{ l.tX=...z.oXz.} +Xh.....} (.OXG.d W t X.#.I 5 / h V V Q J J ",
"5 < k 6 *  .R # a { h.V i  . .a V V C.B.@.$.m.v ~.uX&.*.$.xX:X2X}.Y.q.}.xXV...fXl.l.m.B.xXM.c.xX)...;Xj.| uXm.fX`.$.%.m._ ( } D.J.j k  .a a  .I 4 a  .k k k f 1 ",
"6 , 6 = = >.~ H  .y D./.| s d I.!.OX) R @.*.M.z.W 2.5.@.tX.Xg.2X9.{.L.h.`.m. XvX{ l. Xm.xXpXl.'.*.tXzXq.X.uXX.fX`.B.T ] .XdXE.n d a Q  .W E ~ 4 < a W 5 [ O h 1 ",
"/ , 3 & f >.! J W < ] 1.] d D.nXrXFX/.T #.#.J.x.%.yX) { ~.%.g..X( iXiX| B.m.@XbX..m.tX{ .XjX{ `...iXzXc.z.`...m.iXz.B G.FXFXHXH.E ~ o.3.| ~ W a a W 1 < E @ E E ",
"E ; , * k >.E 4 ~ ^ Y @.W z Q.8XCX-X/.2. . .(.~. .^.[.lX'.~.C C m.tX`...).m.{.@Xz.l..X..z..X_ N.m. XsXJ.{ /./.) ~.h.z 1Xd.ZX<XD.%.o.~ #.#.E ! %. .h * @ 1 5 J H ",
", @ > * a W 4 p ,. .R o. .C OX=XnXN n 2. . .).'. .1.BXC.U X.0.2XtX*.....&.$.'./.{ z.+X/...m...` ..M.'.X.{ XX[.l.%.~.{.*XCX9Xk.B ~.@.I | #.I  ._. .* = O Q 1 2 2 ",
"3 > , O 2 4 4 a ,.B W R s L.OX0X#Xz { ].yX*.] X.] iXvXl.@.W <XMXN.*.%.m.$.@.m...c {.kX Xg.$.`.$.` V.%.j /.2X/.M.U ] (.3X1XQ.i _ '.m.U U T ! #.2.5 % * ;.^.> < > ",
"H H 1 > # J a B P.V X.d s z.L./.( U L.#XsXN...X. .aXA.=.N.L.FXwXk.`.tX'.`.$.V.$.z.dXkXx.L./. XtX$.$.$...oXlXC./.).T iXXX{.c | m.+XG.C ) U Y @. .= = g ].K.9 y = ",
"H h y * 2 ! j <.D.B { J.X.c c d U X.OX2X`.`.hXM.z._ A.$.] mXwX7XU.dX X'. Xz.$.tXiXxXkXY.2XY./.aXV.=.tX+XoX4X{.'.'..X` ' _ ( ..iX|.k.h.m.X.U I a y * F.<.;.9 m 9 ",
"E s m w a 4 j P.J.B D.(.{ X.%.X.J.k.&X1Xh.V.lXv.j.`.N.B.XX,X6X%XC oXdXx.1X;Xl.m.jXjXvX[.|.,Xc.jXjXl.m. XzXlX/.oX@XY.B.V./.} L.2XOX8.z {.m. .~ W W V S <.g   l k ",
"^ 5 r H.Q a ;.D.[ t } {.L...m./.D.E.6XW.] X.jX;XC.b.pXM.}.cX2Xq.g.jX3Xv.7XDXY.C.2XcXl.g.2X4X[.|.HXW.x.oX3X;Xc (.5XR.B. X(.G.;XE.[.x c .Xm.| [  .j [ :.V 9 % V l ",
" .i q !.<.g } <.R < B L.iX{ z.oXg.;X6Xg.W  .oXlXC.j.>Xn.;XcX{.B `  XlXa.d.PX*Xv.1X;X7.) C.zX>XW.KX-Xe.lXhX9.Z 0.2X:Xc.`.+Xy.2X|.{ s U ~.'.X.j J.j [ ,.j O & / ^ ",
"j V X i.P.n 0 ,.a I { { .X{ j.|.k.c.b.)  .~ M.xXS.j.>XS.}.}.x.| _ V.lX=Xf.PXDXn.;XY.9.v.j.:XjXa.AXAXW.}.{.v U.q.k.lXM.M.<XG.k.[.' T p ( .Xh.u L.V d [ y O @ 3 ^ ",
"9 i q H.Q.F.9 V y (.^.u /.{ q.|.[.` ) ' ^ ~ X.iXXXj.>XS.c...C X.V._ |.&Xf.AXKX=Xq.}.q.cXE.j.:XU.AXPX-X7. X/.E.6Xv hXM.x.3XR.c ` T Y T d /.C z D.x.t O # 2 , ; K ",
"0 q A D H.H.V g n kXoXu x.v q.E.pXV...T | 2.z.XXM.v.&X7XC.z...( N.M.[.p.6.9XFX5XY.b.%XJX6Xq.}.q.-XCXCXR.x.}.CXwXg..Xz.L.2X;Xm._ o.R *.{ Z n C D.J.W p < > 1 , h ",
"n z + i m r B g u.8XT.C .Xg.k.E.|.G.z.%.X..XL.jX[.k.>X7X|.(.).` aX X2XE.6.&X6X:XiXj.rXKX%XE.zX7.W.6X%X:Xb.;XJX-Xe.zXx.G.&X%XaX%.#.~ ~.} G.8.M h.z.| U 4 & 1 6 ;.",
"n ^.t t Z A 9 n !.8Xu.h.zXk.9.|.Y.L.~.X.h.OXU.mX3Xq.>X%XT.1.`.A.fXY.mXmXw.4XY.k.c.,XCXZX|.2XHXq.n.2X9.j.n.DXZXd.p.HXW.W.>Xn.M.@.%.1./.Z 0Xy.e L.} ] 4 p 6 l f S ",
"g #Xf y B q + Z i.<XM e MXW.9.}.` V.X.z.%X*XN HXnXq.>X[.g.z.M.pXvXj.7XJXj.S.:X7.x 1XCXCXx.oXLXe.v.hXc.z OXDXeXa.6.KX=Xp.}.l.*. .N. X{.e 8X=XM Z j t I < Q V * [ ",
"9 ].j o { B + 0.G.P.8 i 0X<XC m.$._ c T.&X&Xe bXHXv.c.M...v [.2X@X8.&XIXn.7.xXx.q.7X-X=Xv }.JX=X7 xXfXc 2X1XqXe 8.FXqX8./...U | /.[.x.7 Q.<XB j [ & < a n m * j ",
"% ;. .O j j * ;.P.,.s y C {.{ N.$.| g OX6XS.g.z.3Xx.M.yXV.' ;X4X2Xk.9.NX[.v vXN.Z.4X7XW.) l.bX5Xv fXaX` :X5X4XC z /.dXX.`.).$.u R.W.XXc z P. .I W 2 * k m m 4 J ",
"& , 4.< 8 9 a 2.^.j I I a '.| _ @.m.K.OX4XS.m.' [.{.%.*.)./.4X7X4XY.{ [.+X/.).$.M.vX2Xg.z...D.kXz.l.$.V.jXzXg.{ X.U sX_.~ ] m.c.E.W./.| 8 | 2.J H W h V N V 4 # ",
"6 & , $ % % h / Q 4 K O.I *.%.U ] 2.sXL.hXaXV.| z.yX&.T `.@X}.4X;XL./.c ].[ { l.[.'.B.) M./.#._.%.{ 9.j.oX`.| &.*.=.-.5.#.~ m.{.q.OX{ ] T R +.Y 2 ~ Q h S f H H ",
"/ 3 % % S S / ; < , ~ O.Y H 1.| d ~.^.J.iX` `.%.( N.N.@.^.{.g.jXz./.[.{ C K.OX3X.X' @.] /..X2.W } <X&X%Xv T *.&.A.=.-.5.O.#.~.l.C (.c ..U H +.! 2 K / 1 V * , E ",
", , % S I.$X$X4.5 = K #.2.o. .c B m.W *.`.s '.~.m.%.$.X.h.L.X.yX@._.~.h.0.MXLXLXBX%.2.^ z.(.).] 0XGXPXZXg.2. .| .X..&.2.[ j ,.{ { { s | ] U O.H I K 5 > 6 > , E ",
"6 , = S F I.<.6 j 5 h O.+.~ } P./.] %.~ ] %.%.m.%.m.pXfXx.z.{ | 2.&.iXx E.eX9XGX#X~._.] './.N.x.wXd.AX-Xh._.] z./.{ N.*.fX]. .W d U ] ] W W E >.O.E 5 > & 1 3 5 ",
"6 & h m P.F.+ t j h & >.o.I (.].} ( U %.sX[ ).~.{ (.kXL...$.C xX2.-.tX) 1X-XGX=XC } (.{ X.)...|.&XFXeXw.B '.} B /.).T aXfX} Q a } (.] ~ #.p >.,.Q & , , k 6 ; J ",
"; 2 k } :.n + t  .[ y s ~ R (.T.[ s u bXbX} ( $.i fXdXz._ ( bXcXB.@.@.z.6X7XwXq.z /.pXz.] | z.2X7XDXT.z g.dXz.) | *.=.yX+Xz E  .0XI.U T Y 2 ,.,.1 ,   ;.<.1 > : ",
"; 4 y d y + * [ 1. .W a ~ U X.} R W y.HX#Xz.` ..c ^.'. .T  XFXnXM.N.=.~.Y.R.[.z c.hXxXC.~...~./.}.[._ $.oXjXC.B.*.#.#._.`.d d J.mXH.B ~ Y 4 Q j > < 9 I.<.- 5 * ",
"E 4 < # # + y X.3.W W 1.~ ~ s ] ~  .6XqX|./.XXz.D.B X.X.{ vX7X7Xv.hXB.~.g.{ ..` C.cXhXB.2X{.z...) ` =.tXjX4Xb..XyX2.[ [ ] ] ~.#X0Xp.D. .#.s d - y & ;.<.<.= h y ",
"~ 4 < < 4 a j X.1.4 W _. .| | %.3.X.,X&XL./.hXn.L.+X^.J.h.2X6X&Xn.xXoXz.M.`.N.tXoXlXhX' ;X@X/.N.M.z.M.XX>X6XZ.c.sXJ.D.D.m.z.h.Q.!.C 0.P.X.j ;.g i * [ [ Q a V g ",
"Q h y i U W B D.W < [ 1.,. .2.|  ./.}.v.C x.;X&XG.BXbXk.v.2X4Xq.7.jXjXC. XpX XpXlXjXA.' E.4XiXtXjXC.[.4X4XR.b c.bX{.D.h.X.X.G.+XU.q n {.} n !.D 9 j [ [ > O [ l ",
"S n q f d a Z Z s > j ,.P.[ | U { M.c.M.{ B R.&Xw.5XGXa.n.xX[.c g.Y.lX:Xx.oXb.R.lX|.X.) k.4XxXV.oXn.n.lXjX{ c x.pXXX/.m.X. .%.%.z.z i J.L.r s.d.0 j [ j O O j ;.",
"n n % j W y V 9 * < & [ K.} Y T ..) 7 oXsXB k.,Xv.7XGX-Xb.hXl.{ U.0.:X:X7.4X&Xn.2X~.) { C |.vXl.}.>Xn.XXB.( | s `.iX`.( U %.&.p G.+Xp s (.r s.8Xt.8  .O - y 5 / ",
"- B t p  .d * % < 1 1 3 h Q H Y *.) y.HXdX( { [.Y.<XPXSXv.M.M.k.mX8.v.hX7.>X4Xv.( _ ..C B M.vXV.}.zXb.v ` _  .] @.Y X.{ s X.X.h.nXF.] p X.e s.Q.!.9 p a - K.1 , ",
"q u < W [ j 1 1 1 1 ! 5 l >.H ~ ..h.=XrX+Xm.l.x.z.w.9XCXoXM.Y.,XLX6.T.Y.c.;X4X|.N.-.) } ~.~.'.g.R.4X2Xg.$.@.@.).o.*._.j ( X.h.#XeX!.d *.j r X s.H.B p a r I.= 6 ",
"r g t W [ [ a I 2 4 #.< f K.a a { H.8XrXT.L.G.OXh.h.,XU.jXx.q.DXJXp.6XR.n.:X6XlXA.A.i /..XoX|.e.E.;XzXl.m.....uXo.).+Xc ] { L.<XeXs.f ] t.e 0 } n B 4 y u.i.w S ",
"m t.y h Q k 5 I a W #.a B P.{ B Z H.f.9XM i t.mX3Xg.|.0.} j.6XDXnXq.wX7Xj.4X;X:X-.uXh.|..XkXwXe.&X;XoXz./.z./.gX&.%.@X0.B z.{.Q.8XX q j !.t.8 %.8 9 1 V i.s.w S ",
"G I.h y j 1 * < W X.] s C G.D.g.z.L.W.E.u B e MXeXe U.{.c z.1XwX5X8.wXHXv.}.R.g.` B.OX,X/.oXGXf.q.|.l.Z.g.{.oX.Xm.x.OXT.z.m.P.U.W.q j 8 !.!.* ^ j   = S F G % <.",
"= I.k 1 f * O O V X.c i C k./.z.X.{ L.x.u ].g bXnXr.w.3X%.z.*XqXOX7 %XHXoXc.[.) ' Z.,X5Xz.x.FX=X8.XX{ c x R.2Xx.{ [.OXT.M.X.C G.D q ,.+ !.Q.4 4 3.  9 S F l $ K ",
"& S 4., 1 - * 8 V Z d 7 c L.z.( W I %._ T gX[ D.nXe 8.@XU ).5X*Xx.u C 3XjXg.M.g.v k.*X1XM.{ E.,X{ '.m...9.,X|.Y.b G.E.k.z.( c [ d I ,.j 0 ].a 4 4.% = S S , ; J ",
"; $ 4.* , = 1 j Z Z [ 8 z ~.| U s | o.T ~ ).~.i T.G.C { ] .XzX|.B m.u /. X..V.z.k.6X<X2X[.' v @Xz.( $.X.{.,X|.{.z C |.h.] U  .s ! 4 2.Q 8 W W < , % f 4.S 3 P P ",
": : 3 6 > = 5 Q g D i j t ^.W s B } a o.@.)./.B { X.W ] { k.(.X.] 1.| ..~.~.( m.{.|.OX@X`.| ( ~.%.@.] '.+X(.@Xz.g.B .XX.d 2. .a ~ Y 1.W a p 4 & O > f h 1 ; J K ",
"K ; J K o $ E 1 l y 1 ^ 5 >.E E K.h.a 3.~ ~.'.} ~ a yXsXE.q.c U ] uX2.T 2.).s %.'.X.oXz.m.tXT $.).W X._.D././.( `.] X.U  .yX,.< #.I W ,.E O > k V l 1 o $ , K J ",
"K ; 3 3 , 2 ! ; 6 & 5 >.3 6 E Q (.Z a #.W { m.z.y ,.BXNXJX,Xc | ] ).2.@.).1.] ).uX_ `.{ *.yX .1.X.[ X.X.B %.| @.yX@.*.I  .]. .y  .p 4 >.h O = K.I.I.;.$ & ; H L ",
"E 3 : 6 ^ K J 2 & & 6 ^ , 6 K / D.c y #.] d { X.t #X$XeXnXk.} ~.U 1.uX2.2.~.sX_.-.T $...%.&.%.~.^.fX,.} c ] ~ *.-.o.O.o.#.^.k y ^ W < d y 9 l D i.i./ , , $ H L ",
"K 3 , 4.4.K @ @ f f 6 , 3 5 3 E ~ R a 1.~.W s [ Z !.=XnXY.u L.D.c @.uX#.3.gXfXU =.@. Xm.m.%. .[ sXfX} c B J.&.| | Y Y Y ~ 3.g y [ ] a < y y D m i.w % & 6 & 3 L ",
"3 $ , 4.6 $ ; 3 ^.l < & K K 3 5 I p d ,.~.W p j } !.=X<Xz c k./.X.( %.I ).bX:.{ U B.NXL...X.W X.fXz.( i N bX+X] ~ U ! Y I I 4 a ,.] U O * 9 S V S = % 6 / , 2 ; ",
"6 ; , 6 % % , [ I.w 9 5 ~ L H J H p { D.X. .[ j X..X XB t ^.{.dXz.| *.~ J.(.d B 9.2XNXq.C }  .| +X{ U c Q.nXK.B } }  .^ J Y Y ] J.B a 4 < 1 h Q 3 ; , 4.4.3 5 , ",
"K 3 , % = % 5 K.u.w l h ! E ! J o.U D.T.X.X._. ._ p R R ~ '.oXY.z.aXtX2.d B J.0 W.rX7Xq.{.~.).~ U .._ { eX8Xu.K.:.Z [  .J o.o.#.K.0 j  .R p & @ P : / 4./ K ^ < "
};
