/* XPM */
static char *_4f4c05841dd4e60b12a66202104da33t4KTWMnOWvnnDBSc[] = {
/* columns rows colors chars-per-pixel */
"80 80 154 2 ",
"   c None",
".  c #000000",
"X  c #03060A",
"o  c #06090A",
"O  c #090A0B",
"+  c #070F17",
"@  c #0D0F10",
"#  c #060F18",
"$  c #0E1112",
"%  c #071019",
"&  c #09131C",
"*  c #111416",
"=  c #15191B",
"-  c #181C1E",
";  c #0B1824",
":  c #0D1C2A",
">  c #191E20",
",  c #0E1F30",
"<  c #1C2124",
"1  c #1F2528",
"2  c #16212A",
"3  c #0F2031",
"4  c #142534",
"5  c #172A3D",
"6  c #21272A",
"7  c #232A2D",
"8  c #272F32",
"9  c #293135",
"0  c #21313F",
"q  c #2D363A",
"w  c #2F393D",
"e  c #313A3E",
"r  c #142B41",
"t  c #1A3249",
"y  c #17324C",
"u  c #1A3754",
"i  c #353F43",
"p  c #253C51",
"a  c #364145",
"s  c #3D494E",
"d  c #3B474C",
"f  c #3F4B50",
"g  c #1F4468",
"h  c #264767",
"j  c #22466A",
"k  c #414E53",
"l  c #46555B",
"z  c #48565D",
"x  c #435156",
"c  c #4D5D65",
"v  c #506067",
"b  c #53636A",
"n  c #5B6D75",
"m  c #5E7177",
"M  c #5E7078",
"N  c #62767E",
"B  c #285582",
"V  c #2B5B8B",
"C  c #2E6296",
"Z  c #30669B",
"A  c #326BA3",
"S  c #3775B3",
"D  c #5F798A",
"F  c #657982",
"G  c #6A7E88",
"H  c #697D86",
"J  c #6C828B",
"K  c #70868F",
"L  c #718791",
"P  c #748B94",
"I  c #748D9A",
"U  c #7A939C",
"Y  c #5488B7",
"T  c #7D97A3",
"R  c #3D81C5",
"E  c #4087CD",
"W  c #428BD4",
"Q  c #438FDC",
"!  c #4490DD",
"~  c #76A6CC",
"^  c #6EA9DD",
"/  c #4695E2",
"(  c #4798E8",
")  c #4899E9",
"_  c #4A9EF1",
"`  c #4CA2F7",
"'  c #4EA6FF",
"]  c #4FA9FF",
"[  c #50A7FF",
"{  c #51A9FF",
"}  c #5BAEFF",
"|  c #5FB0FF",
" . c #64B3FF",
".. c #6CB9FF",
"X. c #72BCFF",
"o. c #7FC4FF",
"O. c #839DA8",
"+. c #86A0AB",
"@. c #89A4AF",
"#. c #87A3B1",
"$. c #8AA6B2",
"%. c #8EA9B5",
"&. c #8FABB8",
"*. c #91AEBA",
"=. c #95B2BE",
"-. c #97B5C2",
";. c #98B6C3",
":. c #9AB8C6",
">. c #9EBDCB",
",. c #A0BFCD",
"<. c #98C1DC",
"1. c #A1C0CE",
"2. c #A4C4D2",
"3. c #A7C8D6",
"4. c #A9CAD6",
"5. c #ACCDDC",
"6. c #AED0DF",
"7. c #9DCDED",
"8. c #85C7FF",
"9. c #87C9FF",
"0. c #8BCAFF",
"q. c #91CEFF",
"w. c #95D0FF",
"e. c #99D3FF",
"r. c #AFD1E0",
"t. c #B2D5E4",
"y. c #B6DAEA",
"u. c #B9DDEC",
"i. c #B5D9E4",
"p. c #A0D7FF",
"a. c #A2D8FF",
"s. c #A9DCFF",
"d. c #BDE2F2",
"f. c #B4E2FF",
"g. c #B9E6FF",
"h. c #BEE8FF",
"j. c #C0E6F6",
"k. c #C3E9F6",
"l. c #C1E7F8",
"z. c #C7EEFF",
"x. c #C6EDFE",
"c. c #C7EEFF",
"v. c #C8EFFF",
"b. c #C9EFFF",
"n. c #C8EEFF",
"m. c #C8EFFF",
"M. c #C9F0FF",
"N. c #C9F1FF",
"B. c #C8F0FF",
"V. c #CAF1FF",
"C. c #CAF2FF",
"Z. c #CBF3FF",
"A. c #CDF5FF",
"S. c #CAF2FF",
/* pixels */
"                                              . . . . . . . . . . . . . . . . . . . . . . .                                                                     ",
"                                            . . . . . . . . . . . . . . . . . . . . . . . .                                                                     ",
"                                            O O O O O X O O O O O O O O O O O X X O O O O O                                                                     ",
"                                  . . . . . P :.:.:.:.:.:.:.;.:.;.:.:.:.:.:.:.:.:.:.:.;.;.:.v . . . . .                                                         ",
"                                  . . . . . @.A.N.N.N.N.N.N.N.N.N.N.N.N.N.N.N.N.N.N.N.N.N.N.n . . . . .                                                         ",
"                                  q w w w e -.z.z.b.z.z.z.z.z.z.z.z.z.z.b.z.z.z.z.z.z.z.z.z.P w w w e q                                                         ",
"  . . . . . . . . . . . . . . . 6 t.k.d.d.l.x.z.z.z.z.z.z.z.z.z.z.z.z.z.z.z.z.z.z.z.z.z.z.z.l.l.d.d.k.=.X . . . . . . . . . . . . . . .                         ",
"  . . . . . . . . . . . . . . . 1 u.N.z.z.z.z.z.z.z.z.z.z.z.z.z.z.z.z.z.z.z.z.z.z.z.z.z.z.z.z.z.N.z.N.;.o . . . . . . . . . . . . . . .                         ",
"  . . a J J J J J J J J J J J J U d.N.z.z.z.z.z.z.z.z.z.z.z.z.z.z.z.z.z.z.z.z.z.z.z.z.z.z.z.z.z.z.z.z.t.K J J J J J J J J J J J G < . .                         ",
"  . . F A.N.N.N.N.N.N.N.N.Z.N.N.B.z.z.z.z.z.z.z.z.z.z.z.z.z.z.z.z.z.z.z.z.z.z.z.z.z.z.z.z.z.z.z.z.z.z.z.N.N.N.N.N.N.N.N.N.Z.N.N.z.a . .                         ",
"  . . F Z.b.z.z.z.z.z.z.z.z.b.b.z.z.z.z.z.z.z.z.z.z.z.z.z.z.z.z.z.z.z.z.z.z.z.z.z.z.z.z.z.z.z.z.z.z.z.z.b.z.z.z.z.z.z.z.z.z.b.b.l.a . .                         ",
"  . . F N.z.z.z.z.z.z.z.z.z.z.z.z.z.z.z.z.z.z.z.z.z.z.z.z.z.z.z.z.z.z.z.z.z.z.z.z.z.z.z.z.z.z.z.z.z.z.z.z.z.z.z.z.z.z.z.z.z.z.z.l.a . .                         ",
"  . . F A.N.N.N.b.b.b.b.b.b.b.b.z.z.x.z.z.z.z.z.z.z.z.z.z.z.z.z.z.z.z.z.z.z.z.z.z.z.z.z.z.z.z.z.z.z.z.z.N.b.b.b.b.b.N.N.b.b.N.N.z.a . .                         ",
"  . . b %.&.7.a.a.a.a.a.a.a.a.a.s.x.z.z.z.z.z.z.z.z.z.z.z.z.z.z.z.z.z.z.z.z.z.z.z.z.z.z.z.z.z.z.z.z.z.h.a.s.a.a.a.a.a.a.a.a.<.$.$.e . .                         ",
"      . . O R [ ] [ ] [ [ [ ' '  .h.z.z.z.z.z.z.z.z.z.z.z.z.z.z.z.z.z.z.z.z.z.z.z.z.z.z.z.z.z.z.z.z.z.s.{ [ [ [ [ [ [ [ { { V . .                               ",
"      . . X R [ ' ' ' ' ' ' ' '  .h.z.z.z.z.z.z.z.z.z.z.z.z.z.z.z.z.z.z.z.z.z.z.z.z.z.z.z.z.z.z.z.z.b.s.[ ' ' ' ' ' ' ] [ [ V . .                               ",
"      . . X R [ [ ' [ ' ' [ 8.e.e.z.z.z.z.z.z.z.z.z.z.z.z.z.z.z.z.z.z.z.z.z.z.z.z.z.z.z.z.z.z.z.z.z.z.h.e.e.X.' ' ' ' [ ' [ V . .                               ",
"      . . X R { ' ' ] ' ' [ s.N.b.b.x.z.z.z.z.z.z.z.z.z.z.z.z.z.z.z.z.z.z.z.z.z.z.z.z.z.z.z.z.z.z.z.z.z.b.b.0.' ' ' [ ' [ { V . .                               ",
"        . X S / ) ' ' { } | s.z.z.z.z.z.z.z.z.z.z.z.z.z.z.z.z.z.z.z.z.z.z.z.z.z.z.z.z.z.z.z.z.z.z.z.z.z.z.z.0.} } [ ] ` ( / B . .                               ",
"            & ; y _ ' o.g.g.z.z.z.z.z.z.z.z.z.z.z.z.z.z.z.z.z.z.z.z.z.z.z.z.z.z.z.z.z.z.z.z.z.z.z.z.z.z.z.z.x.g.f. .' W : & &                                   ",
"            . . 3 ` ] 9.z.z.z.z.z.z.z.z.z.z.z.z.z.z.z.z.z.z.z.z.z.z.z.z.z.z.z.z.z.z.z.z.z.z.z.z.z.z.z.z.z.z.z.b.x...] E X . .                                   ",
"              . : Z A ~ z.z.z.z.z.z.z.z.z.z.z.z.z.z.z.z.z.z.z.z.z.z.z.z.z.z.z.z.z.z.z.z.z.z.z.z.z.z.z.z.z.z.z.z.h.Y A V O .                                     ",
"                  . . n N.z.z.z.z.z.b.z.z.b.z.z.b.z.z.z.z.z.z.z.z.z.z.z.z.z.z.z.z.z.z.z.z.z.z.z.z.z.z.z.z.z.z.z.d.q . .                                         ",
"                  . . n N.z.z.z.z.z.b.l.x.x.l.x.l.z.z.z.z.z.z.z.z.z.z.z.z.z.z.z.z.z.z.z.x.z.l.x.l.z.z.z.z.z.z.z.j.q . .                                         ",
"                  . . n N.z.z.z.z.z.b.&.f s k s b u.b.z.z.z.z.z.z.z.z.z.z.z.z.z.z.z.N.1.k f f f z 5.N.z.z.z.z.z.j.q . .                                         ",
"                  . . n N.z.z.z.z.b.N.P . . . . - t.N.b.z.z.z.z.z.z.z.z.z.z.z.x.b.N.Z.&.. . . . X 1.N.z.z.z.z.z.d.q . .                                         ",
"                  . . n N.z.z.z.l.4.4.H . . & : t ;.4.t.z.z.z.z.z.z.z.z.z.z.z.z.l.6.4.T o . + ; 4 %.4.t.z.z.z.z.j.q . .                                         ",
"                  . . n N.z.z.b.4.< * *     / ) E 2 * b z.z.z.z.z.z.z.z.z.z.z.z.u.q * $     Q ) ! 5 $ d d.z.z.z.j.q . .                                         ",
"                  . . n N.z.z.N.2.$ . .     ] [ ! + . z z.z.z.z.z.z.z.z.z.z.z.b.y.1 . .     ] ] _ 3 . q k.z.z.z.d.q . .                                         ",
"                  . . n N.z.z.b.2.$ . 4     [ ] ! % . l z.z.z.z.z.z.z.z.z.z.z.z.y.1 . ;     ' ' ) 4 . e d.z.z.z.l.q . .                                         ",
"                  . . n N.z.z.N.2.$ . j ] ' [ ] ! # . l z.z.z.z.z.z.z.z.z.z.z.b.y.1 . y ` [ ' ' _ , . q l.z.z.z.l.q . .                                         ",
"                  . . n k.l.z.b.4.= o j ` ` ` ` W = o c z.z.z.z.z.z.z.z.z.z.z.z.y.7 o t _ ` ` ` ( 4 o i d.b.l.l.u.q . .                                         ",
"                      8 e a ,.N.d.;.=.D 5 r r r p #.=.2.z.z.z.z.z.z.z.z.z.z.z.z.l.>.=.I r r r r t T =.,.x.b.U i e                                               ",
"                        . . *.N.N.N.A.P . . . . - y.A.B.z.z.z.z.z.b.N.B.z.z.z.z.z.N.A.*.. . . . o 1.Z.N.b.N.N . .                                               ",
"                        . o *.Z.z.z.B.+.9 9 8 9 s y.z.z.z.z.z.z.k.2.>.4.z.z.z.z.z.z.N.:.q 9 9 9 i 3.N.z.b.N.N . .                                               ",
"                        . o *.N.z.z.z.l.d.d.d.d.d.z.z.z.z.z.z.z.t.6 O l l.z.z.z.z.z.z.l.d.d.d.u.d.x.z.z.b.N.N . .                                               ",
"                        . o *.A.N.b.z.z.z.z.z.z.z.z.z.z.z.z.z.b.t.= . s z.z.z.z.z.z.z.z.z.z.z.z.x.z.z.z.N.A.N . .                                               ",
"                          o b N P d.z.z.z.z.z.z.z.z.z.z.z.z.z.z.d.P F O.z.z.z.z.z.z.z.z.z.z.z.z.z.z.b.6.F N k                                                   ",
"                            . . 1 u.b.z.z.z.z.z.z.z.z.z.b.z.z.z.z.N.N.N.z.z.z.z.z.z.z.z.z.z.b.z.z.z.N.;.. .                                                     ",
"                            . . 6 r.d.u.d.u.d.d.u.d.u.d.u.d.u.d.u.d.u.d.u.d.d.u.d.u.d.d.u.d.u.d.u.d.d.*.O .                                                     ",
"                                  8 8 8 8 8 8 8 8 8 8 8 8 8 8 8 8 8 8 8 8 8 8 8 8 8 8 8 8 8 8 8 8 9 9 7                                                         ",
"                                  . . . . . . . . . . . . . . . . . . . . . . . . . . . . . . . . . . .                                                         ",
"                                  . . . . . . . O w a i i i i a a i i i i i i i a i i i i i i i i i a e                                                         ",
"                                            . . > 6.l.l.l.l.l.l.l.l.l.l.l.l.l.l.l.l.l.l.l.l.l.l.l.l.k.=.X .                                                     ",
"                                            . . > t.b.z.z.z.z.z.z.z.z.z.z.z.z.z.z.z.z.z.z.z.z.z.b.z.N.-.o .                                                     ",
"                                        . . n P T d.b.z.z.z.z.z.z.z.z.z.z.z.z.z.z.z.z.z.z.z.z.z.z.z.N.t.P P z . .                                               ",
"                                        . . $.A.b.b.x.z.z.z.z.z.z.z.z.z.z.z.z.z.z.z.z.z.z.z.z.z.z.z.z.z.N.A.F . .                                               ",
"                                        . . @.A.z.z.z.z.z.z.z.z.z.z.z.z.z.z.z.z.z.z.z.z.z.z.z.z.z.z.z.z.z.N.J * *                                               ",
"                                        . . @.Z.b.z.z.z.z.z.z.z.z.z.z.z.z.z.z.z.z.z.z.z.z.z.z.z.z.z.z.z.z.z.u.4.2.q . .                                         ",
"                                        . o @.Z.z.z.z.z.z.z.z.z.z.z.z.z.z.z.z.z.z.z.z.z.z.z.z.z.z.z.z.z.z.z.z.b.h.9 . .                                         ",
"                                        . . $.Z.z.z.z.z.z.z.z.z.z.z.z.z.z.z.z.z.z.z.z.z.z.z.z.z.z.z.z.z.z.z.z.z.l.N k d                                         ",
"                                        . . @.A.z.z.z.z.z.z.z.z.z.z.z.z.z.z.z.z.z.z.z.z.z.z.z.z.z.z.z.z.z.z.z.z.k.b.b.>.O . .                 . . . . .         ",
"                                        . . @.N.z.z.z.z.z.z.z.z.z.z.z.z.z.z.z.z.z.z.z.z.z.z.z.z.z.z.z.z.z.z.z.z.z.z.N.>.O . .                 . . . . .         ",
"                                        . . @.A.z.z.z.z.z.z.z.z.z.z.z.z.z.z.z.z.z.z.z.z.z.z.z.z.z.z.z.z.z.z.z.z.z.b.N.,.$ . .           . . u A A A A C % .     ",
"                                        . . @.N.z.z.z.z.z.z.z.z.z.z.z.z.z.z.z.z.z.z.z.z.z.z.z.z.z.z.z.z.z.z.z.z.z.z.N.>.O . .           . . g ] [ [ { / & . .   ",
"                                        . . @.N.z.z.z.z.z.z.z.z.z.z.z.z.z.z.z.z.z.z.z.z.z.z.z.z.z.z.z.z.z.z.z.z.z.z.N.2.7 > -           . . h | | { { ! % . .   ",
"                                        . . @.N.z.z.z.z.z.z.z.z.z.z.z.z.z.z.z.z.z.z.z.z.z.z.z.z.z.z.z.z.z.z.z.z.z.z.z.l.t.i.F . .       . . c g.g...' Q % . .   ",
"                                        . . $.A.N.z.z.z.z.z.z.z.z.z.z.z.z.z.z.z.z.z.x.b.N.N.b.z.z.z.z.z.z.z.z.z.z.z.z.z.N.N.J . .       . . v N.z.X.' Q % . .   ",
"                                        . . N U O.d.z.z.z.z.z.z.z.z.z.z.z.z.z.z.z.z.b.t.U I 1.b.z.z.z.z.z.z.z.z.z.z.z.z.b.N.J . .       . . v z.z.q.8.^ & . .   ",
"                                            . . > t.b.z.z.z.z.z.z.z.z.z.z.z.z.z.z.b.N.*.. . K Z.z.z.z.z.z.z.z.z.z.z.z.z.z.N.J . .       . . v b.z.z.N.5.= . .   ",
"                                            . . < t.N.b.z.z.z.z.z.z.z.z.z.z.z.z.z.z.N.%.o . J N.z.z.z.z.z.z.z.z.z.z.z.z.z.N.J . .       . . v z.z.z.N.5.= . .   ",
"                                            . . > t.b.b.z.z.z.z.z.z.z.z.z.z.z.z.z.z.N.%.. . J N.z.z.z.z.z.z.z.z.z.z.z.z.z.N.J . .       . . v b.z.z.N.5.= . .   ",
"                                            . . < t.z.z.z.z.b.z.z.N.b.b.z.z.z.z.z.z.N.&.o . J A.z.z.z.z.z.z.z.z.z.z.z.z.b.N.J . .       . . c N.z.b.N.6.= . .   ",
"                                            . . < t.b.z.z.z.z.N.l.2.2.5.z.z.z.z.z.z.N.&.o . J N.z.z.z.z.z.z.z.z.z.z.z.z.z.N.J . .       7 7 F b.z.6.2.*.= . .   ",
"                                            . . < t.b.z.z.z.z.z.t.8 $ z z.z.z.z.z.z.N.&.. . J A.z.z.z.z.z.z.z.z.z.z.z.z.z.N.J . . . . 6 5.u.l.z.l.z $ @         ",
"                                            . . < t.b.z.z.z.z.b.r.- . f l.z.z.z.z.z.N.&.o . J A.z.z.z.z.z.z.z.z.z.z.z.z.N.N.J . . . . < u.N.z.z.x.f . .         ",
"                                            . . > t.b.z.z.z.z.z.t.> . f z.z.z.z.z.z.N.*.. . J A.z.z.z.z.z.z.z.z.z.z.z.z.z.N.J . . x m J d.z.z.z.l.f . .         ",
"                                            . . < t.N.z.z.z.z.N.t.> . f l.b.z.z.z.b.N.&.o . J N.z.z.z.z.z.z.z.z.z.z.z.z.z.N.J . o *.A.N.z.z.z.z.x.f . .         ",
"                                            . . < 5.d.l.z.z.z.z.t.- . f z.z.z.z.z.d.k.$.o . J N.z.z.z.z.z.z.z.z.z.z.z.z.z.N.J . . *.N.b.z.z.l.d.d.s . .         ",
"                                                  q q F z.z.z.b.t.> . f l.z.z.z.u.l q 9           z.z.z.z.z.z.z.z.z.z.z.z.N.J . o *.N.b.z.N.@.q q               ",
"                                                  . . l z.z.z.z.t.- . k z.z.z.z.y.< . .           z.z.z.z.z.z.z.z.z.z.z.z.N.J . . =.A.N.Z.A.I . .               ",
"                                                  . . s z.z.z.N.t.- . k l.z.z.b.t.> . .           z.z.z.z.z.z.z.z.z.z.z.b.N.J . o J :.;.;.:.N . .               ",
"                                                  . . o     z.b.t.> . f l.b.      . . .                 z.z.z.z.z.z.z.z.b.N.J . . o o o X O o                   ",
"                                                  . . .     z.z.t.< . k z.z.      . . .                 z.z.z.z.z.z.z.z.N.A.J . . . . . . . .                   ",
"                                                  . . .         >.O . 7           . . .                 z.z.z.z.z.z.z.r.N n x                                   ",
"                                                  . . .           . . .           . . .                 B.z.B.z.B.B.N.1.O . .                                   ",
"                                                  . . .           . . .           . . .                 u.u.u.u.u.u.u.-.O . .                                   ",
"                                                        . . . . .       . . . . . . . . . . . . . . . O 6 7 6 7 7 1 7 6                                         ",
"                                                        . . . . .       . . . . . . . . . . . . . . . . . . . . . . . .                                         ",
"                                                        . . . . .       . . . . . . . . . . . . . . . . . . . . . . . .                                         "
};
