/* XPM */
static char *Z3Jhc3Mx[] = {
/* columns rows colors chars-per-pixel */
"80 80 152 2 ",
"   c #5FCD3A",
".  c #63CE3C",
"X  c #68CF3E",
"o  c #69D037",
"O  c #65D13E",
"+  c #6BD43D",
"@  c #70D43C",
"#  c #72D83F",
"$  c #66D442",
"%  c #6BD643",
"&  c #66D943",
"*  c #6CD946",
"=  c #67D649",
"-  c #6DD649",
";  c #67D849",
":  c #6EDC49",
">  c #71D646",
",  c #72DA45",
"<  c #79DC44",
"1  c #72D748",
"2  c #72DD4B",
"3  c #79DE4E",
"4  c #6DDE50",
"5  c #74DE50",
"6  c #79DF52",
"7  c #6EE14B",
"8  c #73E047",
"9  c #78E045",
"0  c #74E14E",
"q  c #7BE14F",
"w  c #79E14E",
"e  c #79E34D",
"r  c #7BE84F",
"t  c #6FE050",
"y  c #71E350",
"u  c #72E250",
"i  c #73E351",
"p  c #74E150",
"a  c #75E150",
"s  c #75E350",
"d  c #75E251",
"f  c #76E250",
"g  c #76E251",
"h  c #77E351",
"j  c #76E352",
"k  c #77E352",
"l  c #71E451",
"z  c #73E552",
"x  c #73E653",
"c  c #77E550",
"v  c #76E451",
"b  c #75E650",
"n  c #76E751",
"m  c #75E553",
"M  c #77E552",
"N  c #77E453",
"B  c #74E653",
"V  c #75E754",
"C  c #76E654",
"Z  c #77E755",
"A  c #76E351",
"S  c #7BE350",
"D  c #7AE352",
"F  c #7EE150",
"G  c #7CE250",
"H  c #7DE351",
"J  c #7FE251",
"K  c #78E450",
"L  c #79E551",
"P  c #78E452",
"I  c #79E553",
"U  c #7BE453",
"Y  c #78E653",
"T  c #7BE753",
"R  c #7CE451",
"E  c #7DE751",
"W  c #7FE553",
"Q  c #7EE653",
"!  c #78E554",
"~  c #79E554",
"^  c #79E754",
"/  c #7AE654",
"(  c #7AE655",
")  c #7BE755",
"_  c #7AE756",
"`  c #7BE756",
"'  c #7CE554",
"]  c #7DE655",
"[  c #7AE553",
"{  c #77E853",
"}  c #7AE855",
"|  c #7BE956",
" . c #78EA57",
".. c #7CE856",
"X. c #7CE857",
"o. c #7DE957",
"O. c #7CEA57",
"+. c #7CE956",
"@. c #7DE958",
"#. c #7DEB58",
"$. c #7EEA58",
"%. c #7EEC59",
"&. c #7FED5A",
"*. c #7EEB59",
"=. c #84E54D",
"-. c #88E64A",
";. c #84E94F",
":. c #81E453",
">. c #84E653",
",. c #82E554",
"<. c #80E654",
"1. c #81E755",
"2. c #83E655",
"3. c #84E756",
"4. c #81E655",
"5. c #82EA55",
"6. c #82E856",
"7. c #83E957",
"8. c #85E857",
"9. c #82EB55",
"0. c #8CED54",
"q. c #80E75A",
"w. c #84EA58",
"e. c #83EC5B",
"r. c #87ED59",
"t. c #86EC5A",
"y. c #87ED5B",
"u. c #85EF5B",
"i. c #83EC5B",
"p. c #88EB5A",
"a. c #89EE5D",
"s. c #84F05E",
"d. c #85F15F",
"f. c #85F15D",
"g. c #8AF05E",
"h. c #8BF15F",
"j. c #8CF05C",
"k. c #8EF05D",
"l. c #8AF25C",
"z. c #91F45B",
"x. c #86F361",
"c. c #8BF360",
"v. c #8EF160",
"b. c #8CF260",
"n. c #8DF361",
"m. c #8CF461",
"M. c #88F564",
"N. c #89F764",
"B. c #8BF362",
"V. c #8AF865",
"C. c #8CF965",
"Z. c #90F865",
/* pixels */
"* * * * 0 } M * * 7 M } } M 0 & O 8 0 & + 2 k s ] s 1 = % % - % , = Z M.@.& % : % % * : u @.N % - 3 :.:.:.J < > X 3 0 % O : b 0 ^ s : % % % * % : : $.d.N % : % ",
"* * & : 0 M M M * : M #.%.} 0 * : 8 0 & % 2 s s 6 , % % - 2 3 5 % = 2 ^ 5 : 5 : : = = : s s s s % 1 q 2.w.:.6 > > 3 3 * % 8 b b s 2 = $ % , 2 0 * $ 2 ^ 2 2 2 : ",
"7 : * : 0 : 0 M * : y } %.#.0 : E 0 w 2 , < M E D s 3 2 5 2 3 u % % * % = N N = 2 * * 5 5 2 5 M * , w :.8.:.3 > =.D 3 2 : 8 0 b s s 3 2 3 2 2 3 , X $ , : 2 0 : ",
"0 0 2 : : : : $ 0 : : M { 0 2 * d.{ < 3 w * : 0 : 5 k @.^ 5 : % 2 - : = $ : 2 $ 4 5 2 : = 2 : $ 0 2 , w :.6 < > w.:.< 3 < : 8 0 : 2 N ^ Z 2 : = 2 $ = : % : 2 % ",
": ^ M $ & Z 0   0 : $ : 2 : * , m.5.q 0 1 % - , $ % : : s u u 4 u - 2 s - $ % - 2 k k % = N 2   s * & , 8 , 1 , m.:.D 3 : * % , = $ , 2 s s 5 2 2 : 3 2 % % 2 % ",
": } M * * O.} * 2 & $ * * & : M k.a.:.< 1 % % - E 2 * = : i { { : % 5 @.: $ 2 s : ^ k - , $.#.% 2 & O & * % , J v.a.E < * % + * ^ 2 % : , D ^ ^ $ - ^ s % * 5 2 ",
"0 M M 2 : : } %.: * * 7 : $ : { a.a.8.< + 1 , , s.Z : ; 4 x x t $ % s s % : k k 2 s Z 2 : 2 ^ $.: O & 7 : % , E a.l.8.1 % % < * x.Z , : 5 E D s $ : D s & : D s ",
"Z 0 s M %   : V.0 : 0 M 0 % * E 2.k.p.> X , s : 5 * & * x #.u : $ 2 E = $ 2 $.3 Z 3 s N % . : M.7 7 0 n 8 + * r 8.c.p.1 + , 0 < 3 % $ = s ^ s : % 2 s 2 = - E s ",
"s } Z : * 2 2 % * * : 7 2 : : 2 v.2.3 3 :.3 < 5 O 5 x : 7 { x : $ D < 2 : , e.] ] k 6 , , 3 2 : O 7 7 7 : * 2 < c.] 3 3 q w w < O 2 ^ 2 2 ^ D : $ s s : % 0 ^ $.",
": } } : $ & * & * * 0 0 0 : : : :.< > > q 1.3 1 % : : = : t t = $ 6 : - % 3 d.e.5 J k 2 % % % % 7 & 7 7 8 : 2 , ] 1 % , r :.s * % : : % : 5 2 : = 2 2 % % Z q.&.",
"* 0 0 * * u M 0 : : 0 M 0 2 * : , + X % :.l.O.$ : * $ & ; : * & : D % % : s l.u., 2 1 , , 0 0 8 O 7 b 0 0 2 , , 1 % o % E f.} O : * % $ % : % % , 2 : % : ^ e.x.",
": * $ & M s.} 0 * : y } { 2 & * 1 , @ + w l.q.% 2 * = * * & % = D E , , < w d.E , % + % w i.5.2 O 7 0 0 0 2 , * , , % % 0 f.#.% 2 * % - : % % % k s 2 * 2 ] $.$.",
"2 : $ % 0 M : $ * : 0 } E 2 * & w w , & 2 ] k % 2 2 s s : = $ , ] :., , 3 , D 1 < : % > < e w + 7 7 8 b s < * % 8 b 7 & 7 n n & 2 2 s s : $ % : $.^ 3 : : 3 2 : ",
"& : 0 0 : u M Z & * 0 M y : & * 0 r w + % , 2 % 2 Z $.k : % 1 , O.5., 2 , $ , o = < w 3 < 0 q { + 7 8 0 0 < : % e b 8 O & * 7 & : M $.^ : % : 2 q.^ 2 * : * % $ ",
"* * : M #.&.s.&.* * 0 M M : * , 0 0 8 * % % % : 3 ] @.5 1 1 3 , w.8., , , + , % + , < e E r.f.i.# * 0 b e 0 2 , 0 0 7 O & O & & 2 $.$.2 % , 2 : q.@.s , : % % : ",
"#.* O : x.V.&.0 * : 0 } { 0 2 0 { 0 : , , & % : u ] ^ - = 2 5 : u.u.< w < % E w w , % * q.m.r.< & 7 0 0 0 0 8 8 r 0 7 7 7 7 O 7 0 $.^ = % 2 2 : x.$.Z 2 : : 3 D ",
"0 * % e u.i.E 0 , 2 : , 5 : & : Z u : ; & * * & s e.{ * : u 2 : u.e , 8 n 0 8 r { & + w u.a.>.3 : : : 2 x : & : Z u 7 & & ; : & s e.^ - , s 2 : q.s 3 0 s s 5 ^ ",
"q , , q u.f.] D $ % $ = 5 * $ : 0 5 : * : 7 t * : Z M * 0 y : % < : + : 0 7 & 7 { * % w a.a.2.q % & $ & : * $ * 0 u : ; * 7 : ; : k s : 3 s : * 2 : : : 2 : : 2 ",
"E 2 * q d.l.q.D = % = * 5 : = 2 : : 2 : 2 M s : $ 3 3 * s ^ 2 : * * & , b 7 & 0 O.7 % w a.k.p.3 $ ; $ & 7 * = u : t : : u y t : $ 3 , : s ^ 2 - : % * 2 s 3 2 : ",
":.< , w u.l.q.0 % : : : u : : 2 2 2 2 : s N 2 % $ : % % M ^ 2 2 % , : 8 b 0 7 n { 8 * 0 u.l.8.q : : * * 7 : * i : : 7 : 0 y 0 & $ : : = N ^ 2 2 % % : 0 s s 0 5 ",
"< , > 1 e O.w , - : : : 5 : = : - , , 1 3 D 3 - $ 1 % % 3 6 , 2 * : % * , * & b 0 8 + , q :.q , * : & * t : & : & : : * 7 y u : % : % % 2 s 2 s : % % : : , 2 : ",
", , % % , 2 1 $ 2 2 : 2 s : % 2 : , % % : D s 3 - 2 1 $ % - - 3 2 8 * O * * & 0 : * * & > , > + : 0 : 7 y : & : : : ; & : x y 0 * 2 % $ : : % 2 5 2 % $ % : , : ",
", < , % % , % $ : s : 5 ^ 5 : D k 6 1 % 1 D 5 3 6 J 3 > , % % 3 E O., & : : & : * : < * % % > % : 0 : 0 } 0 * 0 y y : % * 0 s 0 2 ^ 2 - : = $ 2 } ^ s : - , 2 % ",
"< w D < % , 1 % % , = : s : = s a.8.3 1 % 1 1 % k 8.] 6 3 % $ 5 i.#.8 * 7 8 + % 2 E ^ < + % , * $ * : 0 { 0 & : x.%.0 & * : : * ^ e.$.s < $ % 5 $.$.D : : : - $ ",
"* , % X , O.D $ , 3 : 2 s - $ 2 e.@.3 1 1 1 1 X 1 w.C.3 $ % % 8.#.0 * + 8 { w , % , + O , 5.E % : 2 2 2 2 : % 0 e.} 2 : : : : % * &.V.: $ % % ^ q.s % % 2 s 0 : ",
"+ % > , , , D ] : * * : 5 = : $.d.] 3 1 % 1 % % q.w.q.1 3 q.1 J %.b * & 0 0 < * % * 2 , * , 3 E : , = 2 s % * $.x.} 2 % % * % $ #.e.e.: 2 e.u s e.s : = 0 D 2 : ",
"0 < < 3 2 % 2 @.: % $ = 4 & * e.c.] - % - - 1 % i.a.q.< D a.3 s { b 7 7 0 M 2 + 3 2 3 < , % 2 } : % $ % , % - e.M.$.2 % % * - % $.e.e.: Z x.3 2 i.M : , s s 2 % ",
"l.E 3 , 3 5 3 , : 5 : % * * - N e.] 3 % , 2 , : 0 q.M.2 , 2 = 2 n 0 & 8 M E < % a.^ , , 0 E 0 < : 3 : % = * : k x.O.2 % * , : : 0 e.x.2 : 2 $ 2 ^ 0 : 3 k ^ 5 % ",
"E 5.q * , 5.q., = i.@.= : 5 2 : ^ s : : : 2 : : % M &.: & % . : 7 7 * 8 E E 2 1 5.w.E 1 , E E * * q.$.% 1 3 2 , J 3 , , 2 2 2 - % M e.: $ % $ 2 2 : : 2 k ^ s : ",
", u.a.> O w ] 2 $ $.@.% : u 2 = : : % * 2 u * $ % : : $ % s : : & & * 7 s E 3 , , a.a., O w { : $ 8.q.% : D 2 % - % = % 5 3 1 % % * 2 $ * 5 % 2 : % = , D ^ 5 , ",
", 5.u., . % , % % M s : , : & - : & & * 5 u 2 : % ; :   : #.: u & & & , 0 D 1 1 > :.1., O * 0 : % D D , 1 , % - % % = 1 6 0 3 : : % * X : ^ , s : * % 2 s s 2 , ",
", % % % * < , % q.5.^ @.@.= $ k * * = * y { Z 0 & : 0 O % u :  .& & & : 2 0 < , 1 , * % * : * + q.] E :.:.% % D , : : < w E w 2 % * 2 $ - s * O.- % % : 2 u 2 * ",
": ; * : , 1 % % 6 a.M.8.2 2 u : t t 7 t u Z s t = : : = = 2 s s 7 & 7 7   7 y : : = = : : : ; & e 0.z.-., , < 2 0 0 8 : 0 r 9 8 * 7 : * * 7 s M : $ : 0 $ : 0 & ",
"x 7 : : 3 1 1 1 3 ,.a.,.2 * : 2 t 7 ; ; u  .s - 2 5 s 2 2 N k ^ 7 l &.x & & 0 t 5 : : 2 t ; ; : , -.0.-.< > , 2 0 : * : 0 r 9 * : 0 8 : : 0 ^ } : M %.M $ $ 0 M ",
"t 7 * : : : 1 1 1 ] e.e.3 & * u x : & - u Z 5 % = 3 s 2 - 2 6 N   7 { 7 : * * : 5 : : 4 t ; t t < -.0.0.3 + : s M : $ & 0 r 8 # * 0 0 2 * : M Z $ M } 0 : * * 0 ",
"7 & * : , % % 1 6 ] a.M.] % * E M 7 * : t : : : * 2 s , = % 2 2 O 7 O &  .#.* % , - 5 5 : ; ; ; 3 =.0.a.E % : ^ Z : ; : 8 8 & 7 * 0 0 : & % : 0 O : $ $ %.%.* $ ",
"; 7 7 y N 2 1 , ] :.d.n.] 1 * s y 7 : : * = 2 ^ : s ^ 2 1 % 2 : : 7 . X #.q.3 = 1 1 5 5 i - = = e -.0.l.E * * u x t : 7 & * 7 b , M M 2 : % , * * 2 . O %.e., $ ",
"7 & u } ^ 2 - 1 6 6 8.8.D - * 2 : : ; : * % u e.: 5 5 : % - , % : 8 : % 2 2 1 > 1 1 6 q.@.5 - - 3 e 1.E w : * - t ; ; : * & 7 s.: 2 2 : % : * & 2 0 * O * : * * ",
"& & 0 Z N 2 % : , 1 5 2 1 3 > $ - * : 7 : % : @.% % % % % 3 1 % * 2 D 1 % % 1 1 1 1 6 q.( 4 - 5 * , w , 2 : : & ; ; ; 4 ; & :  .% % % & * 2 * + : 2 w : O O , : ",
": : 0 M s 2 , 3 % 1 1 = % 3 1 % u * * 7 2 $ = , : : % - 1 D 6 1 w * 6 6 > 5 ,.1 1 3 6 6 5 1 - 5 + , : % * 0 : & t ; ; t 4 & & : * * * * 2 E w : 2 * b E 2 w { * ",
"* 7 s Z s : : 2 $ - D 6 , 5 3 % * $ * 0 0 2 0 * : X 1 2 d.3 3 $ E w % , :.e.:.> 1 3 :.6 6 5 5 - $ * 0 0 : 0 b O 7 $ * u : t 4 ; : o 2 , u.9 8 + r e # * E u.8 # ",
"* 2 ^ ^ 2 * * * u , , 2 $ 1 > $ D & & 0 2 u s * D , , 1 6 1 3 % e 0 3 1 6 q.6 3 1 1 6 :.6 1 - = 0 7 8 : & & 7 O M * * 7 t t t ; 0 , , * e , * # w e , , E 9.0 8 ",
"& 2 D s : * & * } : , 2 % > 1 > i.* % , 2 s w * ] D 1 E J J , , e 0 3 5 ] p.p.6 1 6 6 6 5 - - = ^ * * 7 + & 8 + i.* + : 5 Z V - E e 8 O.e r , , 8 e 8 , 9.f.O.;.",
"= % 2 2 : * ; * 2 = 2 @.3 1 6 :.i.: % , 0 E w , , 0 < m.w.a.1 , < : 3 D q.v.a.:.> 1 1 1 5 - - 4 7 * w r 0 , 8 r 9.* % 2 i @.V : , 8 8 l.9.l.8 * * w 8 w 9.l.9.9.",
", % % & : : 7 : 7 * s $.6 1 ,.v.r * & 8 w w w : . > , k.a.a.> % * $ % 2 e.M.q.3 1 - - - - 1 5 4 : * 0 O.9 # ;.l.e @ @ 3 5 k ^ : o # * l.0.u.# + + , + # u.z.r 8 ",
"2 - % * : 7 t u y : 3 2 $ 1 p.Z.w % * w 0 w w , % , 3 a.8.2., , * $ & < e.n.8.1 1 1 - - - 1 5 5 y 7 8 9 + # 0.z.9 @ > 3 5 D N : + , 8 0.9.;., * # # + 8 l.l.r # ",
"1 2 2 2 : * 7 y Z 2 2 % $ 3 d.v.9.* + , 8 e e * < , 1.8.l.r w , : : * 2 8.q.] 1 - 1 6 6 - - 5 x b 8 : + o 9 0.0.0.# + , < D 5 - 8 9 r 0.l.r 9 8 , 8 # 8 9.9.9 , ",
"- 5 $.{ : & : y u 2 - % 1 3.m.5.l., O * w e e + * + 5.:.Z.q w * : & & & = 3 , = > 1 q.q.- = 4 i l 8 * # , 9.z.-.z.# + % 3 D 0 % * * r 9.l.r 0 # # * + o , < , & ",
"% E &.} 2 * : 0 M 0 0 * * u q.M.x.: % : : % * O 2 2 s f.m.O.2 * * : 0 : * * * $ . s e.Z : * 2 : 0 0 8 * % 3 i.m.d., % , : % * $ : : 0 i.f.#.2 & % 2 0 , * % & % ",
"0 O.$.u & $ 0 } M y : * : 7 { s.s & & : * : : $ * * * M Z 7 * * $ : 0 : * : : 2 * #.%.2 & * M ^ n 0 2 * : 2 E i.M % % : % : , $ * * : M M 0 * * % : 7 : * : 2 2 ",
"M $.} : $ * M } } u : * * : 0 0 * % : 0 : 0 } : * * * : * $ * : & : : : * : s M u $.#.: $ * M } ^ s : * : : 2 s * % : 2 2 s ^ 2 : * * : * & * : & : : * * : u s ",
"* M } M : : : : M 8 * * : : : * & : 0 : * M O.0 : 0 0 : * % : s : 2 0 7 : * : : : Z #.s : : 7 : D 2 * * - 2 : % % : 0 2 - s @.2 7 0 0 2 * * : s : 8 0 2 * * : : ",
"& 2 Z u : : * * 0 : * * : : : * * * 0 : $ : 0 * 0 M M 0 * * : y : 0 y M 8 * & ; $ : M u : * * & 2 : * * : , : % % * 3 : $ : 3 % 0 M M 0 : * 8 y : 0 M s 2 * & % ",
"% : : * * : : * * * * : : : : : : * 0 7 * : : $ : 0 M : % & * : * : 0 M 0 * % * * : : * * * * : : * - : : 2 : : : : 5 2 % : 2 % : s M : & * : : * : u Z 0 : * * ",
"* * * * * : : : * : : : : : : 8 7 * y } M 0 7 * 7 s s : % * * * * : 0 M y : * 7 : : * * * * : 0 * : , : : , 2 2 2 * s $.s 3 2 % 2 s u : & % * * : : y E u : * 7 ",
"$ & : * : 0 7 : : : 0 7 : * 0 u * O 2 %.} 0 : % M { M : * : 7 : 0 0 M M 0 * : 0 : * : 2 0 : : : : , 5 2 : : 2 5 % $ : $.$.5 : & s Z s : * : : : 0 : M M 0 * * 0 ",
"0 & $ 2 u * $ & : 0 y : : 7 0 0 : * * y } 0 : * * %.y $ 7 0 * : * { M M %.: : x.s * $ 7 s * $ % 2 2 3 : : 2 2 3 : % : 0 ^ D : * * O.0 $ 2 0 * : 2 u : E $.* * V.",
"Z * * 7 0 : * : : y M 0 * : 0 0 : : 0 } %.} 7 * * 0 2 * 0 n 0 * : s 2 0 M & * s.Z : * 2 0 : & * 2 s u 2 : : 0 0 2 : 2 O.q.^ 2 % * y 7 * 0 Z 0 * * u : u M & & s.",
"} 2 : 0 M : * : 0 } &.n 7 : y } : : 0 %.s.} : $ * $ * * : M M $ : 7 : : : * : s.} 7 * 0 u : : 0 5 ^ $.^ 2 2 M ^ : , s %.e.^ : % * $ * * : M M $ & 2 7 : : * : #.",
"Z 0 0 0 M : * : 0 %.s.} : * 0 E * : 0 %.%.n : * * $ : 0 : s } $ * : * * : : } V.M 0 : 0 s 2 : : s $.e.^ 2 : 2 D - * 5 $.q.^ : % : $ : 0 : 0 { $ $ : : * * 0 } &.",
"2 : 0 M M 0 * $ 0 } %.M * $ * : 2 * 0 } #.y 0 8 7 : } %.: 0 { : : * : : * : #.x.: : 0 M Z 2 * % 2 $.$.s % % : - : : 2 ^ O.E 2 2 8 : } #.: 7 E : * : 0 * $ 2 #.%.",
"* : u { M 0 * $ 0 #.e.Z : * : : = & * : 2 : * : * : M M * * : : 0 : : : $ * M y * : 0 Z M u * & s ] $.^ : : : : % % - 2 2 : : : : : M M : * : : 2 : 7 * $ % M 0 ",
"* : 0 M M 2 : * : M } s : : : 7 * * * : : * % * % 2 : * * $ O * 0 * 0 s $ & 7 $ % : s M s 0 : % 2 ^ ^ s 2 2 2 , : % : : 2 % $ % * : : * * $ $ * 2 & 2 y % $ : & ",
"* : 0 M u s : : O * : * * * * * s 0 M E s * * * * 0 : & 0 : $ 0 : $ s ^ * * 0 O : 2 s s u 2 , - $ - , % % % = % s s D k s : % : , 0 * % 0 : $ : : $ : $.: = : & ",
"* : u ^ k 3 , 2 $ 1 % % 5 D : : 0 E 5.w 2 w < + , w E e 8 * < 0 0 * t Z : * , % % , D ] J 3 1 , % 1 % + < 3 , 2 , ] @.2 2 N u % * e E e , , 8 w : * 0 O.: * ; & ",
"& & : 2 3 : 3 5 % 3 - % s E : : % , , * , w 0 * % e :.w < 2 0 E : & u { : & : = = % 1 3 1 > 1 3 % < , 1 ^ ] 2 % = : : = : s 5 : @ 9 ;.9 8 , w e , : ^ %.u : : * ",
": : & * 1 - 3 ] 5 D 1 % s ^ : * , % + , < 5 2 , , E 8.D , 2 3 E 0 : x #.M : u , , - % % > % 1 ] 3 w , , E ] , = : % & * 2 5 5 : < e 9.r 9 , 0 r 7 : } %.y t t : ",
"Z : % * % % 1 6 8.,.1 > ^ @.2 * u.D , < D s < , q u.l.5.3 , < 0 u : x #.s 2 s s 5 1 > > % % 1 E u.5., $ 0 D 3 1 &.5 : 2 V N 2 : e r.l.;., # 8 e < : s } 2 : y u ",
"Z : = , % % 1 ] a.p.3 % M } : * e.w , 0 E E 3 , E f.m.q.2 , 3 M : * : 0 % % 3 5 6 , - , 1 $ - E l.r., % 3 E 2 * i.u : 5 @.^ u : r l.z.9.8 * 8 r 8 * 2 0 & * 0 0 ",
"Z : , s D 1 D a.d.e.2 = 0 M : * 2 * + > 0 E w 2 2 i.l.$.2 , 2 E 2 % * * $ % 0 ^ s , , 5 6 1 3 a.u.r.3 % w e 1 $ 3 % $ * 5 @.k , 8 r l.;.8 < w q : % * * O * 0 { ",
" .: , ^ D 3 J d.d.p.3 $ : : * * % % % = 3 ] 6 % * E a.$.1 % , s 2 % : 2 % : k @.k 2 3 D D 1 D c.u.r.s 1 2 3 % % $ % = = : #.s : * r u.9., # * w * + * , % & 0 e ",
" .* = 2 , $ - 8.e.e.3 $ : : * : 2 D D , 2 ] 3 O % D a.5.1 $ % - : $ : 2 % * s ^ k : % 3 , $ % :.l.a.< . % , , 1 : 0 3 : 4 @.5 $ + r f.E * O + * * O , 0 * , 0 e ",
"{ * & : 3 = 1 8.n.8.3 - % * : u : 5 s - = : : % : % : % % 2 s = 5 % 1 = 3 % s D ^ * % 2 2 % : E Z.5., 1 * 2 , 2 - s s : = - : % , * * * % 8 0 % w + * + e * e e ",
"Z : - : , % % 3 @.1 % : s 2 : * % s s : $ % : $ % $ % = % 2 0 % 2 1 E , J % s D s * * , : % : e E , % , 0 < , 2 % s N - & % : $ % O + * $ , 0 & : % 8 , e # 8 8 ",
"7 : : : - % > > > $ $ 1 ^ ^ : $ 2 D ^ 2 % , - % % = , 2 % : D 2 % 1 8.6 ] % 1 3 : : * : * * * : % + + < J 0 1 % : N ^ 2 = : * % * & : : % 2 e 2 + * r e r + , 9 ",
"& : 2 - 1 1 1 % > % % 3 ^ Z * & 5 ^ $.5 2 2 : - s 2 k k : 2 s s % % q.:.@.$ 1 % % 2 : * * 0 2 % % + 1 s E 0 1 = 2 k @.s 5 : : = 0 8 M M : 2 0 0 + + 1.r r + # + ",
"$ : 2 : 2 ^ 3 $ 1 1 3 s D 2 : 7 2 N @.u : : : : k s ^ ^ : 4 5 k 1 1 e.q.d., 1 $ = 2 2 * : y u & < , 2 D E 0 , 2 5 D ^ s 2 : 2 : Z : V #.: : e 0 , # r ;.l.8 # o ",
": : 5 2 6 k 3 % 1 1 6 k M 0 0 x : : 5 : : : : 2 5 = : s : 2 s 5 1 3 e.a.Z.3 1 = % , : : 7 M y * 2 , < w E w 3 D : 2 2 2 : : : : t * : x : : 0 0 , , u.9.l.9 9 + ",
": * - : 3 D 3 , 1 1 3 ^ $.M : : % : : = % : 2 5 2 & % 4 : : 5 2 - 1 v.a.v.1 2 , * * : : M Z 0 2 * > < ] O.E 2 1 % * : = = % : 5 : & & : : : 2 : * 8 0.0.l.9 # # ",
": & & * s D 6 D % 1 2 8.e.Z * O = % = : = : 5 ^ s = % 2 - = : % $ - v.a.a.% 1 : : % * : y n 0 0 $ > w 9.5.w % $ % * = : - : u @.x ; = : : * : % + , f.9.9.+ # # "
};
