/* XPM */
static char *b0c9a65465b540cafcde89489b2c069c8v8NWTsQaaBKjWx7[] = {
/* columns rows colors chars-per-pixel */
"80 80 134 2 ",
"   c #152326",
".  c #17262A",
"X  c #18272B",
"o  c #192A2E",
"O  c #1C2E32",
"+  c #1E3035",
"@  c #21363B",
"#  c #233A3F",
"$  c #243B41",
"%  c #2A444B",
"&  c #2A484F",
"*  c #2E4C53",
"=  c #314E55",
"-  c #345056",
";  c #395257",
":  c #3F5955",
">  c #365259",
",  c #3B555B",
"<  c #3D595F",
"1  c #3E5960",
"2  c #42565A",
"3  c #46595B",
"4  c #4D5C5D",
"5  c #505D5E",
"6  c #55605F",
"7  c #687856",
"8  c #707E56",
"9  c #415C62",
"0  c #466167",
"q  c #4C656B",
"w  c #576160",
"e  c #5D6462",
"r  c #50686E",
"t  c #546C72",
"y  c #586F75",
"u  c #5A7176",
"i  c #5D7479",
"p  c #606563",
"a  c #676965",
"s  c #6C6C66",
"d  c #706E67",
"f  c #716E68",
"g  c #757069",
"h  c #7B736B",
"j  c #61777C",
"k  c #63797E",
"l  c #727B7E",
"z  c #81766C",
"x  c #85786D",
"c  c #887A6E",
"v  c #8C7C70",
"b  c #927F71",
"n  c #8B9357",
"m  c #9CA057",
"M  c #A3A558",
"N  c #B3B258",
"B  c #968173",
"V  c #9B8374",
"C  c #A08676",
"Z  c #A48877",
"A  c #A78A78",
"S  c #AD8C79",
"D  c #B28F7B",
"F  c #B5917C",
"G  c #BC947E",
"H  c #C0967F",
"J  c #C8C259",
"K  c #EADB5A",
"L  c #667B80",
"P  c #6A7E83",
"I  c #6D8186",
"U  c #6F8388",
"Y  c #72858A",
"T  c #79878B",
"R  c #76898D",
"E  c #7A898D",
"W  c #7C8D92",
"Q  c #7F9095",
"!  c #808F93",
"~  c #819296",
"^  c #849599",
"/  c #89999D",
"(  c #8E9DA0",
")  c #909FA2",
"_  c #93A1A5",
"`  c #97A5A9",
"'  c #9DAAAD",
"]  c #A1ADB0",
"[  c #A6B2B4",
"{  c #A8B4B7",
"}  c #AAB6B8",
"|  c #AEB9BB",
" . c #B2BCBE",
".. c #C29780",
"X. c #C59981",
"o. c #C99B82",
"O. c #B3BEC0",
"+. c #B7C0C2",
"@. c #B9C2C4",
"#. c #BEC6C8",
"$. c #BFC8CA",
"%. c #C0C7C9",
"&. c #C3CACC",
"*. c #C8CFD1",
"=. c #CCD3D4",
"-. c #D1D6D7",
";. c #D2D7D8",
":. c #D4DADB",
">. c #DADEDF",
",. c #DCDFE0",
"<. c #DDE1E2",
"1. c #E2E5E6",
"2. c #E4E7E8",
"3. c #E6E9E9",
"4. c #EAECED",
"5. c #ECEDEE",
"6. c #EEEEEE",
"7. c #EEEFF0",
"8. c #EFF0F0",
"9. c #EEF0F1",
"0. c gray94",
"q. c #F3F3F3",
"w. c #F4F4F4",
"e. c gray96",
"r. c #F8F7F7",
"t. c #F8F8F7",
"y. c #F7F8F8",
"u. c #F7F8F9",
"i. c gray98",
"p. c #FCFBFB",
"a. c #FCFCFB",
"s. c #FBFCFC",
"d. c #FCFCFC",
"f. c white",
/* pixels */
"i.f.f.e.0.0.e.f.f.i.0.0.e.i.f.p.e.0.0.i.f.p.e.0.0.e.f.f.i.0.0.e.f.f.f.0.0.0.i.f.f.e.0.0.e.f.f.i.0.0.e.i.f.i.0.0.0.i.f.p.e.0.0.e.f.s.s.w.6.~ j j j j  .e.e.f.f.i.",
"i.f.f.e.6.6.e.f.f.i.0.6.0.f.f.f.e.6.6.i.f.f.i.6.0.e.f.f.i.0.0.0.i.f.f.e.0.6.i.f.f.i.6.0.e.f.f.i.0.6.0.f.f.f.e.6.0.i.f.f.e.0.0.e.f.y.2.,.=.t * = * * ' 0.i.f.f.e.",
"i.f.f.e.6.6.e.f.f.i.0.6.6.f.f.f.e.6.6.i.f.f.e.0.6.e.f.f.i.0.0.0.f.f.f.0.6.6.i.f.f.e.6.6.e.f.f.p.6.6.0.f.f.f.0.6.0.i.f.f.e.6.0.i.f.=.t 0 0 > * * = & ' 0.i.f.f.i.",
"e.e.e.i.i.i.r.e.e.e.i.i.i.e.e.e.e.i.i.e.e.e.e.i.i.i.e.0.e.i.i.e.e.e.0.i.i.i.e.e.e.e.i.i.e.e.e.e.i.i.i.e.e.e.i.y.i.e.e.e.t.i.;.@.@._ = * - k I P P U #.f.e.e.e.r.",
"e.6.6.i.f.f.i.6.0.0.f.f.f.0.6.0.i.f.f.e.0.6.e.f.f.i.0.6.e.f.f.f.0.6.0.i.f.f.e.6.6.i.f.f.i.0.6.e.f.f.f.0.6.0.f.f.f.e.6.0.e.f.~ = > = * * , =.0.6.6.r.f.f.e.6.6.e.",
"e.6.6.i.f.f.i.6.0.0.f.f.i.0.0.0.p.f.f.e.6.6.i.f.f.i.6.0.0.f.f.f.0.6.0.f.f.f.e.6.6.i.f.f.i.6.0.0.f.f.f.0.6.0.i.f.f.e.0.0.=./ t * = q ' { } 6.0.6.0.p.f.f.e.6.6.e.",
"e.e.e.e.e.e.i.e.r.e.e.i.e.e.e.i.i.e.i.e.r.e.i.e.e.e.r.e.e.e.i.r.i.e.e.e.e.e.e.i.r.e.i.e.e.e.e.i.e.e.i.e.e.e.i.r.e.e.e.i.| * * = * I e.i.i.y.e.t.r.r.r.e.e.e.i.e.",
"f.f.f.e.6.0.e.f.f.f.0.0.0.f.f.f.0.6.6.i.f.f.e.0.6.e.f.f.f.6.6.0.f.f.f.e.6.6.i.f.f.e.6.0.e.f.f.i.0.6.0.f.f.f.0.0.0.i.f.f. .= * < } ;.s.0.8.0.i.f.f.0.6.0.i.f.f.i.",
"i.f.f.e.6.6.e.f.f.i.6.6.0.f.f.f.0.0.0.i.f.f.r.6.6.e.f.f.i.0.6.0.f.f.f.0.6.6.i.f.f.e.0.0.e.f.f.p.0.6.0.f.f.f.e.6.6.i.i.3.] = 9 i 2.f.i.6.6.0.f.f.f.e.6.6.i.f.f.e.",
"i.i.i.i.e.e.e.i.i.i.e.e.e.i.i.r.e.e.e.i.r.i.e.e.e.e.i.i.i.e.e.e.r.i.i.e.e.e.i.i.e.r.e.e.e.i.i.e.e.e.e.r.i.i.e.e.e.i.=.q 1 = ' 2.e.i.i.e.e.e.i.i.i.e.e.e.e.i.i.i.",
"0.6.0.e.f.f.i.0.6.e.f.f.f.0.6.6.i.f.f.e.6.0.e.f.f.i.0.0.0.f.f.f.0.6.0.i.f.f.e.6.6.i.f.f.i.6.0.e.f.f.f.0.6.6.i.f.f.r.#.> * = O.f.0.8.0.f.f.f.6.0.6.i.f.f.e.6.0.e.",
"0.0.0.e.f.f.i.0.6.0.f.f.f.0.6.0.i.f.f.e.6.6.i.f.f.i.0.0.0.f.f.f.0.0.0.i.f.f.e.6.6.e.f.f.i.0.6.0.f.f.f.0.6.0.i.f.f.e.%.> * =  .a.0.0.0.f.f.f.0.6.0.p.f.f.e.0.6.e.",
"e.0.0.i.f.i.e.0.0.e.i.f.i.0.e.0.i.f.i.e.6.e.r.i.i.r.0.e.e.f.i.i.e.e.0.i.i.i.e.e.e.e.f.i.r.0.0.e.i.i.i.e.0.e.i.f.i.y.&., = = | f.0.0.e.i.i.i.e.0.0.i.i.i.e.e.0.e.",
"f.f.f.e.0.0.e.f.f.i.0.0.0.f.f.f.0.0.0.i.f.f.e.0.6.e.f.f.i.0.6.0.f.f.f.e.0.0.e.f.f.i.0.0.e.f.f.i.0.0.0.p.f.i.6.0.8.i.=.> > 9 | e.f.f.f.0.0.0.f.f.f.e.0.0.e.f.f.i.",
"i.f.f.e.0.0.0.f.f.i.0.6.6.f.f.f.e.6.6.i.f.f.e.0.6.e.f.f.i.0.0.0.i.f.f.0.0.0.i.f.f.e.6.0.e.f.f.i.0.6.0.f.f.f.0.0.6.f.=.= P -.1.e.f.f.f.0.6.0.f.f.f.w.6.0.i.f.f.y.",
"i.f.f.i.0.0.e.f.f.i.e.0.0.i.f.p.e.0.0.e.f.f.i.0.0.e.i.f.f.0.0.0.i.f.i.e.0.0.i.f.f.e.6.0.e.f.f.i.0.0.e.i.f.f.e.0.0.i.=.; k #.1.e.p.f.i.0.0.w.i.i.f.e.0.0.e.f.f.i.",
"0.0.0.i.f.i.i.0.0.e.f.i.i.0.0.0.p.f.f.0.0.0.i.f.f.e.0.0.e.f.f.i.e.0.0.i.p.f.e.0.0.e.f.f.i.0.0.e.f.f.i.0.0.0.f.f.f.e.%.> - > +.s.0.0.e.f.i.i.0.0.0.i.f.f.e.0.0.r.",
"0.0.0.e.f.f.i.6.0.e.f.f.f.0.6.0.i.f.f.e.0.6.e.f.f.i.6.0.0.f.f.f.6.6.0.f.f.f.e.6.0.e.f.f.i.0.6.e.f.f.f.0.6.0.i.f.f.r.%.> = -  .a.0.6.e.f.f.f.0.6.0.f.f.f.e.0.0.e.",
"e.6.0.i.f.f.i.6.0.0.f.f.f.6.0.0.i.f.f.e.0.0.e.f.f.i.0.0.0.f.f.i.0.0.0.i.f.f.e.6.0.e.f.f.i.6.6.0.f.f.f.0.0.0.f.f.f.i.#.> * =  .f.0.0.6.f.f.f.0.0.0.f.f.f.e.6.6.e.",
"i.f.i.e.0.e.e.i.i.i.6.e.e.i.f.i.e.e.0.i.f.i.i.0.e.e.i.i.i.e.0.e.i.f.f.e.0.0.i.i.i.i.0.e.e.i.i.i.0.6.e.i.i.i.e.0.0.i.*.> = = { i.p.i.i.e.0.e.i.i.i.e.0.6.i.i.p.i.",
"i.f.f.e.0.6.e.f.f.i.0.6.0.i.f.f.e.6.6.i.f.f.e.6.6.e.f.f.i.0.6.0.f.f.f.0.0.6.i.f.f.i.6.6.e.f.f.i.0.0.0.f.f.f.e.0.6.i.=.> = = ' 2.f.f.i.0.6.0.f.f.f.0.0.6.i.f.f.r.",
"f.f.f.i.6.0.e.f.f.p.0.0.0.f.f.f.6.6.0.i.f.f.i.6.6.e.f.f.f.0.0.0.p.f.f.e.6.6.i.f.f.e.6.0.e.f.f.i.0.0.0.f.f.f.0.6.0.f.=.> * = 9 i 1.f.i.0.0.6.f.f.f.e.6.8.i.f.f.i.",
"e.e.e.e.i.i.r.e.e.e.i.i.i.e.e.e.i.i.i.e.e.e.e.i.i.r.e.e.e.i.e.i.e.e.e.e.i.i.e.e.e.r.i.i.i.e.e.e.i.i.r.e.0.e.t.i.i.r.-.I t = * 9 :.e.e.e.i.i.e.e.e.i.i.r.e.e.e.e.",
"0.6.6.e.f.f.i.6.6.0.f.f.f.0.6.0.i.f.f.e.6.0.e.f.f.i.6.6.0.f.f.f.0.6.0.i.f.f.e.0.6.e.f.f.i.0.0.0.f.f.f.7.0.0.i.f.f.e.6.6.{ = = 9 :.e.0.f.f.f.0.6.0.i.f.f.e.6.0.e.",
"e.6.6.r.f.f.i.0.0.0.f.f.f.0.6.0.p.f.f.e.6.6.e.f.f.i.6.6.0.f.f.f.0.0.0.f.f.f.e.0.0.e.f.f.i.6.6.e.f.f.f.0.6.6.i.f.f.e.6.e.[ = = > R { 7.f.f.f.0.0.0.i.f.f.e.6.6.e.",
"e.i.i.e.i.e.e.e.e.i.i.e.y.e.e.i.e.i.e.e.i.e.i.e.e.i.i.e.e.i.e.i.e.i.e.r.e.e.i.e.e.i.i.e.i.e.r.e.e.i.e.e.r.i.e.i.e.e.e.i. ., - - * L 0.y.e.e.y.e.e.i.e.e.e.i.e.e.",
"i.f.f.e.6.0.e.f.f.i.0.6.0.f.f.f.0.0.0.i.f.f.e.0.6.e.f.f.i.0.0.0.f.f.f.0.6.6.i.f.f.e.6.0.e.f.f.i.0.6.0.f.f.f.0.0.6.i.f.f.4.&.L * * P i.0.0.0.f.f.f.e.0.6.i.f.f.i.",
"i.f.f.i.6.6.e.f.f.p.0.6.0.p.f.f.e.6.6.i.f.f.i.0.6.e.f.f.p.0.0.0.f.f.f.0.6.6.i.f.f.e.0.6.e.f.f.i.0.6.6.f.f.f.e.6.0.i.f.f.i.0.) t > i =.,.0.0.f.f.f.0.6.6.i.f.f.i.",
"i.i.i.e.e.e.e.i.i.i.0.e.e.i.i.i.e.e.e.i.i.i.e.e.e.e.i.i.e.e.0.e.i.i.i.e.e.e.i.r.i.e.e.e.e.i.i.i.e.e.e.i.i.i.e.e.e.r.i.i.e.e.8.>.q > , ] i.e.i.i.i.e.e.e.i.i.i.e.",
"0.6.6.e.f.f.i.0.6.0.f.f.f.0.0.0.p.f.f.e.6.6.e.f.f.i.0.0.0.f.f.f.0.6.0.i.f.f.e.6.0.e.f.f.i.0.6.0.f.f.f.0.6.0.i.f.f.e.6.0.r.f.f.2.q * * I { 4.0.0.0.i.f.f.e.0.6.e.",
"e.0.0.i.f.f.i.0.0.e.f.f.f.0.0.0.i.f.f.e.6.6.r.f.f.i.6.6.e.f.f.f.0.6.0.f.f.f.e.6.0.i.f.f.i.6.0.e.f.f.f.6.0.0.i.f.f.e.0.6.e.f.f.3.r = = * , =.6.0.6.f.f.f.e.0.6.e.",
"e.6.e.e.i.f.e.0.0.e.i.f.i.0.e.0.i.i.i.e.0.e.e.f.i.i.6.e.e.p.i.i.e.e.0.i.i.i.i.0.0.r.i.p.i.0.6.e.i.i.i.e.e.0.i.i.i.e.e.0.y.i.f.e.*._ = * - i ^ 6.e.e.f.i.e.0.e.e.",
"i.f.f.e.0.6.e.f.f.i.0.0.0.i.f.f.e.0.6.i.f.f.i.0.0.e.f.f.f.0.0.e.f.f.f.0.0.0.i.f.f.e.0.0.e.f.f.i.0.0.0.f.f.i.0.0.0.i.f.f.e.0.0.e.f.=.t 1 * * t :.8.e.7.8.e.f.f.i.",
"i.f.f.r.6.6.e.f.f.f.0.0.0.i.f.f.0.6.6.i.f.f.e.0.0.0.f.f.i.0.6.0.i.f.f.0.0.0.i.f.f.e.0.0.e.f.f.i.0.0.0.f.f.f.0.0.6.i.f.f.e.6.6.e.f.y.4.W * * = 1 ` e.0.6.i.f.f.e.",
"i.f.f.e.0.0.e.f.f.i.0.0.e.i.f.f.e.0.0.i.f.i.e.0.0.e.f.f.i.0.0.0.i.f.f.e.0.0.r.f.f.e.0.0.e.f.f.i.0.0.0.p.f.f.e.0.0.i.f.f.e.0.0.e.f.f.f.] u , * * / e.0.0.i.f.f.i.",
"e.0.0.e.f.f.i.0.0.0.i.f.p.e.0.0.i.f.f.e.0.0.e.f.f.i.0.0.0.f.f.i.6.0.0.i.f.f.e.6.0.e.f.f.i.6.6.w.f.f.f.0.0.0.i.f.f.e.0.0.e.f.f.i.0.0.w.i.6.u * * / f.f.f.e.0.0.e.",
"0.6.0.e.f.f.i.6.0.0.f.f.f.6.6.0.i.f.f.e.0.6.r.f.f.e.0.6.0.f.f.i.0.6.6.f.f.f.0.6.6.e.f.f.i.6.8.e.f.f.f.0.6.0.i.f.f.e.6.6.i.f.f.i.0.6.e.f.e.| W > i ` :.f.e.6.0.e.",
"e.0.0.i.f.f.i.6.0.e.f.f.f.0.6.0.i.f.f.e.6.6.e.f.f.i.0.0.e.f.f.f.0.0.6.i.f.f.e.0.0.i.f.f.i.0.0.8.i.f.f.0.0.0.i.f.f.e.0.6.e.f.f.i.0.0.0.f.f.f.=.1 * * ] s.e.0.0.e.",
"i.i.i.e.e.0.0.i.i.i.0.0.w.i.i.f.r.e.e.i.f.f.i.e.e.e.p.i.i.0.0.e.f.i.i.e.e.0.i.i.i.e.0.w.e.i.i.i.0.0.e.i.f.i.e.w.0.i.i.f.i.0.0.e.i.i.i.0.w.e.=., * = q Y <.f.i.e.",
"i.f.f.i.6.0.e.f.f.f.0.0.6.f.f.e.:.=.=.>.<.<.:.=.1.e.f.f.i.0.0.0.f.f.f.e.6.6.i.f.f.i.0.6.e.f.f.s.0.0.0.f.f.f.0.6.6.i.f.f.e.0.6.e.f.f.s.8.7.w.>.i 9 = = ; ;.f.f.i.",
"i.f.f.e.0.6.e.f.f.i.0.6.0.f.f.=.0 2 9 9 9 9 9 1 ] i.f.f.s.8.6.0.f.f.f.0.6.8.i.f.f.i.6.6.e.f.f.s.8.6.0.f.f.f.0.6.0.i.f.f.e.6.6.e.f.f.i.0.6.0.i.e.` & * < ;.f.f.i.",
"e.e.e.e.i.i.i.e.e.e.i.i.i.8.@./ > * * * * = * * Y | 1.e.e.i.i.i.0.e.e.i.i.y.e.e.e.e.i.i.y.q.w.e.i.i.i.e.e.e.i.i.i.e.e.e.i.i.i.r.e.e.e.i.i.i.e.t.$.Q t > _ $.0.t.",
"e.0.6.i.f.f.i.6.6.w.f.f.f.1.q * * - = = = - - = = , &.8.0.f.f.a.0.0.0.i.f.f.0.6.6.e.f.s.y.6.8.8.s.f.s.0.6.6.s.f.f.e.6.6.e.f.f.i.0.0.0.f.f.f.6.0.0.a./ * * i 2.t.",
"0.0.0.e.f.f.i.6.6.0.f.f.f.1.r * * p b b b b g = = - k ( 6.f.f.f.e.0.;.W R R R Y Y R W R R R Y R W R E Y Y ' i.f.f.e.0.6.e.f.f.i.0.0.0.f.f.f.0.6.8.f./ * * i 2.e.",
"i.e.e.i.e.r.e.i.e.i.e.i.6.;.r = , z o.X.X.X.C 3 ; * * u 6.8.1.1.1.1.+.> * * * * * * * * * * * * * * * * * L 1.2.1.1.2.e.r.e.i.e.e.e.e.e.e.t.e.e.e.t.^ * * i 6.t.",
"i.f.f.e.6.6.e.f.f.i.0.0./ 0 > 5 S ..X.X.X.X...D s * * u 0.[ q q q q 0 * * * * * * * * * * * * * * * * * * , q 0 q q W i.i.0.0.e.f.f.a.0.0.0.f.f.f.q.~ & * j t.y.",
"i.f.f.e.6.6.e.f.f.i.0.8.W * * w H X.X.X.X.X...X.x 3 - t =.^ * * = * - 4 4 4 4 4 4 4 4 4 4 4 4 4 4 4 4 4 4 2 * * * * u ;.-.=.1.e.f.f.a.0.0.0.f.f.f.e.` r > y ;.1.",
"i.i.i.i.e.e.e.r.i.i.e.0.Q * = w G X.X.X.X.X.X.X.G F 4 > 1 > * * * * 5 F G G G G G G G G ..F ..F G G G G G v * * * * = < < <  .p.i.i.i.e.e.e.i.e.i.e.0.>.t = < ^ ",
"0.0.0.e.f.f.i.0.6.0.f.f.~ * * 5 G X.X.X.X.X.X.X.X.G 6 * * 4 d f d s x ..X.X.X.X.X.X.X.X.X.X.X.X...X.X.X.X.A g d s e 4 - * * W | 1.0.w.f.f.f.0.0.0.i.f.0.u * * ^ ",
"0.0.6.i.f.f.i.6.0.e.f.f.~ * = w ..X.X.X.X.X.X.X.X.G 5 - - g X.X.X.X.X.X...X.X.X.X.X.X.X.X.X.X.X...X.X.X...X.X.X...V g - - = * 9 =.6.0.f.f.a.0.6.0.f.f.8.u * = ^ ",
"e.0.0.i.i.i.i.0.0.e.i.f.~ * * w G X.X.X.X.X.X.X.X.X.V B B A X.X.X.X.X.X.X.X.X.X.X.X.X.X.X.X.X.X.X.X.X.X.X.X.X.X...F A V s * = > j _ 0.f.i.p.e.0.w.i.| I , r | ;.",
"f.f.f.e.0.0.e.f.f.f.0.0.W * * w ..X.X.X.X.X.X.X.X.X.X.X.X.X.X.X.X.X.X.X.X.X.X.X.X.X.X.X.X.X.X.X.X.X.X.X.o...o...X.X.o.o.V 3 ; * * j <.2.0.0.f.f.f.e.Q & * j y.i.",
"i.f.f.e.6.6.e.f.f.s.0.8.W * * w G X.X.X.X.X.X.X.X.X.X.X.X.X.X.X.X.X.X.X.X.X.X.X.X.X.X.X.X.X.X.X.X.X.X.X.X.X.X.X.X.X.X.X...F e * = > 0 ] 0.0.f.f.f.e.^ * & i e.i.",
"i.f.f.i.0.0.e.f.f.f.0.0.W * * w ..X.X.X.X.X.X.X.X.X.X.X.X.X.X.X.X.X.X.X.X.X.X.X.X.X.X.X.X.X.X.X.X.X.X.X.X.X.X.X.X.X.X.X...X.x e ; = * ` e.0.6.$.@. .L - L _ e.i.",
"0.0.0.e.f.f.e.0.7.w.s.f.^ * * w G X.X.X.X.X.X.X.X.X.X.X.X.X.X.X.X.X.X.X.X.X.X.X.X.X.X.X.X.X.X.X.X.X.X.X.X.X.X.X.X.X.X.X.X.X.X.F 3 * * ] f.f.=.< = - * 1 =.0.0.i.",
"e.6.0.r.f.f.i.0.1./ ^ ^ r * * w ..X.X.X.X.X.X.X.X.X.X.X.X.X.X.X.X.X.X.X.X.X.X.X.X.X.X.X.X.X.X.X.X.X.X.X.X.X.X.X.X.X.X.X.X.X.X.F 5 - * i ^ ^ I = * * R O.2.0.0.e.",
"w.6.0.e.f.f.s.3.*.9 * * = ; ; p ..X.X.X.X.X.X.X.X.X.X.X.X.X...X.X.X.X.X.X.X.X.X.X.X.X.X.X.X.X.X.X.X.X.X.X.X.X.X.X.X.X.X.X.X.X.G p 2 = * * * * * > 9 | f.e.0.0.e.",
"i.f.i.t.8.e.e./ 0 - = = h S S D X.X...X.X.X.X.X.X.X.X.X.X.X.X.X.X.X.X.X.X.X.X.X.X.X.X.X.X.X.X.X.X.X.X.X.X.X.X.X.X.X.X.X.X.X.....D c - = = * * * W ;.1.e.i.i.f.e.",
"i.f.f.e.8.:.%.i * = , 5 V H A Z V F X.X.X.X.X.X.X.X.X.X.X.X.X.X.X.X.X.X.X.X.X.X...o...o.X.X.X.X.X.X.X.X.X.X.X.X.X.X.X.X.X.X...X.o.V = = = y L j { e.0.6.i.f.f.i.",
"i.f.f.t.w./ - - = * p G H G 5 = > h o.....X.X.X.X.X.X.X.X.X.X.X.X.X.X.X.X.X.X.X.o...o...X.X.X.X.X.X.X.X.X.X.X.X.X.X.X.X.X.X.X.X.o.V = = , %.i.y.s.0.0.6.e.f.f.e.",
"e.e.e.1.| k * = ; p c H A x 2 * * e B ..X.X.X.X.X.X.X.X.X.X.X.X.X.X.X.X.X.X.X.X.X.X.X.o...X.X.X.X.X.X.X.X.X.X.X.X.X.X.X.X.X.X.X.X.C 4 ; , =.r.e.e.i.i.r.e.e.e.i.",
"w.0.0.+.- - - * 3 G H H s = = = = > > V X.X.X.X.X.X.X.X.X.X.X.X.X.X.X.X.X.X.X.X.X.X.X.X.X.X.X.X.X.X.X.X.X.X.X.X.X.X.X.X.X.X.X.X.X.S f 4 , ;.w.0.0.d.f.f.e.0.0.e.",
"0.6.w.@.- * - f B H C a 3 ; n M m 7 = w f ..X.X.X.X.X.X.X.X.X.X.X.X.X.X.X.X.X.X.X.X.X.X.X.X.X.X.X.X.X.X.X.X.X.X.X.X.X.X.X.X.X.X.X.G Z a - P ) 3.6.f.f.f.e.0.0.e.",
"i.e.3.| - ; 2 C o.H B - & 2 J K K n * * , A X.X.X.X.X.X.X.X.X.X.X.X.X.X.X.X.X.X.X.X.X.X.X.X.X.X.X.X.X.X.X.X.X.X.X.X.X.X.X.X.X.X.X.X.X.g * * y 6.e.e.y.e.e.e.i.e.",
"a.6.P 0 * h S ..X.o.b = = 2 J K K n & - , D X.X.X.X.X.X.X.X.X.X.X.X.X.X.X.X.X.X.X.X.X.X.X.X.X.X.X.X.X.X.X.X.X.X.X.X.X.X.X.X.X.X.X.X.X.g * * i w.f.0.0.6.i.f.f.e.",
"s.4.0 * * x o...H o.b = = ; m N N 8 * = 2 S X.X.X.X.X.X.X.X.X.X.X.X.X.X.X.X.X.X.X.X.X.X.X.X.X.X.X.X.X.X.X.X.X.X.X.X.X.X...X.X.X.X.X.X.g * * i w.f.0.0.0.i.f.f.i.",
"i.3.q * * x X.X.X.X.b = = ; - - - = = * : S X.X.X.X.X.X.X.X.X.X.X.X.X.X.X.X.X.X.X.X.X.X.X.X.X.X.X.X.X.X.X.X.X.X.X.X.X.X.X.X.X.X.X.X.X.g * * u 7.i.e.0.e.i.i.i.i.",
"[ W 1 3 h A X.X.X.X.S z 5 & * = * = - s c G X.X.X.X.X.X.X.X.X.X.X.X.X.X.X.X.X.X.X.X...X.X.X.X.X.X.X.X.X.X.X.X.X.X.X.X.X.X.X.X.X.X.X.X.g * * y 1.0.f.f.f.0.0.0.e.",
"j & = e ..H o.X.X...X.o.f > ; ; - ; : Z o.X.H o.X.X.X.X.X.X.X.X.X.X.X.X.X.X.X.X.X.X.X.X.X.X.X.X.X.X.X.X.X.X.X.X.X.X.X.X.X.X.X.X.X.....f * > i 2.0.f.f.f.e.6.6.e.",
"j * = ; 9 V o.X.X.X.X.X.D Z Z Z Z Z A H X.X.X.X.X.X.X.X.X.X.X.X.X.X.X.X.X.X.X.X.X.X.X.X.X.X.X.X.X.X.X.X.X.X.X.X.X.X.X.X.X.X.X.X.X.Z 5 2 , { :.0.0.i.p.i.e.e.0.e.",
"~ t > = * x X.X.X.X.X.X.X.X.o.X.H o.o.o.H X.X.X.X.X.X.X.X.X.X.X.X.X.X.X.X.X.X.X.X.X.X.X.X.X.X.X.X.X.X.X.X.X.X.X.X.X.X.X.X.X.X.X.X.V = = , =.f.f.f.0.0.0.i.f.f.e.",
"w.<.0 & = x o.o.o.X.X.X.X.X.X.X.H H H o.o.X.X.X.X.X.X.X.X.X.X.X.X.X.X.X.X.X.X.X.X.X.X.X.X.X.X.X.X.X.X...X.X.X.X.X.X.X.X.X.X.X.X...B = * > &.f.f.f.w.6.6.i.f.f.i.",
"s.w.' I = e x x x Z F X.X.X.X.X.X.X.X...X.X.X.X.X.X.X.X.X.X.X.X.X.X.X.X.X.X.X.X.X.X.X.X.X.X.X.X.X.X.X.X.X.X.X.X.X.X...X.X.X.V x z a = i ( >.f.f.f.w.0.0.i.f.f.r.",
"e.8.e.@.> * * * > h V X.X.X.X.X.X.X.X.X.X.X.X.X.X.X.X.X.X.X.X.X.X.X.X.X.X.X.X.X.X.X.X.X.X.X.X.X.X.X.X.X.X.X.X.X.X.X.X.X.X.X.a * * = * ] f.i.0.0.0.i.f.f.e.0.0.e.",
"0.6.8.,.} j * * - 5 e d f s d d s V X.X.X.X.X.X.X...X.X.X...X.X.X.X.X.X.X.X.X...X.X.X.X.X.X.X.X.X...X.X.X.X.X.X...h s g f s 4 * * q ' :.f.f.0.6.0.i.f.f.e.0.6.e.",
"e.0.0.y.f._ , 1 , = * * * * * * * g G G G G G G G G G G G G G G G G G G G G G G G G G G G G G G ....F ..G G G G S 3 * * * * > 1 , Y 0.f.f.f.0.0.0.i.p.f.e.0.0.e.",
"i.f.f.e.0.<.=.>.%.9 * * * & * * * , 4 4 4 4 4 4 4 4 4 4 4 4 4 4 5 4 4 4 4 4 5 4 4 4 4 4 5 4 5 4 4 4 4 4 4 4 4 4 4 = * * * * _ =.>.<.i.w.0.e.i.i.p.e.w.0.i.f.i.i.",
"i.f.f.e.6.0.e.f.6.Y i i i j j j i 0 * = * = * = = * * = * * * * # @ @ # $ # # @ + . + # & % # # % + # * * * * * - u L i i u @.t.f.f.i.0.0.0.f.f.f.0.6.6.t.f.f.i.",
"i.f.f.e.0.0.e.f.f.q.2.2.3.e.e.e.6./ * * * * * * * * = * = * = % . . X . O o @   X o X   # O o   . . . % * * * * < ;.y.y.8.2.6.w.f.f.i.8.8.0.f.f.f.0.0.6.i.f.f.e.",
"e.e.e.i.i.e.e.e.e.y.i.i.e.i.i.e.t.#.~ ~ Q W ^ ^ ^ ^ W W ~ ^ ^ ~ l T T E ! ! W T E ! W W W E E E Q Q Q Q Q Q ^ ^ ( <.y.y.y.i.i.t.e.e.e.i.i.e.e.e.e.i.i.i.e.e.e.i."
};
