/* XPM */
static char *YnVzaF9yb29mMQ__[] = {
/* columns rows colors chars-per-pixel */
"81 80 256 2 ",
"   c #170B03",
".  c #141504",
"X  c #291C17",
"o  c #331C16",
"O  c #2A1607",
"+  c #292618",
"@  c #38281A",
"#  c #362F17",
"$  c #362925",
"%  c #3B3628",
"&  c #2F332C",
"*  c #2A2D27",
"=  c #513619",
"-  c #44342D",
";  c #49372D",
":  c #4C3B2C",
">  c #483927",
",  c #533D25",
"<  c #533D2B",
"1  c #593E29",
"2  c #453532",
"3  c #473A33",
"4  c #4C3C33",
"5  c #4A3839",
"6  c #523E34",
"7  c #563F35",
"8  c #422C2D",
"9  c #431A18",
"0  c #2A462D",
"q  c #2C4934",
"w  c #2B5638",
"e  c #345837",
"r  c #324E34",
"t  c #2C6C3B",
"y  c #386638",
"u  c #2D753B",
"i  c #34793D",
"p  c #32692C",
"a  c #47432D",
"s  c #55422C",
"d  c #5B442D",
"f  c #5A462A",
"g  c #4C4439",
"h  c #554333",
"j  c #5A4633",
"k  c #5B4934",
"l  c #53433D",
"z  c #5A463A",
"x  c #5C4A3A",
"c  c #564937",
"v  c #5C533A",
"b  c #455335",
"n  c #61462D",
"m  c #62492E",
"M  c #6A4B2E",
"N  c #624632",
"B  c #644B33",
"V  c #694E35",
"C  c #634C3C",
"Z  c #6B4E39",
"A  c #634739",
"S  c #6B5136",
"D  c #66523A",
"F  c #6D543B",
"G  c #6D593D",
"H  c #645438",
"J  c #71563D",
"K  c #73593E",
"L  c #7A5D3E",
"P  c #745536",
"I  c #704F34",
"U  c #436D3C",
"Y  c #5E522D",
"T  c #3E3341",
"R  c #533F4A",
"E  c #2B5D44",
"W  c #355B46",
"Q  c #37534A",
"!  c #2D6B44",
"~  c #2C6746",
"^  c #336C44",
"/  c #34634C",
"(  c #346C4C",
")  c #3B6C4C",
"_  c #366544",
"`  c #2C7645",
"'  c #337344",
"]  c #34734B",
"[  c #3A744B",
"{  c #357C4C",
"}  c #3B7C4C",
"|  c #377A44",
" . c #3C6C53",
".. c #386A55",
"X. c #347453",
"o. c #3B7454",
"O. c #3B7B53",
"+. c #397859",
"@. c #2E7152",
"#. c #3C7462",
"$. c #544542",
"%. c #554945",
"&. c #5A4A45",
"*. c #5B4C49",
"=. c #584747",
"-. c #5A5349",
";. c #524D4E",
":. c #624D46",
">. c #685846",
",. c #725640",
"<. c #745A42",
"1. c #7A5E43",
"2. c #765E49",
"3. c #655555",
"4. c #695756",
"5. c #665954",
"6. c #695B55",
"7. c #675758",
"8. c #6B5B5B",
"9. c #675859",
"0. c #735E5B",
"q. c #42784B",
"w. c #436B56",
"e. c #437553",
"r. c #427C54",
"t. c #427C5A",
"y. c #45755A",
"u. c #4C6F4F",
"i. c #7C6245",
"p. c #7C644A",
"a. c #786448",
"s. c #6E615C",
"d. c #696455",
"f. c #72635E",
"g. c #796857",
"h. c #6F6C50",
"j. c #6E5D61",
"k. c #735D62",
"l. c #447A63",
"z. c #466E63",
"x. c #6E6361",
"c. c #736363",
"v. c #7B6B65",
"b. c #7A6A69",
"n. c #766863",
"m. c #767A6D",
"M. c #81654A",
"N. c #856B4D",
"B. c #896C4E",
"V. c #846546",
"C. c #89714E",
"Z. c #856C53",
"A. c #8A6E52",
"S. c #846D5A",
"D. c #896959",
"F. c #867254",
"G. c #8C7254",
"H. c #85725B",
"J. c #8C745B",
"K. c #8C795C",
"L. c #837B57",
"P. c #927456",
"I. c #91765A",
"U. c #947A5C",
"Y. c #97785A",
"T. c #966E51",
"R. c #836C65",
"E. c #857364",
"W. c #8B7563",
"Q. c #8C7964",
"!. c #88766B",
"~. c #917662",
"^. c #937B63",
"/. c #977D66",
"(. c #847A75",
"). c #805F4E",
"_. c #38893B",
"`. c #39943D",
"'. c #2B8738",
"]. c #3BAC3C",
"[. c #45923C",
"{. c #52A53D",
"}. c #52B23A",
"|. c #65B63D",
" X c #69C63B",
".X c #6FCD39",
"XX c #3B8344",
"oX c #34824A",
"OX c #3B834C",
"+X c #3B8B4C",
"@X c #398945",
"#X c #3C9649",
"$X c #3D8354",
"%X c #3D8B53",
"&X c #3C835B",
"*X c #3B895B",
"=X c #3E9556",
"-X c #278352",
";X c #3EA645",
":X c #3CAD51",
">X c #3C8462",
",X c #43834D",
"<X c #448C4B",
"1X c #458946",
"2X c #4B934C",
"3X c #439B4C",
"4X c #469848",
"5X c #53974A",
"6X c #438354",
"7X c #438C55",
"8X c #42845A",
"9X c #438B5B",
"0X c #498759",
"qX c #449454",
"wX c #4B9454",
"eX c #449B53",
"rX c #4B9C53",
"tX c #44925C",
"yX c #49985A",
"uX c #549A57",
"iX c #558A58",
"pX c #45A34B",
"aX c #4AA34C",
"sX c #4BAB4C",
"dX c #46A846",
"fX c #57A94A",
"gX c #4AB249",
"hX c #58B747",
"jX c #4BA553",
"kX c #4CAB53",
"lX c #49A757",
"zX c #55A857",
"xX c #4CB255",
"cX c #54B356",
"vX c #66B94A",
"bX c #67B756",
"nX c #64AC50",
"mX c #468662",
"MX c #4A9762",
"NX c #549A63",
"BX c #588663",
"VX c #6B8C73",
"CX c #55A564",
"ZX c #4CA864",
"AX c #6AAF68",
"SX c #6A8B5C",
"DX c #6BC847",
"FX c #75CC47",
"GX c #76D348",
"HX c #6BC757",
"JX c #72D04F",
"KX c #65C455",
"LX c #978478",
"PX c #94846A",
"IX c #9E886C",
"UX c #9D9B8D",
/* pixels */
"q e 0 p r r 0 0 0 w p q q r b y * W Q 0 r y _ y p W r e w _ b r w r Q e 0 e Q e _ y y p U r q q _ y Q r e e U ;.0 r q q w _ y p e e r r w Q w q q 0 q 0 0 q q & e ",
"i +X@X<X6Xq.~ W 1X4X1XO.[ r.nXnX1X[ o.) XX4XaXaXuXmXq.,XzXjX[.=X$XBXt.7X7X} 0X6X3XeXjXuXiXr.) w.jX4X7XwX{ 6XbXfX1XO.O.' ,XwX2X5X,X+X+.q.dX4X`.O. .y.VXVXw.BXVXBXSX",
"`.`.`.@X| ~ E W @X#X`.eXoXoXfX XhX`.{ mX%XdXdX`.OX..( @.eXjXdXlX%X*X$XeXlX7X$XyX;XgXkX#X+X] ( ( rXxX;X#X6X$XbX.X}.4X&XoX3XdXpX#Xw.! ~ [ 1X& O & X + + * $ $ + $ & ",
"[.@X1Xi ~ W W / ] OX4XsX#Xi 5XFX XvX1X8X$XrX3X_.]  .) t.] qXpXsXeX` OX=XlXyX'.eXdXsXeXXX[ ( ) w.o.yXpXdXuXq.bX.XDXbXOX$X4X3X3X{ ..~ ] y.u -.g ;.;.r ;.;.;.;.%.;.;.",
"i t ^ _ W / / / E [ _.[.2Xi fX.X.XFX|.1XOXtX7XO.+.OX[.AXi oX@XdXzX` $XeXlXlX@X3X1XXXq.X...w.) ) [ { 3XsX4Xu bX XGX.XnX,X$X+XwXX.y.+.4XR X (.m.;.x.j.x.9.;.x.j.8.4.",
") ~ ( / Q ..( (  .X.oX[.tXO.iX|. X}.FX{.XX$X8X$X>X4XhXJXOXr.7XeX=XO.&XeXpXjXpX#Xr.] t. ..... .O.r.+.qXeXyX'.zXDX X XJX4X%XXXOX$X@XuX|.A $ ;.;.0.j.j.3.9.j.c.3.8.8.",
"r.t ( ( / ~ ~ OXO.{ r.4X$XO.[ 2XhX}.bXfXrX7X8X9XyXnXJXGX,X6XtXuX+X9X*XeXsXsXkXpX9X[ 8Xo. . .O.qXr.8XwXuXwX&Xo.nX}.}.bXjXqXoXOX<XuX+ & ;.;.=.$.;.c.x.x.b.9.s.8.c.j.",
"OXt [ e.../ ' wX,XXXuX|.[.,X .,XpXlXu qXwX&X$X0X|.FXGX.X<X3XfXHX+X8X8X3XsXsXpXxX7X| 9X6XO.[ ,XlX+X=XfXvX_.7X@.2XsXeX` rX<X&X8X1XhXh T R &.R $.0.9.x.x.9.x.x.8.x.8.",
"OX~ o.[ XX@X#X3Xq.6X5X X XwX[ ,XdXyX{ [ ^ +.+XHXbX XFXsX9X8XfXGXGX`.>XrXgXlX` aX9X} 8X7X%XeXjXaX7X<XbXFXHX%XX.wXlXZX] ] ) q.2XHXSXb 3 =.R 3.=.k.c.k.0.k.k.b.c.f.c.",
"( _ / o.@X#X3XpX| ( 5XFX.X{.6X^ @XjXeX} ) t.pXgXgXhXHX_.] [ zXGXJXxXNXoX`.CX] { O.( } 7XeX;XxXsX} q.nXGXDXkX' [ 1XpXlXX.( $XiXb r % 5 k.9.3.5.5.4.7.7.8.4.4.8.8.8.",
"_ / ~ OX4X3X;XpX$X~ q.{.FX}.,X( o.rXaXOX..r.zX;X].gXAX^  .) 2XfXDXgX7X>XoXzX| #.o.] ] eXxXgXxXsXO.o.<XvXGXgXoXX.1XgXpX....oXAX$ % 5 5 k.(.s.s.8.8.4.4.3.4.4.3.4.3.",
"e.) ' 3X4X;X[.pX+X[ [ | AXzX<X) t.2X4XoX] i fXdXgXpXwX .z...o.} uXsXwX+.{ NX) y.0X$XOXzXxX;XdXkX9X>X[ [.bXfX+X{ r.tXyX. X + % R.LX7 5 7.c.x.j.j.j.8.3.4.4.8.3.3.8.",
"XX| yXeX`.pXpXwX%X,Xe.( ` %XyXe.( +.X.o.&X*XtXzX3X<X} ) mXt...#.( rXNX8X] y. .0X%XyXCXlXdXgXjXlX$X*XO.q.u CXmXr.) [ u.b z &.z Q.(.8 2 9.(.!.j.k.*.3.4.4.3.3.9.8.4.",
"oX| qXoX_.rXqX| +.6Xr.6X( X.] ] u 8Xt.6X7X*X' [ O.o.) X.$X7XO.+.#.{ oXr.8X . .,X+XyXCX'.pXcXZX` BX7X9XO.+.#.w..   O O LX(.!.LXv.m.5 5 j.5.0.c.>.3.3.3.3.3.3.7.8.3.",
"{ O.[ t | wX} ! mXmXO.$X[ ( ^ wXvXHXJXJXHXzX| i (  . .o.%X%X%Xr...7XmX*XoXt O.7XtX$XO.' uX<X$X..0X7XBXm.LXVXm.G n.Y i.h.(.LXS.UXc.R 2 8.>.:.5.6.f.f.4.6.c.f.8.8.k.",
"[ t./ ( [ } ^ t.[ +.>XmX_ ) iXbXDX}..X.XDXAXt.#.9Xo.w.o.mX9XtX6X .%X$X&XqX2XMX+.$XmX+. .6XOXO.mX*X*XUX  9   # LXh.PXm.PXg.I.G.g.J.6 $ :.=.7 =.j.f.f.f.f.8.f.x.c.c.",
" .q...W ,X2X} t.o.] $X$X[ q.jXhXgXhXJXDX5X,Xr.8XqX8X) e.+.9X*X0X@.mXOX;XcXfXeX0Xo.0Xo. .5XiXUXv d.>.N.Z.1.2.Z.W.G.A.C.G.Q.K.H.W.!.3 5 g =.$.g j.c.c.c.c.c.c.n.c.c.",
"/ W _ _.fXnX7Xr.) o.X.t.] uXsXgX}.DXJXuXr.( O.X.eXtX| [ ( mXmX8X..) CXzXzXlX`  .y.^ | _.HXbXVX  @ O f K.~.D.p.S.A.Y.I.p.Z.K.Q.Q.E.: 5 %.%.=.*.9.c.8.8.j.f.j.k.j.j.",
"..~ 1XnXFXvX| 0X^ ( ( +.] yXlXsXcXjXOX .+...tXjXxXlX+X*X{ o.o.+.t.[ uXZXlX` X.#.X.o.x.$ : : 3.b.g.Z.G.G.G././.~.A.G.A.F.^./.K.S.v.: - 7.8.6.c.3.8.3.8.3.3.8.8.8.7.",
"..OXbXfXhXvXXX6XlX%X&X+.&X{ oX| oX+.o.( O.tXZXgXgX3X=XMXNX7X%XmX*X` OXoXoX$XX.w._.NXh.@ > o h.PXQ.K.U.G.V.D.G.I.G.G.G.G.G.F.S.E.E.4 - c.v.n.!.*.3.3.3.3.3.3.3.3.3.",
"O.`.gXdXgXfXoX9XpX#XeX7X9XO.6Xr.*X{ 6X6X7XpXdXxXgXqXt.O.CXgX=XMX8Xy.9X0XtXMX6 + o $ D.R.!.W.W.p.F.N.C.I.I.I.I.Y.U.U.G.P F g.Q.Q.E.h 2 n.6.6.E.-.9.3.3.3.3.9.3.9.8.",
"i aXsXpX4X6XmX| jXjXaX4X%X9X9X9XeX7X7X$X3XcXgXgXaX6Xw.] xXgX;XqX*XMX*XmX9X6X4 8 :.% D.).S.IXC.p.I.G.C.V.F.U.A.i.i.i.i.K L K.PXW.E.4 2 x.s.f.b.5.8.8.8.3.3.3.3.8.3.",
"@XaXpXrX7X/ ..| wXjXdXpX=X&X*XeXpXMX8XCXxXdXgXsX8Xo.w.o.yXxXxXcX=X%X. o X O K.LXE.LXW.PXJ.V.T.T.I.G.C.K./.~.M.1.B V i.G.G.K.W.Q.Q.h 2 s.f.g.n.7.7.7.3.3.3.9.9.8.3.",
"7X4XpX{ ^ )  .t.X.@XgXsXCX} $X3XsXjX'.eXxXxXCXO.o.X.+.X.' lXkXsXcXwXa k a < H.S.I.~.p.T.J.Y.T.Y.G.N.C.p.p.i.<.M.p.K L B.K.K.K.E.E.4 2 3.3.7.5.4.8.7.8.8.8.8.8.8.8.",
"` <XOX6X&X6X1XbXwXu +XlXlXXXoXyXkX}.kX7X[ -Xu.o.X.w.+.o.w.[   X O O C g.a.H K.~.Z.A.A.T.J.T.T.T.G.K.a.m d F 2.D.Y.P.G.C.PXI.K.K.!.4 ; =.7 :.z 8.b.c.c.c.c.c.c.c.c.",
"@XOX7XO.,XrXvXGXiX6X$XpXwX,X6XwX:XgXxXlX<XO.,X+.+.+.-.d.f.S.-.:.x h D >.D N F.I.G.I.I.Y.Y.B.L V.K L p.N.F.Z.D.D.P.G.C.C.C.I.Q.E.E.4 2 =.4 =.l f.n.c.c.c.c.c.c.c.j.",
"NX$X$X%XzXhXFX.XNXBXtXcX#X&X>XlXgXgXkX:X5Xo.mXl.e.e.o & + @ d.&.2.h.2.,.<.G Z.I.I.A.A.T.Y.T.V.P S M i.K.I.G.I.I.P.C.C.G.I.~.Q.Q.E.g 5 -.$.&.&.5.c.k.c.x.j.k.x.c.j.",
",X$X$XwXfXJXGX X4X,XzXDXgXmX>XeXxXxX:X:XrXX.g b % -.h >.k c i.N 2.D A d G K N.G.I.I.V.M M P V.T.C.N.G.G.Z.A.G.J.Y.T.C.G.G.I.Q.!.E.4 5 8.7.s.5.5.7.8.7.7.8.7.7.8.7.",
"' ( $XcXvX|.JXzX=X7XfXGXGXnX8XuXkXkX@XrXwX+.O # % > >.G G h.I ,.<.G 2.<.1.K A.A.D.Z.M.J M P V.P.G.U.G.G.P.U.P.J.I.P.C.G.G.J.Q.!.E.4 3 n.c.v.c.3.3.3.3.3.3.3.3.3.7.",
"^ X.lX}.}.hXHXu ! ] 5XJXGXzXlX'.1XlX  9 + $.v >.>.v d.v G v Y >.Z C <.,.Z d K 1.J G 1.I.Y.P.P.G.G.G.N.B./.^.A.J.P.P.G.G.J.U.Q.W.Q.4 2 c.8.f.c.4.3.3.3.3.3.7.3.3.9.",
") ( eX{.:XsXzX( +...t.aXgXzXqX&X` ZX# s > h a.v J 2.Z G K f 1.K ,.C Z F 1.J 1.J K P V.P.G.N.N.G.I.G.G.A.I.D.Z.Z.P.P.G.G.I.~.Q.!.W.6 2 c.7.s.b.*.3.3.3.3.3.7.7.3.5.",
"^ #.lX].:XjX_.w.} y...) iXSX  $ o a p.G 2.v P >.>.H D v J H i.B >.F N , 1 d M.~.Y.P.P.G.G.J.PXG.Z.G.U.U.D.G.^.U.B.B.G.G.I.~.W.R.S.; - b.c.v.!.*.3.3.3.3.3.3.3.3.3.",
" .%XwX7XNX+X` w.8Xy.UXUXUX3.: : s j G G H G 1.G S G G G K G m k V S Z B J Z Z.A.B.B.G.G.G.G.J.I.F.F.C.G.N.D.G.I.A.P.B.V.N.Z.H.H.!.; 5 &.5.5.*.c.8.8.8.c.j.j.s.8.0.",
"@X`.t o.~ e./  .BXr .   o ; >.C k H <.>.S G G S F G G G K G f f m V F Z <.F Z.P.A.A.I.I.G.G.G.B.N.C.L.P.G.I.G.U.I.U.B.I F Z.^.Q.!.; 2 %.%.z l f.s.8.s.k.k.j.j.x.j.",
"JXAXq.~  .UXm.m.f.>.; x z > k > d V <.<.G H G G G G H m H H H B V F J F <.J A.P.I.G.G.G.N.Z.G.G.G.P.N.C.I.^.M.1.L L L i.N.S.W.Q.!.3 - l $.g l f.c.c.c.c.c.x.c.k.b.",
"vXnXO.mX .*   + O : < D k k H 1 d d G G P S K F G F m d f S F K F J K F K F A.I.I.J.G.G.A.B.B.N.F.G.G.G.I.A.2.<.I V L P.PXK.S.Q.!.4 - &.%.%.&.8.x.c.j.j.c.j.j.c.8.",
"5Xq. .% a l -.7 c >.k f , k S m N H K K F H V m V V H S V F F F J J Z V J Z Z.P.G.A.G.G.G.P.P.G.K.U.N.K K K 1.M.G.G.N.G.G.J.Q.Q.E.4 ; 7.7.8.4.6.8.7.7.8.7.7.7.8.8.",
"_ ( -X% % a b z a h v k d n , d m S F F F S B d d V G K J G G F Z F F Z J J A.P.G.G.A.G.G.G.G.B.G.N.L S S J M.D.I.Y.G.N.N.J.Q.Q.E.h 2 s.f.b.f.6.7.3.3.3.3.3.3.3.3.",
"w.q.oX# % c a F h f k f n Z N k f m d m m S F S S S F K G F K K S J J Z K J A.I.I.G.G.I.G.N.1.V M P F.K.G.N.I.~.N.N.C.G.P.Q.Q.Q.E.g 2 c.c.c.f.4.4.3.3.3.9.3.9.9.3.",
"..,XkX> $ x b c f s f f B 1 1 N f m n f n H F J <.F G <.F Z G G F J J Z J V Z.A.G.B.N.A.A.A.V.K K P N.J.I.D.I.J.A.C.G.G.F.K.W.E.!.h - n.c.s.f.6.3.3.3.3.9.3.9.9.9.",
"1XpX;X2 $ l c h 7 A Z A N 1 1 , = N F P F J K F ,.F F G G K K F J Z V J J Z G.G./.U.M.V f M 1.G.PXG.F.C.Z.G.J.J.P.G.G.G.G.W.W.H.E.4 g x.x.n.6.8.3.3.*.3.3.9.3.3.3.",
"eXkX;X5 $ $.x :.z 7 7 1 1 7 7 1 < N F F F G K F K F G F F F G K J J Z J J V M.V.1.i.1.L i.M.B.G.C.G.G.G.G.J.G.S.P.P.C.G.G.^.^.Q.E.4 2 3.3.7.3.6.8.8.8.7.8.8.8.8.j.",
"3XlX;X3 $ l x :.7 1 , , 7 j j 7 j V F F F J G S K G G G F F F F J J J K J n 1.F I K i.N.I.U.P.A.C.C.G.G.G.K.J.J.P.G.C.C.G.J.!.Q.W.4 2 *.l &.*.8.c.c.c.k.j.s.j.c.c.",
"rXyXpX5 & 7 4 z < 1 7 7 7 N z :.j F G F F G F S K F J K G F G G J J Z V V N i.V.M.N.D.G.G.G.G.G.G.F.G.C.D.A.J.J.G.C.B.G.I.J.R.W.W.6 2 &.g $.*.8.n.c.c.c.c.c.c.c.b.",
"' ^ [ 8 $ 6 < h > f d N j z z z h B G F F G F F K F F G G F K F Z I N n 1 M A.I.U.I.I.D.B.N.A.G.P.P.P.G.G.J.D.G.G.G.C.G.G.K.E.R.H.3 2 *.&.&.*.8.j.j.8.x.k.c.c.c.c.",
"0Xo.r.5 * 7 h s 1 d j d k x z h s H P G F G F F G F F K F H V d n N B Z V B A.I.J.G.J.A.P.G.G.G.G.F.F.F.D.J.J.I.Y.I.C.K <.Z.W.W.E.; 4 8.4.8.3.0.8.9.3.7.8.8.7.8.3.",
"yX( 6X5 + z z s d k j d j C x z k C P G F G F H G H F G S V m d n V Z <.J Z B.G.G.A.A.G.I.G.G.G.C.B.N.G.J.J.J.G.B.N.i.P K A.~.Q.Q.a g s.c.b.8.c.7.3.3.3.3.3.3.3.7.",
"eX! OXh + A C j d N N j d k x c j B H F K K G F F V B m m m F F J I Z J I Z D.I.I.J.G.G.G.A.G.G.G.G.P.K.I.G.i.K P P 1.V.K.W.!./.E.; 2 5.s.c.8.8.3.7.7.7.3.9.3.9.8.",
"9X[ +.% @ z z k d j j c c k z x f V G ,.F ,.J V F S N n d n S J <.<.I J V V A.G.G.A.G.J.A.T.G.P.B.G.N.G.B.N.1.<.,.K L C.L.PXI.U.!.6 - c.c.k.c.4.7.7.7.5.3.3.3.3.7.",
"o._ ] - @ h v N n k j j h j k k k V ,.<.F V n f n V S J <.J J J ,.,.J J J J I.P.I.A.Z.A.I.Y.I.G.P.G.i.S m J p.A.G.G.P.C.C.K.W.K.E.4 ; f.c.c.f.8.7.7.3.3.3.9.9.3.9.",
"+.( ( % @ k B n d k k h h k c k j m V F N N V V N S F K K J J J Z J J K K I A.A.P.I.I.P.A.Z.V.V.C.N.V.K K 1.p.A.J.G.G.C.F.H.J.W.E.: ; 5.4.3.3.f.8.8.4.7.8.9.8.8.4.",
"8Xr.8Xa @ j j N d d j j z k c d d d d N N F K K K J F F F V F F ,.J S J J S Z.B.G.A.A.I.Y.I.).I M M K G./.~.J.I.G.D.C.C.P.~.^.W.W.6 - $.&.%.l f.c.c.c.c.c.c.c.k.c.",
"OX,XNXa @ s j B d j k z x h < : s k S Z V F J V J G J F F J G J ,.,.I ,.J J A.Z.^.G.V.<.L 1.V.V.i.L i.G.U.I.S.J.I.G.G.G.K.^.Q.W.E.6 - $.$.$.l f.b.c.c.n.n.c.n.b.b.",
"XXOXwX0 # c k A d s h k z s > s , V <.J V F K F J F F K K K J J J J Z J ,.I A.D.T.J.M.I f M 1.P.PXU.I.G.A.Z.A.J.G.G.C.T.A.H.Q.Q.E.6 - &.&.$.=.d.c.x.8.8.j.k.c.c.j.",
"O.6X] % @ x k 1 d < a h h s f k < V ,.J V J <.K J J F F G J F F Z J Z J J Z M.1.<.<.i.B.B.B.C.P.B.B.G.G.A.J.U.U.G.G.A.A.G.~.^./.!.h - 3.3.3.4.7.8.3.3.3.9.7.8.8.8.",
"( mX~ 5 @ < k N j d s : s j k B B Z G F F J F V J J F J J J F F J ,.I <.J N <.Z I F i.G.I.P.P.P.P.C.A.P.I.J.D.A.I.G.A.A.~.~.~.H.R.: - c.b.b.v.3.3.3.9.7.9.3.3.3.9.",
"W #.! 5 # : = s , s k z z k k s k V F J J J J J F J J J J F G J J J n 1 d m N.A.I.P.G.G.G.P.P.P.G.P.G.B.G.U.J.S.A.G.C.C.PXG.K.E.E.: 3 n.6.f.c.5.3.8.3.3.3.3.9.3.3.",
") ( | 8 @ s < < , f c h k z k s d B F G J J J J F F G F V V V S Z F m N m m Z.A.J.G.G.G.G.P.B.B.B.B.G.G.I.I.J.A.G.A.N.i.C.G.W.S.E.; 3 f.8.g.f.5.3.3.3.3.3.8.7.3.3.",
"_ ' zX5 @ h N d d d c z k k j d d V F G Z Z F Z V F J K <.F V n n N V <.F S A.G.P.G.G.G.J.P.P.P.G.P.G.G.Z.Z.G.U.U.U.N.K L Z.E.W.Q.; 5 c.0.f.f.6.3.3.3.3.3.9.9.3.3.",
"| XXvX3 $ h N j f d j x z j c c d C ,.,.J Z J J F F F F F V V N n m S <.G S J.G.J.G.G.A.A.P.I.I.C.G.G.J.P.G.D.D.M.Z.i.i.i.D.W.!.E.; ; 4.3.5.4.8.8.8.8.9.8.8.8.7.7.",
"$X;XsX% $ c m d N j k k h k k k d V G ,.J J K K J V d 1 1 n S J G F F <.Z V J.I.G.G.G.G.G.C.C.C.V.C.C.I./.U.N.<.f M P F.U.PXQ.Q.W.; 2 *.$.%.&.7.c.c.c.c.8.c.k.c.c.",
"+X=X[.% @ j n n d k k x c k k k d V ,.,.J V V V V V N m V V G K F F Z ,.F S G.I.D.G.G.G.G.P.P.P.I.G.N.L K 1.2.1.i.i.p.G.U.U.H.W.W.4 2 =.$.$.$.7.c.c.c.c.c.c.c.c.c.",
"| &X@Xa @ k k f d j x k x k k h k V J Z V n d d n V K 1.1.<.J F V G V F K G G.G.G.G.G.A.G.P.P.P.P.G.V.G N V 2.G.PXU.I.G.A.Z.S.^.W.4 2 $.&.&.=.8.8.8.j.8.8.x.k.8.j.",
"q.( ' 5 @ x k k < j k k x x k z d N V V V V V S V V F F F Z F F <.1.F F <.<.G.Z.G.P.G.G.G.G.N.L P P 1.N.Z.Z.Z.G.G.G.G.N.I.J.Q.!.!.4 5 *.4.8.3.c.8.8.8.8.8.8.8.8.8.",
"&X| [.2 @ k f z d k j h x x j j s d N m n V Z J J K J J J J J F S F J S F J I.J.G.G.A.G.U.P.K M K F L G.^.K.H.F.G.A.Y.T.D.I.S.^.!.- 2 c.x.n.v.3.3.3.3.3.8.7.3.4.4.",
"| <XvXa 8 : v d d k j c x j < s 1 m Z Z V J J J <.J F F F F J J F J J F J F J.U.I.I.M.F V P i.C.C.C.B.G.F.L.H.K.J.D.Y.A.J.~.J.!.!.2 3 x.s.d.n.8.4.7.7.4.8.4.4.8.4.",
"4XcX{.% @ %.k V f d j s h s < s < B G ,.J K F F J J F F F F G J F J G F <.S p.Z.N.N.M.J S K N.G.I.P.P.P.F.F.L.H.P.B.P.B.Y.~.S.W.E.; 5 x.s.d.f.4.3.3.3.3.7.4.3.4.4.",
"[.aX{.% @ f k N s s : : h h k j s B ,.<.J J F V J J G J F J F F J J S V <.V K J J P i.I.P.G.G.C.C.C.G.A.K.K.H.J.G.).Y.N.P.D.D.H.E.; 6 x.n.f.c.4.7.3.3.8.3.3.4.4.7.",
"[.XXrX% @ s s j , f s : h x B k d V ,.,.F F F F J J F J J J F F J J V n F m <.<.1.K V.U.I.G.P.G.B.T.A.A.F.H.K.K.D.B.Y.B.I.S.D.H.E.2 3 3.s.6.6.4.8.8.8.8.8.8.8.8.0.",
"oX! qX% @ 6 f = > d k k h z k k f V ,.F Z J ,.J J J F F J J J F F G N 1 m m N.G.J.A.G.G.V.G.I.G.A.P.P.G.F.H.H.J.P.G.Y.T.Y.I.J.W.E.2 3 $.&.l -.4.c.f.c.c.0.0.k.0.c.",
"t E iX% $ ; x , > k B x x k j j d H F F J J <.,.J F F F F F F V N V V m m m A.U.U.I.I.G.B.G.J.B.B.G.P.I.K.H.F.K.T.I.A.V.).M.S.W.E.4 4 g %.4 &.8.v.n.b.b.c.c.b.b.b.",
"q...t ; @ k C V d j j c x z s j d V ,.,.J J J J F F G K K S V n n j F K L F B.P.D.N.G.G.G.B.G.G.P.G.A.A.G.K.J.H.P.P.V.I M I 2.A.E.3 5 g -.l &.4.n.8.n.c.8.0.k.0.c.",
"_.~ / - # j x n n j k z x c j k d C Z Z Z J J V F S N f d N S S Z J B A ,.B J.Z.G.G.G.G.I.I.G.G.U.T.B.A.F.H.Z.i.G F V.V.A.B.W.~.!.h 2 7.6.6.5.8.7.3.7.8.7.4.4.0.9.",
"XXw / ; # c k n d d z x x x j s N Z <.<.,.,.J J V S V n m S J K Z Z Z J <.Z U.P.I.I.A.N.B.A.N.G.G.B.P.Y.~.H.a.F F V V.B.I.J.W.R.W.4 2 8.n.n.s.8.3.7.7.3.3.k.0.4.9.",
"<XW W 2 @ c k N n j k x z c j d f N J ,.Z B N d N V V V V F <.<.J J Z J ,.V T.A.P.J.G.G.U.U.I.G.P.P.B.P D G a.F.Z.V.T.P.P.I.W.~.E.4 2 8.c.n.s.k.3.3.3.3.4.7.4.3.9.",
"} E ~ % @ h j B N j z x z k k k N D ,.J Z N N j m S F F F F J J J J J J K V Z.B.A.P.P.G.G.G.N.N.V.P.V.P H <.a.G.PXI.P.P.B.D.D.W.E.h 3 8.s.s.8.0.8.3.3.8.8.4.4.8.9.",
"~ w ~ - @ k k N d j k z x x c k B N V m n A Z ,.F F K K F J J F I S J J <.I G.G.G.J.G.G.G.G.M.L S S L G.^.H.g.G.P.B.B.P.A.~.W.W.E.3 2 s.b.f.8.8.3.3.3.3.4.3.3.4.3.",
"~ e ) % $ k N k n d k x x z j s s f N d n V ,.F J G F F F F J F S Z J J ,.J J.I.P.G.N.V.N.G.M.K P L i.C.Q.K.K.K.C.C.P.P.P.^.~.!.E.6 2 7.5.5.3.8.9.3.3.8.7.4.4.0.7.",
"W _ [ % @ j N B j j k c x h : , d B J J ,.<.<.F F F F S F F F J F Z F J F Z Z.D.G.G.N.S n M L Z.I.Y.Y.G.Z.H.K.K.T.C.Y.P.N.D.J.~.E.h 2 *.%.g *.8.x.j.8.c.v.c.n.n.8.",
"W _ ' - $ N d z d 1 7 h h s s s , B G Z N J <.J F F F J J J F J ,.J ,.,.Z Z M.Z.M.V.i.K 1.i.N.A.G.C.C.P.K.H.K.F.C.N.C.P.G.~.W.~.W.4 % =.l %.*.8.8.j.x.8.0.R.R.f.j."
};
