/* XPM */
static char *YnVzaF9mbG9vcg__[] = {
/* columns rows colors chars-per-pixel */
"81 80 256 2 ",
"   c #1A0801",
".  c #1C1406",
"X  c #110C09",
"o  c #241301",
"O  c #2C1C0B",
"+  c #291805",
"@  c #331C05",
"#  c #281B15",
"$  c #2C1508",
"%  c #2A230A",
"&  c #34230C",
"*  c #3B2608",
"=  c #2C2518",
"-  c #342413",
";  c #3C2B14",
":  c #352A1B",
">  c #3C2C1C",
",  c #362618",
"<  c #3D311D",
"1  c #393217",
"2  c #3F3105",
"3  c #3B2D23",
"4  c #372B27",
"5  c #3D3222",
"6  c #3C332B",
"7  c #363628",
"8  c #3E3433",
"9  c #393836",
"0  c #2C2D29",
"q  c #271F1E",
"w  c #462909",
"e  c #48320A",
"r  c #432C14",
"t  c #422E1B",
"y  c #4A2C15",
"u  c #43331D",
"i  c #483617",
"p  c #553818",
"a  c #523011",
"s  c #422D25",
"d  c #433424",
"f  c #4A3623",
"g  c #453925",
"h  c #4B3B25",
"j  c #43342B",
"k  c #463A2A",
"l  c #4C3D2C",
"z  c #4A3529",
"x  c #513E2B",
"c  c #543B24",
"v  c #433633",
"b  c #443A34",
"n  c #4D3C32",
"m  c #453B3A",
"M  c #4A3D3C",
"N  c #493633",
"B  c #513E31",
"V  c #593F30",
"C  c #633A1E",
"Z  c #335039",
"A  c #346B3B",
"S  c #37733B",
"D  c #2B7039",
"F  c #2D4520",
"G  c #54431C",
"H  c #64441C",
"J  c #4D412D",
"K  c #494426",
"L  c #53412D",
"P  c #5C442D",
"I  c #594727",
"U  c #4D4131",
"Y  c #4A443A",
"T  c #544231",
"R  c #5A4633",
"E  c #5C4934",
"W  c #5D4B3A",
"Q  c #57473B",
"!  c #58523A",
"~  c #4D5030",
"^  c #64482A",
"/  c #69532A",
"(  c #634B33",
")  c #694D36",
"_  c #634D3A",
"`  c #674B36",
"'  c #6B5235",
"]  c #65523B",
"[  c #6D533B",
"{  c #695736",
"}  c #71563D",
"|  c #775A37",
" . c #785A2B",
".. c #79643A",
"X. c #78642F",
"o. c #44733C",
"O. c #4C3E40",
"+. c #2B5A42",
"@. c #365A46",
"#. c #394F52",
"$. c #2C6848",
"%. c #366948",
"&. c #2D7546",
"*. c #3A734B",
"=. c #3B7B4C",
"-. c #367748",
";. c #396953",
":. c #3C7B53",
">. c #387453",
",. c #2F7556",
"<. c #3D7261",
"1. c #4B4544",
"2. c #534544",
"3. c #554B4A",
"4. c #594A46",
"5. c #5A5449",
"6. c #4A5658",
"7. c #595857",
"8. c #4B5150",
"9. c #685746",
"0. c #725740",
"q. c #745A43",
"w. c #785E46",
"e. c #645555",
"r. c #6B5B5A",
"t. c #675957",
"y. c #664F4C",
"u. c #437A48",
"i. c #457957",
"p. c #4D6851",
"a. c #796647",
"s. c #696259",
"d. c #796856",
"f. c #6E6C4D",
"g. c #4D5965",
"h. c #6D5C63",
"j. c #567072",
"k. c #756665",
"l. c #677678",
"z. c #6E6E6D",
"x. c #3D3A41",
"c. c #845B31",
"v. c #876739",
"b. c #946C3B",
"n. c #8E6E39",
"m. c #A3733F",
"M. c #876A46",
"N. c #936E48",
"B. c #8B7349",
"V. c #94734B",
"C. c #997749",
"Z. c #876C55",
"A. c #8B7454",
"S. c #9B7C53",
"D. c #957756",
"F. c #A47C4B",
"G. c #A47B55",
"H. c #8D7A65",
"J. c #8C5F40",
"K. c #3A8B3A",
"L. c #468F3E",
"P. c #53AE39",
"I. c #65CA36",
"U. c #3B8648",
"Y. c #3B8555",
"T. c #3A954B",
"R. c #3BAA4B",
"E. c #3B8063",
"W. c #448A4A",
"Q. c #459649",
"!. c #458857",
"~. c #489755",
"^. c #529452",
"/. c #48A548",
"(. c #51AA51",
"). c #68B352",
"_. c #4E8A68",
"`. c #6CA25A",
"'. c #70C84D",
"]. c #76CF63",
"[. c #9A8458",
"{. c #958550",
"}. c #A78759",
"|. c #B38C5B",
" X c #B9925E",
".X c #A78C54",
"XX c #978666",
"oX c #92886D",
"OX c #AC8D63",
"+X c #A68B68",
"@X c #B58D64",
"#X c #AC9264",
"$X c #AC936B",
"%X c #A8956A",
"&X c #B49364",
"*X c #BC9363",
"=X c #BC946B",
"-X c #B8986A",
";X c #A78E72",
":X c #AA9576",
">X c #BC9B74",
",X c #B59A77",
"<X c #BAA478",
"1X c #B9A56E",
"2X c #C39869",
"3X c #C39C74",
"4X c #C49876",
"5X c #C8A877",
"6X c #D0AE79",
"7X c #C3965F",
"8X c #587986",
"9X c #52798F",
"0X c #677C85",
"qX c #6F7C8A",
"wX c #827F88",
"eX c #578898",
"rX c #528C95",
"tX c #6A848A",
"yX c #678997",
"uX c #758A96",
"iX c #6E8E93",
"pX c #568CA7",
"aX c #5594A7",
"sX c #6796A6",
"dX c #6D95AC",
"fX c #66A5A8",
"gX c #73ADB6",
"hX c #59A7A7",
"jX c #76B0C4",
"kX c #B49B83",
"lX c #B9A586",
"zX c #B5AB96",
"xX c #8AABB7",
"cX c #8C98A1",
"vX c #CAB488",
"bX c #D7B888",
"nX c #CAB596",
"mX c #D5BB96",
"MX c #C7AA88",
"NX c #E3BC8F",
"BX c #CDB7A7",
"VX c #DAC28C",
"CX c #DAC497",
"ZX c #E7C896",
"AX c #EDCE95",
"SX c #DAC5A4",
"DX c #D9C8B6",
"FX c #E4CDA4",
"GX c #F1D7AC",
"HX c #FCE5B7",
"JX c #FAE7B1",
"KX c #8AB8C7",
"LX c #92B6CA",
"PX c #FFF1C9",
"IX c #F9F2E3",
"UX c #85C2C7",
/* pixels */
"k.H.k.k.H.h.h.2.O.3.4.6 4.4.V W P c ( ' q.q.' ' _ 0.` q.[ [ 0.` 0.0.} ` ^ ` V ` ( ) [ ] R T W _ x R _ W l h l T l l l l l l n n 5 5 < u f J J J k = 4.F F Z 9 F Z ",
"t.9.r.y.r.e.t.e.e.e.5.j l > , 9.E P P ' [ ' [ w.q.} w.0.} } 0.[ [ } } [ [ ) ) V t * & t x _ R l R R Q T T L B l B B n l l l l J k g g d d d d g 7 = 3.=.&.;.%.-.U.",
"r.4.e.y.e.t.t.k.k.k.t.N N , - B ] ) E q.w.` } [ } ) w.[ } } } } } [ [ 0.0.w.} ^ & + + & x _ W x R E R T L x l n B B n B l n U U k J J l g d 5 5 5 = ~ Y.&.Y.&.W.T.",
"r.e.t.e.e.e.e.h.r.k.s.z B B s - @ * @ ' a.[ w.) [ ` ) [ ) } } 0.0.[ ) ) 0.w.0.` f h c g ; & - - W _ _ W x z l x l l l l l l l U h l J J h h f k N = Y ~.K.U.A U.K.",
"e.r.e.r.e.e.t.s.h.k.r.s M y.B , o @ @ P } ) } [ w.[ ( 0.} [ [ } 0.[ [ [ 0.0.0.[ R W 9.R ; + + - L L x x x x l l l l l l l l l U U k h J U J l k B 4 ! T.T.W.-.=.D ",
"e.r.y.r.e.e.k.h.k.k.r.N B Q 4.V P ( P ) ^ c ) ) J.} ` } w.` 0.) [ [ } 0.0.0.0.[ R P P R R R R T - O O - f L T l B n T n T n n l U J l h J l l k 6 q ! U.K.Q.W.K.+.",
"e.r.e.t.r.h.h.e.k.t.y.N N V 4.[ P ( R ( ^ ^ ` ) 0.^ ) } 0.[ } ) ) } 0.[ 0.0.0.` ( P x R W _ R T & & O - d z h z B x T T J J l l U U h J l l l K F 4 Q U.R./.Q.U.D ",
"h.k.k.h.k.k.e.2.O.O.y.N M 4._ z V V ( ` 0.J.) ^ P V ^ ) ) J.} } 0.} [ ` ` 0.0.0.P R ( ( W R W _ W ] _ T d ; > d l n l n U b l U J U T L J h U U x 3 Q W.K.K.Q./.%.",
"k.r.h.h.k.k.h.2.3.4.4.n M 4.V V ( P I ' } [ ) } ` ) 0.` ^ ( ` ) [ } } [ [ 0.0.[ _ E _ W T R E R R R Q R h f z h d d j f z l n n l k l h J J l k k 4 4.W.Q.W.A !.&.",
"k.h.k.k.z.h.e.2.O.2.M j N 4.R y.] P P ' } } [ } [ [ 0.) ^ ^ ^ ` } } } [ 0.0.[ _ P x R R T R W E E R W R l h n l t s d d k l U J k k l J L J l n 5 4 Y -.U.W.D *.A ",
"e.t.e.e.r.r.h.e.t.h.e.N N 4.Q ` ( P P ' } | { } 0.0.0.) ` ` ` ` ^ ` ` ) 0.q.0.) ` ( E W W W E R E R W W T l T B j j d f k z d 5 l J T T h l k K k 6 4.*.U.!.%.>.$.",
"e.e.e.e.e.e.h.h.z.k.r.N N 3.V B ( P P ' } } [ } } [ [ [ 0.0.[ [ V ^ ^ ` [ 0.0.` P P R R W W R W W R E W L l B l B x l z z f 5 : l J J h l h l l g 4 3.%.:.i.%.-.%.",
"4.4.y.3.e.3.3.O.2.3.M q 4 4.4.R E P P ' 0.0.` 0.) ) [ [ } 0.} ) ` ) [ ` ^ ` ( ( ( _ ( R W R R W W R E R x h n h l n k l l l l d d 5 d d h n U U 5 = 2.>.>.p.$.=.>.",
"2.2.2.2.2.4.O.v 8 v s $ 4 O.2.` ( R E [ q.0.0.0.} } [ } 0.0.} [ } } } ) ` ( ( R P ( P x W Q B W R R Q W L l T l x l n l n U U l d 5 < u f h h h K 4 3.i.;.%.%.i.=.",
"3.y.3.2.2.3.3.O.x.M N # q N N V E I R [ q.0.0.0.0.J.} 0.} 0.0.} [ [ [ [ ) [ ) ( + & @ - T W T _ R R W W T l B B B B n l l n l l l k h k d d < 5 d = Q -.-.%.;.=.=.",
"O.2.4.2.2.2.O.8 m M N q , 4 z V R c P ) 0.} 0.` ` ) [ ) [ } } ' } } } } 0.q.0.` @ * @ , E _ B T R L E W B h x l l l l l l l U U l J J h g d 5 s s = 5.Y.!.i.i.&.=.",
"v N N z v N v 8 4 O.m X q 8 5 5 u ; u ] d.f.y.9.9.9.0.0.0.q.} ' ' | } } [ [ [ [ V W y.B # o $ $ R W ] E l l h J l J U k J l l n l T l L h l l z Q = 4.K.Q.(.!.;.*.",
"m M M N M M m 8 v 8 8 q 0 # = 6 ; 1 u L E T E 9.( 9.9.q.q.0.} } ' ' [ } } q.q.} V R _ V s > s > K f d g x L l f l n U l l l l l l l l J J l l l 3 # 8./.~.W.A ;.%.",
"v N v v v b v 4 v v 0 q q M k 1 ; ; u u ; ; d P d.0.q.q.9.( ( } | ) ' ' [ ' ' ] R V W R B R W B + o + & d l L l k k l U n l n U n J J l h l l n h 5 4./.!.>.A ;.;.",
"O.O.O.M 2.2.M v v x.8 q = 3 , u u u t r t u u d ( x x ` q.q.} w.} } } } q.[ } } ` V V ( W _ 9.E t u f u u u d g J l l l L B U l l T h l l l l n 7 = v K.i.;.>.%.>.",
"3.3.2.4.4.4.1.M 8 3.8 # = d ; h t t ; t u u u t r & r ( q.q.[ q.' [ } } [ [ [ [ ) P V R P R ` B _ ] ] E h < > u J l k l l l l l n l h h h l l J Q = 5.L.u.j.;.%.U.",
"2.2.2.2.2.2.1.O.8 O.v # = - % u t t u t t ; ; t d r t h h u g P } } 0.q.0.] ] ( ` V V ( V V ^ V R R L L h g d g 5 5 5 k l n T n l l L l U x n n k q h (.W.Y.!.:.~.",
"3.3.3.2.2.2.O.m 1.8 8 4 = o + ; u t d f s > t d d < > < ; ; d L q.[ ' 0.q.w.9.' ( V ^ ` ( ( ( ( W W R R T l f g < < > 5 h n l l l l J l L U B n J 8 j '.P.Q.U.=.T.",
"m m m v N m 8 4 8 m m   j zXlX+ + o + - u 3 t s < > < 5 g < 1 1 u t t x 9.w.q._ ^ c c ^ ^ ^ ( P L R W E L l h l l l k d z f 3 > l l L J L T U n J = U I.'.'.U.Y.~.",
"Y m N m m Y m 8 m 4 8 # 3 BXlXr ; . l + > l - 5 : : : 5 5 : : < f ; ; x ] 9.] ( ( ( E ( P ( P P E E W R n h h l U l l k k z j d l h l l l n J l Z 6 k '.I.'.).K.=.",
"8 v m v 8 m v 8 q 8 b $ O :XzX:XkXDXBX>       , d b : : 5 5 6 7 < > ; > t ; u u ] ( ( P E P P P P R P R T J n n J l l l l h l z > > > d z l l n j * g ).I.).'.L.Y.",
"m m 1.O.m m m 8 O.m 4 $ d ;XXX+XXXMXlXP c c u ; O d : : j : 5 4 d u < u > ; ; f L c x L E ( _ E R P R L T L T l l k U l l B n x d d s d f z j f N * c (././.P.L.U.",
"3.3.3.1.3.3.1.m m M 6 $ r A.| v.M.) q.Z.Z.H.Z.t     o + l N 3 4 3 > > 5 g d d < > ; > f L ( W W R E W L L l J h l l U l n B n l T n l l k f < > 6 : Z /.(./.D _.Y.",
"3.3.4.3.3.3.1.m v O.N O @ D.{.S.G.F.|.F.c.N.G.C P { Z.d O O $ j g 3 1 5 j 5 5 : > : > < f l n h R W W R L h l h L U n l l n l x l l l l k z f d j = 9 W./.Q.S <.%.",
"1.2.3.1.1.1.1.1.O.M z o * ,X5X-X2XMX4XG.G.N.G.G.M.+XMXP o   o $ d d d 5 < 5 5 5 7 5 5 : 3 3 5 > L E W L l h J J U U J n l x B n l h h l l l l l W = b :.Q./.Q.$.%.",
"m O.1.1.m 1.Y 9 4 v j + * $X-X*X7X|.|.G.7XG.G.|.}.OX>XA.D.H.H.B O O O - ; : 5 5 3 3 5 3 : 4 3 3 f z f l l n n l l l l l l l l l T n l l l l l B B - z ;.Y./.(.&.;.",
"v m 8 8 8 Y 9 4 v v 3 + I ,XOX&X=XG.7X2X7X7X2X2X-X-X,X>XMX;XMXw.o . o = > g d : : 7 6 7 4 5 6 6 > > > > g T l f k k l l z B l z l B l l l l l l g 9 6 ;.i.!.!.%.-.",
"N N v v b M b 8 6 l s + @ w ^ e p i p p G p p p p P p c y c y y u u t & + -   O k b : 7 7 9 = 0 9 5 3 : 5 d u f h h g h L U l B T n n B n n n B n , N *.%.=.,.S :.",
"O.Y N m b v 8 0 4 v d O @ I H a ^ ^ H p a p p a p p p a C c C C p G x p t * & & r & ; : > 6 U 7 : > j k d > > < h f g l n L l l l l l x B l B T Y 4 N S u.L.~.K.W.",
"3.3.3.3.3.3.8.1.x.M 8 # - :X:X:X*X*X*X&X2XbXVXbXVXZXbX3X2XOX2X4X>X,X@X,XmXmXFX,X  $     > k : : 5 5 5 5 5 5 > > d d 5 f U J U U J h l h l l l h h , l ).].'.'.'.'.",
"Y 1.Y Y Y 1.1.9 x.8 8 # # nX:X,X=X=X-X*X-X6X6X5X5X6X2X X2X2X4X4X=X3X3X3X3X3XMX:X* ^ I h r i * i < ; : : > 3 5 j 3 3 > 3 5 6 k l J h J J l h h h K j 8 (.P.I.'.'./.",
". . . . . . . . X . # $ - SXMXnXVXbXbXbXMX5X=X|.|.=X2X6XNXNXNXNXbXbXZXvXOX-X$X$X5XvXFXnX+   $   < u g f 5 > 3 5 j 6 3 3 5 5 5 7 g h l K h l K k h - k (.I.I.).(.u.",
"R L I R I R ! W 4.W B l c lX;X@X#X#X#X&XOX}.G.V.F.C.G.OX2XG.G.G.=X}.@X|.S.#XC..X{.{..X%Xe c P i * & + & > d 3 : 5 3 6 4 5 : : 1 1 d u g h J L J J 3 ~ /.P.).).A p.",
"D.V.B.B.M.B.Z.A.Z.Z.Z.N.J.S.v. .X.c.X.v.v.v.v...V.v.| c.J.c.c.c. .c.v.c. . . .n...| / ..A.[.A.M.+ o o + - t 5 5 3 4 3 5 5 3 1 1 1 < < 5 5 K K l 8 = 8 ~./.~.>.;.;.",
"S.N.N.B.B.V.S.S.OXOXG.+XG.G.|.F.V.C.C.M.B.}.OX}.G.}.}.@XG.G.G.m.C.N.v.b.&X.X|.{.&X}.$X[.{.M.N.M.( ..Z.q.f O O , 3 3 4 4 5 1 1 1 < 5 5 < 5 5 g d 1 = m D ,.&.$.*.Y.",
"|.C.C.F.b.b.C.|.@X@X@X=X2X=X|.F.b.F.F.b.F.F.7X7X7X2X2X2XG.G.m.J.G.c.J.G.@X2X=X=X=X2X4XOXD.D.N.G.Z.A.;XlX; X   # > 3 g 7 1 = ; ; d > : z 5 > - 3 q X 1 i.Y.Y._.i.^.",
"#X$X$X-X|.}. X1X>X>X=X>X>X>X=X@X|.2X*XG.|.7X7X2X7X2X|.4X7X7X*X7X2X X@X@X X2X*X=X*X=X=X=X@X@XG.4X-X+X%X,XXXoX:XoXf + % . = K < 1 4 3 3 , 3 v v 3 : X 7 ~.T.!.E.R./.",
"XX:X:X$X+X%X#X#X;X:X$X;X+X+X+X;X@X@X@X@X4X@XG.4X2XG.G.2X@X7X@X@X|.4X4X@X|. X.X&X|.*XOX@X@X@X>X>X+X+X>X:X%X:X,X:Xu + . . % 5 < u > > 3 > : j j 4 4 q Z ~.~.W.*.~.R.",
"i i i i e e 2 2 w r y w w w w w w w w w a a @ a a y w p a a w w a a w a w w w e a a w w a w w w a @ y a y i r & i i ; i &   o + u ; f u < > k 5 4 X = Q.(.~.U.(.~.",
"' K G I / I G / ) / [ } } { / { w.V V 0.) ^ ^ } ^ 0.0.q.q.[ [ [ J.V p ( ) / ! / I I / ^ ' ' ( ) [ | p a ^ ' I { p I / P K K & o u > u r t > d s q N f ~.R./.(.D %.",
"kX;XXX,XlX<X<X<XvXnXSXSXSXSXCXCXnX;XXX;X;XkXMXkXkXnXmXBXCXSXCXSXmX;XH.+X$X<X<X%X<X5XmXCXFXZXmXZXSXmXp a MXZX{.n.....A.A.XXBXZ.c $ $     +       # =.Y.(./.R./.~.:.",
"A.M.B.{.[.{.C.{.}.+X+X+X%X$X+X#X;XM.M.D.+XD.G.G.D.OXOX+X$XOXOX$X;XD.Z.V.[.[.[.[.{.[.%X&X&X@X+X+X$X-Xp w %X1X1X1X%X<X$X,X+X;X_ @ W q.9.q.w.W x 9.~ d.s.R.R./.(.R.-.",
"M.N.B.B.B.B.n.a.M.M.M.M.a.M.M.v.N.M.M.V.V.c.J.M.v.N.M.J.N.M.M.v.Z.Z.M.Z.V.M.B.A.a.Z.a.M.M.M.A.D.M.a.p a ....ZXJXFXPXCXPX<X^ ` t XXSXGXSXmXMX,XnXXX, M ~./.~.T./.-.",
"/ G I W ! ! ! ! ! ! y.R K ! ~ W R E E / ^ G K oX%X{ ^ H i H { / { P L I ^ R ~ U 5.4.4.T _ P C / B.a.T p <XVXbXbXvX5XNXZX5XCXA.& } [.D.[.S.G.A.D.Z.s n !.(.~.D _.=.",
"/ p r 1 4 4 0 0 6 q 6 # 1 5 0 0 6 = = 1 i i u A.nXI * a i r < 0 0 4 6 7 4 4 9 Z 4 0 7 N j p e e B.a.t u FXJXVX6X|.F.3X5XAXHXA.& { M...M.c.M.J.M.c.V U i.W.~.&.$.%.",
"/ G u 5 3.l.tXtXtXqX_.0Xl.j.tX9XiXl.l.Y l u 1 oXkXc w i ~ 4.j.tXeXyX8X8XtXj.j.j.tXtXj.h.Z c r w $X:XL @ CXJX{.1XbXGXbX|.vXHXXX. | [.v.v.V.G.D.MXD.t s *.~.~.A i.;.",
"X.I i 6 6.qXyXyXsXeXuX9XrXaXpXpXpX9XtX9 j h u oXzX[ c t 7 g.rXeXpXdXrXeXeXrXrXrXdXuX8X0X0 z d p <XXXi i CXGXVX.XAXGX2X@XbXJX%X% P Z.a.V.M.V.D.;XoXf y.i.$.:.&.Y.:.",
"G % 5 9 6.yXsXsXdXeX9XeXeXpXpXpXdX9XyX9 7 J % c e % f s 9 g.aXeXaXpX9XaXaXrXfXhXdXdXyX0X9 6 3 ; r & x i GXPX5X1X#X}.bX<XmXPXoX. a.,XlX,X:XvXXX1 2.!.!.:.i.;.@.i.U.",
"K 1 8 9 #.8X9XeXeXrXeXaXpXjXpXjXjX8XqXx.= K ; P ` r c x 8 g.eXpXpXaXpXpXrXrXfXhXdXeX8X8Xx.9 N d [ K x @ lXSXlXCXvX$XvXCXlXSXH.% a.XX+XA.[.+Xf.< y.>.Y.Y.,.;.*.Y.Y.",
"9.k Y Z #.yXeXdXdXgXgXxXKXLXKXKXjXuXcX4.> K h oXPXd.w w K h.yX9XcXdXdXxXxXKXLXKXLXxXuXqXx.0 j 6 $X,Xc f $ o GXJXHXHXFXPXA.  < l r * * p * + h f.p.Y.:.U.&.*.%.Y.i.",
"d.5 0 0 #.9X9XpX9X9X8X0XdXdXuXyX8Xl.t.j < g @ ;XMX_ r y j 5.j.z.qX0XqXqXiXiXtXiXuXuXl.qXx.4 b j :XnXy f Z.q.[.<X%XlX%XlXA.W 9.3 ^ M.| } a.B.f.f.d.Y.,.Y.(.~._.>.i.",
"H.y 5 8 x.g.g.#.g.#.#.#.g.8.8.6.g.8.4.u G e c B.;X' y y t 2.6.g.7.6.6.8.#.@.@.#.g.#.g.7.8 8 g I lXBXP * CXFX1 . O * &   ..SXd.+ M.4XMXNXZXZXoX+ x ,._.R.R.~.*.S %.",
" .i f j 1.l.l.uXsXsXuXuXiXgXiXiXpX8Xz.U i 2 t `.$X/ a p t 7.l.eXsXdXsXuXsXyXcXdX8X0X0Xh.8 j i i <X%Xr k kX%X1X%XXX1X:X<X%XH.r., ..5XvXbX5X,X:XZ.d.Q 9./.R.i.;.%.;.",
"H C f d 7.uXuXLXxXxXKXgXgXjXjXaXsX9XtX7 K I ; X.M.p w c s 8.yXdXKXjXKXgXgXUXfXgXiXdXtXz.7 N u e  .M.K l 9...FXJXJXHXHXPX%X{ _ O S.mXmXbX-X|.:XlXoX> n W.=.*.$.%.;.",
"H y r = 8.l.yXxXgXxXgXxXKXaXjXpXsXl.iX9 : G e {.<X^ i c j g.9XfXjXjXjXjXgXgXfXiXeXsX_.l.0 l e i D.d.K 1 zXFXCXVX5X$X<XmXVXFXA.*  .}.C.C.C.B.v.B.f.: U =.-.i.;.%.=.",
"| i K 9 8.0XiXKXgXgXgXgXgXrXhXaXsX9XyX0 = d r H.lXE % g 9 6.rXaXjXgXKXgXgXfX_.fXsXsXj.z.0 v > G ..d.l * FXHX1XVX X#X6X6XCXJXf.i / {.v.v.b.v.M.D.a.< Y :.:.i.Y.U.Q.",
"..; 7 7 #.0XuXxXUXLXxXgXaXhXgXfXKXyXtX9 Y K 7 H.lXE < J b g.tXgXLXLXLXgXfXrXhXfXLXxX0XqX9 5 ; c $XlX! = SXJX-X XAXGX5X{.VXPXXX% / D.v.v.| v.}.,XXXu j i.i.&.U.,.Q.",
"q.u d 7 8.uXtXcXzXcXcX_.tXiXhXfXxXtXl.1 1 = 7 `.:Xf.u < : 7.l.uXxXcXgXiXl.iXsXyXcXdXqXz.v N z p XXXXK % CXGX6X.X6XJXbX.XlXHXoX. H B.B.C.N.}.:XD.H.Q Y :.>.*.Y.:.Y.",
"& - Y 4 1.7.8.l.7.3.t.7.6.8.3.s.5.5.{ < I K 1 < : % u K ; y.e.1.r.T 5.t.s.7.6.7.g.g.7.7.v v f i 1 u & e JXGX5XCX#X,X1X1XGXPX{.% [.<X$X>X>XMXS.+ R Y.Y.;.%.$.i.:.*.",
"{ w y p P ] R 9.y.` V 4.( 9.9.9.Q ! ] u R d - w.d.c f ( z z 9.9._ W W W W 5.5.3.y.y.4.Q c c i a { ] L & :X<XCXVXvX-XbXCX<XlXd.= ] oXH.M.A.D.} I W !.D ;.6.*.:.:.:.",
"| r y a w w * ; , y w r @ w @ @ ; w e w w a p OXHX| @ @ w w * w * w a p w * * * w w w w w w e e :XlXu K ;   VXJXJXJXGXPXB.  u d - & @ * @ * a * c i.p.$.%.,.:.:.U.",
"D./ c.M.v.v.M.M.c.D.D.G.C.G.D.S.C.c.c.b.c.v.v. X6Xm.{..XF.F.b.F..Xb.c.c.n.b.v.b.b.b.m.m.m.m.m.m.lXzXi i {...1X1X-X X1X5XA.a.9.; f.oXXXXXD.| a.A.Z.5.5.%.*.:.>.-.(.",
"3XC.@X5X3X=X5X>XNXNXNXZXNXNXmXAX5X|.F.7X6X6X X2X X5XAXbXNXAX6XNXAX Xb.F. X6X6X7X6X6X6XAXNXNX6XAXVXCX! % DXGXn.X.v.H v.c.[.SXd.. D.SXCXCXvX>X,XMX;X> 5 =.&.:.=.T./.",
"{.c.v..XC.n.n.n.N.C.C.C.F.C.N.G.[.X.v.M.n.{..Xv.{.C.C.B.C.{.M.S.[.C.v.v.C.N.v.N.X.V.B.{.N.[.S.C.[.A.1 2 {.{.vXVXAXAXVXAX#Xa.] > ..{.{..Xb.C.[.v.a., z ~.U.=.=.^.U.",
"v. . .n.v.c.n.n.X.v.n. .v.v.b.b...B.B.| ..X...........M.B.....B.....B.D.v.a.M.B.M.v.M.M.v.c.X.n.X.X.G I {...AXAXAXJXAXJX1X .{ r  .v.c.v.v.v.X.M.f., W ~.Q.*.!.U.*.",
".X-X&X#X X|.#X#X&X-X&XV.V.N.N.c.v.-X$XOX<X#X#X1X-XOX}.S.C.S.B.v.M.[.OX+X+XOXOX$X$X$X%X.X{.n.C.{.B.B.G 2 VXAXVX6X X X5X6XVXGXD.& I v.v.X.C.C.M.MXH.= Y T.=.%.:.D $.",
"B.2X&X.X1X-X#X#X&X}.OXG.D.N.D.N.n.2X*X|.*X X.X-X2X|.2X.XC.F.b..Xv.{.&X&X@X-X>X&X@X=X*X&X.XC.C.C.v.A.K 2 VXJX5X6X6X.X6X6XAXJXB.& a...C.v.B.XXA.:XoXj 1.U.S @.$.Y.%.",
"5X4X4X4X2X3X2X4X4X4XlX>XkX4XkX4X3X2X*X7X2X2X2X2X2X2X X2X2X2X2X2X5X*X2X=X=X3X4X4X2X3X2X2X2X2X2X2X&X5X5 u CXJX5X{.AXJX5X{.VXHXB.% a.<X<X:XkXnXD.O I ~.,.i.&.A U.Q.A ",
"B.A.D.D.A.D.D.D.D.Z.H.D.D.D.G.G.n.C.S.S.V.V.C.{.V.C.C.G.C.V.C.N.B.C.S.D.D.S.V.V.N.D.N.D.V.D.V.G.[.H.L * zXPX.X%XVXAX6X.XvXPXoXO d.{.{.[.[.V.a.1.9.Y.A *.:.U.W.Q.&.",
"r * > ; ; ; - , w * @ y - * * * u * ; > 3 , & - , 3 , - - , t > = = 3 4 > > : = 4 , , + u - & & % % s - GXPXvXCX%XA.6XVX5XIXoX. , % % % ; * ~ 6.6.:.$.%.-.Y.W.W.A ",
"9.y.9.9.q.t.9.e.9.e.t.d.e.s.r.s.p.7.5.7.e.t.s.p.7.t.e.e.r.7.s.e.r.y.e.5.y.s.e.r.e.e.h.h.9.9.s.9.d._ z.4.oXXX<XSXzXMXnXVXkX;Xl.8.s.f.s.s.9.y.7.6.%.,.$.p.-.U.S W.%.",
"@.@.%.-.u.W.u.i.;.;.;.>.%.Q.~.L.P.'.'.Q.S %.&.$.Q.W.*.;.,.>.Y.Y.;.-.~.(.(.~.-.;.p.*.,.$.`.`.Y.E.&.i.i.zXq $ SXPXJXIXIXIXD.  9.p.).^.i.i.@.$.$.$.$.$.+.%.%.-.A $.Z ",
"+.$.&.-.U.W.-.-.+.$.$.%.$.U.Q.R.T.Q.~.i.$.;.i._.L.W.:.:.>.-.&.*.;.*.W./.Q.U.$.p.;.%.W.).I.I.Y.E.$.i.:.$.;.%.d.} ] f.~ ( H.7.W.P.'.Q.=.u.&.-.*.u.-.*.$.+.@.$.$.Z $.",
"%.*.=.W.W.W.S *.u.o.*.S *.=.U.U.W.-.%.@.;.u.W.^.(.~.i.!.i.*.:.i.>.,.Y.W.Y.Y.;.>.i.W.).).I.(.Y.:.!.-.=.Y.>.$.: > < % K 1 Z _.^.I.'.L.-.*.=.i.u.u.*.p.%.@.@.@.#.$.%.",
"Z Z *.S S A A %.*.%.%.8.6.@.Z Z Z @.@.Z @.>.W.U.W.-.A *.W.u.%.;.p.@.Z Z @.p.Z @.#.o.`.W.`.i.p.o.!.p.*.8.p.@.Z Z %.6.#.Z p.u.`.o.`.o.u.%.u.@.%.@.$.%.$.Z Z +.8.A +."
};
