/* XPM */
static char *YnVzaF9yb29mMg__[] = {
/* columns rows colors chars-per-pixel */
"81 80 256 2 ",
"   c #190C03",
".  c #1A1505",
"X  c #0C0C01",
"o  c #281707",
"O  c #321D09",
"+  c #251B15",
"@  c #261D1A",
"#  c #2A1E1B",
"$  c #2A1D15",
"%  c #2C160D",
"&  c #2B250C",
"*  c #35230E",
"=  c #2C211D",
"-  c #2A251A",
";  c #352314",
":  c #33251B",
">  c #3C2C1C",
",  c #382818",
"<  c #3E311C",
"1  c #2D2421",
"2  c #262523",
"3  c #342B24",
"4  c #3C2D22",
"5  c #342C2A",
"6  c #362825",
"7  c #3D3123",
"8  c #3D322A",
"9  c #3A3929",
"0  c #3C3633",
"q  c #313230",
"w  c #242925",
"e  c #412E1A",
"r  c #43321D",
"t  c #49371E",
"y  c #433424",
"u  c #493624",
"i  c #4C3B25",
"p  c #44352C",
"a  c #49372B",
"s  c #463A2B",
"d  c #4C3C2D",
"f  c #443A25",
"g  c #513E2C",
"h  c #543C27",
"j  c #433533",
"k  c #4C3C32",
"l  c #4C3D3C",
"z  c #453737",
"x  c #513E32",
"c  c #513A39",
"v  c #412E24",
"b  c #2C4934",
"n  c #354A39",
"m  c #2B5636",
"M  c #345638",
"N  c #2C4B2B",
"B  c #2C693B",
"V  c #35693A",
"C  c #2B783C",
"Z  c #34783C",
"A  c #32692C",
"S  c #1E4621",
"D  c #4C422D",
"F  c #4A462B",
"G  c #54422C",
"H  c #5B452D",
"J  c #5B472C",
"K  c #4D4132",
"L  c #4D423C",
"P  c #494839",
"I  c #534232",
"U  c #5A4633",
"Y  c #5C4A33",
"T  c #53443C",
"R  c #594639",
"E  c #544A3D",
"W  c #5C4A3B",
"Q  c #544935",
"!  c #4E523A",
"~  c #61472C",
"^  c #62492E",
"/  c #614631",
"(  c #644C34",
")  c #694E35",
"_  c #634E3B",
"`  c #684D39",
"'  c #6B5136",
"]  c #65523C",
"[  c #6D543B",
"{  c #6D583B",
"}  c #665336",
"|  c #71563D",
" . c #72593E",
".. c #456838",
"X. c #493842",
"o. c #365945",
"O. c #325444",
"+. c #2E6947",
"@. c #326D43",
"#. c #346C4C",
"$. c #3A6C4C",
"%. c #356449",
"&. c #2D7647",
"*. c #347244",
"=. c #35734B",
"-. c #3A744C",
";. c #357B4B",
":. c #3A7C4C",
">. c #387945",
",. c #356A53",
"<. c #3B6C53",
"1. c #3A6957",
"2. c #347253",
"3. c #3B7353",
"4. c #357C52",
"5. c #3C7C53",
"6. c #3C745B",
"7. c #3A785B",
"8. c #2B7156",
"9. c #3B7562",
"0. c #4E4441",
"q. c #4C4A47",
"w. c #534543",
"e. c #554A44",
"r. c #5B4B44",
"t. c #554B4A",
"y. c #5B4B4B",
"u. c #5A4645",
"i. c #5D514D",
"p. c #565346",
"a. c #5B5454",
"s. c #514C4F",
"d. c #614E45",
"f. c #6C5542",
"g. c #6D5944",
"h. c #62544D",
"j. c #675545",
"k. c #715641",
"l. c #735A42",
"z. c #755C49",
"x. c #655554",
"c. c #695655",
"v. c #665955",
"b. c #6A5A55",
"n. c #665658",
"m. c #665A59",
"M. c #6B5B5B",
"N. c #6B5659",
"B. c #6B5558",
"V. c #447749",
"C. c #436C57",
"Z. c #427B53",
"A. c #437C5A",
"S. c #427557",
"D. c #4C6E4F",
"F. c #77624B",
"G. c #6D615E",
"H. c #6C6552",
"J. c #71635E",
"K. c #7A6755",
"L. c #6D6A55",
"P. c #735E61",
"I. c #497F69",
"U. c #6E6261",
"Y. c #6B6A64",
"T. c #726463",
"R. c #746965",
"E. c #766B68",
"W. c #796A6A",
"Q. c #796864",
"!. c #757867",
"~. c #82706D",
"^. c #816A55",
"/. c #39883C",
"(. c #39973C",
"). c #298135",
"_. c #31A238",
"`. c #42893D",
"'. c #44983A",
"]. c #509B3C",
"[. c #57B93A",
"{. c #4DAB39",
"}. c #67B73C",
"|. c #6AC73B",
" X c #71CE37",
".X c #58C23E",
"XX c #3B8344",
"oX c #3C834C",
"OX c #3C8B4B",
"+X c #388646",
"@X c #3B9549",
"#X c #3D8353",
"$X c #3D8B53",
"%X c #3C845A",
"&X c #3A8959",
"*X c #3C9353",
"=X c #2F8549",
"-X c #3DAA4B",
";X c #3D8462",
":X c #42844D",
">X c #438C4B",
",X c #468847",
"<X c #43944C",
"1X c #449D4C",
"2X c #489749",
"3X c #51984C",
"4X c #438453",
"5X c #438C55",
"6X c #43845B",
"7X c #438A5B",
"8X c #4A8959",
"9X c #578B5A",
"0X c #439353",
"qX c #4A9454",
"wX c #459B53",
"eX c #4C9B54",
"rX c #4B9C5B",
"tX c #49955B",
"yX c #559B58",
"uX c #5B8F45",
"iX c #45A44C",
"pX c #4BAB4B",
"aX c #47A748",
"sX c #56A948",
"dX c #4BB348",
"fX c #58B649",
"gX c #4BA453",
"hX c #4BAB52",
"jX c #48A657",
"kX c #56A857",
"lX c #4DB354",
"zX c #55B653",
"xX c #63AA4B",
"cX c #66B949",
"vX c #66AC56",
"bX c #67B857",
"nX c #74BA59",
"mX c #458662",
"MX c #499463",
"NX c #589363",
"BX c #798473",
"VX c #56A763",
"CX c #4AA361",
"ZX c #71A867",
"AX c #6AC746",
"SX c #75CB45",
"DX c #75D447",
"FX c #6AC354",
"GX c #74C656",
"HX c #78D056",
"JX c #6BD549",
"KX c #7AC963",
"LX c #5BC354",
"PX c #81DA62",
"IX c #91928C",
"UX c #B0A69A",
/* pixels */
"n M m m m n w q m M M N m N ..V q O.O.N N V @.V A q.M m M %.M n M m O.M m M O.n %.V A A ..n N b V M q.M M M ..q.b O.n b m %.V A M M M N M V M N b b b b N b n S n ",
"9X,X+X>X9XNX@.B #XaX,X4X6.3.xXxX,X*.S.-.V.<X3XiXyX6X:XoXkXiX2X5X4XmX6X5X:XZ.A.8X1XwXyXeXyXZ.$.C.jX2X0X0X;.#XbXsX,XZ.S.*.:X3X2X3X8X:.V.oXtX0X=X4.=.$.$.>.>.$.%.>.XX",
"w q 3 9 2 5 @ 2 I 2X-X@XA.;.aX}.fX(.5.7X$XaXaX(.:.,.#.&.eXjXdX*XOX&X$X0XjX$X$XrX-XdXhX@X#X=.#.#.wXhX-X@X5X#XnX|.{.wX%X=XiXaX1X@X*.+.#.>.OX1X@X*XoX=.:.OXOX>.*.OX+X",
"a.q.s.P X.s.X.s.R.;.@X_.,XV.sX XAXcX`.5X$XeX1X/.=.1.<.A.=.0XaXpXwX*.oX0XjXjXZ wXaXiXiXXX-.$.$.C.5.rXiXaXqX*.nX XAXcXXX#X<X2X1X;.$.%.C.V.Z >X'.'.4XV >./.+XXXZ >.(.",
"G.G.i.b.b.P.E.M.a.w p.*XjXZ kXSX|.SX}.,XoX5X8X5.5.oX`.bX*.oX(.aXVX*.#XjXhXkX+X@X,XXX:X#.1.C.C.$.$.;.@XpX1XC bX|.SX XsX:X#X>X5X4.9.3.>XyX@.:./.2X8XB V.`.(.>XXXZ V ",
"m.a.G.m.m.U.a.n.s.X.x.~.IX..uXxX|.[.SX3X>X$X%X#X;X<XcXHXoX5.5X0X*X4.#X*X-XgXiX@XZ.=.A.1.1.1.$.:.Z.4.0XeXtX/.kXAX|.|.HX2X$X+XXX5.=XqX}.cX*.3.OX7XOX@.:.OX(.2X>XZ +.",
"T.J.b.Q.U.U.x.l s.O.9 q y.=X/.<XfX{.bXsXeX$X%X7XtXxXDXSX:X6XtXeX@X7X&XwXpXpXlXiX7X=.6X5.<.=.5.0XZ.mXqXyX5X#X5.xX[.{.bXpX0X#X#X>X].cX X}.>.Z.uX,X=X-.A.@X(.@X2X2XV ",
"M.P.M.Q.U.Y.n.d.y.X.c.0 0 %XD.oXaXjXC 5XqX#X%X8X}.SXJXJX<X<XsXGXOX6XmX1XpXpX1XhX5X>.8X6X-.-.oXjXOX*XsXcX/.7X8.3XhXtX&.eX>X7.7X`.|.HXAXcX4X:.}.{.>.4X:.+X@X(.(.2X@.",
"K.Q.Q.J.T.T.M.y.u.s.0.z y.9X=.6XiXjX&.2.6.*.`.GXlXAXAXxXtX5.sXDXDX/.;XrXdXCX&.iX8X;.6X5XOXwXjXgX5XOXcX XGXmX4.`.{.CX&.*.V.3.5XFXaXAX[.'.#X#XxX XvX:.5.,X1X$XB >X*.",
"N.z.b.c.b.M.n.x.n.W.y.X.P q N $.XXeX2X:X&.&.jXkXdXfXFXZ =.5.vXHXJXlXMXoX/.VX;.;.5.#.:.5XwXiXlXpX4.;.vX XDX1X%X=.@XjX*X:.$.5.gX[.{.AXsX/.#.-.vX|.AXqX5.C /.+XB -.+.",
"c.x.c.x.x.x.M.P.U.W.B.q.0 $ s p.Z.iXhXXX$.A.wX-X{.fXbX=.1.,.,XxXFXdX0X%X+XkX=.9.3.=.>.qXpXdXlXaXmX3.9XcXJX{.=X6.7XgXgX5.9.6XhX_.{.dX3X$.1.%.qXsX{.1X#X&.XXqX@.1.+.",
"x.x.m.M.m.m.M.P.M.U.P.z j y.E . & . & D.#.&XkX{._.pX0X#.6.6.3.Z.3XpXqX7.=XNX-.S.8X#X+XVXlX-XaXlXoX3.S.qXzXfXOX,.oX2X3X:.,.XXlXhXpX1XZ.3.C.%.$.>.'.1X4X#.-.:X@.1.$.",
"x.n.a.n.n.v.m.T.~.R.G.6 c h.e.x 9 W 9 $.&XOXyXpXlX0X=.#.8XA.,.1.=.rXyX6X2.3.C.8X$XtXVXiXdXdXgXjX0X4X3.7.&.yXtXC.1.3.,.&.%XqXqXyXrX#X=.3.A.,.,.1.:.>X4X<.1.#.B 3.=.",
"n.m.x.x.v.M.M.M.P.G.M.T a v d R F H.P . & o . <.6.1.C.-.8X5X:.6.9.;.:.5.7X3.$.:XOXtXVXC gXlXrX;.&XtX6XmX#.5.*.V.;.8X6X4X>X:X+.;.-.#.<.=.#X%XC.C.%.:.V.A.1.%.B 5.:.",
"G.U.M.a.n.T.M.x.h.h.h.p s R g.E G t ( J G F 9 IXIXIXBXS.:.0XtX6X,.&XtX7X;.@.3.%X0X#X5.&.rX0XoX8.7X7X5X#X3.#.>.kXAXGXSXAXcXvX>.#.,.,.<.=.$X5X6X<.1.:.;.;.#.V @.4.:.",
"G.Y.R.G.U.E.n.T u.X.c p I U G Q _ F F  .l.!.! e O O X C.mX&X&XtXC.>X%X7.0X2XtX%X#XmX6.3.4XV.5.I.6X7.MX#X$.S.yXbXLX|.DXJXFXyXZ.7.A.3.<.3.6X$XXXZ.$.5.5.5X:X4XZ.=.:.",
"U.R.U.M.E.E.x.0.E E p.4 p W d.U Y Y Y { } } l.} [ _ / K.F.H.! D.6.5.,X3X-X-XtX8X6X7.8.3.yX,X;.mX;.:.4X#X;.OXbXfXfX.XDXcX3XA.mX#X$X5.3.<.A.6X#X;.$.9.).-XaX(.5X1.<.",
"G.U.M.M.T.T.m.y.e.K E j R R U U G G G { { { F.{ ) { ^.i o & . IX=.;.rXpXlXkX>.=.<.-.Z.`.nXvXtX5X<.C.I.A.;.kXlXdX[.HXGX,X$.1.<.>.jX4X@.6.#.6X6XA.#.<.3XgX0X0XV +.%.",
"x.m.x.n.U.M.n.U.R.m.h.k k ; ; g { Y Y { { ^ { } K.( ] } _ j.d.d.R s & BXNX=X2.6.9.V.'.KXPXnXZ MX;.#.6.2.&.kXhXhXlXjX:.#.8.#X@XhXhX<X#X6X&.=.#.%.$.3.3XqX6X=.+.$.%.",
"x.x.x.c.m.x.n.W.G.T.H.p p ; , x H i F }  .' { } [ [ z.F.l.` ^./ & 9 + !.A.mXS.1.7.hXHX[.DXsXCX$XjXtXmXmXmX#X4.5.=X4.-.3.5.<XpXpXhX@XtX7XtX$X6XZ.Z.@.Z Z 7.$.<.o.3.",
"M.m.v.n.x.y.x.W.a.Y.b.8 U _ a , o o & ^  .{  .{ | k.{ i H.g._ ] G.q.E.e.3 - . s.tXpXLXdXdX3XMX8XhXaX1X<X8X5.A.4XoXA.Z.5X<XiXlX-XjXqXoX@XjXiX*X;XoX:.vXZ >.Z.3.#.#X",
"c.x.x.v.m.x.m.E.U.W.Q.s x d.x , * * < J ' )  .{ ) | F.f.K.W j.j.G.E y.l 3 e.5 i.gXaXdXdXiXtX#X+XVXjXiX@X$XMX$X8X9X8X7X$XjXhXdX-XrX5X#XOXhXhX@X*X7X0XGX{.qX6X6X*.<X",
"x.x.a.n.G.M.G.R.n.U.J.s a R d.R { } J ^ ~ ~ ) ^ F.' } l.g.Y K.W P p.u.u.P P t.w.z 0 z 0 0 0 X.0 0 z j l z l j 5 5 n mX#XtXkXkXpX`.Z #.:.rXhXhXiX#X+X|.AXsX`.oX4X1X",
"M.P.M.m.G.M.a.m.H.y.h.k k R W R J J J ' ^ ^ ' ^ } H F.U | ^.U g.Y D p.r.i.h.w.s.n.y.n.a.x.x.a.p.p.v.y.v.b.T n.x.n.q 6X*X#X@.;.&.KXNXS.I.&.jXpXaXyXC AXDXSXAXXX%X0X",
"P.P.T.U.T.R.M.0.L L e.p v W _ U Y J Y }  .' ) ) J J ~ ( { g.j.d.R r.c.h.b.J.x.b.m.n.c.x.x.m.M.M.n.B.n.n.x.c.b.c.y.u &XMX&XOXiXGXHXpX5XS.-.;.wXdXeXZ nXSX X XnXC 5.",
"Q.T.T.T.U.U.m.q.t.w.E k d d.W g Y Y Y { l.| [ [ ) ) ' ) _ _ _ R W r.c.c.b.b.y.x.x.c.x.x.x.x.x.v.y.x.n.x.x.m.n.N.a.w.;X9X4XgXAXPXDX{.>X8X7X5.5X<X<XoX9XcX|.}.GX'.#X",
"T.T.P.U.G.U.m.t.e.L E p d R I g _ H Y }  .[ ' ' | | [ ) / Y Y Y W r.c.c.b.h.r.n.M.m.n.m.m.n.M.m.x.N.n.i.x.n.c.c.s.0 mX:XkXcXSX XPX3X#X5X%X#XkXCXOXmX*.sX[.{.kX].+X",
"N.n.m.n.m.G.m.m.v.m.M.k k R W d._ U Y ] | | ' [ [ | [ } _ ] _ W T y.N.c.h.h.e.x.M.M.M.M.P.M.U.G.P.P.x.u.x.x.c.N.P.2 *X@XLXfX.XJXGXMX5.5X7.>XGXcXeX%X&.3X-X*X=.7XoX",
"x.x.x.x.x.n.M.R.G.R.J.s d R W U ( U / f.z. .|  .[ ' ) ' | k.f.] c d.M.x.v.x.r.i.U.T.T.T.U.U.U.Y.E.M.t.w.x.n.N.M.w.9 NXZXjXzXdXPX`.2.+.*.6.:X|. XbXOX4.5X2X1X@.8.#.",
"c.c.x.x.x.a.n.E.m.H.b.4 Q W W x H G U [ | | | k.| | | | k.z.[ W w.d.M.c.b.h.e.y.E.W.E.R.E.R.E.E.W.M.y.y.n.M.N.N.n.c 0 o 0X@XkXhX4X@.tXyX2.=.nXDXDXaX=.Z.2XpX3X@.$.",
"M.n.x.n.m.x.m.E.G.G.G.s W d x W H x / ` | ` [ | | k.| | | f.[ _ R d.N.c.b.x.w.u.n.n.m.x.m.v.m.m.n.x.t.y.x.N.c.c.s.a.6 = 5.8XjXOXC.-.eXgXtX:.:XvXAXpX;.,.:XaX3X*.,.",
"c.h.y.x.M.x.v.Y.U.G.J.8 p o O I ` ` ` z.l.[ [ | ` | k.| [ [ f.f.u.r.c.b.m.h.X.0.j j 0 j 0 0 z z j z X.X.y.c.N.N.c t.i.X.2   $ X IXC.$XjX1X#XS.8XfXaXV.C.6X<X4X8.-.",
"n.P.M.x.n.G.m.a.x.r.y.a k u r > u v ; f.z.' | ' | | | ' { { } _ c h.n.M.x.x.t.X.6 5 6 5 5 1 q 5 3 1 t.e.x.b.h.c.d.y.T s k K p 7 L.UXUXBXNXMX&.3.:.<X9XC.&.-.*.&.oX",
"P.T.T.P.T.T.m.e.w.r.y.p k R g >   % % / k.| k.| ' | ' '  .g.g.] r.x.x.n.n.x.w.X.+ @ # # = + = @ @ + 0.0.x.G.x.b.y.u.c p K K s f p ; %   !.A.MX;.$.8.8.B /.,X:.>X,X",
"T.E.R.T.E.R.m.0.L L r.8 x d.W y u H u k.` ~ ` ) |  .' '  .g.j.] k x.x.x.m.x.w.t.@ @ 1 1 1 1 = 1 @ = 0.0.v.b.c.b.u.u.x k K I K P 8 K 9 9 ! BX!.~.IXC.Z nXKXKXGXHXGX",
"M.P.P.M.T.T.m.t.y.E T y x R W R ` f.H / ~ / ` ) | | [ [  .l.} _ R c.n.n.x.h.c X.@ + 1 # @ 1 @ = - = L e.x.b.h.x.u.u.T a D K K G Q F D R a %     0 V.vXdXfX[. X XsX",
"m.m.M.n.n.m.m.n.G.i.h.s x x W _ c / x [ ' k.[ ) ~ ) ^ ' k.l.f.] c y.y.c.m.b.u.z # @ = # @ 2 @ = + # l 0.x.v.b.v.u.r.T a d k d I i t H f r r.D n d e.p.jXzX|.SX3X:X",
"x.n.n.x.a.n.M.U.G.R.T.k a W d.I ` ` ` k.k.z.` / ~ ^ ^ ) [ { ] d.d.h.h.N.c.c.w.j 1 1 = = # 1 @ = 5 5 L e.v.x.G.v.y.y.x p d d d D G < F F K i k R n q P -X.XLXnXV $.",
"x.m.c.c.x.n.H.Y.G.J.J.k a W _ x / h h ` ) l.[  .' [ ' ) _ / ( W k d.c.M.c.x.t.y.h.d.X.y.t.y.t.w.L L t.e.b.h.M.v.r.u.k y d g d d F J & J _ < W 9 > v U gXaX3X*.%.$.",
"x.x.c.n.M.m.m.G.E.b.v.p x R W R ` / / | | z.` k.[  .' ^ H U U _ c c.c.c.N.c.w.y.X.x.X.y.y.y.h.X.e.w.u.w.x.i.M.x.u.R p 4 a d i d r G J t < F d g u.& 0.8.-.B #.1.Z.",
"x.x.a.x.x.x.M.U.R.R.H.s k R U I U U Y f.z. .| [ | k. .[ z.k.g.j.T h.N.n.n.n.n.n.n.n.n.m.n.n.n.n.b.M.M.M.G.b.v.x.u.u.k k d > , > i D G i t F i g a 4 T #X#X7.&XoXqX",
"M.m.M.M.M.M.m.n.e.v.M.s k W d.U ` U U } | ' ) | | | | ` z.f.l.d.w.d.x.x.n.n.n.n.n.n.n.n.n.n.a.x.h.h.b.v.b.v.v.v.r.r.k p a u p a < r r t t i G G f 4 p.tX0X5X#XtXiX",
"R.P.M.T.R.G.a.y.w.e.r.9 x R Y I I g ~ [  .' |  .' |  .` k.[ g.r.r.c.M.M.M.N.n.a.n.n.n.m.n.n.n.n.x.x.b.b.x.v.v.v.r.e.T a d k g x 7 < < < t F i d u : E jXeX@XC VXiX",
"W.P.M.T.W.T.a.t.e.T T p d v r U _ U / { l.| ) | | |  .[ l.[ g.R # c N.M.n.M.P.n.n.n.M.M.M.M.M.U.M.b.M.b.v.v.b.G.z p k k d I g d d i r < r t f t y : P wXiX1X=XwX2X",
"R.M.m.U.R.T.m.a.w.Q r.k y * ; R ^ h J ^ | | ) ' ' ' | ' l.f.f.g   T E.R.M.E.E.U.T.T.U.U.P.P.P.T.J.T.Q.T.T.Q.R.R.# + 4 x x x a g D D D i r 7 7 < 4 , E iXaXiXiXZ #.",
"M.m.x.n.M.M.m.b.v.b.b.p d d y , * * e ~  . .'  .| ) k.k.l.f.z.h   w.W.T.n.U.E.M.P.P.G.P.G.G.T.T.J.T.T.T.J.G.G.R.4 % 8 c k x a G 0 s K P D i f s f - P jXaXaXjX1X5.",
"x.x.x.x.x.m.m.M.W.R.M.p Q h.G ; O o e ~  . .'  .k.` k.k.f.g.b.a # l n.M.n.U.E.E.U.U.U.T.U.T.T.T.R.T.J.T.G.G.G.T.p + j T k R a g p D K D D K D i G - P jXaXaXgXkXXX",
"x.m.n.x.x.x.M.T.G.M.M.p k c R I } J h ~ ~ ~ ~ ' z.` z.f.` d.g.a . # 6 5 5 1 @ @ # 1 = = = @ @ @ # # + $ @ @ @ # #   p k p R g i L K s s s D i f F : q.rXiXiX(.1X;.",
"M.c.x.x.x.x.N.T.T.R.M.a c r.W U _ Y G ^ ^ ^ ' ) | ` ` k.z.z.d.h : + 6 = + = 1 5 q 2 6 = 5 # # # 1 5 1 5 @ 1 = $ - $ p k d x d d d d I d d a s s d # E wXhXwXB MX;.",
"n.n.x.x.n.M.M.P.T.T.M.j l u.W I J Y J } { } ' ^ / ~ / / ` z.z.d.c r.x.l = 5 L a.y.0.t.a.u.y.h.m.t.y.0.0.1 - @ . 8 , p d i x d d x x d d d k d K s 3 E C +XtXC &.#.",
"x.M.M.n.n.M.n.h.n.x.h.p L T E Y G G H [  .| | ) ` / ` / / ` k.d.d.r.T 3 + 5 j z n.0.0 t.l i.r.l t.t.w.t.1 = = # 3 $ > y a I x x x g d d g I K K f 3 w.;.:XNX-.:.<.",
"M.P.T.M.P.T.n.y.y.w.e.8 L e.R W U Y H [  .{ | ' k.k.[ ` U / / U R Y r.8 o + + # t.t.t.y.w.w.X.y.L L X.e.= = 3 9 + o : 7 u I d g d d d d d x d K D : X.V.>.S.#.6X#X",
"T.W.T.J.T.T.x.w.0.w.e.8 T T R R Y Y J } | )  .[ | | k.` ` ` R h y r d G s k p j 3 8 0 z m.x.y.P.c.x.v.v.1 @ 3 9 = & y i y u r y a d I I d d d D F = w.6.-.$.,.6.oX",
"P.P.P.P.P.P.c.y.w.r.y.p l T E I I U G { k.[  .[ k.` ` | ` [ [ U t O * y R j.E P +     $ W.~.W.~.R.G.E.R.3 + 3 3 4 3 d k y r > r p d k I K d s k 9 = y.A.;.#.3.%X#X",
"n.x.m.n.n.n.m.n.x.n.c.p l W R Q G Y H f.k.[ | ` k.| k.k.k.k.z.` Y G ( G r r y f R k c p 8 1 - : J.m.Q.R.: @ 7 8 7 4 D D u u u i p u u p d d d s D - L ;.C B -.5.A.",
"x.x.x.m.x.x.M.R.T.Q.P.j k w.W Y Y ( U [ k.[ | [ | ` k.k.[ k.z.[ } ( } i e f < , R u x w.% $ = - T.m.Y.T.= + 8 4 7 > i d i g g g y > , > u d d 9 s - e.qXeXrXMX*.5.",
"x.n.x.x.n.x.x.W.T.P.n.j d : , T Y U Y [ g.k.[ | | | [ ' [ [ k.f.{ { ' ^ J J G Y , y > y k K j j : # 1 o - $ 8 8 7 3 K K d G g I x d d d a 7 > < v 1 ! iXaXwX4.V $.",
"n.B.h.x.M.x.n.~.M.T.T.k 8 : : d Y G H ] z.{ ) [ | | | | [ k. .[ { { { ) ^ J J J ; < y y d L l Q $ , 8 : ; $ 3 4 > , s s s D i D d d d d i f y 7 p = q.wX(.5.#.$.,.",
"n.n.x.n.M.x.n.W.T.T.Q.k k I k 4 o o O H z.l.[  .' ' [ [ [ k.g.[  .| { | } } J J f U H d u 4 3 7 k k T k p : 7 7 3 , s D a x g x d x I d k d d s f : E 0XXX$.%.,.,.",
"M.M.M.m.P.M.n.B.m.x.x.j K r.E : e ; r U [ [ ' [ | ' [ [ [ [  .k.{ | ' | | [ } } i H H i u 7 y p I i f s a p 7 4 < > D K d I d I d d I k s K K D 9 : T 5.:.S.3.#.>.",
"M.P.T.M.M.R.M.w.u.w.x.k z L W I j.] Y H ~ ~ ^ )  . .| | | [ [ f.k.[ [ |  . .| ) i H h i G D K I > , , v < y > y 7 > d D i K d k d I I d d K k D F 4 e.5.5.A.%X&.2X",
"T.Q.W.T.P.W.M.l r.w.y.j L R r.p.I R R U ~ ) ' ^ ^ ^ ) ' [ [ f.k.k.k.` [ |  .| [ J ^ H i G G s D u i i d , o o > < > d K d I d x d I d d d d D d j : W A.5.;.;.+X0X",
"E.M.P.T.M.T.M.e.y.u.l 6 K E I K x R _ g.z. .' ) ~ ~ ~ ' [ [ [ [ k.f.[ [ | | | ' h J G i G I G I G G G g * o . o , : s d k x k x k d d d d d D D z , E 3.,.#.4.oXoX",
"P.h.n.P.m.n.P.n.x.M.b.j E e.R r._ I x ` k. .'  .^ ) ^ ' ` ` ) ` k.f.[ | | | ' ' J ( J g G D D D G G t G > > * , & & y s a k d c x d d g P s D L 0 : E =.,.<.A.S.-.",
"N.n.h.x.M.M.c.Q.T.M.M.j k R T W U G g [ F.' | | | | | ^ ^ J ^ ^ ' | l.| | | l.` ~ H Y H H G I G I d g I a y y r o % ; > a G D d k D k d d D K k s , e.,.,.,.6X;.3.",
"N.N.c.c.N.c.b.W.U.J.J.k x T W d._ W H [ | ' | | | [ ' ' ' ' ' } ~ ~ ~ ~ | | k.` ~ U Y Y Y Q G i G G I G y e y r u f f a p y 7 > y d I I d a i d 8 > W +.,.<.#X:.XX",
"c.c.M.N.c.x.x.Q.b.J.M.p k R R I Y Y U } | ' | | | | ' ' | { | [ ' ~ ~ ' | | | | h G H J Y Y I H G g G g r > r y d I I G u y 7 7 8 f d d a s s K 0 4 E +.S.S.=.>.kX",
"h.x.N.N.x.x.b.M.M.E.J.p k h.h.x D I H [ | | | ' { | ' | [  . .{ | ' ' | ~ ~ ~ / ) } } _ H U I I G i g d r > u i a d d d d k d D s 7 > > i K K K s 4 r.:.Z.Z.oXOXiX",
"b.x.m.M.M.P.M.x.M.b.h.j k k x R H Y H { l.[ | ' ' { [ [ [ [  .l.'  .l.' ^ ( ) ( t t t t J / Y U I G g I a i d G d d u a k K K K s y > 4 u d i s f : ! 5XXX;.$X2X+X",
"~.P.T.P.M.T.M.t.t.k T k a $ O I ] Y H { l.' | [ |  .| | [ { { k. .l. .' ' l.z.( o o o * g ] ] H Y G R Y g d I I I d i a g I D s s d d d p 4 7 7 9 @ ! rX>X=.;.XX*.",
"~.J.E.P.M.T.m.0.e.L e.k c v 4 d f r e ( F.' | |  . . .|  .{ { [ | ' ) ) '  .{ U t h t t h i y e Y U R W G d d d d d i d x k D d s L U I a 7 y y 8 = q.>X:X-.#.Z %.",
"J.h.T.T.U.T.M.l w.e.r.4 T j.x O o   O ^ F.| [ | ' | ' [ k.k.[ { | ' | | | |  .[ ~ ) / i O o o o U U ] W g y u i a d R R g d k K D D d d D k D K p 8 e.XXB %.%.8X@.",
"M.M.z.c.N.M.M.M.c.M.b.s p d.r.x G G G Y ^ ^ ^ '  . . .' '  . . .' '  . .| | [ [ G Y Y H G i D F f * , * d d g u a d d d i k I D K K I K I k D K u - p.3.=.*.XX@XV ",
"c.c.c.c.n.m.M.M.T.T.M.k a d.R g Y H H ^ } ) ^ )  .' ' '  .' ' '  . . . .| ' [ ' J J Y Y G H Y Y o o * * u i I g i d I d d x K k d d d d d K d K k - 0.#.:.:X<X<X*.",
"c.c.c.c.x.x.n.P.T.T.M.k a u._ I _ Y J } ' ' ) ) ~ ~ ~ ) | | | | ' ' ' | | | | { H / Y H H U Q Y g G U g a > r v d G I g d d s s d d d d d d K d p - 0.-.>.XXXX@X*.",
"b.c.c.c.x.x.M.T.J.T.m.k a d.r.R W H H } | | ' ' ~ ~ ^ ) [ { | | ' | | | | | | | J H Y Y G G J Y U W _ g u > > y a a a d d K d s D K d x k d D K j - q.$.>.>.XX=X@.",
"c.c.c.x.x.c.M.U.R.Q.M.l k d.W I Y U Y }  . . .' ' { ' ' ^ ^ ^ ( |  .| | [ [ ' ( H H H U Y Y _ Y g H U I d i i I y > > v g I D d K K I d k g K d D - 0.%.#.3.#.+.m ",
"b.b.b.b.M.m.M.n.v.v.h.k d r.u.I Y U Y }  . . .'  . .| [ ^ ^ ^ ( ) ) ) '  .| [ [ ( U H Y Y Y Y Q Y W W W I G d g f y r y a d s y d d d D d d s d f 3 q.o.o.%.o.+.o.",
"T.T.J.P.T.P.x.y.w.t.e.j a d.W I ( Y } } { ' ' |  .| [ [ [ [ [ [ ~ ~ H ) [ | { [ / ^ H U Y G G G G U G Y d x i x I d d d u v > 7 s s a a d d d D s 3 p.o.O.o.%.%.%.",
"J.T.T.J.R.T.x.e.E e.r.p p d.r.g Y Y _ } { |  . . .' ' [  . .[ ' ) ^ ^ ( ) ' ) ( J G G U Y W Y Y Y W I R i G d R a d I G p > y s y s f a d d d k p - E O.b m o.o.o."
};
