/* XPM */
static char *_824ae2d81dc46b6f6bdc0601d11d483qNSPewGP3Iuu9kxk[] = {
/* columns rows colors chars-per-pixel */
"80 80 190 2 ",
"   c #110A07",
".  c #190901",
"X  c #1C1306",
"o  c #241301",
"O  c #2A1907",
"+  c #2A140A",
"@  c #341C04",
"#  c #271C18",
"$  c #2C210A",
"%  c #33230C",
"&  c #392509",
"*  c #3A320C",
"=  c #2B2319",
"-  c #352616",
";  c #3C2B15",
":  c #352A1B",
">  c #3B2D1C",
",  c #3B321B",
"<  c #2C2523",
"1  c #392D25",
"2  c #3D3223",
"3  c #363529",
"4  c #3D342B",
"5  c #3C3634",
"6  c #452909",
"7  c #48330B",
"8  c #52310E",
"9  c #462D15",
"0  c #412E1B",
"q  c #502D12",
"w  c #43321C",
"e  c #493518",
"r  c #553A19",
"t  c #422F24",
"y  c #4A3623",
"u  c #453925",
"i  c #4B3B24",
"p  c #453729",
"a  c #533C24",
"s  c #553D29",
"d  c #443635",
"f  c #473B33",
"g  c #453B3A",
"h  c #4A3D3B",
"j  c #523E34",
"k  c #54431C",
"l  c #65471D",
"z  c #4B4227",
"x  c #4D412D",
"c  c #594525",
"v  c #54422C",
"b  c #5B452D",
"n  c #5C4A2D",
"m  c #4A4239",
"M  c #544333",
"N  c #5B4633",
"B  c #554A34",
"V  c #5C4A34",
"C  c #53473D",
"Z  c #5A4639",
"A  c #5C4A3A",
"S  c #5A5238",
"D  c #61462D",
"F  c #644A2B",
"G  c #68542B",
"H  c #785A2A",
"J  c #604732",
"K  c #644B33",
"L  c #694E35",
"P  c #634D3A",
"I  c #684D3A",
"U  c #6B5236",
"Y  c #65523B",
"T  c #6C543B",
"R  c #775A36",
"E  c #71563D",
"W  c #72593E",
"Q  c #766133",
"!  c #7A653A",
"~  c #473E41",
"^  c #395155",
"/  c #4B4545",
"(  c #584746",
")  c #574946",
"_  c #554B4A",
"`  c #55534F",
"'  c #624E45",
"]  c #6C5541",
"[  c #6D5A42",
"{  c #655649",
"}  c #715641",
"|  c #765C44",
" . c #695656",
".. c #695957",
"X. c #685758",
"o. c #5C6056",
"O. c #7C6244",
"+. c #786549",
"@. c #69635A",
"#. c #766D53",
"$. c #776758",
"%. c #6F5E60",
"&. c #6E6C69",
"*. c #756665",
"=. c #845C33",
"-. c #876739",
";. c #906C39",
":. c #A2743E",
">. c #856748",
",. c #8A6C4D",
"<. c #946E4A",
"1. c #897349",
"2. c #97764A",
"3. c #856C53",
"4. c #8A6E52",
"5. c #866D59",
"6. c #8C7254",
"7. c #8A7559",
"8. c #927455",
"9. c #997955",
"0. c #92755A",
"q. c #937A5C",
"w. c #A47B50",
"e. c #867165",
"r. c #8A7665",
"t. c #947A63",
"y. c #847C78",
"u. c #71B459",
"i. c #758171",
"p. c #69D64C",
"a. c #6AD949",
"s. c #72DE4B",
"d. c #79DF4B",
"f. c #75E14C",
"g. c #7BE44D",
"h. c #7EE94E",
"j. c #988550",
"k. c #9B8458",
"l. c #A78759",
"z. c #B48A5A",
"x. c #AF9058",
"c. c #998567",
"v. c #91886C",
"b. c #948678",
"n. c #A98C66",
"m. c #B68D66",
"M. c #AB9368",
"N. c #B89568",
"B. c #A78D75",
"V. c #A99576",
"C. c #B89A75",
"Z. c #BAA36D",
"A. c #B9A478",
"S. c #C0905F",
"D. c #C49769",
"F. c #C49A74",
"G. c #C7A777",
"H. c #CDAC75",
"J. c #85E54D",
"K. c #82EB4F",
"L. c #92EE4F",
"P. c #8CEE50",
"I. c #AAF852",
"U. c #847F87",
"Y. c #AB9987",
"T. c #A19D99",
"R. c #B8A586",
"E. c #AEA593",
"W. c #C09B89",
"Q. c #C5AA86",
"!. c #CAB487",
"~. c #D7B888",
"^. c #C9B697",
"/. c #D0B594",
"(. c #E5BD8B",
"). c #C9BBA9",
"_. c #ADE292",
"`. c #D8C38A",
"'. c #D8C598",
"]. c #ECCD93",
"[. c #E7C898",
"{. c #DBC7A5",
"}. c #CFC7B6",
"|. c #E9D3AC",
" X c #F6DAA9",
".X c #F9E6B1",
"XX c #FBE6B8",
"oX c #FDEBC4",
"OX c #FFF5C8",
"+X c #F6F0D8",
/* pixels */
"a.a.p : N V K b a i p v N B P n P E E U E E U T W E U T E E U Y E E I =.J E E L L >.0.8.6.6.6.8.8.,.,.5.6.3.7.,.6.8.8.8.8.5.t.r.f d ) C C ) ..*.T.X.%.%.%.e.%.%.",
"a.a.4 - j b s i b N M M N A N b L E E T E E E } E T T U T E } | L L D I D >.,.4.| 4.7.6.6.6.6.,.8.8.8.8.7.0.7.7.3.,.,.q.r.5.e.$.u g ...... .....( X.....X.X.X.X.",
"a.f.p : s N s e V V Z A N N N N L } E T E E T } L E } E U T T E I L s D J 3.0.0.8.6.8.4.6.6.0.,.,.<.6.6.7.6.3.,.8.6.,.8.5.0.r.e.p j $.*.*.@.....X.' _ ..X.X.X. .",
"a.f.4 : M b b s N N Z A N N N K L E } T T T L } U E | | U L K D E I J E L ,.0.5.8.0.4.4.6.q.8.6.8.8.8.0.7.7.7.6.0.,.R R } | r.r.d h @.%.*.@....._  . . .X.X.X. .",
"a.f.4 : B Y n b b N Z B N N N V L } } U E E L E T U U U U L J D L L I >.I 4.6.8.6.6.6.4.6.8.7.8.9.8.8.4.6.6.6.6.1.3.=.W U } 5.r.j f @.@.*.@...X. . . . .X.X.X.X.",
"f.f.p : N V N b Z B A Z B N V b K E E T E } E E L L D D I L T U L E ] } } >.0.0.4.6.8.7.6.4.6.6.,.4.4.8.7.#.W U T >.,.0.5.5.r.r.p f @.*.*.@.....X.X. . .X.X.X.X.",
"f.f.p : N V b v K N Z Z A V N b K E E T E U L L L L P K L T } } =.} E =.E ,.5.8.6.6.6.8.6.6.6.<.8.<.4.8.6.3.O.Y U ! ,.q.0.7.t.e.d d ....%...@...X.X.%.%.X.X.X.%.",
"s.h.g : N K K b V M M N V A K b L E } E U K b n K L U E T T U E ] I L } E 3.0.8.6.6.6.4.8.7.6.8.8.>.U c U +.7.8.9.8.,.8.5.5.t.r.j f ) h C ) ..*.e.%.%.%.%.%.%.e.",
"s.h.d : N b D v P N Z Z B P N b L U K D L L I L T T E E E E E T E L L E U 7.0.q.6.4.4.6.4.3.>.,.=.>.| | | +.7.0.8.0.,.,.t.5.t.r.p d ) ' / ` ..*.*.%.%.*.%.%.%.%.",
"a.f.f : N K J N b v N Z Z B N K s D D n I U U E T E I E T E E T } T | } E 4.4.4.6.6.9.t.7.>.J F L >.6.8.0.8.6.,.6.8.8.8.t.5.r.e.g p C / h C X.*.%.*.%.*.%.e.e.%.",
"a.a.4 > N B N n b B P Z M s v b J L L K U E T E E T T E E T T E E U E E L 6.0.t.,.| | R O.>.>.>.-.>.6.0.7.7.7.7.4.,.8.4.8.3.t.y.f j  .........$...%...%. . ...%.",
"d.P.d > N V D b V V A Z M a a a U } E E E E L } L T T T E E T E E U I E L 4.0.0.6.>.U K U O.8.q.8.8.8.6.3.1.7.7.8.,.9.8.t.3.r.$.2 p ..*.*.*..... . . . ... .....",
"a.s.d , B K N D s s j j M N b s J E W U E E U } E E T T I E E E E } >.} E >.I E | O.>.3.,.>.4.,.8.8.8.4.6.3.3.6.0.,.8.,.7.5.t.e.1 < h ( C ( _ ' ' ' ( _ ) _ ( _ ",
"a.a.p : M N v v a s f M M V N v K E W E E U E } E E E E E E E T U I I E K | R I R >.6.q.q.0.8.6.2.8.4.8.7.7.7.6.4.4.,.,.7.t.5.e.- # p 5 d d h ( ~ ( ( ( ( ( ( ) ",
"a.a.4 - s v s i N M N N N N n b Y | } T } E L E E E E E E I U E U D s D D >.4.0.7.q.0.6.,.6.6.,.8.4.,.4.7.4.7.q.,.q.9.t.t.0.0 w # - j m d h Z _ ( ( ( ( ( ( ) ( ",
"a.h.4 : s c s a n N A Z B N N K L E E L E E T E T E E E E E E U | L D D K <.0.0.4.6.6.6.6.7.8.8.8.<.4.7.7.7.3.4.4.9.| >.O.$.0 p # # d g d h h ( ~ ( ( ( ) ~ ) ) ",
"K.h.p : M V K c V N B Z N M b v K U W W E U E E L R R } T G c v J L ] T J 5.5.4.6.<.0.0.4.6.7.6.,.k.1.3.q.7.7.r.v.#.% @ w i % u # # 3 5 1 1 5 d d d d d d d d d ",
"K.a.5 - M B V b N N V A A V N K L U W T U E E E T L K D F K K L ' } | ] U 0.0.4.6.6.8.8.6.7.6.7.4.8.8.,.7.7.] #.{ M u i ; % a - = < 5 5 5 5 g ~ g g g g h h h h ",
"K.f.f : M V b b N M N A B V N b D U U W =.I E I T K D c F U E E I ] | E I 8.8.4.8.8.0.8.8.0.7.>.8.3.k.7.r.+.% % ; , : , w O x u # # < 5 1 1 d d d g d d d d d d ",
"K.f.p : N V K s N N Z Z Z N b b U U W U L L L L L L F L U E E E L T E E E 7.8.4.8.8.3.3.3.5.7.5.t.} S B T V ; i - u , : j , % , # # 5 ~ 5 g g / h / / h / ~ m g ",
"K.f.4 - M V K s N M B N N V N b Y E E P L L D D L L E } E E E E T E E E U 6.0.6.3.0.6.7.7.7.7.v.v.W , ; - - : , 2 , u , % u : x # # 3 ~ g ~ / _ _ _ _ _ _ _ ) ( ",
"h.a.4 : M L n v b N Z A A V K K D D D L L L L L L E } } U L T E E U E E U 6.4.6.>.7.7.r.r.[ i i j , - , u 2 3 , , 2 , : - u o $ # # 3 ~ d g / ( ) / _ ) ) / ) _ ",
"a.a.5 - N K D s N N Z Z N N b b D D K L L } } } E E =.} E U E E T U U U U 4.6.3.t.0.$.7.r.V % - u : , 2 2 2 , : : u , w u , % o = < 5 h d g ( ( ) ) / ) ) _ ) ) ",
"p.J.4 = N K D s V B Z N M v a s U T U U I =.E E E E E E E } E E R U R E I 0.7.7.3.I ; w b > % s , = p : : u , u 2 % o $ . & E.E.# < 1 d 4 5 d h d g g g g g g g ",
"a.a.d : M V D b N N M M M s s s L } } T } } T } I =.} } E I E E U R U E T 3.>.$.$.v % 0 ; y t t : : 2 : 1 u - w w w % % % 9 ^.^.- # d d 1 d 1 ~ g g g g d d g g ",
"a.a.p : N V D n s s j M N N Z N I } } E E } T T ] I } } } } E E E E } | V e ; % y : ; u - : - ; > : > w > @ o . . % R.Q.R.R.V.Y.- # t d d d d d d g 5 g g d d g ",
"s.J.p : M b v s v j M M N B J N L } } E } E T ] } } } } } } E I | K L I Y w w u - : y > > 0 t p y 0 - w 9 6 s y e c B.c.c.k.n.B.# # d d d d d ~ h h g g g g h g ",
"g.I.5 - s c a a V N B N N N N b L } } T } E T [ I I I E E I } >.I 0 & & y - > u t > p : p - - - 9 @ . . . 9 ,.<.>.6.>.-.>.R 6.O.- # d d d ~ ~  ./ ( ) _ _ ) _ / ",
"a.L.p : v v s s N N Z C B N P n I ] T Y [ T T +.] [ } } I b s J N 0 0 : i > y 1 f 0 1 : t - t t @ r >.E l =.9.2.<.2.m.<.9.l.9.n.- < d d d h ( ) ( _ _ ( _ _ _ ) ",
"a.J.d : B V J b N N N N Z V J N L T T ] [ T T [ | T E } J 9 @ 6 ; ; 0 0 t 1 1 1 = = d p t + + . + L Q.C.9.9.<.;.=.-.N.N.C.G.l.C.- # d d d h / ) ) ( ( / / ( ( ( ",
"a.a.p , A K K b K N A A N N N c Y [ Y [ [ E { [ B e e v s 9 > i 0 t t p 1 1 > 1 d : = # + Z U.t.=.w.F.m.w.w.m.m.z.D.z.N.N.x.N.B.+ - d d t d d / / j / h / h ~ C ",
"a.a.d : V N b v B N N Z A Z N n Y T Y [ [ T T +.K w % ; w ; ; t t > # t 1 p 1 p 1 + + + + r./.Y.W.W.B.m.F.N.W.D.N.D.m.F.N.N.F.V.+ # d d 1 g d h d d d d d d g d ",
"a.a.5 1 Z J N b V Z M N ( J J D L T | [ B y 9 2 w u - x 2 * 3 , 3 = d p t + - + + - y q 9 q r r k 8 8 k k 8 8 r 8 r q r 8 s e a t + t g 1 d d d d d d d d d d d ",
"s.K.d : N J N b J Z Z Z J J J N Y Y Y V c w ; > : , = : : = 3 z 1 2 t 2 1 t + @ 6 q q s r l r r k k 8 k r r k l l r r q c a a y - < d d 5 5 ~ ~ g ~ ~ d d ~ ~ j ",
"a.K.p : N B D K N N N Z Z P P L w 9 9 , w , ; , , w > t p 2 4 : ; o . o o t.V.Q.C.N.F.~.~.~.H.~.].H.N.x.S.D.D.z.z.F.~.~.(./.(.}.# < d d ~ ~ _ _ ` ` ( ` _ X.' _ ",
"a.a.p : M K n D b N A N j s s v w ; * ; w w w e u , > u u : 2 , & e a c 8 n.N.N.N.N.m.F.G.G.H.H.H.D.S.N.S.D.D.D.D.D.~.H.G.N.G.Q.+ < 1 d 5 d ~ / ~ ~ ~ ~ g g g h ",
"a.a.p , c n c z V V B x u w > > w , , , , , , > t - 9 t - o . + @ C.Q./.[.|.~.[.~.~.~.F.N.N.N.x.z.F.~.`.~.H.(.(.~.H.N.C.N.F.m.B.. + O + + X . o + X + X X X X X ",
"a.a.3 : V n N B i v x u 2 > ; ; , , , , , : : , t ; @ 9 9 D a c q n.9.w.C.n.w.m.m.F.N.l.2.w.w.w.w.l.z.N.n.m.z.l.N.x.2.w.9.n.9.n.s Z D s B N M s j j j N j n s n ",
"a.a.p : B V V n , > 2 : , , 2 , 3 < 4 3 3 2 , u O o . . @ 4.8.0.<.<.>.>.>.=.<.=.=.=.=.=.=.-.>.<.-.-.H H =.;.>.-.-.-.>.>.! ! -.-.,.2.,.>.9.9.<.8.0.<.9.<.<.<.<.<.",
"a.a.3 $ e u i i w : : 3 : 3 2 1 3 3 : : , = $ % 9 } | W F C.t.9.t.n.w.m.w.9.2.w.9.<.<.w.m.m.w.n.9.x.m.l.2.<.2.2.>.<.n.w.M.l.n.l.w.m.<.;.<.2.;.;.l.l.w.l.l.l.l.l.",
"a.a.<   : u O , - u 4 = p 1 : d 3 5 5 4 -       9 B.q.6.1.A.N.N.m.N.N.N.N.l.<.2.2.-.;.l.N.N.N.N.N.D.z.z.:.:.w.;.;.:.D.F.D.D.N.N.D.N.w.;.:.j.=.;.w.D.z.D.D.z.G.x.",
"a.a.<   : ; u y 2 2 4 4 1 2 > 1 = X # . x T.V.y.b.n.M.M.l.C.M.N.N.N.N.N.N.x.n.m.D.l.m.D.C.N.N.m.z.D.z.D.z.z.S.S.m.z.z.m.z.N.N.N.N.z.z.x.z.N.N.l.N.D.N.N.N.x.D.G.",
"a.a.< # p t i : p : = f = 3 p 2 1 + # = N Y.V.Y.V.n.M.M.k.x.M.l.n.n.n.M.N.n.m.N.m.m.C.B.M.M.M.n.x.n.m.N.m.m.D.m.m.m.m.n.m.M.x.n.9.M.N.A.N.l.M.n.M.M.n.l.C.N.n.n.",
"a.a.#   - y : : w : 1 x - + o . : : : u w , * q & k e 7 k 7 7 k r 9 9 e e 9 9 q 9 9 q 9 9 q r 9 e 8 7 e q 9 q 9 q e 8 9 r 7 7 r r 8 & @ 7 7 7 7 8 7 7 7 7 e 6 & ",
"g.a./ 4 f v O 0 u w : - - X ; v v c n c n k n n n 7 e 7 k 7 7 n y w w y y p s p s p p q 0 s s p j u 2 2 t y j p s j u > z , , u i * +.U F F c n c e D U e & n O.",
"a.a.a.p.-   O . . X   . % e V.XXn.>.2.! 1.1.n.A.M.& k ; e S c B B u , w > s P N K s t t y s Z s N s > t t p Z C ) j : - 2 2 4 , ; 6 {.^.0.,.>.! j.8.B.Q.O.7 c.{.",
"a.a.E.T.$.s c L T [ [ #.k % 1.V.G.Z.Z.N.Z.Z.M.c.v.% v [ Y Z S x S , e , 9 i Y c j 9 9 9 0 x V n A s ; > 0 y Z Z Z j : 9 , z [ [ l 6 M.C.F.Q.G.M.M.G.n.n.H % >.Q.",
"a.a.3 X Y.^.^.A.{.{.{.|.#.7 G Q Z..X]..XXX.X'.G n 7 r ).Y.: s S j * * , ; v Y n J y 9 & e e n n Y y 9 9 0 y N P P b w w ; n B.R.7 r R >.|.XX XXX XoXl.R l 6 T R ",
"a.a.m p 5.U.<.<.w.2.9.B.T @ 1.{.H.].H.H.H.H.`.~.A.& c c.5.y y s N , , 0 > B N Z A t 0 0 t s P v b i ; ; w e V N V B ; w , x r.v.* * H.`.'.H.G.D.].~.~.`.+.$ G j.",
"a.g.h _ >.E <.=.-.=.<.4.n 6 C.OX].H.H.:.Z.`.`.XX{.& e r.O.- y D N w : u > A C Z A p t t t j ' J V x 7 , w i S B M N > y u w #.#.k * |..XG.].x.j.H.H.|.XXj.% T i.",
"p.g.h # t.R.l.w.;.;.>.t.L + n.XXG.x.`.].`.x.H..XQ.@ V R.B.u n Y V w , w ; N N Z A y 0 0 9 y V M n i ; ; 9 w N N Y V w ; 2 z b.b.z * {.|.Z.x.]. XG.k./.OX1.$ 7.C.",
"a.a._ 0 Y.Y.w.;.;.;.=.6.D @ C.oX~.l.H. X`.j.Z.|.^.% ] B.r.e e e V e e e 0 B V A A y t w 9 s K N V v , w w u K V b i ; - z S V.E.z , {.|.H.l.].].M.A.'..X+.$ O.R.",
"a.a.d.s.` o n.A.M.Z.V.R.>.+ n.oX!.!.H.j.A.`.`.OX^.% w a N T [ W W n c B i { T T [ n v c c K W U U Y v c n V [ ] [ [ V B S u v , , z |.|.Z.`.Z.M.`.A.'.OXi.$ s c ",
"a.a.a.a.*.Y j.j.k.k.k.v.P @ v.{.^.'.R.M.R.`.E.'.V.w a > y [ T L [ n n Y c [ [ [ [ V K K n Y ! T W Y V V V L | ] T T M N Y M u ; ; , '.|.A.!.!.j.!.R.'.{.! O s D ",
"a.a.a.a.a._.G $ $ * * * , , r   v.OXXXOX.XOX!.  i % u i i T T B T n c K v [ [ Y ] N n n c K T T Y Y n n b N E I [ | v N M V i M B u   X XXXX.XXX.XOX[   7 n 6.^.",
"a.a.a.a.).R.#.R 1.Q Q +.V ; G +.j.R.V.A.v.A.v.! n c ; z i Y [ O.Y v v D v ] ] [ | K V n n K | E W Y n B b K | E P $.b T V K > u , z #.! M.!.j.Z.M.A.i.! G % W /.",
"a.a.a.a.s . Q.[.~.].W.W.E 6 t.oX>.. O o o o * `.v.e i : w O.c W T n N s N E ' } } I J s N I T Y T U b b D P } T E I P s L A ; u p ; {.|.* o $ $ X X i.`.T & c.|.",
"d.L.U.e.t.0.F.N.H.H.F.Q.=.@ >.t.A.V.V.Z.M.A.Z.i.#.w v $.+.v v $.W b T L s ' } }  .I Z Z J I ] T [ Y b K n K } ] | E a P e y 7.$.u z b.c.A.n.Z.M.Z.M.j.v.T 9 | A.",
"I.a.d # U.W.m.x.H.~.~.|.>.q =.>.R.oX.XOX.XXX'.T +.& b ^.Y.e 9 W U s V I I ] } '  .J J J J I } I T Y c K b J } T ] I a P u c E.R.* , 7.#. X.X.X.X.XOXc.+.c O Y 8.",
"I.a.( d t.w.2.2.2.2.8.n.J q t.|.G.[.A.x.A.'.'.{.R.& j t.5.i 9 W | U s a I } ] | } I Z J j } ] ] T U b b D K [ T I E N b e v $.r.z , ^.`.!.[.A.Z.A.'.`.'.7.& +.+.",
"I.a.) : *.O.R ! ! ;.! #.D @ c.XX].H.G.l.Z.Z.A.oX^.7 i $.| 9 s } R F F F D K T } } J s J K I } } ] Y c n c K W T T [ n v w w O.#.z * |.XXG.H.x.x.`.H.|.OX#.o T j.",
"J.a.g # Y.R.2.j.Q ! ! k.E @ c.OXH.x.H. X].x.G.XX^.& r ^.Y.- e E F 6 & r q s >.L } J J J N I } } } S c n n K | T E E v Y w v E.R., * {..XZ.z.]..XM.j.^.OX1.$ +.^.",
"a.a.@.S c.n.j.;.j.;.>.6.F o M.XXH.x.H.].`.j.G. X/.@ s B.t.y c L G l 8 r r r R } } J J J s ' } E T Y n n c K [ T [ T b V e z v.v.k * |.].Z.x.H. XH.M.'..X#.$ [ R.",
"a.a.a.a.b % l.`.x.Z.A.Q.| % C.XX].H.Z.x.x.`.'.oX/.6 s % t +.E & 8 z.Z.A.A.F & F E I D J J I } P W Y c V n S [ T Y Y Y x V B , e z &  X.X`.H.x.x.!.N.{.OXj.$ z & ",
"a.a.a.a.) & +.q.7.7.7.v.M 9 +.R.Q.`.`.M.H.'.`.A.c.9 u M j ) ' 9 * Z.j.l.Z.8 & T } J J J Z P ] ] [ S n n N Y E T Y Y Z P V M i , w e R.M.~.(.H.G.~.{.R.C.#.& n } ",
"a.a.a.a.B & e O % * o - % i u . 9.OX|..XXX.XR.  e 9 v - ; ..$.o k Z.x.Z.Z.r 6 D } I Z Z J P  .] T S B B v K T { ] +.K v ] v > : * ; & @ [. X XXX.XXXT O & 9 7.^.",
"a.a.T.b.#.q.-.>.1.+.r.V.S & W q.k.A.Z.Z.A.Z.A.#.O.w v +.+.j U s k H R >.! v K ] } ' J Z K ' } ] [ Y n n b L W ] I P b M e v $.#.B e 7.9.C.H.N.D.A.G.q.q.U @ +.^.",
"a.s., $ n.^.n.A.A.V.!.|.7.& c.oXV.! ! Q G ! 1.!.c.& s ).^.& & | H * o @ % s  .| } J Z J Z I } E T n n b b L ] } | J K L 9 b Y.R.i & '.|.-.<.H G -.1.c.^.| @ b.|.",
"s.h.C w 3.<.2.<.2.2.2.l.G & ! 7.V.~.'.'.].'.`.+.6.e e 4.O.& c ! G c D K Y | } T } J J s b F R U T S N b b K T T [ } c s e z #.v.e r 7.9.].`.].].!.[.c.1.U * [ c.",
"h.h.x u +.R w.=.;.;.-.>.l & ! j.Q.XX.X X.X.X`.Q ,.& s q.6.e a G ! V n r s P U +.} J D D F G U G T Y B N N P ] T Y U v n 9 e 7.#.e 7 1.1.]. X]..X XXXM.! Y 7 G 6.",
"K.a.m t B.m.l.;.2.;.H 1.Q % M..X~.H.Z.M.Z.`.`.|./.& s Y.B.; , #.Y c T K T +.} Y ] P D s D F E ' [ P C V Z P { [ ] Y A [ ; x Y.V.k * `..XZ.(.x.x.H.~.'.|.1.% G O.",
"h.s.o.2 B.V.9.:.2.l.2.-.G $ v.OX'.~.G.x.Z.H.!.XXQ.& N Y.v.u , S { B Z B x Y { A { J M M j D ] _ ' ) C V M Z { ) Y ..p x u i v.Y.* l `..XH.H.H.x.H.A.[.OX7.o ! 7.",
"K.g.h.s.Z o n.G.B.G.R.R.+.* v..XH.w.H..X[.j.G.oX^.; p = 5 : = $ = = = = < < < < < < < < < < < < < = < < = = < = = = : = = < 3 , , * {. XZ.j.]..XZ.j.'..X+.7 >.R.",
"K.f.f.a.y.r.5.0.q.7.7.v.S $ v.OX[.N.D.].~.x.A.oX^.O ) @._ 5 / ` / m / / / / / / ~ ^ ` g g ` / ` / / / / / m / / m m / g 5 _ ` S u * .X[.Z.x.`.].M.A.'..Xj.$ G B.",
"h.a.s.a.a.J.B   , $ O 3 = $ V.+X~.H.H.:.M.`.^.OX).O m f.a.a.a.a.a.s.K.f.L.a.a.a.p.p.a.a.p.p.a.a.a.a.a.a.a.a.a.a.a.a.a.a.a.h.s.a.z % |..X`.`.x.1.`.Z.'.+Xi.o x X ",
"a.a.a.a.a.a.E.Y.@.@.@.@.@.` i.v.G.[.~.G.!.{.A.v.r.o.%.a.a.a.a.a.a.a.g.J.L.f.J.h.a.a.a.a.a.p.a.a.a.a.s.a.a.g.f.a.a.a.s.f.a.h.s.a.o.@.v.c.A.`.H.A.!.'.M.v.#.B $.#.",
"a.a.a.f.f.a.a.a.f.f.a.a.h.a.`   7.+X.XOXOXoX'.X m K.a.a.a.a.a.a.a.a.g.J.L.g.P.a.a.a.f.a.a.a.a.a.a.s.h.a.a.I.I.p.a.a.a.s.f.h.a.f.f.a., o |.XXOXOX.X.Xo.X &.a.a.a.",
"a.a.a.h.h.a.a.a.a.h.a.h.h.a.a.u.u.[ n +.[ ` &.#.@.a.a.J.K.a.g.h.a.a.g.J.L.g.P.a.a.a.h.a.a.f.f.a.a.h.f.a.a.K.K.a.a.a.a.f.f.h.s.h.p.a.*.@.#.#.n U i.o.&.o.&.a.a.a.",
"a.a.a.s.s.a.a.a.s.K.f.h.f.a.a.a.{ $ , * $ * z a.L.a.h.L.h.a.a.d.a.a.a.a.s.a.s.a.a.a.a.a.a.f.h.a.f.h.s.a.a.a.a.s.h.s.a.f.h.h.s.h.a.a.a.a.= z = ; , * o.J.a.a.a.a.",
"a.f.a.a.a.a.a.f.s.f.f.h.s.f.h.f.a.a.a.a.a.g.L.J.L.g.L.J.a.a.a.p.a.a.a.a.a.a.a.f.s.a.a.a.a.a.K.g.h.s.a.a.a.a.a.s.h.s.a.a.a.a.a.a.a.a.a.a.L.J.I.J.L.I.g.a.a.a.h.a."
};
