/* XPM */
static char *aff4823a0ff44997e0cf291b2d3252bbzaEf97itioFMJWEA[] = {
/* columns rows colors chars-per-pixel */
"80 80 182 2 ",
"   c #170903",
".  c #1C1306",
"X  c #241301",
"o  c #2A1907",
"O  c #2A140A",
"+  c #341C04",
"@  c #271C18",
"#  c #2C210A",
"$  c #33230C",
"%  c #392509",
"&  c #3A320C",
"*  c #2B2318",
"=  c #352616",
"-  c #3C2B15",
";  c #352A1B",
":  c #3B2D1C",
">  c #3B321B",
",  c #2C2523",
"<  c #362C27",
"1  c #3B2D23",
"2  c #3D3223",
"3  c #34342B",
"4  c #3D342B",
"5  c #3C3533",
"6  c #3A3F3B",
"7  c #452909",
"8  c #48330B",
"9  c #52310E",
"0  c #462D15",
"q  c #412E1B",
"w  c #502D12",
"e  c #43321C",
"r  c #493518",
"t  c #553A19",
"y  c #422F24",
"u  c #433423",
"i  c #473627",
"p  c #453925",
"a  c #4B3B24",
"s  c #49362C",
"d  c #443A2C",
"f  c #4C3D2C",
"g  c #533C24",
"h  c #533E2B",
"j  c #443635",
"k  c #4C3C33",
"l  c #463B39",
"z  c #523E34",
"x  c #54431C",
"c  c #65471D",
"v  c #4B4227",
"b  c #4D412D",
"n  c #54422C",
"m  c #5A462A",
"M  c #4B4236",
"N  c #544333",
"B  c #5B4633",
"V  c #594937",
"C  c #5A5238",
"Z  c #61462D",
"A  c #654A2A",
"S  c #68542B",
"D  c #785A2A",
"F  c #604732",
"G  c #644B33",
"H  c #694E35",
"J  c #634D3A",
"K  c #684D3A",
"L  c #6B5236",
"P  c #65523B",
"I  c #6C543B",
"U  c #71563D",
"Y  c #74593A",
"T  c #796438",
"R  c #473E41",
"E  c #395155",
"W  c #4B4545",
"Q  c #584746",
"!  c #564A47",
"~  c #5B544D",
"^  c #4D5154",
"/  c #624E45",
"(  c #6B5743",
")  c #715641",
"_  c #765C44",
"`  c #685856",
"'  c #685758",
"]  c #5C6056",
"[  c #796448",
"{  c #686459",
"}  c #766A55",
"|  c #4D5863",
" . c #6F5E60",
".. c #546F73",
"X. c #756665",
"o. c #6B7071",
"O. c #845C33",
"+. c #876739",
"@. c #906C39",
"#. c #A2743E",
"$. c #866944",
"%. c #87694B",
"&. c #946E4A",
"*. c #897349",
"=. c #97764A",
"-. c #886D53",
";. c #8A7456",
":. c #957757",
">. c #A47B50",
",. c #8E7764",
"<. c #758171",
"1. c #6CD74D",
"2. c #6AD949",
"3. c #72DD4B",
"4. c #79DF4B",
"5. c #70CF57",
"6. c #75E14C",
"7. c #7BE44D",
"8. c #7EE84E",
"9. c #7CE650",
"0. c #988550",
"q. c #9B8458",
"w. c #A78759",
"e. c #B48A5A",
"r. c #AF9058",
"t. c #958669",
"y. c #968677",
"u. c #A98C66",
"i. c #B68D66",
"p. c #AB9368",
"a. c #B89568",
"s. c #A78D75",
"d. c #A99576",
"f. c #B89A75",
"g. c #BAA36D",
"h. c #B9A478",
"j. c #C0905F",
"k. c #C49769",
"l. c #C49A74",
"z. c #C7A777",
"x. c #CDAC75",
"c. c #82DC56",
"v. c #82E34C",
"b. c #86EA4E",
"n. c #95ED4F",
"m. c #85EA51",
"M. c #99EC53",
"N. c #9BF151",
"B. c #AAF754",
"V. c #567990",
"C. c #697A88",
"Z. c #7C7C84",
"A. c #827F90",
"S. c #548998",
"D. c #7C8283",
"F. c #6E8B93",
"G. c #578FAB",
"H. c #6C95AA",
"J. c #5EA4A4",
"K. c #74AFB6",
"L. c #76B0C6",
"P. c #A5998C",
"I. c #B8A586",
"U. c #AEA593",
"Y. c #899AA7",
"T. c #8AACB7",
"R. c #C09B89",
"E. c #C8B18A",
"W. c #D7B888",
"Q. c #D0B594",
"!. c #E5BD8B",
"~. c #C9BBA9",
"^. c #D8C38A",
"/. c #D8C598",
"(. c #EACB95",
"). c #DBC7A5",
"_. c #CFC7B6",
"`. c #EFD6AB",
"'. c #FAE6B5",
"]. c #8EB7C8",
"[. c #FCF0CA",
"{. c #F0EDE5",
/* pixels */
"X.,.,. .,. . .W R Q Q 4 Q / z J n h G L ) _ L L K ( J ) U K ) K ) U U H m Z F F B H I / B h B / h V J V f s a N k f f f f f M b u > : e p f b M d ; V 2.2.2.2.2.",
"' ' ' ' ' ' ' ' ` ' ~ d i = q / A m Z P I H I ) ) ) O.) ) U ) K U U ) L I K K B 0 - + 0 h J V a B B B B N n h f f h f f f f k b p p d a u u u u 2 * N 2.3.6.2.2.",
"' Q ' Q ~ '  . .X. .` s i = = z H H Z Y _ H ) U U K O.) U U U O.U L L ) ) _ U F + + X = n J J N B V B N n n f f f n f f f k f b i f n a p e 2 2 2 * M 1.7.b.3.2.",
"' ' ' ' ' ] '  . .X.} j k z u = + % + L [ I _ I U K H H K U U U U ) L L ) _ ) K p h h i ; = + = V J J V n s a b k f f k f f M b p f b b f s p p M , W 2.2.3.2.2.",
"` ~ ' ' ' ~ ' X. . . .4 z / z = o + + Z ) H Y L U U K U U U K U U U U H I ) ) U N L I m - o o = n n z h f s h f f f f h k f k b f f p b b b b b d < ! 2.2.2.2.2.",
"' ' ` ' ' '  . .,.X.' j z Q / z h G m H Z h K H $.K K U U K U H H U U U I ) ) L B N B V B B N B = o + = p n N f f h b f f N b f M b a a f f f d d ; ! 2.2.2.b.2.",
"' ' ' ' '  .' '  .' ' s j V K K m G Z Z m Z H H U H H U ) ) U U L U U U ) ) I K G B n N B J G z = $ + - e a a a f f N z f k f f M b b f f f p d d * ! 2.2.b.B.2.",
" .X.X. .X.X.' W R R Q j z V Q s B m G H U %.K Z Z Z Z H ( O.U U ) U ) K K ) ) ) B F B P B B V V V J J z i : : > f f f f N f f f f b n b f v b B d ; ! 2.2.n.n.2.",
"X. .'  .X.X.' ! Q ~ Q j z Q z B G m m H U L L I H H L H Z Z H H L U ) U I I ( ( K B J J N B B B B B B B s a i p u p u p i f k h M p f f f b f p j < ! 3.1.N.9.v.",
" .X.X.X.X.X.' W R R Q j s Q V K G Z m L ) U I ) K U U H H Z Z H U U U L ) U I K h h m B N V P V V B V B f a h f 1 1 y i s f b b d p f a f b b b p * V M.v.N.c.B.",
"' ' ' '  .' ' ' '  .' j k Q Q F J m Z L U I I I U U U H K H H H F G H H ) _ ) H K K V J V V B B B V V J N N n h i a p p p p u 2 f b M N f a p f d 3 ! 7.N.M.v.B.",
"' ' ' ' ^ '  . .X.X. .j s Q z z B m m L U I I U U U U U U U U K m Z F G L ) ) L m m N N G V B Q V B V V f a f a z f a i d u 2 ; f f b a f f d b d ; V c.N.N.9.B.",
"Q ! ! ! ' Q ~ R W Q R @ y Q Q K J m m L U U I U U K H K U U U K H L L H G G K F F K J V V G N V B B V V h f f d f f a k f f d u u u e u p b b M i ; ! 2.1.3.1.6.",
"W Q ! R W Q R j 5 j y O = z Q F A m F I _ _ ) U U U U U ) U U U U U U H F F F B B G N g G V N V B N V G h a N f f f f f f N f f p > > e a p f d p ; ! 2.2.2.1.1.",
"Q ! Q Q Q Q Q R R R j @ , j s z B m B I ) ( U U U U U ) I O.) L K U U H L U H J O + o = N V B J V m B V N f N h z z f f k f f f f p i p u e > > 4 * V 2.2.2.1.2.",
"W Q Q Q W Q R j l l j , @ y s z m n m P I I I P K K U K ) ) L ) U U U ) ) ) I K + 0 + $ B J h N V V V V h a f f a f f a f f f k s b n f p u p 2 4 * ! 1.9.1.9.9.",
"j j j j j j j 5 < R j   , 5 3 > e - e P } I ( ( ) ( ( ( ) ) Y H L L U Y I L I ) h J / h o X O O B J J V h i f v f f b f k f f f f f f h f f f s V * ! 8.8.1.2.m.",
"l l l k k l j j j 5 5 , , @ * 4 > - e n V B C ` / / ) ) _ ) ) U U U U U ) ) ) ) z B J z y 1 y : h g u s h N b p f b M b f a f f f f f f f s a s y * V m.2.2.2.6.",
"j j j j j s s < j 5 3 @ , M b ; - - > e - = u N } ) ) _ ( G G L L H L L L U I J F B F F z V J z X X O + u f N f p b p M f z z z h f h k f f f k d 3 ! 9.1.1.1.1.",
"Q z Q l k ! R j j l 5 @ * ; ; 2 e - 0 e q q r p F h g J _ _ ) _ Y Y U U I ) I I G B B V J K ( B q u i i e e u u f f f d z f f h k f f a a f f f u * M 2.1.b.4.3.",
"W Q ! Q ! ! Q R 5 ^ j @ * i ; a 0 : 0 q p a 0 0 0 + q B [ I I I L U I ) ) I I ) H z h G z F F g J ) / V a : : 2 M p f f f f h s f h f a f f f k V * Q 2.2.4.3.3.",
"! ! ! W ! W W R j R 5 @ * = o r e q e q q = q - u q q g a r r m U ) Y ( I I K G K h F F F F F B B N m h a a p p 2 2 2 s f b z k f k f f k h f b d * d 2.4.2.2.1.",
"! ! ! ! Q Q R R R 5 5 < * X o 0 e q q u u : q y i q ; > - = e V ) U P U [ _ ) K K g Z K B F K Z V B B B N f a p 2 : > 2 s f k h f f f z k f z b k < d 3.b.2.1.1.",
"l l j j j j j < 5 R j   e U.I.X o X O = q q y y > > > 2 p > > ; p q e h / [ ( H G h g Z Z Z Z B B B V V h i f v b f u u p u q ; f f h f n n k f M * b 2.2.2.2.2.",
"l l l l l M R 5 j < j @ y ~.I.8 - + k O : a = u ; ; - 2 2 ; ; > i 0 - g P L J J G G m F F F Z F B K V B f i s f b b f p i u a s k k a s h h k f i 4 l 2.2.8.2.2.",
"j j l 5 5 j 5 5 , 5 j O + P.I.d.d._.~.q       = 2 d ; ; 2 4 d 3 - - ; e e - q r H J J F F B G n B B B B n b b f f d M f f f s a : : : u s f f b d ; 2 2.6.6.2.2.",
"l R R l R l l 5 R j < O g s.t.p.s.E.I.Z r h r - # e ; ; 3 ; 1 1 1 > e p 1 = : p h h g n B G G V B B B N n n b f b d b f h k z f u u u u s p d u d 2 5 2.8.6.2.2.",
"! ! ! W Q ^ R l j l y O 7 -.Y T ) H _ %.-.:.-.w     . o v s 1 2 > : ; 2 u u e > : : : p z V V K B B V B n f f f f b f f k f f z h z f a i p y : 1 ; M 6.8.3.6.2.",
"! ! ! ^ ! ! W l j W k O + :.:.0.>.>.e.>.%.&.:.A m L %.q + @ O a p 2 > 2 a 2 > ; : : : 2 p f f a V J V B b p a f M f b k h k h f f f a f s s d u d * 4 2.8.6.6.2.",
"W W ! W W W W R R l i o % h.z.a.l.z.j.>.&.&.>.&.$.p.E.Z X   X O u 2 2 2 > 2 2 2 2 2 1 : 1 > 1 1 N B V N n f f b M b b b k h k h s s f f a h f f N ; s 6.8.6.3.2.",
"R R R M R W W 5 < j i o % d.a.a.j.j.e.e.j.e.>.e.w.u.f.-.:.,.:.N o # # * = ; 2 2 > u 1 > 1 ; 1 y i i s a a b f f f b b d k f h k n f N k f f f h d ; 4 3.8.8.3.2.",
"l j l 5 5 l l 3 j j ; o t f.r.a.k.>.k.k.j.k.k.k.l.a.f.f.E.s.R._ X . X # > i 2 ; ; 3 3 1 2 1 4 q q : : : i N v d p f p f f f s f f f f a f f v k d 2 l 3.8.6.2.2.",
"j s j j l l 6 5 4 k 2 o + 7 c 8 t 9 t t t t t 9 t g g t w t t y e r q $ O $   # i d ; 1 3 5 * 3 d 2 1 1 : 2 p u f a f a b n k f N k f z k f k M k * f 2.3.2.2.2.",
"l M l k k j 5 3 < j 1 # + Z m 9 A A x t t t t t t t t t t g t t r m g r 0 % $ $ - 0 ; 1 ; 4 6 2 * 1 d s u 2 1 e p i p f f M h k f a s f h f f N f 1 k 2.2.6.b.2.",
"] Q ^ ! ! ^ W W l W 5 @ = s.d.d.i.a.a.e.a.W.!.W.!.!.W.l.k.i.k.k.l.f.i.f.).Q.).f.  X     - d ; : d 2 2 > 2 e 1 ; 2 e 2 u f b v M f f f f f f f f f ; j 2.2.6.7.2.",
"l W M 6 W M M 5 5 j < @ @ Q.s.f.a.k.k.a.k.x.x.z.x.x.k.k.k.k.l.l.a.l.R.l.l.l.Q.a.7 S g t 0 0 % r ; : - = ; 2 2 u 2 1 1 2 2 i d v f v a h f a a p f = i b.2.2.2.2.",
". . . . . . . .   . @ O = ).E.Q.^.W.W.W.x.z.a.i.e.i.l.x.!.Q.!.!.W.W.!.E.i.f.p.p.h.E.).E.X   X   8 u p p 1 : 1 1 2 1 2 ; 2 2 2 > d p v a v v f f f ; 2 B.2.2.2.2.",
"B B N N V N C C ! Q z h g I.u.i.a.r.r.i.p.w.>.&.w.>.>.w.l.>.>.i.i.u.e.r.=.r.0.q.q.0.p.p.0 x m t % # o $ : y y ; u 4 < 1 2 ; ; > > r p p p b b M f ; v 3.2.2.2.2.",
":.%.*.*.-.*.-.:.*.%.-.%.$.>.+.D +.T T +.T +.+.Y $.+.Y O.$.O.O.O.D O.+.+.D D D @.T T S T *.q.*.%.o X X o % y s < < < 1 1 > 3 > > - > > > u p v v s ; 4 2.2.7.2.2.",
"=.=.=.@.=.*.=.w.u.u.>.u.>.>.e.>.=.=.=.$.&.w.u.i.w.w.w.i.>.>.>.#.=.=.+.@.a.w.r.0.r.r.p.q.q.$.*.*.A T -._ i o + ; 1 1 1 1 2 > > > > 2 2 ; 2 u s 2 3 * 3 2.7.n.4.2.",
"w.>.=.=.@.@.=.e.i.i.i.a.k.a.e.>.@.>.>.@.>.>.j.k.j.k.k.k.>.>.#.$.>.O.$.>.i.k.i.a.a.f.k.i.:.&.:.:.-.;.p.I.-     o ; 2 p > > * & > > : 1 y u : * 1 , . < 1.n.M.5.5.",
"a.p.a.a.p.r.r.g.f.f.f.f.l.k.a.i.e.k.e.>.j.j.k.k.j.j.j.k.k.k.j.j.k.i.j.i.j.j.k.k.j.a.k.i.i.i.>.l.a.s.s.f.t.t.d.y.a X * . ; v > = 1 1 : : 1 u y 1 *   < c.B.c.5.5.",
"t.p.p.d.p.u.p.p.d.s.s.u.u.u.p.p.i.i.i.i.k.i.>.k.k.i.>.i.j.i.i.i.j.l.k.i.i.i.r.a.i.i.u.i.i.i.R.i.u.u.f.s.d.d.I.d.e X X X * > > 2 ; 1 y 1 ; u s < < @ z c.M.5.c.c.",
"r r r 8 8 8 & 8 7 0 0 0 7 % 7 7 7 % 7 7 w 7 7 9 w w w 9 w w w 7 7 w 7 7 9 7 7 & 9 9 7 7 7 w 7 w 9 + 8 9 9 r % % g r & r #   X X - - a u : : j 4 <   @ c.M.c.B.n.",
"L n a m S m m A A S L ( U I L L Y A m H H Z Z L J L L U I D L L %.g t c Y S m S x A S S H S m S U U t 9 A L m S t m m C b v $ X : q 0 q q 0 : 2 @ j j v.N.N.n.2.",
"f.y.u.I.h.h.h.h.Q.Q.).).).).)./.Q.s.t.d.P.R.I.I.R.Q.~.).).~.).).Q.P.,.u.d.h.g.d.h.I././.(.)././.).Q.c w z.(.0.*.T T :.*.t.Q.-.a + X     X       O b.B.v.N.N.v.2.",
":.%.*.=.q.0.=.0.w.u.u.p.i.p.p.p.u.$.$.:.e.,.>.>.:.u.i.i.i.i.i.u.s.w.-.;.q.q.q.q.0.q.u.i.u.i.u.s.p.f.9 7 p.h.g.g.p.h.p.h.s.s.I o H _ ) ( _ J b I B } { v.N.n.6.2.",
"%.&.*.*.*.*.$.$.$.$.$.$.[ $.$.+.-.+.%.&.&.O.$.$.+.$.$.+.+.$.$.$.%.%.%.%.*.*.-.*.[ *.$.$.-.$.&.:.$._ t r T +.(.'.`.[.(.'.h.m G 0 ,.).`.(.~.E.d.Q.s.# n 6.b.2.2.2.",
"S x m C V C C ! C M C C N C m C C n G P x m m t.s.S S c t A S m J C C m m B V V C ~ V N G Z c A *.[ m r h.W.W.W.x.z.!.!.z.^.;.% Y q.:.0.>.>.&.;.&.y z 2.2.2.2.2.",
"c x & 2 3 3 3 3 3 3 > * * > 3 3 3 , ; & r r > ,.I.P 7 9 0 0 3 ; ; 2 ; 2 3 3 3 6 3 3 3 6 p r 7 9 *.} 7 r `.'.^.x.e.>.l.z.(.[.;.% S *.[ +.+.$.$.&._ g z 2.2.2.2.2.",
"T 8 8 d ! o.<.S.Z.C.C.V.<...V.V.F.C.o.v v > > t.P.n % r v ^ ..S.S.F.V.V.<.......F.V.o. .6 v 0 8 p.d.n + /.'.0.g.!.`.W.e.E.'.t.X I 0.$.$.$.>.,.l.,.w j 2.2.7.m.2.",
"T x r i ^ C.F.F.H.S.F.V.S.G.G.G.G.S.F.5 p p r t.I.U v 0 3 ] S.S.G.G.G.G.S.S.S.S.H.F.V.o.3 d r q h.t.g e /.`.^.r.(.`.k.i.^.'.t.# B %.$.;.&.%.>.P.,.s Q 1.2.6.8.2.",
"r & 3 3 E F.H.G.H.S.V.S.V.G.G.G.H.V.F.6 3 v $ r r + r 1 3 | J.S.G.G.V.S.S.S.J.J.H.H.C.C.5 5 4 = - % h 0 `.[.g.g.p.u.Q.z.W.[.t.. [ I.I.p.f.E.:.& / 4.2.2.2.2.2.2.",
"g ; 6 3 E V.V.G.S.S.S.S.G.L.G.L.L.V.C.5 , v > m L 0 g z 6 | V.G.G.G.G.G.G.G.J.J.H.S.V.V.3 5 s s I t h + I.).E./.E.p.E.^.E.).,.# _ s.w.:.q.d.} p Q 6.2.2.2.2.2.2.",
"[ i 6 6 E F.S.H.H.J.K.].].].].].L.C.Y.W ; v r y.{.+.7 7 f { F.V.Y.H.H.Y.T.].].].].T.A.C.R 3 j y s.f.n s + . `.'.'.'.`.[.*.  2 b 7 % + t % X x 3.m.2.2.2.5.6.2.2.",
"} > 3 3 E V.V.S.S.V.V.V.H.H.F.F.C.o.` j > x # d.E.G 0 0 p ~ ..o.C.C.<.F.F.F.<.J.H.Z.C.C.R , j j d.Q.0 r %.T q.h.p.I.d.I.*.V ( ; G -.D Y [ *.[ ( } 3.7.2.2.2.2.2.",
",.w u 5 W | | E ^ E E E ] E E | | ^ ~ > x 8 x *.d.H w w 0 ~ ^ | ] ^ ^ ^ E E E E | E | | 5 4 a n I.~.B $ /.`.& O + % #   T ).} o -.l.E.!.!.`.t.. v 7.2.2.2.2.2.n.",
"H 9 i s W o.V.F.J.F.F.F.D.K.F.F.S.o.o.v 8 & & <.p.H 9 t ; ^ o.S.H.J.H.F.F.F.<.K.V.F.o.{ 5 u r r h.u.0 v d.p.g.p.u.f.f.I.p.t.( = $.x.E.W.z.a.p.;.o.! ( 2.2.2.2.B.",
"A t g 1 ^ F.P.L.T.].].K.L.L.L.G.H.V.F.4 v m & T -.t 7 g 5 | F.H.].L.].K.K.].K.K.H.H.S.C.3 d > 8 D [ v v ] T `.`.'.[.'.[.p.P P + :.W.W.W.f.w.f.I.t.% i 2.3.2.2.B.",
"A 8 - @ ^ C.C.T.K.T.K.T.L.G.K.G.G.V.F.3 > x & 0.f.A 0 a 3 | V.J.L.L.L.L.K.K.J.J.S.F.o.o.3 f 8 r :.-.3 & E.`./.^.h.p.h.W.^.`.,.$ D w.=.>.=.&.$.*.[ > m 2.v.n.3.B.",
"D & v 6 ^ <.F.].K.K.K.K.K.G.J.G.H.S.F.3 > > & 0.I.m % a 5 | S.G.L.L.L.K.K.J.S.J.J.F...o.3 2 - x T } v & ).'.g.^.a.u.x.x./.'.} & S 0.+.+.@.$.+.;.} ; M 2.2.N.7.B.",
"[ & 2 5 6 S.H.T.].].T.J.J.J.K.J.T.S.<.M 6 v v <.U.B & v 6 ] S.K.].].].K.J.S.J.J.].K.C.C.5 < > t d.I.n $ ).'.g.r.(.'.x.0.^.[.t.# S =.T @.+.+.w.f.t.> 4 2.2.n.v.B.",
"U 2 4 5 ^ Z.F.Y.U.Y.Y.<.<.F.J.K.Y.F.o.3 & * > <.P.] r r ; ~ C.D.T.P.Y.F.<.F.F.F.Y.Y.C.o.j j s t t.s.v $ ).`.x.r.W.`.^.q.x.'.t.. m *.%.=.=.w.p.,.,.C ! 2.2.3.2.3.",
"$ - b < W ~ ^ o.] ! ] ] | E ! ] ~ ~ ~ & C v & 2 & # e a > ~ ~ ! ] ^ ~ ] ] ] ^ ^ | | | ' j s s 0 & & = 8 '.`.x.^.i.i.g.g.`.[.0.# 0.h.a.f.f.E.:.+ N 2.2.2.2.2.2.2.",
"I % r t h P V / / / z / V ( / / V C J r m s = _ } a n Z r z ) ) / Q A C C ~ / ~ ( / ! ! c s t r L I b = d.h.^.^.x.z.W./.g.I.} # ~ t.:.;.-.:.Y g J 2.2.2.2.2.2.2.",
"Y 9 0 w 7 7 % 7 % w 7 w % % + + q 8 8 7 7 7 t u.'.D + + 7 7 + 7 % 7 8 9 7 + % % 7 7 7 7 7 7 7 w d.I.p p &   ^.'.'.'.`.[.*.  > i = % X % o 7 t + a 7.2.2.2.2.2.2.",
":.A O.$.+.$.+.-.O.&.:.>.=.:.:.>.=.O.O.@.@.O.+.a.x.>.#.0.>.>.#.>.>.@.O.O.@.@.@.@.#.@.#.#.#.#.#.#.h.~.e r 0.T g.g.g.r.g.x.:.[ ) q ( t.w.t.:.D %.%.-.( ] 2.2.7.3.2.",
"z.=.i.z.l.l.x.h.Q.!.(.(.(.!.!.(.x.r.#.k.x.x.a.k.j.x.(.W.!.(.x.!.(.j.#.#.e.x.x.k.x.x.x.(.!.^.x.(.^./.m # /.(.0.T O.c +.@.0./.}   t.)././.W.f.f.E.s.* ; 2.2.6.m.2.",
">.O.@.0.#.@.@.@.&.&.>.&.=.=.=.0.0.+.T *.@.0.q.@.0.*.0.@.*.0.*.=.0.0.+.$.#.&.$.$.T *.=.0.=.0.=.:.0.:.8 & 0.0.x.^.(.(.^.(.p.T I - T q.0.0.+.=.w._ [ > d 2.2.2.b.6.",
"+.D O.@.+.+.@.@.O.@.@.O.+.+.@.@.T [ *.[ T T T T T T [ *.} +.T *.T [ *.*.$.+.$.*.$.$.$.+.+.T +.@.T D x x <.+.(.(.(.'.(.'.g.D I - S +.+.+.@.+.+.%.} * C 2.2.2.6.8.",
"w.g.r.r.r.p.p.p.a.p.r.=.=.&.&.O.@.p.i.r.g.a.p.g.a.a.w.=.0.0.=.$.+.q.p.u.u.i.p.p.p.f.p.w.0.=.=.0.*.+.x & ^.(.^.x.a.k.x.x.^.`.,.% m @.+.T =.=.+.E.t.# v 2.2.2.2.8.",
"*.g.p.r.g.a.r.r.p.r.p.=.:.&.>.&.@.k.i.e.k.r.w.k.k.e.k.e.=.#.=.>.+.q.a.a.u.a.f.a.i.i.a.r.w.=.=.=.+.*.x & ^.'.x.x.x.r.x.x.(.'.*.% T T =.@.*.q.;.s.t.d W 2.6.8.6.8.",
"f.l.l.l.f.l.l.l.l.l.f.l.R.l.R.l.k.k.k.k.k.k.k.k.k.k.k.k.k.k.k.k.k.a.l.a.k.l.l.l.k.l.k.k.k.k.k.k.a.I.r r /.'.g.0.(.'.x.0.^.'.;.# } h.I.p.h.Q.,.o N 2.2.2.2.7.3.b.",
";.:.:.;.;.:.:.:.:.;.:.:.:.&.:.&.=.=.>.=.=.=.=.>.&.>.&.>.=.=.>.&.=.=.:.=.:.:.&.;.=.:.:.&.=.:.=.:.q.t.v $ E.'.g.r.^.(.x.r.x.[.t.% [ q.0.t.:.;.[ Q ` b.3.2.2.4.3.8.",
"7 % = 7 7 % % = % 7 : % = 7 = & - ; ; = = = $ $ = = ; = = = = - ; = = ; ; : ; ; = = ; = & % & % # $ u ; `.{.E.^.p.;.x.^.E.{.P.. ; o # ; % : B 2.b.b.2.2.2.2.2.v.",
"` ) ` ( ` ` U ` ` ' ' { ` ` ` ` ] ~ ] ` ] ] ] ] ] ' ' ' ] ] ] ] ] ` ` ( ` ` ` ` ' ' ` ` ` ` ` ` } Q } ! t.t.h.).E.U.^./.h.t.' ] X.{ } ` ( / ( 2.M.n.2.2.2.2.2.2.",
"2.2.2.6.6.2.2.2.7.3.2.2.8.2.2.2.2.2.2.2.2.7.2.2.7.b.2.2.2.2.2.2.2.2.7.v.n.6.n.2.2.2.v.2.2.2.2.2.2.6.8.P., X ).[.[.{.[.{.;.  ` 6.6.2.2.2.2.N.n.v.B.v.2.2.2.2.2.2.",
"2.2.2.8.8.2.2.2.2.8.2.6.m.2.2.2.2.2.6.2.2.b.v.2.n.2.2.7.b.2.4.v.2.2.7.b.n.6.n.2.2.2.v.2.2.7.6.2.2.8.6.2.2.b.} P I } C I o.] 5.8.2.2.2.6.v.v.B.v.N.2.n.n.2.2.2.2.",
"2.2.2.3.3.2.2.2.2.m.6.8.6.2.2.2.2.2.2.2.2.6.b.2.n.2.7.N.v.2.3.3.2.2.2.2.3.2.3.2.2.2.2.2.2.6.8.2.6.m.2.2.2.2.= & = * v ; C 8.3.8.2.2.2.2.n.v.B.v.N.n.B.v.2.2.2.2.",
"2.7.2.2.2.2.2.7.6.6.7.8.3.6.m.3.2.2.2.2.2.6.N.7.n.7.N.v.2.2.2.2.2.2.2.2.2.2.2.6.3.2.2.2.2.2.m.7.8.6.2.2.2.2.2.6.8.6.2.2.3.2.2.2.2.2.2.2.n.b.B.v.N.N.v.3.2.2.4.2."
};
