/* XPM */
static char *eeb0bb44e79c425bab714bd4186978c7GC6SZXshpOib0jJr[] = {
/* columns rows colors chars-per-pixel */
"80 80 175 2 ",
"   c #110A07",
".  c #190901",
"X  c #1C1306",
"o  c #241301",
"O  c #2A1907",
"+  c #341C04",
"@  c #271C18",
"#  c #2C210A",
"$  c #2C241C",
"%  c #352616",
"&  c #352A1B",
"*  c #3B2D1C",
"=  c #3A3219",
"-  c #2C2523",
";  c #362C27",
":  c #3B2D23",
">  c #3D3223",
",  c #34342A",
"<  c #3D342B",
"1  c #3C3533",
"2  c #3A3F3B",
"3  c #46341A",
"4  c #553A19",
"5  c #422F24",
"6  c #483824",
"7  c #43352C",
"8  c #49362C",
"9  c #443A2C",
"0  c #4C3D2C",
"q  c #533C24",
"w  c #553D2A",
"e  c #443634",
"r  c #443A33",
"t  c #4C3C33",
"y  c #453B3A",
"u  c #4A3D3B",
"i  c #523E34",
"p  c #4B4227",
"a  c #4D412D",
"s  c #594525",
"d  c #54422C",
"f  c #5B452D",
"g  c #5C4A2D",
"h  c #4D4132",
"j  c #46433A",
"k  c #4D423D",
"l  c #544333",
"z  c #5B4633",
"x  c #554A34",
"c  c #5C4A34",
"v  c #54443C",
"b  c #5A4639",
"n  c #53493E",
"m  c #5C4A3A",
"M  c #5A5238",
"N  c #664A27",
"B  c #61462D",
"V  c #624A2E",
"C  c #68542B",
"Z  c #785A2A",
"A  c #604732",
"S  c #644B33",
"D  c #694E35",
"F  c #634D3A",
"G  c #684D3A",
"H  c #6B5236",
"J  c #65523B",
"K  c #6C543B",
"L  c #775A36",
"P  c #71563D",
"I  c #72593E",
"U  c #7A653A",
"Y  c #473E41",
"T  c #4B4545",
"R  c #534543",
"E  c #584746",
"W  c #544A44",
"Q  c #5B4B44",
"!  c #554B4A",
"~  c #5B4C4B",
"^  c #5B5349",
"/  c #4D5154",
"(  c #5B5654",
")  c #624E45",
"_  c #6C5541",
"`  c #6D5A42",
"'  c #655649",
"]  c #715641",
"[  c #765C44",
"{  c #655554",
"}  c #695656",
"|  c #665955",
" . c #695A56",
".. c #685758",
"X. c #665A59",
"o. c #6C5A5A",
"O. c #7C6244",
"+. c #786549",
"@. c #6C615C",
"#. c #766D53",
"$. c #796855",
"%. c #71635E",
"&. c #6F5E60",
"*. c #6C6462",
"=. c #736363",
"-. c #756965",
";. c #796A68",
":. c #797569",
">. c #797876",
",. c #845C33",
"<. c #876447",
"1. c #866944",
"2. c #82664B",
"3. c #846B4C",
"4. c #8A6C4D",
"5. c #946E4A",
"6. c #897349",
"7. c #856C53",
"8. c #8A6E52",
"9. c #866D59",
"0. c #8C7254",
"q. c #8B7559",
"w. c #927455",
"e. c #997955",
"r. c #92755A",
"t. c #937A5C",
"y. c #A47B50",
"u. c #867165",
"i. c #8A7665",
"p. c #947A63",
"a. c #847C78",
"s. c #6AD949",
"d. c #72DE4A",
"f. c #79DF4B",
"g. c #75E14C",
"h. c #7BE54D",
"j. c #7EE84E",
"k. c #7ED768",
"l. c #9B8458",
"z. c #998567",
"x. c #91886C",
"c. c #86847C",
"v. c #968677",
"b. c #A78D75",
"n. c #83E44C",
"m. c #89E64D",
"M. c #82EB4F",
"N. c #8CEA4D",
"B. c #93EB4F",
"V. c #93EE4E",
"C. c #95EC4F",
"Z. c #9BEE4F",
"A. c #87F04F",
"S. c #93F14F",
"D. c #9FF14F",
"F. c #81EA50",
"G. c #82EB50",
"H. c #84ED50",
"J. c #8DEC51",
"K. c #96ED50",
"L. c #9AEE50",
"P. c #85F050",
"I. c #95F250",
"U. c #9DF150",
"Y. c #A4F452",
"T. c #A5F552",
"R. c #A9F651",
"E. c #A8F653",
"W. c #ABF952",
"Q. c #AEFA53",
"!. c #B3FD55",
"~. c #83DA6B",
"^. c #918F8D",
"/. c #AB9987",
"(. c #AEA593",
/* pixels */
"s.s.s.s.s.s.s.s.d.j.h.g.H.g.h.s.s.s.s.j.h.s.n.n.S.g.N.d.N.s.s.s.s.s.s.s.f.s.s.s.s.s.s.s.h.d.s.j.j.g.j.g.s.s.s.s.s.s.s.s.s.s.s.s.s.s.s.s.n.n.E.n.L.K.f.s.s.s.s.s.",
"s.s.s.s.s.s.s.s.s.j.h.g.G.g.h.s.s.s.s.s.I.s.n.j.V.g.N.N.d.s.s.n.d.s.s.f.Z.s.s.s.s.s.s.s.g.G.d.j.j.d.j.s.s.s.s.s.s.d.s.s.s.d.h.s.s.s.s.s.s.s.K.f.N.~.~.s.~.~.~.~.",
"s.g.s.s.s.h.s.s.s.g.h.g.j.s.s.s.s.s.s.s.S.s.j.n.S.g.N.N.d.s.s.n.C.d.s.Z.n.s.s.s.f.h.s.s.s.j.g.h.j.g.H.s.s.s.L.m.s.d.f.s.s.j.d.s.s.s.s.s., X 1 @ - - , - ; - ; ; ",
"s.g.d.s.g.G.s.s.s.s.s.s.g.s.s.s.j.g.s.s.d.s.n.j.V.g.N.g.s.s.s.s.D.f.n.Q.n.s.s.s.h.j.s.s.s.d.d.h.g.s.g.s.s.d.Q.L.s.s.n.s.h.G.s.s.s.s.s.h.( T ! / T ! R ! ! ! ! ! ",
"s.g.h.s.G.h.s.s.s.s.s.d.g.s.s.s.j.j.s.s.s.s.s.s.s.s.s.s.s.s.d.d.L.E.m.Z.s.f.d.s.s.s.s.s.s.s.s.s.s.s.s.s.s.s.s.d.s.s.j.j.h.g.s.s.s.s.T @ >.>.! *.X.X.X.X...&...X.",
"g.g.G.g.j.s.s.g.s.s.s.Y.!.s.s.s.s.s.s.s.s.s.s.s.s.s.s.s.s.s.h.K.f.R.m.B.n.Q.B.s.s.s.s.s.s.s.s.s.s.G.n.s.s.s.s.s.h.g.g.j.h.g.g.H.d.s.E 1 ! T o.*.X.X.X.&.&.X.&...",
"g.g.j.d.j.g.j.j.s.s.s.n.J.s.j.K.s.s.s.s.s.j.g.s.s.s.s.s.g.s.s.L.m.R.m.C.Y.B.s.s.s.s.s.s.s.s.s.s.s.E.E.s.s.s.s.s.s.j.s.j.g.g.j.g.$ 1 ! ! R Y X.-.*.*.;.&.&.&.*.&.",
"s.j.j.g.G.g.j.s.s.s.s.s.s.s.K.!.g.s.s.s.s.g.H.g.s.s.s.s.d.s.s.K.m.E.m.C.Y.d.s.s.s.s.s.s.s.s.K.s.s.h.n.s.s.s.s.s.s.j.g.j.j.h.j.s.T 1 R R T ~ ..o.&.&.&.&.&.&.&.&.",
"s.j.h.g.j.f.d.s.s.s.s.s.s.s.s.d.s.s.s.s.s.s.g.g.s.s.s.s.s.s.s.K.n.E.m.K.I.s.s.s.s.E.f.s.s.Y.f.s.s.s.s.s.j.M.s.s.s.j.d.j.g.g.j.s.R e E R E ~ &.=.&.&.=.%.=.=.=.=.",
"d.g.h.g.j.d.d.s.s.g.s.s.s.s.s.s.s.s.s.s.d.s.s.j.g.s.g.g.s.s.s.s.s.K.n.n.s.s.s.s.s.U.Y.s.h.L.s.s.s.s.s.s.g.j.s.s.s.s.s.g.g.g.! 1 u e &.&.o.} o.} ..o.{ } } o.o.} ",
"s.s.d.s.g.s.s.s.s.s.s.s.B.N.s.s.s.s.s.g.j.g.s.j.s.g.j.s.s.s.s.s.s.s.s.s.s.s.s.s.s.d.Q.n.Y.f.s.s.s.s.s.s.s.s.s.s.s.s.s.s.s.k.- y e u =.u.=.} &.} ..{ } } } } } } ",
"f.J.s.s.s.s.s.s.s.s.s.C.W.f.s.s.s.s.s.s.g.H.g.j.g.j.j.s.s.s.s.s.s.s.s.s.s.s.s.s.s.s.K.L.L.f.s.s.s.s.s.s.s.s.s.s.s.s.  O $ : u.^.u e &.;.=.o.&.&.....{ } o.} } o.",
"s.d.s.s.s.s.s.d.s.s.d.Z.f.s.s.s.s.s.s.s.s.g.h.j.g.j.s.s.s.s.s.s.f.n.s.s.s.s.s.s.s.s.h.K.L.f.s.s.s.s.N.N.s.s.s.d.s.s.n n b t i.u.8 e o.u.u.=.o.) } '  .{ { } } } ",
"s.s.s.s.n.s.s.B.n.s.Z.m.s.d.n.f.s.s.g.g.s.g.h.j.g.j.s.h.s.s.s.s.s.j.h.d.G.j.s.s.s.s.s.s.s.s.s.s.s.s.d.I.n.g.X X . + v.i.a.v.u.a.e e o.=.=.o.o.{ { { } { } ..} { ",
"s.s.s.s.m.s.s.s.Y.s.C.n.d.D.R.f.s.s.s.h.g.s.h.j.g.G.g.h.s.s.s.d.s.s.n.h.j.s.s.s.g.s.s.s.s.s.s.s.s.h.:.a.c.c.J #.M +.-.u.v.u.v.=.E e  .Q ) { @.=.o.o.o.o.@.o.o.@.",
"s.j.d.s.s.s.s.s.Q.C.Z.m.Z.R.f.s.s.s.s.j.s.g.h.h.g.G.g.g.s.s.s.h.G.d.j.h.g.s.s.s.s.s.s.s.s.s.f.s.s.(.. & . = v.#.x.i.x.#.q.q.u.i.e 5 ) E b E o.=.%.%.=.%.%.@.=.=.",
"H.j.s.s.s.s.s.s.n.Y.K.m.R.d.s.d.s.s.s.s.s.s.f.d.d.j.s.s.s.s.s.s.G.g.j.h.d.s.s.s.s.s.s.s.s.(.^ @.' +.7.[ [ 9.i.r.6.7.q.t.i.q.i.i.8 u i E R v o.=.=.=.=.=.-.=.=.=.",
"G.s.d.s.s.s.N.J.f.Y.K.m.R.s.f.L.d.s.s.s.s.s.s.s.s.s.s.s.s.s.s.s.j.s.j.g.d.s.s.s.s.s.s.g.h.:.X = O N r.p.9.<.7.<.t.0.3.7.i.p.i.i.e u R E R ~ o.=.&.&.&.&.&.=.&.&.",
"G.d.G.d.s.s.s.Y.n.Y.K.m.R.s.B.m.s.s.s.s.s.s.s.s.s.g.s.s.s.d.n.s.s.s.g.g.s.s.s.h.s.@.@ 0 a ' -.9.3.0.9.q.p.p.p.w.0.0.0.t.t.q.u.u.8 e o.o.o.*.}  .........o.......",
"G.g.j.s.s.s.s.Y.g.Y.K.m.R.s.B.m.s.s.s.s.s.s.s.s.h.G.s.s.s.s.n.s.s.s.s.s.s.s.g.P.g.%.> 6 % +.v.i.t.t.8.2.9.r.w.8.0.0.0.9.q.9.u.u.8 e =.u.;.u.~ { ..{ { ( ........",
"H.g.g.s.s.s.s.d.d.Y.K.m.Y.s.d.s.s.s.s.s.s.s.s.s.G.s.s.s.s.s.s.s.K.d.s.s.s.n @ $ % #.i.i.i.i.[ 9.+.0.t.t.q.q.r.p.z.3.I K 7.i.p.i.i 7 =. .o.u.( o.................",
"j.s.s.s.s.s.s.s.s.s.s.s.s.s.s.s.s.g.P.g.s.s.s.s.M.s.g.g.s.s.s.s.s.s.s.g.d.h > Q 5 #.9.9.p.p.<.p.q.6.+.4.r.9.<.[ 3.U L O.7.z.i.i.i t @.%.%.;.{ o.....{ { ......{ ",
"s.s.s.s.g.d.s.s.s.s.s.s.s.s.s.s.s.s.h.s.s.s.g.d.M.d.g.s.s.s.s.h.N.o # # O #.b.i.v.i.p.t.7.<.r.r.0.q.t.p.q.2.L S H U 0.t.i.i.i.i.y e @.%.%.;.{ | ..............{ ",
"s.n.n.s.H.g.s.s.s.s.s.s.s.s.s.s.s.s.s.s.s.s.g.f.M.d.j.s.s.s.s.n.W.h b 0 a u.9.q.0.7.r.7.t.w.e.4.6.1.2.+.2.[ 2.3.I O.0.q.q.q.i.:.t t ' { {  .}  .o.o.X.X.X.&.&.&.",
"s.s.d.s.s.s.s.s.s.s.f.n.g.s.s.s.s.s.s.s.s.s.g.g.G.d.h.s.s.. @ o + m $.+.J i.p.7.5.9.5.r.r.4.r.9.t.+.V V H [ 9.e.w.0.0.q.q.q.i.i.t r ! v Q E o.-.=.=.=.=.=.&.=.=.",
"s.s.s.s.s.d.d.s.s.s.s.h.G.s.h.M.s.s.s.L.d.s.s.s.s.{ @.@.u.Q M m b P K K m 7.q.0.r.r.r.r.<.<.,.,.L O.8.7.7.8.9.w.0.0.0.r.q.i.i.u.u 7 E i v E o.-.=.=.=.=.=.=.;.&.",
"d.n.s.s.d.B.n.s.s.s.s.s.G.g.G.s.s.s.s.s.s.s.d.s.s.O > # % %.^ ' $.[ _ ] I 0.q.t.9.5.r.y.r.<.,.G C O.t.r.9.r.r.w.0.0.6.w.p.p.i.u.u 8 E R Q ~  .%.=.=.=.&.&.&.=.&.",
"g.R.n.s.f.L.s.s.s.g.G.d.G.g.h.s.s.s.s.s.s.9 n , | l ' c c [ m +.G A f ] K 3.8.8.r.<.D A ,.<.4.4.3.0.0.7.9.q.q.w.6.0.0.q.q.i.i.i.t t o. .%. .{  ...o.....o.o.X...",
"s.L.B.s.L.f.s.s.s.s.M.g.G.g.h.s.s.s.m.R.f.X < > > ` ` ` #.K K ` ] [ [ [ P 8.0.r.9.<.D N L 2.r.t.r.8.8.w.p.r.w.w.0.6.0.q.q.p.i.i.t e -.%.;.%.{ { { { { ..{ ..{ X.",
"s.m.!.n.R.s.s.s.s.s.g.d.G.d.h.s.s.. % & x m ` ` M ` ` J J J ` J G ] P [ B I I H G <.r.r.w.0.q.8.0.8.r.p.r.9.9.r.r.0.0.q.q.i.i.i.t e -.o.%.;.{ { { { { { { ..{ X.",
"s.s.L.n.R.s.s.s.s.s.s.s.g.s.g.s.s.= 0 = l +.M J +.J ` J g I I I G ] H [ D [ [ L ] 2.w.w.7.8.q.r.4.7.w.9.r.9.9.r.0.r.0.q.x.i.i.i.t 7 =. .%.=.{ { ....} ........{ ",
"s.s.n.f.m.s.s.s.s.s.s.s.>.  - @ p +.` +.J ` [ ` J K J I K +.S [ G A q w B 2.r.t.w.w.q.8.q.t.r.6.q.t.r.9.r.t.r.<.0.6.0.r.q.i.u.9.t 7 ;.%.;.u.{ { { { { { { { { { ",
"s.s.s.s.s.s.s.s.s.^.(./.{ t 8 l c H K J ` +.K J K I ` ] P V S H S G D K D 4.9.8.7.8.w.0.0.r.w.0.6.0.0.7.8.q.r.8.w.4.2.2.7.q.u.u.t t Q { { ~ %. .o.o.&.&.&.&.&.&.",
"s.G.g.s.s.s.s.s.k   X % 7 ' G b H [ [ K K K K H ] P P I J g s V D P D [ P 8.w.w.q.r.r.8.8.q.8.3.q.q.0.0.q.q.r.e.p.4.D P 7.i.i.u.e 7 Q W Q R %.%.&.&.&.&.*.&.&.&.",
"d.M.g.s.c.>.:.:.^ 0 b x w f w f D I I J P P P P K S c C H J S S P P P [ P 8.q.w.8.8.8.8.0.0.0.0.6.3.0.t.r.2.[ I [ U 2.3.0.i.p.a.8 < R v u v o.=.&.=.;.=.&.=.=.;.",
"s.s.s.g.,   $ X 0 a b c F J d f g K I K K K K ` K S f f H K I I P P D P K 7.w.q.w.q.w.8.4.7.4.0.r.0.0.r.9.2.] P N [ q.l.i.9.i.p.e 7 ~ Q E Q @.%.&.&.&.&.=.&.=.&.",
"s.s.2 p W ^ a M J M z d z J f s H ` ] K J D V V H J D S H K K I D P G [ D 8.w.9.0.0.0.r.0.w.q.r.r.2.L I [ [ <.r.4.4.0.0.q.i.i.i.i e } } o. .o. .&.X.......X.&...",
"s.s.& > j x x p d c S s s s B D H K K H H D g c S P I I P K K K G P G ,.H 8.r.q.8.7.0.0.r.0.6.0.3.[ K K ] 3.9.r.t.0.0.7.0.z.i.u.i e %.%.-.=. .{ ..{ ....{ { ..{ ",
"s.s.= , x h M b z g f S D S B w V S f S H J H K S K I I ` I I K P P G P P 4.r.w.t.r.w.0.4.O.H H L 4.9.9.9.r.r.<.4.6.0.0.i.p.i.i.u 7 %.=.=.=...{ { { { { { ..{ { ",
"s.s.9 & n x m l d f f S w q B s V A s s H K K [ I I I H J P K K P P D ] G 4.9.w.3.3.8.0.9.O.I L H 7.e.r.9.r.r.8.0.0.0.q.q.i.i.i.l 8 =.=.@.@. .| { { ............",
"s.s.e - v z b t G G G A w q w 6 F K K K I I K I K P I I K I K P H D P P H 8.r.p.t.2.D s D [ w.t.6.7.0.0.8.q.q.w.q.r.0.q.q.i.u.u.t u %.%.-.%. .{ { { ~ { { { { { ",
"s.s.e ; R F F b i w w i S i i w S K P K P P K K K K K K K K I I P H P P D 2.O.O.O.[ [ O.1.4.0.0.r.q.q.0.q.9.8.w.0.6.3.q.p.p.i.u.t e { { } }  . .o.o.o.&.&.o.&.&.",
"s.s.1 ; v m F b w q w w i S b A D K K K K I K ` ` I K J H K K K P P P P D [ P P L O.4.r.r.0.6.7.0.6.0.0.r.9.w.r.0.4.4.0.q.i.i.i.t 7 ~ R Q ~ o.=.=.=.&.=.&.=.=.=.",
"s.s.e ; v i i w i q i i b b ) b J I ] K K K K K P I P ` K I I I P D D S B <.[ 2.2.8.0.r.0.0.0.0.0.7.8.8.q.q.r.w.0.0.0.q.q.q.u.i.t e Q i n Q o.-.=.=.=.=.=.=.=.;.",
"g.s.e - u i w 8 A A z z b b i i H P I J I P K P K H I I I P P P D B B B B 7.r.r.r.r.0.8.4.8.0.r.t.0.q.0.9.9.q.w.6.0.0.0.q.9.u.u.8 e ~ Q E ~  .@.&.&.&.=.&.=.=.=.",
"s.s.e & l l l w z f A G z b z b M P P K I K K I K P I K H S g f D D D G D 0.r.q.0.0.0.0.0.r.0.0.6.0.0.0.q.q.r.w.t.4.I O.9.i.i.9.t t |  .o.| o.o.......o.o.o.....",
"s.s.8 : x b z f A f f b m c Q c J K K K P K K K I K K J S V f f D G P P D 0.0.0.8.8.0.r.r.0.0.6.4.7.8.q.q.w.0.4.0.+.I I 9.i.i.i.t t %.%.-.@.@.o.{ { ( { ....{ ..",
"s.s.r & z G z z A A z f c c b c g K I H [ ` K K S V A g S H K I D P ] P D 8.r.q.0.0.0.0.8.8.0.0.0.r.r.r.9.2.I P H U 1.0.p.i.p.i.7 e  .=.=.o.X.{ ........X.....o.",
"s.s.< & x b c s z z z z b x A f S K I P P H D K D S A V A D P [ P P P D D 8.w.9.0.0.0.0.0.w.w.4.8.8.8.4.2.[ [ [ P U 3.0.p.p.i.i.i 7 =.=.=.=.| { { { { { ..X.....",
"s.h.< % z S A f G z l z b c c f D ] I D D S f V H H P P P P P ] P P P [ P w.q.r.0.4.0.0.r.w.w.w.w.O.H S _ 2.8.r.0.6.q.0.q.q.i.u.t e %.=.=.o.o. . .{ {  .{ ....{ ",
"s.h.9 & z S A f c z z l z m z f S H D D D D S A H K P [ ] ] K D D P P P P 7.8.q.t.0.w.w.4.2.2.4.0.2.I L [ 2.8.8.r.q.0.q.q.q.i.i.8 e { ..| { =.o.o...o...o.X.o...",
"s.s.9 & z S z f z z b x z x z f w B A V H P P I K K D D H P H P P H P P D 7.7.w.8.0.r.t.r.2.D N D L 0.t.p.q.q.r.0.6.0.q.i.p.i.i.t 8 v Q E v %.%.=.=.=.=.=.=.=.=.",
"s.s.9 & z x A f d z m m l d w d S H D D P P K P P P P K K K P ] P P P I H 8.8.r.0.2.[ [ [ <.<.<.L 2.r.r.q.9.q.r.0.6.0.w.p.i.i.u.i e v R v l =.-.=.=.=.=.=.;.=.;.",
"s.s.9 & x z A f f z b b l q q q H ] H J P P H K P H P P P ] P P I H P I K 8.8.r.r.2.K N D [ w.p.t.r.0.8.9.8.8.8.w.0.8.0.r.i.p.i.i e Q E ! E o.=.&.&.&.&.&.=.=.&.",
"s.s.1 & z c c f w l i l l f f d G P P H P ] P ] J P P I P P H K P D P P D 2.[ [ L O.2.3.4.8.r.8.w.0.7.8.i.p.p.r.8.0.4.9.i.p.p.u.t 7 { { ..{  . .........X...&.o.",
"s.s.9 & l z V z f d 6 0 c m G A S ] ] H K P H P [ P P G P K P P P P I P S [ H D H 2.r.w.w.w.w.w.3.0.w.r.q.8.8.0.w.8.w.w.i.p.u.u.t 7 =.;.;.;.{ { { ........{ ....",
"s.s.r % w 6 q 4 l z z b c z f f D D ] P K P P K P K P P P P P P P V q B B 3.8.q.r.q.0.0.w.w.w.8.r.0.0.0.r.r.9.8.q.w.0.r.q.9.u.u.i r $. .=.-.{ { X.....{ ......{ ",
"f.J.r % w d q q z z z b b z z s D K P P P P ] P P P K D J D D K D S B S B 8.8.q.w.0.0.0.w.8.8.4.6.0.0.r.r.q.9.8.0.3.O.3.q.u.u.9.e 8 =.@.%.=.' { ..{ { { ....{ { ",
"E.s.9 & l z f f f x b b x b z f D P ] H H P D D K P [ [ K D V f S D P P G 8.8.q.0.0.w.0.w.r.8.w.w.r.8.8.8.9.t.t.t.1.U [ 9.9.i.i.t t @.=.-.=.o. ...{ { { ..X...{ ",
"Q.s.r & z S z f z x b b z c z f G K P P H P P P D K H H D D S V S H [ P D q.r.r.0.8.0.0.r.r.w.8.0.0.w.r.q.8.9.3.3.+.U +.9.i.p.i.7 r  .{ | {  .o.o.o.o...&.o.o.X.",
"Q.s.7 & z c V f z c z m z x S f S K ] P P ] [ I H A w w V H P ] D P ] K D r.r.8.r.r.8.8.8.8.8.4.3.6.t.p.p.8.P V C I 7.t.z.i.i.i.8 7 E E R Q o.*.=.=.=.&.&.=.&.=.",
"n.s.9 & z c B f c z m b b x z c D ] ] H H D S S D S D D H P P P P D P H G r.q.8.w.0.0.0.w.w.w.w.w.3.O.I [ O.O.[ I 3.q.t.r.q.i.i.t e E v W R o.=.=.=.=.=.=.-.=.=.",
"s.s.9 & z c f d z c b m b m z f D P P D S V f f D P P [ [ P H D ] H K P P 0.0.0.0.8.0.r.w.w.w.w.w.2.H V H [ r.z.t.t.0.6.7.9.i.i.8 8 E E Q R o.o.&.&.&.&.&.&.&.&.",
"s.s.r & z c S d z c c m F z z f z S D D D D D D D P P K H H P [ [ H P [ P 0.8.r.0.q.r.0.8.2.[ L I O.2.4.9.9.8.8.0.6.8.8.r.i.i.i.t t ~ } o.{ =.o.o.o.X.o.o.&...&.",
"s.s.r & z c z f z z z b b z z f f S V f D K P [ P I P P P K K D P P H P P q.r.8.w.8.0.t.r.L H K L [ q.t.i.q.7.0.w.r.9.8.r.9.p.u.e 8 %.%.%.;.{ { { { } { ..} ..} ",
"s.s.9 & z S f f z x b z f d d q S D D D K P P ] K K K P P P [ P D P K P P 8.p.r.t.2.H D I 2.1.0.1.4.q.q.q.q.q.q.8.r.5.r.i.u.i.i.t y %.%.%.;. . .} {  .o.......} ",
"s.s.9 & z c A f z z l i x d w q S P P P I P H ] K P H P G K P P P P P [ D 2.3.3.4.O.L D P 4.0.t.w.w.q.9.0.q.q.q.<.r.5.r.r.9.i.i.7 e @.@.o.%.{ { { } } } } } ..} ",
"s.s.e & z c A f w w 0 l l z z d S P ] P I K D P P P P K P K K K [ H D P D L P P K 2.q.w.0.0.0.4.w.8.0.q.q.#.q.0.8.w.9.5.9.9.i.u.8 t %.-.%.%.| | { } } } } { } } ",
"d.M.9 & x f f w d d 0 l c b F g S P ] P P H P P P P P K P P K P [ G B P D L [ [ P 4.t.r.0.0.0.0.4.6.0.0.i.q.q.#.8.r.5.r.9.9.u.u.r u { @. . . .o.&.o.&.&.} o.o.&.",
"j.j.< % w d q 3 c f b z m c f f D P ] H P I P ] J P H P P P P P D D w B V 2.r.r.4.0.8.4.8.r.0.8.r.w.0.0.q.9.q.q.w.w.8.r.r.9.i.u.8 r v W R Q | %.&.=.&.&.=.=.=.=.",
"G.s.1 % d f w q F x m b b c z s D ] P H ] [ P I J K P P P D D D B D V D S 8.t.r.r.0.0.0.0.0.0.4.r.w.q.q.q.q.q.t.w.4.<.<.<.9.i.u.t u v W k E o.;.=.u.u.&.&.u.=.;.",
"H.s.9 & z A F f f x m b c z z z F K P D [ ] H H P P P P J D B f A _ _ ,.H 8.q.7.8.0.0.0.0.0.0.t.4.4.6.q.q.q.q.r.w.<.D A ] [ 8.u.r t k W R R o.-.&.&.=.=.&.&.=.=.",
"M.g.1 & z c V f F z m m z z f f D H H G P P D H P S f B D D D D P G G ] D w.8.w.0.0.r.r.r.r.0.w.r.0.7.q.q.#.O.I I <.3.8.4.9.i.i.v r '  ...} o.........o.o.} o.} ",
"M.h.9 & z c z f f z m m z x z S D ] [ P [ P K P D S B A D P I K D G P _ G w.r.r.r.0.4.3.9.4.8.w.4.r.t.q.9.+.K H V <.4.r.r.i.i.u.t r @.-.;.&.o.{ ....{ { } ..} } ",
"G.s.9 & z c V f b c m m c l z f z K ] D D B f B D D D D K P [ ] P D P ,.G r.9.r.0.0.0.t.t.r.0.0.w.+.L H I +.3.q.2.4.r.w.r.i.i.u.t r  .%.=.%.&.{ ....} } o.} ....",
"s.s.9 & l A z f A x m m b z z g D P P D S V B B H H K K P K P P P P P P G 8.8.8.r.0.8.0.0.3.3.2.w.1.K H K +.q.t.r.r.4.4.9.9.i.u.t r @.@.%.o.&.} ..........} o...",
"s.s.9 * c c f f f z b m m m G S V D V A D D K P K P P ] P P P D P H P [ H 8.w.w.q.0.0.w.8.2.L D H O.0.t.q.#.0.0.6.5.w.9.p.p.i.u.t e @.-.=.o.o.} { { ....} } } { ",
"s.s.< & z c S f z c m b z l f s f A B f D K K P D P K P H K K P G D P P P w.r.q.0.4.3.8.4.2.[ L Z O.0.t.i.0.t.t.4.8.w.w.r.i.i.u.t e |  .o.{ o...........} o.....",
"s.s.< & z c z f c c b z l w w q H ] P D [ [ P [ H P P K P P P H P G [ P D 9.9.8.w.O.H N H P 8.t.e.r.0.#.q.i.q.#.r.r.w.8.9.r.u.i.k 7 E n R E &.&.&.&.&.u.&.&.u.&.",
"s.h.8 & z c z f w l l l l d w d A H H D P P K D ] K P K K P P P P P P H D 2.7.<.3.2.I [ 2.4.8.w.3.r.q.q.q.q.q.6.<.w.w.9.r.i.p.i.t 8 Q W E E &.&.&.&.&.&.u.u.&.&."
};
