/* XPM */
static char *f4b130af0b044ca5eabd90cc06911757SdeqvnO9rOx6lPq8[] = {
/* columns rows colors chars-per-pixel */
"80 80 167 2 ",
"   c #110A07",
".  c #190901",
"X  c #1C1306",
"o  c #241301",
"O  c #2A1907",
"+  c #2A140A",
"@  c #341C04",
"#  c #271C18",
"$  c #2C210A",
"%  c #33230C",
"&  c #392509",
"*  c #2B2316",
"=  c #2C241C",
"-  c #352515",
";  c #3C2B15",
":  c #352A1B",
">  c #3B2D1C",
",  c #3C321D",
"<  c #2C2523",
"1  c #362C27",
"2  c #3B2D23",
"3  c #3D3223",
"4  c #34352A",
"5  c #3D342B",
"6  c #3C3533",
"7  c #3A3F3B",
"8  c #452909",
"9  c #462D15",
"0  c #412E1B",
"q  c #43321C",
"w  c #493518",
"e  c #553A19",
"r  c #422F24",
"t  c #433423",
"y  c #4A3623",
"u  c #453925",
"i  c #4B3B24",
"p  c #43352C",
"a  c #49362C",
"s  c #443A2C",
"d  c #4C3D2C",
"f  c #533C24",
"g  c #533E2B",
"h  c #443635",
"j  c #443A33",
"k  c #4C3C33",
"l  c #453B3A",
"z  c #4A3D3B",
"x  c #523E34",
"c  c #4B4227",
"v  c #4D412D",
"b  c #594525",
"n  c #54422C",
"m  c #5B452D",
"M  c #5C4A2D",
"N  c #4D4132",
"B  c #46433A",
"V  c #4D423D",
"C  c #544333",
"Z  c #5B4633",
"A  c #554A34",
"S  c #5C4A34",
"D  c #54443C",
"F  c #5A4639",
"G  c #53493E",
"H  c #5C4A3A",
"J  c #5A5238",
"K  c #664A27",
"L  c #61462D",
"P  c #624A2E",
"I  c #68542B",
"U  c #604732",
"Y  c #644B33",
"T  c #694E35",
"R  c #634D3A",
"E  c #684D3A",
"W  c #6B5236",
"Q  c #65523B",
"!  c #6C543B",
"~  c #775A36",
"^  c #71563D",
"/  c #72593E",
"(  c #7A653A",
")  c #473E41",
"_  c #4B4545",
"`  c #534543",
"'  c #584746",
"]  c #544A44",
"[  c #5B4B44",
"{  c #554B4A",
"}  c #5B4C4B",
"|  c #5B5349",
" . c #4D5154",
".. c #5B5654",
"X. c #624E45",
"o. c #6C5541",
"O. c #6D5A42",
"+. c #655649",
"@. c #715641",
"#. c #755C44",
"$. c #655554",
"%. c #695656",
"&. c #665955",
"*. c #695A56",
"=. c #685758",
"-. c #665A59",
";. c #6B5B5A",
":. c #7C6244",
">. c #786549",
",. c #6C615D",
"<. c #766D53",
"1. c #796855",
"2. c #71635E",
"3. c #6F5E60",
"4. c #6C6462",
"5. c #736363",
"6. c #756965",
"7. c #796A68",
"8. c #797569",
"9. c #717677",
"0. c #866D56",
"q. c #867165",
"w. c #8B7564",
"e. c #847C78",
"r. c #7B8177",
"t. c #6DD74E",
"y. c #6AD949",
"u. c #72DE4A",
"i. c #79DF4B",
"p. c #70D454",
"a. c #75E14C",
"s. c #7BE44D",
"d. c #7EE84E",
"f. c #7FE950",
"g. c #8A867B",
"h. c #81DC55",
"j. c #82E44C",
"k. c #89E64D",
"l. c #82EB4F",
"z. c #8CEB4E",
"x. c #93ED4F",
"c. c #9AEE4F",
"v. c #87F14F",
"b. c #93F14F",
"n. c #9EF14F",
"m. c #8BE454",
"M. c #81EB50",
"N. c #82EC50",
"B. c #84ED50",
"V. c #92E556",
"C. c #94EC50",
"Z. c #99EE50",
"A. c #9CEE51",
"S. c #95F251",
"D. c #9CF151",
"F. c #A3F452",
"G. c #A5F552",
"H. c #A8F653",
"J. c #AAF853",
"K. c #AEFA53",
"L. c #AFF659",
"P. c #B4FD56",
"I. c #83DA6C",
"U. c #868585",
"Y. c #918F8D",
"T. c #AB9987",
"R. c #AEA593",
/* pixels */
"y.y.y.y.y.y.y.y.y.f.s.a.M.u.s.y.y.y.y.d.a.y.j.j.b.s.z.u.z.y.y.y.y.y.y.y.i.y.y.y.y.y.y.y.s.u.a.d.d.a.B.s.y.y.y.y.y.y.y.y.y.y.y.y.y.y.y.y.l.k.H.j.c.c.i.y.y.y.y.y.",
"I.y.y.y.y.I.u.y.y.d.d.a.M.a.s.y.y.y.y.y.b.y.j.j.b.a.z.z.i.y.y.s.u.y.y.i.c.y.y.y.y.y.y.y.a.l.y.d.s.y.f.y.y.y.y.y.y.u.y.y.y.i.s.y.y.y.y.y.y.y.x.u.k.y.y.y.y.a.y.y.",
"< 4 4 4 1 < < # _ a.s.a.B.y.y.y.y.y.y.y.b.y.l.j.b.a.z.z.i.y.y.j.x.u.y.c.j.y.y.y.s.s.y.y.y.l.a.d.s.u.f.y.y.y.c.x.y.u.i.y.y.l.y.y.y.y.y.y.y.y.y.y.y.y.y.y.s.z.u.y.",
" .{ _ _ ) _ _ _ 4.y.y.y.u.y.y.y.d.s.y.y.a.y.j.s.x.a.k.u.y.y.y.y.n.i.j.K.j.y.y.y.s.s.y.y.y.y.u.s.s.u.u.y.y.y.J.n.y.y.l.y.a.l.y.y.y.y.y.a.y.y.y.y.y.y.y.y.y.u.y.y.",
"3.3.=.$.-.,.5.4...#  .u.a.y.y.y.f.s.y.y.y.y.y.y.y.y.y.y.y.y.y.u.n.G.k.c.y.i.i.y.y.y.y.y.y.y.y.y.y.y.y.y.y.y.y.y.y.y.l.d.d.a.y.y.y.y.y.a.s.y.y.a.s.y.y.y.y.y.y.y.",
"$.=.=.;.;.4.-... .7 { U.Y.y.y.y.y.y.y.y.y.y.y.y.y.y.y.y.y.y.j.x.i.G.k.x.j.K.x.y.y.y.y.y.y.y.y.y.y.l.j.y.y.y.y.y.a.s.y.d.s.u.s.B.u.y.y.y.s.y.y.B.u.y.y.y.y.y.j.y.",
"3.4.5.2.5.,.$.` _ | ) < { y.j.Z.y.y.y.y.y.s.a.y.y.y.y.y.a.y.y.c.k.H.k.x.G.k.y.y.y.y.y.y.y.y.y.y.y.H.H.y.y.y.y.y.y.M.y.l.s.a.M.a.y.y.y.y.s.a.s.l.y.y.y.y.y.j.K.y.",
"3.3.%.2.5.4.=.' ..6 $.6 6 y.C.P.a.y.y.y.y.a.B.a.y.y.y.y.y.y.y.c.k.G.k.c.G.u.y.y.y.y.y.y.y.t.C.y.y.s.s.y.y.y.y.y.y.M.u.d.s.a.M.y.y.y.y.y.s.a.l.y.y.y.y.y.y.x.z.y.",
"1.2.0.5.5.5.;.} { ` _ j } y.y.u.y.y.y.y.y.y.a.a.y.y.y.y.y.y.y.x.j.G.k.C.x.u.y.y.y.G.u.y.y.F.i.y.y.y.y.y.s.v.y.y.y.d.y.f.s.a.f.y.y.y.y.y.u.i.s.y.y.y.t.u.y.A.j.j.",
";.*.%.$.%.;.=.=.3.6.} _ ) 1 h y.y.y.y.y.a.y.y.s.y.y.s.a.y.y.y.y.t.c.j.k.y.y.y.y.y.c.G.y.i.Z.y.y.y.y.y.y.a.d.y.y.y.y.y.a.a.u.y.y.y.y.y.y.y.y.y.y.y.y.y.c.i.Z.j.H.",
"$.$.$.$.%.%.*.3.5.7.;.z h = j y.y.y.y.a.N.a.y.d.a.y.s.y.y.y.u.y.y.y.y.y.y.y.y.y.y.u.K.j.F.i.y.y.y.y.y.y.y.y.y.y.y.y.y.y.y.y.y.y.y.y.t.k.y.y.y.y.y.y.y.i.A.c.j.H.",
"*.%.%.;.%.%.;.5.3.3.5.h j X.V + * X $ y.u.N.a.f.a.l.d.y.y.y.y.y.y.y.y.y.y.y.y.y.y.y.x.c.F.u.y.y.y.y.y.y.y.y.y.y.y.y.y.y.y.y.y.y.y.y.n.F.y.y.y.y.u.y.y.i.F.c.j.G.",
"$.$.-.-.=.=.;.3.7.5.;.1 a [ [ N u A 4 y.y.a.s.d.a.d.y.y.y.y.y.y.i.j.y.y.y.y.y.y.y.y.i.Z.A.i.y.y.y.y.z.z.y.y.y.y.y.y.y.y.y.y.y.y.y.y.G.i.u.y.y.y.y.y.y.y.u.u.y.u.",
"-...$...$.;.;.;.3.5.2.z k p k C u <.c X $ o X f.a.d.y.d.y.y.y.y.y.s.d.y.N.l.y.y.u.y.y.y.y.y.y.y.y.y.u.b.j.s.n.l.y.y.y.y.y.y.y.y.i.y.H.u.x.j.y.y.y.x.i.y.y.y.y.y.",
"4.4.;.-.-.4.4...=.$.X.r p H +.H v q J A J A u g.Y.Y.g.s.y.y.y.u.y.y.l.s.d.y.y.y.u.y.y.y.y.y.y.y.y.s.y.s.j.b.j.y.y.y.y.y.y.y.y.u.C.i.H.j.c.y.y.u.y.y.y.y.y.y.y.y.",
";.6.4.3.4.7.=.z D ' z a Z F C Z J n M O.O.<.J , O $   a.y.y.y.d.l.u.j.s.a.y.y.y.y.y.y.y.y.y.a.y.y.b.z.j.l.b.y.y.y.y.y.l.s.y.y.y.C.k.H.k.c.y.y.i.u.y.y.u.a.y.s.d.",
"4.6.4.;.7.7.$._ G G [ p p F o.n Z M J ! ! ! / Q ! Q Z 1.>.*.A y.d.u.f.s.u.y.y.y.y.y.y.y.y.y.y.y.y.i.b.s.l.x.y.y.y.y.y.M.y.y.y.y.x.j.n.j.x.y.y.u.s.y.y.l.d.y.y.l.",
"3.5.;.;.5.5.$.} ] B D a F F Z Z c c b ! ! ! / Q Y o.0.i O % . T.s.u.f.a.a.y.y.y.y.y.y.a.s.y.y.y.y.y.z.j.j.x.u.y.y.y.y.d.u.s.y.y.y.y.u.y.y.y.y.y.u.a.u.l.y.y.y.y.",
";.=.=.=.4.;.-.4.6.*.*.k p - - x / J M / ( I / W >.Y T Q R +.+.A c B $ r.y.y.y.s.y.y.y.a.M.y.y.y.y.y.y.a.u.f.y.y.a.a.u.d.a.a.y.y.y.y.y.u.y.y.y.y.a.s.l.s.y.y.y.y.",
"$.$.$.=.-...-.7.,.6.*.s t - - x b c c Q / Q ! Q ! ! #.1.! R w.F * 4 O 8.y.y.a.B.a.y.a.y.f.u.y.y.y.y.y.y.t.y.y.y.y.M.u.d.s.a.y.u.a.y.y.u.y.y.y.y.a.a.l.y.y.k.i.u.",
"=.=.$.-.-.} $.7.*.4.*.t F H a ; o o & Y O.! ( ! #.^ / i >.O.H X.,.| 6.G 1 = X { y.y.a.a.f.y.u.a.y.y.y.y.y.y.y.y.y.f.y.a.s.a.y.y.y.y.y.y.y.y.y.x.y.y.u.y.y.u.y.y.",
"$.$.$.$.-.$.-.7.;.8.6.p C X.x - ; % ; M W P / ! Y ^ #.Q 1.X.Q *.,.B | s 1 B 6 | y.y.a.d.f.u.d.y.y.y.y.y.y.y.y.t.y.y.y.y.y.y.y.y.s.y.y.y.y.y.y.y.y.y.y.y.i.y.y.y.",
"$.$.$.;.;.-.4.6.*.,.2.s a F } H +.Y b M M m W M :./ ! #.! F 1.S S ] G | G _ [ V h h 6 6 6 6 6 6 5 h h h h h h h 6 6 y.y.y.y.y.a.b.z.y.u.j.u.y.y.y.y.y.u.k.y.y.y.",
";.3.;.-.;.-...-.,.} +.k k F H Z b M M Q Y Y W Y W m O.R ! 1.S +.A V | [ | | ` { $.} $...=.$.$.} } *.} $.$.{ $.} ..6 y.y.y.y.y.y.a.b.a.z.b.u.y.y.u.u.y.y.y.y.y.y.",
"5.;.5.5.5.7.;._ _ G ` p t H X.Z S Z m Q / ! T W b m L T ^ O.! X.H [ $.$.*.,.$.;.=.=.$.-.$.-.-.3.=.=.=.=.%.%.%.%.} h y.y.y.y.u.k.y.b.a.b.y.y.y.y.y.s.a.y.y.s.y.y.",
"7.5.6.5.4.5.;._ ` ] D d d X.F g Y M S ! / ^ W W T W T R R R R H F R %.$.*.,.} *.=.=.$.$.$.-.-...} =.=.$.%.%.%.;.$._ i.u.y.y.y.S.k.z.a.b.y.y.y.y.y.d.a.y.a.a.y.y.",
"5.3.3.5.4.;.-.{ ] ] ` s k F F g H M Z W @.^ W ! @.@.@.T Z S Z F D } $.o.*.$.[ $.=.=.=.-.=.-.-.-.=.=.=.} $.%.%.=.` 6 P.G.y.y.y.s.z.z.a.b.y.y.y.y.y.a.l.y.d.a.y.y.",
"=.=.-.;.-.;.-.-.*.*.*.k k F H R R Z S Q @.o.W W ^ ^ ! R W R R R F X.%.$.$.+.D $.;.3.3.;.3.4.3.3.3.3.$.} } =.$.%.-.1 k.j.y.y.y.u.a.z.a.x.y.y.y.s.a.y.f.u.l.u.a.y.",
"$.$.$.$.$.$.4.4.,.7.2.s d Z R F R Z R o.#.^ ! #.W W W ! o.O.O.X.` } %.%.$.$.G $.4.3.4.5.5.5.4.4.5.3.} ` %.;.%.;.` h y.I.y.y.y.y.y.u.y.u.y.y.y.a.N.a.f.u.d.a.a.y.",
"=.=.$.$.$.$.-.7.&.,.*.2 D H F x m g F E @./ ^ / ^ ^ ^ ^ @.#.! R x X.;.-.$.$.` } 7.7.7.6.7.5.7.7.7.3.{ { %.%.%.%.-.) 6 + y.y.y.y.y.y.y.y.y.y.y.y.a.s.f.u.d.s.u.y.",
"=.=.$.$.-.$.-.7.,.,.2.s F k x R C g Y T @.W W ^ ^ ^ ^ ^ O.^ Q R D } ;.$.*.$.` ` =.=.$.$.-.=.-.-.=.} } } %.%.%.%.' } 1 < u.y.a.l.a.y.y.y.a.y.y.y.a.a.f.a.d.d.u.y.",
"$.$.} $.;.$...6.6.,.2.3 p o % x R T ! @.@.^ ! @.W ^ ^ ! Q ! o.o.H ' *.%.*.$.z _ h h h 6 6 6 6 l h h ) ) } %.%.%.z } ' ) < X #   Y.y.y.y.y.y.y.y.a.y.d.a.d.a.y.y.",
"=.;.3.=.=.,.-...-.[ } d a a r 0 y y @ o.#.E @.@.^ ~ ^ W ! ! / J ` } $.*.=.$.` ` 1 1 1 1 1 < 4 4 1 < { _ $.;.X.%.X.' x a N N 5 5 6.R.R.U.y.y.y.y.y.y.u.y.y.y.y.y.",
"5.5.5.3.5.4.-.] ` ] [ p k Z k > . @ O E @.^ @.! T ^ T W ! #.! +.D $.=.=.=.$.` ) # # # # < # # # # # ] ) =.;.=.;.' ' x a N N c u 3 * O   6.D.K.y.y.y.y.y.y.s.l.y.",
"5.5.5.5.7.7.$._ V V [ 2 x X.H t a C y ^ E U T T / / ^ ! ^ ^ Q Q x $.=.=.=.} ' ' # # < < < # < < # # _ ` =.-.$.*.' [ x k N N v v u d s , } r.8.8.Y.y.y.y.y.a.s.y.",
"5.5.5.4.5.5.-.{ } ] D p x F H F E o.f E g L T T ^ ^ W W O.O.Q R D $.%.%.%.$.) z # # < # # < # < # = G ] $.=.$.$.' ' x k k N N C N N v G u O X   l y.x.z.y.y.y.y.",
"=.;.;.-.-.;.;.*.,...+.s k C H R m R x o.T @.! T L L T T O.O.O.X.F } } %.%.$.' h # # < # < # # # # = l _ $.$.$.;.[ [ x a k d v N c , A u 3 J j B s G ..J.y.y.y.y.",
"$.=.$.$...$.,.4.,.6.5.s a H X.g R R Y o.#.#.T U L P T T W ! ! R ' } %.%.%.%.' h < < # < # < # < 1 1 V ] *.$.;.*.[ [ z t d d d N i u v A c v N N B 4 7 y.y.y.y.y.",
"$.-.=.$.$.$.;.4.,.6.2.d a H X.d F m g E T #.W ^ T ! Q Y Y Y Z H x } %.%.%.$.' ' ' ' ' ' { }  .` V V ' [ *.$.;.*.[ [ k r a d d d M n $ c Z t A s 2 2 ] y.y.i.u.y.",
"$.*.=.=.-.&.,.,.6.*.$.a k F H Z E m m @.^ #.W @.^ / W Y m m Y E x $.;.%.%.%.' ' ' ' ` ' } } } ' ` ` ' ` $...;.$.' x a r p d d i 9 c M w u v d v Z * G y.s.x.u.y.",
"$.$.} $.$.-.-.4.7.6.,.p k Z F C F b Z ! #.#.^ W ! #.^ T >.^ O.X.' X.;.=.$.=.=.=.=.=.=.=.=.$.=.$.*.-.;.;.;.;.&.&.[ ` k d g : - > u c b c i i i v s 2 ] t.C.V.t.t.",
";.;.;.;.;.;.-.$.] *.,.t k H X.Z R Z S T / W W ^ ! @.^ E #.! O.+.F } $.$.$.$.=.=.=.=.$.=.$.$.} $.} $.&.*.&.&.$.*.[ ] k s a u y a q q q q i c n n u : [ h.L.V.p.p.",
"5.5.3.5.5.5.$.{ ] ] } t C Z F C Z b m ! ^ ^ ^ / ! ^ ! E @.X.%.E ' $.;.3.$.=.-.$.=.=.=.=.=.=.=.=.$.*.$.;.$.-.*.$.[ [ D s a k n d t , , q u i i d u - G m.A.p.h.h.",
"6.3.3.5.7.5...{ [ V D p k > t Z Z m S O.#.^ T ^ ^ ! ^ ^ #.! @.F = z =.;.-.3.3.-.=.=.=.3.3.=.3.3.*.;.;.-.-.;.;.,.j p k d k C x d d u t q , y y t u * D h.F.h.L.V.",
"5.3.;.4.5.5.-...` V | d p @ : Z R b n Y / T T W W E ^ @.@.o.@.x . ` 7.5.3.5.7.4.5.4.7.4.3.5.5.5.5.5.7.5.6.6.6.7.< + 1 N x g a g d N N u u t , q t = ] j.n.c.x.y.",
";.=.$.=.;.4.-.$.$.*.*.p k k t - % @ 9 P #.#.~ ^ ^ W @.@.@.@.#.a X ` 7.5.=.3.7.3.3.3.3.3.3.3.5.5.2.2.5.2.,.4.4.6.3 X 3 V k k y C s s N N d u u t u * A j.A.c.j.y.",
"$.$.$.$.$.$.-.4.6.6.$.p x +.C - O O 8 M #.^ ! ^ @.E #.@.@.o.#.a # l -.4.3.3.9.4.4.7.3.4.7.4.5.5.5.5.2.5.4.4.,.4.5 # a D k C y k j N N N C d d d d = ] j.n.x.u.y.",
"$.$.-.$.$.$.;.4.*.2.;.h k x Z C Q n f M P b K T #.! @.^ X.E ;.a X # < 1 < < # # # < # < # # # # = # # # # # # * = . p k a F g d N N j s d N d s c : ] i.k.y.y.y.",
";.$.$.$.$.$.3.3.5.5.;.p k X.[ C J Q b A P K T T ^ R T ^ %.#.o.a < # < # # # < 1 1 < 1 # 4 < # # < 1 < 1 # < = # * # p d a g a g d k k v a s d s u = G y.y.y.y.y.",
"=.;.$.$.$.=.=.3.6.6.;.p k ` H A n Z m ! / W T Y L L U T E @.@.X.x X.%.k = 1 _ .. ._ } ..' ' } =.{ } z ` < * # X 4 = a k d x i k N v d d d d v N s = G y.y.y.y.y.",
"$.;.3.-.;.3.;.$.=.$.$.5 k [ G F n M M / #./ ^ T T L T U U E o.@.[ [ F 2 # 1 h l ;.) h { z } ` z } } _ { < * = # 3 * , t p C x g N d d a v C N N j : G y.y.d.B.y.",
";.5.3.3.3.5.=.' ' ` ' p V ] H H A M m ! / W ^ W ^ @.@.E U U U x Z F X.3 # X # # { { { { ` ` ` } z z _ { = # 2 4 # X - 2 u d g d d d k d d d d N c = _ y.y.a.s.y.",
"5.7.5.3.5.7.=.` ` ` [ 5 z D D A A Z m Q W ! ^ ^ ^ ^ ^ E E Y E f y 3 n N s k p j 1 h h h -.} } %.$...$.-.= # 1 4 = * 3 u u u t q a d C N d d s N j : _ y.y.y.y.y.",
"5.3.3.3.3.3.=.} ` ` } 5 x D G D F M m W @.^ ^ W @.E ^ ^ Q o.o.F y @ - u A +.D C + X . # 7.e.q.e.6.5.7.6.1 # 1 2 3 : k v t q > q u d x N d d d d s = ] y.y.y.y.y.",
"-.=.=.=.;.;.-.=.$.=.$.p k ] H F n S m Q #.W @.W ^ ^ @.^ o.o.#.R Z M Z b q q t u D N k h r = # < 2.;.5.6.< + 4 5 3 > d N y u y i t t t u a v s v c = G y.y.a.y.y.",
"$.$.=.=.$.$.;.5.5.7.5.a k ` [ Z S S S Q @.W @.W ^ E ^ @.! @.#.o.! M Q i ; u q : Z s k ` + # : # 5.,.5.6.= # 3 2 4 : d v a n i n p 2 : > t d d p j = G y.y.y.y.u.",
"$.;.$.$.=.$.$.q.5.2.=.a j : - F Z Y Y ! o.O.! / ^ ^ ! ! T @.@.! / ! ! S b n m S > 3 2 t k V k j = - < + < # 4 p 3 2 v v v C g n d d d d u t > > 3 = G y.y.y.y.c.",
"$.$.$.$.;.$.=.9.=.5.5.k r = : d J n C ! #.! Q ! ^ ^ ^ ! ^ @.o.! ! ~ ! ! S M m m % 0 t t d N N D # - r - = + 2 3 : : u d u i d g d d k d a u t 3 p * ] y.y.y.y.J.",
"=.$.$.=.=.$.=.7.5.6.5.z k x k 2 O o @ M #.#.^ / T ^ ^ ! ! ! @.^ / ( ! ! ! W Z M f Z n i t 2 : 3 k k F k p : 2 3 : : u N a n g k k v k d d d d s s = ] y.u.t.y.J.",
";.;.=.;.;.3.=.=.*.$.$.a z } D : > - 0 Z o.! T W ^ W ^ T ! o.@.o.Q Q ! / / W T P i m Z i a t 3 a x i p a a t 2 > 3 > d v a C d g d d C d k d N N s : D y.j.x.u.H.",
";.5.5.3.3.7.=.` ' ` $.p k D ] A +.Q Z m m m Y Y ~ ^ ^ @.@.! ^ ! ^ ^ ! ! ! #.! ! e n n u v N v A > ; : 0 , 3 , 3 , : d N d k d d d N C k d d d k s : ] y.y.c.s.H.",
"5.5.7.5.3.5.3.z ' ` [ p k G [ H n Z F Z Y T T Y Y L Y W ^ ! o.@.^ ! ! ! / ! ^ ! m P n n n v d s u a i i : $ $ : 3 > d v s C a k k d d d d d d v s 1 ] y.y.n.j.G.",
"5.;.5.5.3.3.3.' } [ _ : k [ G N C F R o.#.@.T T b K L T ! Q ! o.@.^ o.^ ! ! ^ ^ g m n f n C N A n b n g % o . O > : s k d x k C g N d d d s d N j : ] y.y.u.y.y.",
"3.$.;.3.3.=.3.=.$.;.%.p D [ D H H C C R #.@.! ^ W Y T W T T Y T o.@.o.^ ! ^ W W L Y m c n v d v n n u n , ; % : * O t s p d k k d d k d d d v N s : D y.y.y.y.y.",
";.$.X.$.%.%.=.7.4.5.;.s x D D F F n n ! #.! / ! ^ ~ W T L m S Y ^ / #.^ ^ ^ ^ Q m L m m n n n C C i n C y t t > O O - 2 a d C d N d d d d k N d s : ] y.y.y.y.y.",
"%.;.%.$.=.%.=.7.;.6.6.k z D H X.Q Z n ! @.Q ^ / ^ ^ W W W W W W L m f P ^ #.@.! F Z R Y Z A n i n g C g t > , q t u y a t t 2 > t v C C d a s d s = ] y.y.y.y.y.",
"%.%.%.%.%.$.=.7.-.2.;.p p F H x Z S M Q ! ! / ^ ~ ^ W ~ ! / ^ ! W L K W ^ ^ ! ! f g m Z S M Z n n i n d 0 > q y k C C d p t 3 3 3 s i d a s d d 4 : ] y.y.a.a.y.",
"X.%.%.%.=.%.=.3.,.6.;.p x +.X.x n n Z ! @.! ~ W ! ^ Q ! @.@.O.^ W W ^ W P n m Y T Q Q R Z Z n C n g k n q > y a i d d d d d d N s 3 > 2 a v N d N : ] y.y.a.v.y.",
"%.%.%.;.=.;.;.$.*.*.$.p d k k D A S S ! @.! ^ W W ^ ^ W ! ! O./ T / ~ ^ L T E L y w w y n A H S S n x g a u d n k i u i d C N v d t > > u a d u c = [ y.y.y.f.a.",
"q.3.3.4.3.5.;.[ } k D k p + - Z Q S M Q :.! ^ ^ ~ / / ^ W ! ! #.#.#.^ T T #.#.Y + o o ; n ! R Z S n C Z n d n C C d a a d k N u u d k a u r 3 , 3 = ] y.y.y.a.f.",
"q.3.7.5.3.5.=._ ] D ` k D 5 > a i q 9 Y >.W ! ^ / / ^ / / ! O.Q ^ ^ W T ! @.^ m e w w y u i y q H Z H S n a g i d i d k C n k d s N A x a t 3 t 4 * J y.y.y.y.f.",
"5.;.5.5.;.5.;.) ` ] [ 2 D X.x - o . @ Z >.Q W / ^ W W ! #.#.! W ! W ^ ^ ^ ^ @.^ U T R i @ o o O A Z R H N y a i s d C C k d d N N v d d d k v N 3 4 ] y.a.f.a.f.",
"%.;.;.%.%.%.;.;.*.,.%.s p X.H x n n n M Y P Y W ~ / ^ ^ ! ! ^ ^ W ^ ! ~ ^ ! ! ! g Z Z m n i v f y - ; - i d C t i k v a u k v d N N N d n d k N s : _ y.y.s.u.f.",
"%.X.%.%.$.$.;.3.2.6.;.k a [ H x S Z m M Y Y P T ! W W W ! ^ ! ! ^ ^ ^ ^ ^ ! ! ! m H Y Z Z Z S H O o @ - u y C d a d n d d d N N d d k d k d v d s = ] y.y.d.u.d.",
"%.%.%.%.$.%.%.5.5.2.;.k a [ H x Q Z Z Y ! ! P T K L P W ! / @.! W ^ ! ^ ^ ! ! o.m U Z S Z Z S S n n Z i y > 0 0 d C C d d d d s d d d g d N d v s = G y.y.y.y.d.",
";.%.%.%.$.$.;.3.6.2.*.k p X.[ F H Z M Q ^ / W W b L P T ! ! ^ ! ! ! ! ^ @.^ o.! Z m Z m Z n Z A Z H R C a > 0 q u a u a d k d s d N d d d v j N s : _ y.y.y.y.y.",
"%.%.%.+.%.%.;.5.6.2.,.C a [ H F S A S Q #./ / W T ^ ^ T P L Y Y ^ ~ ^ ^ ^ ! Q T m m Z Z S S S J g n C C k u a n t > > t d n N v N N n k d d N d d = _ y.y.y.y.y.",
";.%.%.%.=.;.=.-.*.*.$.k a X.H x A M A ! / ^ ^ W / / ~ W Y L Y T T T T T ^ O.! W Z Z m M S S Z A Z R H R n C i g u t > t a a p u N d k i x d s v s : ] x.y.y.y.y.",
"1.5.2.5.5.5.$.} ` ] ] p a [ X.x R S Y ! o.^ ! W ~ ^ ! ! W ! ! Q L L L T ! ! ! ! Y m Z Z Z A n n n F C Z i C d x x d i d u r > 3 s u d a d i v s j : ] j.y.y.y.y.",
"5.2.2.5.5.5.$.] ` ` [ s h X.Z x Z S Y Q ! / ^ / ^ ^ T Q #.#.^ T T P K Y T ! W Y m m n m S Y H S A Q C H u C i n d d g k u t 3 s t t s s a d k v u = G y.y.y.a.y."
};
