/* XPM */
static char *_640183599236[] = {
/* columns rows colors chars-per-pixel */
"80 80 236 2 ",
"   c #2D6C3D",
".  c #346C3D",
"X  c #2E763E",
"o  c #377A3B",
"O  c #315D47",
"+  c #345E4C",
"@  c #2E6844",
"#  c #336C45",
"$  c #336648",
"%  c #35654C",
"&  c #356D4C",
"*  c #396D4D",
"=  c #2E7244",
"-  c #2E7547",
";  c #337445",
":  c #347B44",
">  c #397844",
",  c #35734C",
"<  c #3A744D",
"1  c #357A4B",
"2  c #3B7C4D",
"3  c #3A6652",
"4  c #366D52",
"5  c #3A6D53",
"6  c #3C6F59",
"7  c #367352",
"8  c #3B7353",
"9  c #357A52",
"0  c #3C7B53",
"q  c #377558",
"w  c #3D7359",
"e  c #3D7B59",
"r  c #427C4D",
"t  c #406E54",
"y  c #406D5A",
"u  c #407554",
"i  c #417C55",
"p  c #417459",
"a  c #417D5A",
"s  c #497F5C",
"d  c #447E60",
"f  c #3C8A3B",
"g  c #47953E",
"h  c #47AD3E",
"j  c #4BAA3B",
"k  c #53AA3D",
"l  c #4BB33C",
"z  c #54B63D",
"x  c #63B73E",
"c  c #66C63B",
"v  c #6BC53D",
"b  c #6FCA3B",
"n  c #6DD03D",
"m  c #73D43C",
"M  c #77DB3D",
"N  c #358244",
"B  c #398245",
"V  c #3C8D45",
"C  c #36834A",
"Z  c #3B834C",
"A  c #368B4A",
"S  c #3D8B4D",
"D  c #3C9245",
"F  c #3D9D44",
"G  c #3E924C",
"H  c #3F9A4C",
"J  c #378051",
"K  c #3D8353",
"L  c #3E8B53",
"P  c #3E8259",
"I  c #3E8C5A",
"U  c #3E9153",
"Y  c #3E9951",
"T  c #3F9059",
"R  c #3DA345",
"E  c #3E8B60",
"W  c #438443",
"Q  c #428C46",
"!  c #42844D",
"~  c #48874A",
"^  c #428C4D",
"/  c #4B8A4C",
"(  c #508B4E",
")  c #439345",
"_  c #499143",
"`  c #439C44",
"'  c #4A9C45",
"]  c #42944D",
"[  c #4B944C",
"{  c #449B4C",
"}  c #4A9C4C",
"|  c #52944D",
" . c #539A4D",
".. c #5A9E4F",
"X. c #428455",
"o. c #488250",
"O. c #428C54",
"+. c #4A8E53",
"@. c #43845B",
"#. c #49855C",
"$. c #438B5B",
"%. c #498C5C",
"&. c #518A55",
"*. c #439354",
"=. c #4A9555",
"-. c #459B53",
";. c #4B9C54",
":. c #44925A",
">. c #4A945A",
",. c #469B59",
"<. c #4B9B5A",
"1. c #549554",
"2. c #539C53",
"3. c #579B59",
"4. c #42A245",
"5. c #4EA546",
"6. c #44AB45",
"7. c #4AAC45",
"8. c #44A44C",
"9. c #4AA44C",
"0. c #45AC4C",
"q. c #4AAD4D",
"w. c #55A544",
"e. c #5AA544",
"r. c #54AB44",
"t. c #5BAC44",
"y. c #53A44C",
"u. c #59A44D",
"i. c #54AC4C",
"p. c #5CAD4D",
"a. c #46B146",
"s. c #4CB244",
"d. c #46B24C",
"f. c #4AB24D",
"g. c #53B544",
"h. c #5DB645",
"j. c #56BB45",
"k. c #5BBC45",
"l. c #52B44B",
"z. c #5CB34C",
"x. c #54BA4C",
"c. c #5CBC4B",
"v. c #45A352",
"b. c #4BA454",
"n. c #46AA51",
"m. c #4BAC53",
"M. c #46A258",
"N. c #4DA35B",
"B. c #4DAB5A",
"V. c #54A453",
"C. c #5CA453",
"Z. c #51AC55",
"A. c #5BAC52",
"S. c #52A45C",
"D. c #5DA459",
"F. c #52AB5A",
"G. c #5CAA58",
"H. c #47B252",
"J. c #4BB253",
"K. c #4CB259",
"L. c #51B154",
"P. c #5CB254",
"I. c #54B458",
"U. c #61AD4B",
"Y. c #66B647",
"T. c #64BD45",
"R. c #61B24C",
"E. c #63BC4B",
"W. c #6ABE4C",
"Q. c #65A754",
"!. c #63AD54",
"~. c #63AD5C",
"^. c #63B452",
"/. c #65BB53",
"(. c #6BBC52",
"). c #64B45A",
"_. c #6CB55B",
"`. c #6BBD5A",
"'. c #71BA56",
"]. c #458461",
"[. c #498660",
"{. c #458B61",
"}. c #498C62",
"|. c #4A9561",
" X c #509A62",
".X c #4FA762",
"XX c #53A364",
"oX c #54AA63",
"OX c #5AA861",
"+X c #6BB864",
"@X c #5EC442",
"#X c #5DC24C",
"$X c #63C343",
"%X c #6CC445",
"&X c #65CA44",
"*X c #6DCB44",
"=X c #63C44B",
"-X c #6CC34C",
";X c #65CB4B",
":X c #6CCA4D",
">X c #71CC44",
",X c #76CA4E",
"<X c #72CD4C",
"1X c #6DD243",
"2X c #66D14E",
"3X c #6DD14A",
"4X c #74D444",
"5X c #79D645",
"6X c #75DA43",
"7X c #79DB45",
"8X c #74D34B",
"9X c #79D54B",
"0X c #75DA4C",
"qX c #7ADB4B",
"wX c #6CC352",
"eX c #69C655",
"rX c #6DCB52",
"tX c #6CC95A",
"yX c #72C456",
"uX c #73CC54",
"iX c #78CF53",
"pX c #73C55C",
"aX c #73CB5C",
"sX c #7ACD5D",
"dX c #6FD151",
"fX c #74D452",
"gX c #7AD652",
"hX c #75DA54",
"jX c #7BDA53",
"kX c #76D259",
"lX c #7BD25E",
"zX c #7AE044",
"xX c #76C762",
"cX c #7AD966",
"vX c #80D959",
"bX c #81D864",
/* pixels */
"+ + + $ X ] F F { > W >Xv x T.Q K Z -.8.{ : & * % 8 a > { 4.8.8.=.= P T 0.0.*.- b.6.6.8.] 1 3 4 * * 8 B ;.4.0.} 2 [ >Xn b W.^ ! B 8.R -.X , % & 5 8 o Q g F F B ",
"+ % + % @ O.) F ' : r >Xv v b k | 1 =.-.{ 2 6 8 8 =...* O.H 8.7.-., 0 *.b.R H I *.[ *.>.X.* y 5 5 * 5 < =.8.0.9.B / <Xb b m e.+.2 *.-.*.> < 5 4 ^ ( $ r V F F W ",
"% % % % $   Z } ;.> W -Xb b >X,Xp.  I J K X.X.X.Z h.%X* * X B.b.,., e *.m.9.6.b.= , & & & 5 3 3 5 * * # ; -.8.B.K ( iX4Xm b >Xe.@ X.K Z o.i 0 C Y.Y.@ @ ; { -.^ ",
"O $ 2 8 8 e Z C Z Z r > W.T.j v Y.2.Z X.@.I I S aX<Xv Z #.@.L G S @.$.U n.0.6.0.n.%.& s u , * 5 5 @.O.@.P K U S X.! o yXc j *XT.b.Z I K P Z Q wXv Y.Z u 0 B Z 2 ",
"% % X.K 2 K 1.u.o.Z 2 % p.g.4.e.y.n.S X.P P 1.R.4Xm >XS O.+.P.[ P O.L *.b.0.0.m.0.O., I P a * 5 < *.O.@.L u.A.I K a # ).l.9.p.5.b.L I K X. .t.>Xv Y.Z 2 ^ e./ 2 ",
"@   -.^ 2 2 R.x f Z a % } 6.b.1 Z <.I X.I S h.8Xm 8XwXL L [ kXt.S P L U 6.q.9.b.m.=., X.@.@., , N B.*.I S W.$Xf ^ X.; ;.0.M.; O.2.! 0 Z ^ k >Xn >XY.B K / %Xg 2 ",
"S { F V ! W t.b T. .0 & } R b.< 7 , , 0 ^ wX$X7.n k.5.$.K ' uX>XeXL I *.0.0.] : b.>., @.$.$.L ,.m.n.*.P S %X4XuX2.P # b.0..X1 , < # 0 S -Xh.j *Xh.` K Z Q v v U.",
"H 4.` C < < ^.b *Xr.^ & Z *.9.) K & * P } c.l.q.1Xp.^ 0 0 ) 9X4X;X4.*.S U n.=.< L 0 < u X.S -.8.q.6.] X.2 W.5X4Xl.^ , ! ` q.] 0 * & K { c.r.6.8Xe.Z < < ~ >Xb z ",
"4.4.4.: $ # Q.%X>Xl.{ % * X.9.7.{ & * ^ 7.0.6.s.fXC.# * 5 ! sX8X;Xq.*.@.> v.*.8 , 7 8 * 2 G m.m.f.6.S 5 , _.<X4Xh.,.4 4 ! m.m.*.5 4 S 0.6.6.j wX[ * 3 5 r yX%Xk.",
"` } 4.^ 0 & # W <Xt.{ 4 * X.v.b.O.& & ! 9.7.6.q.r.^ 8 5 5 < # ;.r.q.*.P < 9.*.5 @.X.5 < ] B.m.q.a.d.=.].4 5 _ 9Xj.v.- & ! n.0.S 4 < S v.8.7.4.5.W * % % % # V 4.",
"` ` } ] Z 8 , > ..5.} 0 & 0 L O.0 , s O.0.0.q.B.S 0 8 s 8 5 8 X.{ m.-.e 8 O.o.5 @.K P *.8.m.H.f.6.q.*.$.a < ! C.5.b.e 8 0 O.O.P & 0 *.b.b.8.9.Q 0 & 8 5 3 * r V ",
"R 4.;.O.X.X.< & & *.,.@.6 6 5 8 , 7 P ,.b.N.b.<., * < #.J 8 * 8 i .X=.P , 8 6 5 $.$.*.n.q.m.q.f.m.B.,.#.O.2 q - >.<.#.8 5 8 < 4 , X.>.b.9.b.=., 4 8 Z 8 & & % r ",
"8.-.= 2 K K X.a 3 & , 4 & < X.O.X.O.L 2 1 ; ; < 5 6 8 O.L @.w 5 < , K O.$.8 t t @.$.U B.=.: Z.m.N.- K $.$.@.].4 , < 5 < 1 @.O.O.X.^ 2 # ; , , * 5 q X.P i % 3 & ",
"A 2 # 0 P P P a 5 4 & * Q.^.E.E.E././.3.5 5 * 5 5 5 w $.L @.a 8 8 e $.L 0 5 5 , O.#.I L i < F.{ I , X.O.I I P 7 5 * < )./.E.W.W.(./.2.* * 4 3 * 4 4 X.K X.8 * 5 ",
"B 3 & w @.P P K * * * r -X3X>X4X4X4X8XU.8 8 8 8 7 8 8 $.I $.$.e a $.O.K 9 0 2 1 $.$.$.8 * < b.! w w a $.I @.X.< 6 < o aX1X4X4Xm 4X3XD.< 7 4 4 5 4 * X.O.X.X., 8 ",
"# & @.< 3 @.L K * * ~ sXg.6.j *XM iX^ X.$.$.O.$.* 8 , #.$.O.$.0 8 [.0 K J.K.B.F.0 0 ].w 8 * < < 8 }.0 < $.O.X.8 8 1.lXg.q.l *Xm gXV @.$.@.$.@.4 4 , @.@.! I 8 5 ",
"2.2 X.< * 7 J P & X.} x.a.x.&X8XT. .< u 2 0 *.<.8 8 8 0 @.$.$.e w 0 *.9.f.H.b.O.< q a < < < '.3.X.O.0 8 0 @.#.4 :.7.c.s.j.*X5XW.| > 8 0 8 *.:., 5 * 8 X.X.X.7 , ",
"p.Z ! 0 4 4 8 a , =.0.6.6.l.&X:XD.8 < w 2 K { b.1 0 8 6 e @.P e w , b.d.m.;.O.8 8 5 5 2 o. .9X^.O.$.0 w , a s * ;.d.d.a.c.:XW...6 * 8 0 K { B.> 8 6 * e e e 7 * ",
"y.I i < , 3 5 * & ,.m.m.q.Z.V.2 8 5 5 9 T B.J.m.*.I @., , 8 7 w 6 > N.B.F.Z 8 7 w < 0 $.).jX8Xz.$.O.0 8 4 8 8 , ;.m.B.H.d.Z.: w 6 4 2 O.b.f.b.L @.#.- * 4 4 * * ",
"r.X.Z =.,.0 a I X.2 1 2 2 Z 0 * 5 * @.>.m.n.d.m.O.O.*.S.:.@.O.$.d 8 0 0 Z @.e 0 w 0 +.aX$Xz 0XU.T O.<.b.O.$.@.$.P 2 K 0 Z J < w , @.,.m.6.0.b.S O.O.<.O.].@.u a ",
"y.X.P { 4.G L P X.0 0 7 0 e 7 8 8 > *.b.H.d.f.b.X.X.L B.-.,.:.$.@.0 9 0 9 {.P 9 0 I } eX@Xg.rXi.T *.b.n.-.:.{.I P K 8 0 0 2 0 2 , =.4.6.6.d.m.S I L n.{ O.I I 0 ",
"*.P $.;.7.n.{ O.I I @.$.O.O.$.$.$.O.n.m.q.d.m.oX, 8 Z m.n.n.L :.$.}.$.$.:.}.{.:.$.,.H.d.s.d.m.,.:.$.b.d.m.{ T $.$.O.$.$.#.$.$.$.O.Z.f.d.H.n.S.O.@.T m.n.9.Z P $.",
", * ; [ m.n.8.;.L @.$.O.b.-.$.O.-.8.J.f.d.f.{ K 5 6 2 m.d.J.B.-.:.{.$.$.{.0 P O.$.,.f.f.q.J.A 0 0 0 ,.d.d.H.N.U $.#.O.$.X.0 @.$.^ m.q.f.m.] 2 < > C m.0.0.v.L L ",
"5 4 0 X.G 0.0.8.*.I @.L n.8.-.X.] K.f.d.q.-.O.* p 8 0 ,.d.f.J.4.Y T O.$.@.8 K O.O.=.;.,.;.[ D.&.w 0 >.-.d.d.m.,.:.$.$.@.a 8 @.$.O.,.;.*.} 2.1.5 w P >.4.m.0.{ O.",
"* # o.2 1 S.m.n.n.S 2 X.n.q.Z.N U oXZ.Z.oX9 8 5 8 & w , N.F.B.B..XT $.@.5 5 0 O.$.P q , , o sXQ.8 $.0 2 Z.K.K.oX,.O.$.7 8 8 $.I $.- 7 , X U.xX; 0 X., >.n.n.7.,.",
"P ^ pX2., > -.0.m.C < $.n.q.m.q.=.2 C : 2 8 6 w 8 8 6 w 1 1 1 Z Z $.i w 8 w e :.O.O.$.O.).<X0Xi.%.O.e w 0 0 : : @.$.8 8 w 8 I L :.$.].+.pX8XuXB O.@.4 < C 6.9.=.",
"[ t.<Xu.2 1 ] -.,.S 2 $.n.f.d.d.;.O., 0 a > w 8 8 0 K p , 7 8 X.*.$.e 8 8 8 @.$.*.I *.A.%XM qX^.$.O.@.u 6 8 0 G O.X.8 w 8 0 $.I O.#.1.r.9X6XuX^ S @.0 0 Z ;.;.*.",
"R.>X4Xu.@.$.^ ] L $.$.I n.q.f.f.J.F.< a $., w w w P *.{.a w 8 <.N.*.0 w w 8 a $.$.O.} kX0X7X6Xp.O.:.$.+.5 w X.F.,.L 8 w 8 7 $.$.O.[ k.6XM m aXO.I {.@.O.L *.S L ",
"4X1X4Xi.@.@.).yX^ $.$.I n.m.q.f.q.Z.1 0 :.$.d * , =.B.O.0 8 8 ,.H.Z.Z 7 8 @.$.O.O.P.kXg.$X7XqXe.e $.O.$.7 8 Z i.B.b.< 8 e [.}.T S fX=Xg.5X7XyX: X.O.$.$.} aX2.$.",
"c 8X$X4.I L /.8XR.;.O.L n.H.q.{ 8.Z.1 0 $.$.@.P =.n.m.O.X.a X.;.f.f.-.*.I $.$.*.;.L.=Xf.;X9XU.( q a P @.@.a ^ f.H.m.*.Z @.$.$.,.b.=Xx.d.4XT.D.* 8 0 0 @.' 4X-XA.",
"k.*Xr.=.O.Z W.8X6Xi.$.I V.m.B.2 O.oX8 a }.O.O.Y K.J.m.:.$.O.:.n.f.f.J.n.Y :.$.*.B.F.L.J.#XjX2 8 8 1 , 0 $.%.*.H.J.f.L.H L O.O.,.Z.Z.m.l.hXu.8 8 q , 8 @. .4X4X$X",
"@XwX= 4 4 ; Y.5X4Xx.B.L 1 V Z.K 8 , 8 u < I ,.I.a.d.n., @.:.T v.m.f.m.J.B.:.$.L Z.,.N f.f.F.0 8 0 OXO.0 %.:.*.J.H.f.H.m.N.:.*.,.m.- ] J.q.+.< , >.3.; 4 ! 9X4X&X",
"g.P.; 5 5 * 3.t.#Xx.m.L < ^ F.2 8 ].8 w < N.q.f.d.d.n.Z a P T m.J.J.n.m.L.S P :.O.#.> F.8.*.8 8 0 K.8.>.a @.H B.f.n.{ K.8.J $.:.:.8 ] q.] 0 8 < =.n.[ 2 X.C.%X*X",
"5.=.* 4 q 6 6 0 b.5.b.I 8 O. X0 a @.2 0 N 0.f.d.d.d.B.:.e 8 $.b.f.f.Y Y B.0 e {.C 2 1 XX>.1 0 u Z J.J.3.8 @.*.J.d.q.U N.=.8 P K C 5 O.N.8 8 8 < -.0.N.Z 8 * _.E.",
"S , 5 #.X.& 5 * , } S.O.< , , 8 P $.$.,.Z.J.d.a.J.J..X:.K , 1 ;.I.f.,.{.{.0 8 , B.,., 0 8 8 {.a K K.Y :.< 8 L B.6.m.$.$.P 7 , G F.8 w q 8 P X.& *.n.*.L #.* , W ",
"2 5 < a $.0 8 w 8 2 L O.@.a 8 8 P O.$.,.m.Y v.q.f.v.I $.>.>.8 O.v.Z.S @.[.8 $.v.B.<.> 8 p @.%.e 0 J.n.n.{ P 0 <.m.N.e $.$.0 :.8.K., 8 8 P L [.8 =.H.b.O.@.@.w 2 ",
"5 4 * a I $.0 8 6 < 1 $.@.s w 5 0 O.$. XS.2 =.m.B.*.0 $.b.N.8 @.,.F.K w {.Z Y m.J.>.< 8 @.{.O.P 0 oXm.f.f.S u $.N.,.8 @.X.: Z.f.B.> q 8 @.L @.8 <.n.B.=.I I 1 * ",
"3 5 8 0 I L P @.5 X.O.$.1 , 7 8 X.$.{.P > < >.S., < e [.q.b., 9 0 %.a 8 9 XXK.f.f.-.< < X.{.I a 8 , ,.J.K.^ 6 8 K I w 9 O.F.K.f.m.9 8 8 [.I L 7 8 C V.*.I L 8 6 ",
"8 4 * #.@.L O.@.5 I {.e =.;.,.,.$.J I E * u P X.8 0 P e ;.S.8 8 0 }.a e I =.-.{ K.=.8 8 #.}.O.@.@.8 O.G Z.^ 5 8 O.@.8 @.*.-.v.8.B.1 w q $.I I @.p 0 Z X.I $.8 4 ",
"Z & < w @.I $.X.8 0 P K m.f.q.;.$.7 @.e 6 8 X.1.r I [.q =.<.8 8 p ].0 e P $.:.:.<.$.8 w a :.,.*.$.e 8 K  XI w 8 @.@.8 @.@.I I ,.N., w 8 I :.,.I @.8 8 @.a $.8 9 ",
"X.4 3 , < @.@.$.7 5 0 Z.m.f.Z.Z 8 8 t < < > Q.xXO.$.@.8 1 1 w 8 8 , 8 0 8 $.$.}.7 8 8 8 P *.m.-.:.#.e w , 7 w 8 7 w 5 w e {.$.@.; 6 5 7 O.,.S.U O.@.5 8 8 [.8 X.",
"=.@.#.0 * 0 8 8 8 6 Z Z.J.;.K 8 w w 6 i O.`.9XgXY $.$.8 a $.$.$.$.@.0 w 8 i 0 0 7 8 8 $.,.F.L.;.{.$.a e $.[.#.@.[.#.w 8 8 e 8 w w 8 s $.b.q.F.L O.X.8 3 < 0 5 Z ",
"H L @.K K 0 e 0 8 > 2 ,.,.:.e , w 8 0 *.r.2X6X8XG $.:.o.{.$.$.$.$.%.@.8 8 8 w a a 0 J ,.m.J.d.-.:.:.I I $.:.:.:.I O.0 8 w w e a e 0 L Y q.J.N.$.I O.P a 8 0 w ! ",
"-.O.$.,.m.O.@.L $.0 8 8 8 0 $.9 < * *.z.hXl.$XkX^ $.*.F.-.*.$.:.$.*.O.X.8 q P }.%.{.*.Z.f.f.H.v.:.$.n.n.L {.{.$.L O.$.0 5 < @.$.{.O.v.m.H.H.B.U I *.B.-.L O.@.@.",
"*., , =.m.B.:.O.$.@.$.@.$.P :.{.$.^ B.L.f.H.f.P.2 8 A H.J.N.:.{.{.*.+X(.> @.$.:.2 :.B.J.f.f.J.,.{.O.n.K.Z.<.O.*.$.S.xXW u {.}.P 9 S.q.d.d.a.B.L E Y m.n.b.$.@.$.",
"0 * 5 =.6.0.,.,.$.$.O.O.,.-.I {.>.{ m.J.J.d.0.,.8 8 C m.d.J.-.*.O.*.tX*X .|.{.$.P -.J.f.f.K.v.:.@.L v.f.H.n.,.$.O.V.jXt.1.O.{.$.J Z.d.d.d.0.*.X.@.U 0.d.m.*.O.O.",
", 5 * >.m.7.d.b.S O.$.L N.8.*.O.,.m.f.d.H.m.[ , 8 8 0 oXf.J.K.8.=.O.uXqXjX} *.O.$.v.J.f.L.oX1 , , 1 ;.Z.J.f.m.U O.C.5X7X/.] L $.L K.d.m.Z.+.< 6 5 Z B.m.n.K.] O.",
"3 * < 8 B m.d.q.n.O.a $.m.d.N.J G J.f.d.B.B 9 w 8 0 8 K 0.f.d.m.;.1 wX7X7X4XE.*.O.v.J.K.8.J 0 8 e [.@.Z K.d.d.B.L ..9X0X6X8X} $.L J.d.m.Z p 8 7 a @.C ;.q.6.q.;.",
"5 & * 5 < *.b.d.q.L e $.n.f.m.{ *.,.=.,.>.i p w 8 8 5 w O.v.J.K.b.; :X7X6X7X*X).X.*..XN.*.K P P $.).+.0 ,.7.J.K.L | 5X7XM hXc.2.K b.v.<.I 0 K K 1.C., #.;.f.6.;.",
"w 4 8 4 , , ;.B.Z.L , $.m.q.q.m.-.; 1 8 < , 6 w w < 0 7 2 C F.L.N., xX0XzXzXzXhXN C O.$.$.:.{.L ' lX2.7 1 N.Z.Z.O.1.bX6XzX0XhXR.X O.:.$.$.$.O.Q (.aX; , : Z.B.-.",
"5 8 @.@.@.@.L G L O.$.O.m.d.f.d.m..X2 e [., w t w @.$.I %.O.*.-.O.%.! w.0Xj.$X0XP.B.U $.$.:.O.`.0XqXP.$.[.:.] T $.O.o gXc z fXeX.XU +.O.$.O.;.lX9XuXO.$.O.^ L O.",
"4 < ,.L O.O.G.A.L $.#.O.n.f.f.0.d.Z.1 @.$.P a 6 e O.,.I $.=.).;.$.[ 0 [ ;XJ.m.z.q.N.:.:.{.O.P.8XzX7XA.$.$.!.P.I $.$., eX#Xf.p.i.K.U $.O.I b.E.5X6XrX^ :.+.^.,.@.",
"; : B.,.L O.`.-X) O.$.O.B.d.H.F.H.Z.> 0 $.$.0 , 1 { B.O.{.} vXz.,.#.0 ^ J.K.{ : S. X$.$.T 4.hX0X6XhXI.$.O.uX<X] :.$., b.f.K.N >.oXO.$.O.) =X8XM 0XrXS I ;.9Xr.S ",
"*.b.B.Y L K W.M 8XA.O.S m.H.n.B G oX1 e $.$.:.*.B.m.n.O.%.' qXhXtXO.0 ^ H.H.v.8 < e 0 *.P.hXz 3X6Xs.,.O.O.rX7X7XV.@.1 S.f.B.: 8 , < I ^ sX=Xz 0Xk.b.^ $.} 8X8XwX",
"R 6.m.L 8 < W.M 4Xz.,.I ] { Z.2 P #., 0 X.$.*.9.H.H.S.K P _ jX5XuX9.X.i *.m.q.,.u w 7 N.I.eXs.;X3X[ X.0 K wX5XqXP.=.7 O.-.K.{ O.8 < O.v.c.x.g.0Xp.X.2 r _ 9X4X%X",
"m.n.q.L , q !.,XfXj.0.O.< L F.0 q 0 w 5 8 O.b.K.H.H.Z., 8 ! sX9X1Xl.S u 8 n.d.Z.2 6 1 B.s.f.d.;XaX; u r < _.9X7Xc.;.5 1 G n.H.Y 8 8 :.K.d.H.f.fXV.8 < < ~ sX8X=X",
"0.8.6.-.X.4 # B 0.d.B.X.< ^ S.2 0 {.8 8 1 F.f.q.d.J.m.{.i 8 o `.dXJ.C < < B.H.H.1 p < B.d.f.L.l.b.w w w 8 7 _ 9Xj.M., 2 ^ J.J.-.q q ] q.d.f.q.r.O.5 5 5 4 = } 7.",
"q.0.0.] P q 5 8 O.8.b.O.e 0 %.8 e }.@.O.,.m.d.d.a.d.q.:.K X.u 1.p.Z.*.a < O.+.%.8 e L B.d.f.H.-.I 8 a @.P e X.~.Z.B.#.8 a O.^ X.< @.-.q.q.f.q.^ 0 8 a 8 5 4 ! ] ",
"6.8.;.*.$.q 8 5 w [ -.I q 7 < 6 e :.$.-.B.n.m.f.f.m.N.O.O.$.0 8 X.S.*.#.p 0 a 8 p X.*.,.m.b.b.O.e 8 @.$.{.e 0 5 >.S.$.7 w 0 8 e q #.=.B.V.S.<.8 < 8 $.0 < * , Z ",
"0.9.; P X.$.< 5 w < 1 O.[.s t 6 0 O.O.,.Z.: G H.K.=.0 $.O.$.#.a 8 , 8 w 8 X.O.^ O.+.$.0 0 2 0 8 t 8 X.I {.{.@.8 < 8 7 , X.O.O.$.O.L Z , < < < 6 8 w @.$.P 4 * 4 ",
"] Z 4 a @.X.P a 5 p a $.P 8 8 6 a $.$.I ^ 8 =.f.A 0 0 {.:.O.{.0 w q 8 ( W.(.:X%X%XW.+X2 8 8 8 8 y 6 @.$.$.$.$.q 6 6 ; _.W.-XwX=X-XW.D.q w 8 8 6 5 9 @.$.E P 8 8 ",
"P 7 8 0 P L $.@.4 X.$.#.: C 2 2 0 @.O.@.7 8 $.XX1 , w $.O.:.$.e y w Q y.kXhX0X5X7X8XcXr 8 0 2 8 p p @.O.O.:.@.8 w > g aX:XdX0X5X7X<XD.8 < < 8 4 5 8 @.O.I [.8 8 ",
"# 8 #.8 - $.I P 4 K O.; S.B.l.F. X, $.a w 8 , ; 8 P [.1 @.$.$.a 6 > tXrXa.l @XqXqX`.^ O.%.#.$.0 8 w @.{.$.{.@., < 1.cXl.q.l 4X6XgXg O.$.@.$.P q 5 w #.$.K P < 8 ",
" .X.@.0 , @.@.@.8 , Z <.m.6.q.V 2 < 8 w q < C.(.@.@.$., w 0 O.0 i } x.x.H.2X8XjX .o.0 e e J XXO.< w 8 0 0 @.@.< =.m.x.d.x.3X5XW.[ 2 8 0 e *. X, 4 * < X.I $.8 * ",
"p.K K 0 , a a 0 4 5 0 B.d.7.,.0 t t w w 0  .-X8XO.$.I 8 w 8 @.e I q.f.q.d.;X:X'.r 5 u u X.*.q.=.0 a w 8 w a a , ;.q.q.f.k.;XW...p 5 w 2 ! 8.N.1 e p * 0 K P 4 5 ",
"p.K @.1 # 7 * , 7 4 2 Z.m.,., < 6 y < 2 ) kX0XfX^ O.@.- 8 w 8 7 Z F.H.H.J.Z.-.> 8 6 8 O.-.J.q.,.$.$.9 7 8 8 7 , N.B.H.Z.Z.Z.: w 5 5 0 ] B.q.9.S @.@., * 4 * & 8 ",
"y.S P >.<.X.@.@.].w < > : a X.8 5 8 X.G.tXx.@XfXG I :.S.:.$.[.$.@.Z 1 C C C 2 8 6 a O.oXm.d.f.-.$.$.<.S.$.$.$.$.J C Z J Z Z * 6 8 X.,.N.m.n.m.S @.O.<.$.P ].a u ",
"b.C K { q.D O.@.@.0 r =.2 i @.0 8 , >.i.;Xa.#XeXS I ,.q.b.:.I $.$.0 0 e a 0 u a e O.{ m.f.d.f.[ @.I 9.9.*.:.$.$.].0 8 e 0 0 0 0 < ,.8.m.n.d.b.i s S m.{ Y K @.P ",
"O.X.X.-.6.7.*.A I I  .lXQ 2 $.O.X.; S.m.f.d.q.S.$.$.*.f.q.B.G U {.$.$.$.O.$.[.$.:.,.H.d.d.f.Z.O.6 2 -.H.B.-.O.{.{.$.$.O.O.O.O.^ S B.d.d.d.n.N., , C n.H.{ A K O.",
", & ; *.8.0.8.,.S L } 5X<X!.L O.$.Z B.m.n.f.{ 0 8 8 C m.f.m.m.*.O.$.:.-.B.:.T O.B.m.m.f.f.F.C 2 6 , ,.d.H.H.M.I $.O.L N.M.O.O.-.n.d.0.0.0.G 2 * 5 9 b.R 0.v.G K ",
"o.& u X.] q.m.8.] X.[ 8X4X%XA.*.@.O.m.d.H.{ X.< & u K *.m.H.B.Y :.@.$.*.B.v.:.I m.6.H.f.b.>.1 8 8 < $.{ f.d.n.H O.@.L B.n.=.L ] d.6.q.q.] K 5 5 5 8 *.v.6.b.{ O.",
" .* X.8 , ;.8.0.m.B ~ 5Xm 4X8X` X.O.B.n.F.1 < 8 8 i ! 0 1.H.J.d.v.8 @.-.f.d.-., S.B.B.Z.:.7 8 5 w 5 8 0 F.H.d.H.S 8 $.B.q.m.: S B.B.n.b.0 5 5 5 4 4 & *.0.9.b.} ",
"e.0 o.2 # > H 8.9.Z ~ 5Xm m m <X~., $.T L X.@.@.@.^.yX; < K m.J.,., X.{ d.d.q.N.N 1 9 2 8 w 6 5 5 8 5 < 1 b.a.Z.K 8 $.B.d.m.Z.*.> 8 1 > 4 5 5 5 5 4 5 8 , ; ; < ",
"r.K K 0 u r O.Y -.K X.U.4Xn $X4XT.V $.I I O.[.*.z.*X<XZ r 0 <.N.,.K @.*.f.m.f.m.] X.8 a 0 w 5 6 < 0 @.u 0 >.v.;.$.Z L B.d.6.7.{ O.& < 2 4 * 5 5 < 8 p * * & r ! ",
"u.Z P K i X.O.D C I @.& wX#Xh -X=Xq.L O.$.L I ' 8X6X<XO.o.$.*.*.O.$.I -.q.m.J.f.Z.=., @.X.7 q 8 < *.$.@.o.] ] L [.O.S n.0.d.0.d.m., i X., < 5 4 Z O.@.< 3 4 -.{ ",
"| & a Z Z K _.W.! X.a # 9.6.f.B Q b.L O.O.L P.8X5X4XrX*.*.` sXC.X.I I { m.f.q.f.f.[ , $.#.@.w 4 0 B.-.O.^ wXtXS O.$.S n.0.q.m.6.B.7 8 {.@.8 5 & ^ ;.K < 3 & { 4.",
"r & 8 8 1 ! U.%XY.[ P & { h b.8 u X.Z 0 O.R.k.=X0X%Xx.L %.` gX-Xp.O.O.[ 6.d.9.Q m.*., $.O.$.@.^ -.m.Y I O.%X8X/.<.$.S 0.0.m.^ { q., 8 O.K P Z *.{ 9.K 2 a 2 { 4.",
"% $ @ $ * ! Y.>X*Xk Z & <.m.m.: , * 5 0 G tX=Xs.4XE.b.$.[.} 8X5X*XG L ,.oXm.] ; XX|.8 ].#.O.S b.Z.f.,.$.O.-X6X8X5.S L B.b.m.: O.XX& i @.P L ] n.0.{ 0 I @.0 { 4.",
"3 & ,.P $ . U.<X*Xg.} * & C 7.9.:.4 6 O.q.7.6.f.1Xe., * 5 ! gX4X3Xq.] I = 9.-.7 , * 6 4 0 ^ Z.q.q.q.A 7 , (.8X1Xl.b.O., O.m.: 4 = & * 8 P -.9.4.0.-.= 2 a K ` 4.",
"% , { [ ! # ~ e.<Xk { * & K 8.6.*.* , Z a.0.6.0.E.[ 6 * 5 < y.z.c.7.*.P 1 b.*.7 0 e q 4 X.b.q.q.d.6.*.e 4 =.e.E.s.b.L , X.b.X e e , 3 , ,.8.6.4.8.{ 9 < 8 X.H 4."
};
