/* XPM */
static char *_640178766298[] = {
/* columns rows colors chars-per-pixel */
"80 80 43 1 ",
"  c #6DD74E",
". c #6AD949",
"X c #72DE4A",
"o c #79DF4B",
"O c #6ED650",
"+ c #71D554",
"@ c #74DA51",
"# c #7ADD52",
"$ c #77D758",
"% c #75E14C",
"& c #7BE44D",
"* c #7EE94E",
"= c #7CE352",
"- c #7FE950",
"; c #82DC54",
": c #83E44C",
"> c #89E64D",
", c #82EB4F",
"< c #8DEA4E",
"1 c #93EC4E",
"2 c #9AEE4F",
"3 c #87F14F",
"4 c #93F14F",
"5 c #9DF24F",
"6 c #82E454",
"7 c #8BE454",
"8 c #82EB50",
"9 c #8EED50",
"0 c #80E358",
"q c #86E859",
"w c #92E556",
"e c #95ED50",
"r c #9AEE51",
"t c #9FEA58",
"y c #85F050",
"u c #95F251",
"i c #9DF151",
"p c #A0F14F",
"a c #A4F452",
"s c #A9F653",
"d c #ADF953",
"f c #AEF558",
"g c #B2FC54",
/* pixels */
".........-*%-%%....*&.::4&<X<.......o.......=%%*&%y&..........X.....<:a:22o.....",
"......X..*&&-%*.....4.:&4%<>X..:X..o2.......%,.**.-......X...X%.......1%>....%..",
".%...&...%&%-.......4.*:4&<<X..:1X.2:...X&...,%*&%8...2>.Xo..,..............%3X.",
".%X.X-......%...*%..%.**<%>%....po:d:...&&....X&=X...Xd2..,.%,.....%.........%..",
".%*.,*.....X%...--............XXps>2.oo................X..8*&%.....%*..%%.......",
"%%*X*.X%...ad.................&1os>1:d1..........::.....%&.**%%8%...&..8%.....:.",
"%%*%*X**...><.*u.....&%.....%..2:s>1p<...........dd......,.*&%8%....%%&8.....:d.",
" **X-%*.......egX....%y%.......5:s>2aX.......X1..&%......8%*&%8.....&%8 .....2<.",
"X&*%*oX........X......%%.......1:s>12....aX..aX.....&,...*.-&%-.....XX&....X.2::",
".%*%:XX..%.............&X.%X..X. 1:>.....ip.&rX.....%*.....%%X.............2o2:s",
"....%.......1>.....%y&.*%.*..............Xg>ao....................X>.......:p2:s",
"%<.........1do......%-%*%*&...............12rX....................2a....X..or2:p",
".X.....X..Xp:........%&-%*......o>........&2ro....9<..XX..........aoX....X..X..o",
"....:..1:.1:.X:X...&..**%*.*.....*,.,,............X4,%4:........o.ao1:...1X.....",
"....>...s.2:Xpao...* %*&%8%&...X..*&*...%........*.&:4*....X...X1os>r..X........",
".,X.....d12>2so....*XX*&%8%%...*,X*&%.........o..4<:,1.....,&...e>s:2..oX..X%.&*",
",*....X.:pr>ao........o&X*......*%-%%............X4&*1.....,....<:p:1..X&..:%..,",
"8.....<>ope>a.o2X...............*.*&X......%%.....<::1X....*X&X...X.....%%%,...X",
",X8X...a:p2>d.1>.........%....>...%%...&...%3......%o:..%%X*%X.....%....&%,%...X",
",&*....a&ae>s.1>........&*....*.......%3%.%.*X...........,X*&X.X%..X....%%,..<XX",
",%%....X%ie:5.XX........,X......4X........%%*XX%.........*X%%%.........1.....o..",
"*.................3%....,.%%.......%X.....%&*X&.................&...........X...",
"....%X...........X&X.X%X,X%....o>X........%%*X&...>&...........%4<.X:X.....X>...",
".&:.8&................%X,X*....:s4.>5......X%.X...1d:.2<........%4%<4X..%%......",
".XX..X....X:X.........o%*X*.....%d:d1............o.21paX......X,.4%4.....*X..%X.",
".....XX....&8.&-...1o.........:2Xs>2....1........p&<<p%...%%..X5,4%4.....*%.%%..",
"X:..X1:... .-%-X..............&s>a>1..X..........1s<1pX...dp...%>9%9.....%, *%..",
"odo.op...%,X-X-.......X........2:s>2..X......%....s<1aX...<:...X%9&9...&%.,%,.&.",
".21.po....&%*%%...>s&......&,..ooa:1....&...%X....o<>pX..........X.X...%,%,%*%%.",
".>d:a.....%%*%*....2d......%,............,.X,...........................%%*X*&..",
"..r:a.......&.%.....2>..&................,%%,..............%X.%,X...XX..%%*%*&X.",
"..:o>............1:.Xp.>>......XX.......X%,&%.%o...........&*X,%........XX*%*%..",
".................1g:Xs.p%..%X..%:....2..*.8&%*8...*.........&%-.%X........X.X...",
".-%.....-%........1d:a>do......., ...X..*X,%%8....%&..X*....%%-%yX...uf......%,.",
"%*%....--.......:..p;p1>.:....&X*X......*X8%%-.....& .8%....&%-%&....9i......o%.",
"...%..%%.....%..1>.2:s111<....%&*.&X....%.,&%%.....%%%8.....&%y.X..%......><....",
"....*.*X.X*X....Xa.posw>pX....X%*X*................%%*%.......%....X......sd....",
"....*.*X y&......p.p:a1>pX....X%=X&...........&d:..%%*...........X........XX....",
"....**&%-&....oX...1or::.............X1.......%a:................%3 ..X......oX.",
"..%..*&%-..%..&o..........&X.......X....%.................9,..%...%-X8*.o&..o1o.",
"...*%*&%,.%%.........,%...,%.............&...%...........9d:..X.%X+0==  or# 7wO ",
"...*X**.8.&%..%...X..,&...X..........&..X*..*X....... ...ao.....oq#0##+++t;;fw++",
"...%.**%,.%X.....%,X............%s.......**.*X...,:..2:.r:.X:X...0X6#%+$#wf;t ;;",
".....%%.&........6%...o1X...>>..a5.....%..,&*.%..%o.. s.2:.pao...#@&=% #tos;t:gw",
"&............&..&X....>go...:d.>gX.....&8%,%%*%......Xd12>pso......X....><s:i2e.",
"......&......%%.,..&*.X&.....d2r1.......*X*&%*....... :p1:so.X..........1>s:i5&.",
"..X%.....&<..%&.,.*8......:1Xo2r:oo.....*%,%%,......>>:p2:s X2X.XX......>>a:42%.",
"..*4,.%*......,%8%,X.......22:pr:d1.....%.*&%%.......p:p2:a.2:............<o:...",
"...:4&4<....%.%%*%*..%.....%d:p2>p........o......%...a*a2:s.2>......&X..........",
".%:.4&>.....X&&%*%%.*X......p:p2>p...................%or2:a.X.......&-..........",
".%4*4&>......*%%*%&.*........o2<&......%,X..Xo.......................&%......*y.",
"..>&4&:......%&%*%&.&...X..........X...%*...pgX...%X.........XX...%%..-.X&...%-.",
"..XX4*:...:&..%.%.X.....X..,o......X........o>....&3X.*%.....,,...%y%.y.%%......",
"....o.X...X..........................X>............&%%y...%...X....%8%- -%......",
"..............%.......XX.....,....:>.X4,...X.....&X%%,X.............%%8X*....%..",
"....%....XX..&:...X...:%.....,*.......&9.X5&.....%*%&*........X..%%.-%8X*%&.....",
"........&>X......X:X.&<....%.%&........<&>1.......,%%,...%...%%...*.&%8X&*.....2",
"%3......,X........:,.4>.....*.*.%......:*4o.:X....%%%,...-*..*....,.&%-o**.....s",
"aX..*..*...X.....X&5X4.XX...*%*&%....94,*4.<*.............*.%%......%X*.&...XX.d",
"s...X*.-X.**..%..<%<&1X11...,.*&X....%4::4%4%.............**&%..............:1Xs",
"d....-%-X**X.....%<1%4:1....X.%X.....X9,*2o<...X%.....2>...-&%.....X:........5&d",
"&....*%-X*X......%<<%4:&..............o,*e.X...%,X....d5........%..Xo........2:p",
"...&X%&*X*..%....%,<%1*&..............................%...............e........X",
"....-%%*X*.*.......:o<...........X..&:..X.........X%..................,<........",
"....*%%*X*.:...............X%...*,..pd..&&...%....o1&..o%.......&X..%o.u........",
"....X%&,X*....>&.......o=.%,&...Xo..::...,..%%.....<<.X2o..X&X.,*...X,X4.:X.....",
"..............XiX..1X...**%&.............,&.*X.....:do:p....&,%,.....<%1*:...%X.",
".X.............a>.1>.....8%&X-...:%....X.X,%*X...&%X2>s2XX...*.,X*X..1%4,*...%3.",
"%*%............>doa:.....-%%-&...gp...X*&X,%%%%..1d:p:so4o...*%*%*...*X&%%....3%",
"*&...........a>.s:aoe...X-%%-....&:.....*X,%%,X...1p2>s>1....-.*&X............%*",
",..&...5a....>d:s:2r:....-%%............*X*&%*....:22:s><....*%*...............*",
"*X*X...4p.....2>s>2po..............X....&X*%%*....o12>a:,...........XX...%..%*%*",
"3%,X......X...4>a>22X........X:....:<.....%.........:o1.....X....%...........&%*",
"*%%...........%Xs:2:X.%X......:....X4%......................&*...%.......>X..*X*",
"*....:,.........oXX......%u*.....X:.9..X....................X-X.....>:..><.....:",
"............ %...........u,.......*>4X&:.............oX....%.-......X2o.2>......",
"...%%...*%..*........%..*,........&:4%<...:.......,..sd....%%*X%X....51:d:......",
"...**...X&.%y.....X..>:.1..::.%:..&>1%9...:..&%..:%..:<....%%*X*...X::d:p.1>....",
"....X....3%*%........%<.1X%4:.XX...X%.X......%-.%,.....X8X.o&*X*....e:s:21d:....",
"X%.....&X%%*.%y%.....%4:1%5:...........%%.....8&*X.....X,...........e>s:pp:...o."
};
